<?xml version="1.0" encoding="UTF-8"?>
<svg xmlns="http://www.w3.org/2000/svg" xmlns:xlink="http://www.w3.org/1999/xlink" version="1.1" viewBox="0 0 105.7 151.4">
  <defs>
    <style>
      .cls-1 {
        fill: url(#New_Gradient_Swatch_4-2);
      }

      .cls-2 {
        fill: url(#New_Gradient_Swatch_1-2);
      }

      .cls-3 {
        fill: #f8af00;
        font-size: 50px;
      }

      .cls-3, .cls-4, .cls-5, .cls-6, .cls-7, .cls-8, .cls-9, .cls-10 {
        isolation: isolate;
      }

      .cls-3, .cls-8 {
        font-family: TitilliumWeb-Regular, 'Titillium Web';
      }

      .cls-4 {
        fill: url(#radial-gradient);
        opacity: .8;
      }

      .cls-11 {
        fill: #be6f68;
      }

      .cls-12 {
        stroke: url(#linear-gradient-17);
      }

      .cls-12, .cls-13, .cls-14, .cls-15, .cls-16, .cls-17, .cls-18, .cls-19, .cls-20 {
        fill: none;
      }

      .cls-12, .cls-13, .cls-14, .cls-15, .cls-16, .cls-17, .cls-18, .cls-20 {
        stroke-miterlimit: 10;
      }

      .cls-12, .cls-20 {
        stroke-width: 2px;
      }

      .cls-21 {
        fill: url(#linear-gradient-8);
      }

      .cls-22 {
        fill: url(#linear-gradient-7);
      }

      .cls-23 {
        fill: url(#linear-gradient-5);
      }

      .cls-24 {
        fill: url(#linear-gradient-6);
      }

      .cls-25 {
        fill: url(#linear-gradient-9);
      }

      .cls-26 {
        fill: url(#linear-gradient-4);
      }

      .cls-27 {
        fill: url(#linear-gradient-3);
      }

      .cls-28 {
        fill: url(#linear-gradient-2);
      }

      .cls-29 {
        fill: #1c1c1c;
      }

      .cls-13, .cls-17 {
        stroke: #fff;
      }

      .cls-30 {
        fill: url(#linear-gradient);
      }

      .cls-31 {
        fill: #ff0bb5;
      }

      .cls-14 {
        stroke: url(#linear-gradient-55);
      }

      .cls-15 {
        stroke: url(#linear-gradient-38);
      }

      .cls-5 {
        font-family: TitilliumWeb-BoldItalic, 'Titillium Web';
        font-style: italic;
        font-weight: 700;
      }

      .cls-5, .cls-7 {
        font-size: 18px;
      }

      .cls-32 {
        fill: #c6c6c6;
      }

      .cls-33 {
        fill: #61ff6c;
      }

      .cls-16 {
        stroke: #f6a500;
        stroke-linecap: round;
        stroke-width: .3px;
      }

      .cls-17, .cls-18 {
        stroke-width: .5px;
      }

      .cls-34 {
        fill: #262626;
      }

      .cls-7, .cls-8, .cls-9 {
        fill: #fff;
      }

      .cls-7, .cls-9 {
        font-family: TitilliumWeb-Light, 'Titillium Web';
        font-weight: 300;
      }

      .cls-35 {
        fill: url(#linear-gradient-43);
      }

      .cls-36 {
        fill: url(#linear-gradient-40);
      }

      .cls-37 {
        fill: url(#linear-gradient-41);
      }

      .cls-38 {
        fill: url(#linear-gradient-42);
      }

      .cls-39 {
        fill: url(#linear-gradient-49);
      }

      .cls-40 {
        fill: url(#linear-gradient-48);
      }

      .cls-41 {
        fill: url(#linear-gradient-45);
      }

      .cls-42 {
        fill: url(#linear-gradient-47);
      }

      .cls-43 {
        fill: url(#linear-gradient-44);
      }

      .cls-44 {
        fill: url(#linear-gradient-46);
      }

      .cls-45 {
        fill: url(#linear-gradient-10);
      }

      .cls-46 {
        fill: url(#linear-gradient-11);
      }

      .cls-47 {
        fill: url(#linear-gradient-12);
      }

      .cls-48 {
        fill: url(#linear-gradient-13);
      }

      .cls-49 {
        fill: url(#linear-gradient-19);
      }

      .cls-50 {
        fill: url(#linear-gradient-14);
      }

      .cls-51 {
        fill: url(#linear-gradient-21);
      }

      .cls-52 {
        fill: url(#linear-gradient-20);
      }

      .cls-53 {
        fill: url(#linear-gradient-22);
      }

      .cls-54 {
        fill: url(#linear-gradient-23);
      }

      .cls-55 {
        fill: url(#linear-gradient-28);
      }

      .cls-56 {
        fill: url(#linear-gradient-25);
      }

      .cls-57 {
        fill: url(#linear-gradient-32);
      }

      .cls-58 {
        fill: url(#linear-gradient-31);
      }

      .cls-59 {
        fill: url(#linear-gradient-33);
      }

      .cls-60 {
        fill: url(#linear-gradient-30);
      }

      .cls-61 {
        fill: url(#linear-gradient-15);
      }

      .cls-62 {
        fill: url(#linear-gradient-16);
      }

      .cls-63 {
        fill: url(#linear-gradient-18);
      }

      .cls-64 {
        fill: url(#linear-gradient-35);
      }

      .cls-65 {
        fill: url(#linear-gradient-34);
      }

      .cls-66 {
        fill: url(#linear-gradient-36);
      }

      .cls-67 {
        fill: url(#linear-gradient-27);
      }

      .cls-68 {
        fill: url(#linear-gradient-24);
      }

      .cls-69 {
        fill: url(#linear-gradient-26);
      }

      .cls-70 {
        fill: url(#linear-gradient-29);
      }

      .cls-71 {
        fill: url(#linear-gradient-37);
      }

      .cls-72 {
        fill: url(#linear-gradient-39);
      }

      .cls-73 {
        fill: url(#linear-gradient-57);
      }

      .cls-74 {
        fill: url(#linear-gradient-58);
      }

      .cls-75 {
        fill: url(#linear-gradient-59);
      }

      .cls-76 {
        fill: url(#linear-gradient-53);
      }

      .cls-77 {
        fill: url(#linear-gradient-54);
      }

      .cls-78 {
        fill: url(#linear-gradient-56);
      }

      .cls-79 {
        fill: url(#linear-gradient-50);
      }

      .cls-80 {
        fill: url(#linear-gradient-51);
      }

      .cls-81 {
        fill: url(#linear-gradient-52);
      }

      .cls-82 {
        fill: url(#linear-gradient-67);
      }

      .cls-83 {
        fill: url(#linear-gradient-68);
      }

      .cls-84 {
        fill: url(#linear-gradient-69);
      }

      .cls-85 {
        fill: url(#linear-gradient-63);
      }

      .cls-86 {
        fill: url(#linear-gradient-64);
      }

      .cls-87 {
        fill: url(#linear-gradient-65);
      }

      .cls-88 {
        fill: url(#linear-gradient-66);
      }

      .cls-89 {
        fill: url(#linear-gradient-60);
      }

      .cls-90 {
        fill: url(#linear-gradient-61);
      }

      .cls-91 {
        fill: url(#linear-gradient-62);
      }

      .cls-92 {
        fill: url(#linear-gradient-71);
      }

      .cls-93 {
        fill: url(#linear-gradient-70);
      }

      .cls-18 {
        stroke: #000;
      }

      .cls-94 {
        fill: url(#New_Gradient_Swatch_3);
      }

      .cls-95 {
        fill: url(#New_Gradient_Swatch_4);
      }

      .cls-96 {
        fill: url(#New_Gradient_Swatch_1);
      }

      .cls-19 {
        stroke-miterlimit: 10;
        stroke-width: 2px;
      }

      .cls-19, .cls-20 {
        stroke: #777;
      }

      .cls-97 {
        fill: #f6a500;
      }

      .cls-98 {
        fill: #0a0a0a;
      }

      .cls-8, .cls-9 {
        font-size: 12px;
      }

      .cls-9 {
        letter-spacing: .4em;
      }

      .cls-10 {
        fill: #777;
        font-family: Avenir-Medium, Avenir;
        font-size: 40px;
        font-weight: 500;
      }
    </style>
    <linearGradient id="linear-gradient" x1="-12.9" y1="-1273" x2="-1.2" y2="-1222.7" gradientTransform="translate(0 3019.7)" gradientUnits="userSpaceOnUse">
      <stop offset="0" stop-color="#f8af00"/>
      <stop offset=".9" stop-color="#ee7d00"/>
    </linearGradient>
    <linearGradient id="linear-gradient-2" x1="3.4" y1="-1276.9" x2="15.2" y2="-1226.6" gradientTransform="translate(0 3019.7)" gradientUnits="userSpaceOnUse">
      <stop offset="0" stop-color="#f8af00"/>
      <stop offset=".9" stop-color="#ee7d00"/>
    </linearGradient>
    <linearGradient id="linear-gradient-3" x1="17.4" y1="-1280.2" x2="29.2" y2="-1229.9" gradientTransform="translate(0 3019.7)" gradientUnits="userSpaceOnUse">
      <stop offset="0" stop-color="#f8af00"/>
      <stop offset=".9" stop-color="#ee7d00"/>
    </linearGradient>
    <linearGradient id="linear-gradient-4" x1="35.2" y1="-1284.3" x2="47" y2="-1234" gradientTransform="translate(0 3019.7)" gradientUnits="userSpaceOnUse">
      <stop offset="0" stop-color="#f8af00"/>
      <stop offset=".9" stop-color="#ee7d00"/>
    </linearGradient>
    <linearGradient id="linear-gradient-5" x1="51.4" y1="-1288" x2="63.1" y2="-1237.7" gradientTransform="translate(0 3019.7)" gradientUnits="userSpaceOnUse">
      <stop offset="0" stop-color="#f8af00"/>
      <stop offset=".9" stop-color="#ee7d00"/>
    </linearGradient>
    <linearGradient id="linear-gradient-6" x1="63.1" y1="-1290.7" x2="74.9" y2="-1240.4" gradientTransform="translate(0 3019.7)" gradientUnits="userSpaceOnUse">
      <stop offset="0" stop-color="#f8af00"/>
      <stop offset=".9" stop-color="#ee7d00"/>
    </linearGradient>
    <linearGradient id="linear-gradient-7" x1="75" y1="-1293.6" x2="86.8" y2="-1243.3" gradientTransform="translate(0 3019.7)" gradientUnits="userSpaceOnUse">
      <stop offset="0" stop-color="#f8af00"/>
      <stop offset=".9" stop-color="#ee7d00"/>
    </linearGradient>
    <linearGradient id="linear-gradient-8" x1="94.4" y1="-1298.1" x2="106.2" y2="-1247.7" gradientTransform="translate(0 3019.7)" gradientUnits="userSpaceOnUse">
      <stop offset="0" stop-color="#f8af00"/>
      <stop offset=".9" stop-color="#ee7d00"/>
    </linearGradient>
    <linearGradient id="linear-gradient-9" x1="466.7" y1="-1221.6" x2="476.5" y2="-1179.6" gradientTransform="translate(0 3019.7)" gradientUnits="userSpaceOnUse">
      <stop offset="0" stop-color="#f8af00"/>
      <stop offset=".9" stop-color="#ee7d00"/>
    </linearGradient>
    <linearGradient id="linear-gradient-10" x1="480.3" y1="-1224.7" x2="490.2" y2="-1182.8" gradientTransform="translate(0 3019.7)" gradientUnits="userSpaceOnUse">
      <stop offset="0" stop-color="#f8af00"/>
      <stop offset=".9" stop-color="#ee7d00"/>
    </linearGradient>
    <linearGradient id="linear-gradient-11" x1="491.9" y1="-1227.3" x2="501.7" y2="-1185.4" gradientTransform="translate(0 3019.7)" gradientUnits="userSpaceOnUse">
      <stop offset="0" stop-color="#f8af00"/>
      <stop offset=".9" stop-color="#ee7d00"/>
    </linearGradient>
    <linearGradient id="linear-gradient-12" x1="506.7" y1="-1230.9" x2="516.5" y2="-1189" gradientTransform="translate(0 3019.7)" gradientUnits="userSpaceOnUse">
      <stop offset="0" stop-color="#f8af00"/>
      <stop offset=".9" stop-color="#ee7d00"/>
    </linearGradient>
    <linearGradient id="linear-gradient-13" x1="520.3" y1="-1234.2" x2="530.1" y2="-1192.3" gradientTransform="translate(0 3019.7)" gradientUnits="userSpaceOnUse">
      <stop offset="0" stop-color="#f8af00"/>
      <stop offset=".9" stop-color="#ee7d00"/>
    </linearGradient>
    <linearGradient id="linear-gradient-14" x1="530" y1="-1236.2" x2="539.8" y2="-1194.3" gradientTransform="translate(0 3019.7)" gradientUnits="userSpaceOnUse">
      <stop offset="0" stop-color="#f8af00"/>
      <stop offset=".9" stop-color="#ee7d00"/>
    </linearGradient>
    <linearGradient id="linear-gradient-15" x1="539.9" y1="-1238.7" x2="549.7" y2="-1196.8" gradientTransform="translate(0 3019.7)" gradientUnits="userSpaceOnUse">
      <stop offset="0" stop-color="#f8af00"/>
      <stop offset=".9" stop-color="#ee7d00"/>
    </linearGradient>
    <linearGradient id="linear-gradient-16" x1="556" y1="-1242.5" x2="565.8" y2="-1200.6" gradientTransform="translate(0 3019.7)" gradientUnits="userSpaceOnUse">
      <stop offset="0" stop-color="#f8af00"/>
      <stop offset=".9" stop-color="#ee7d00"/>
    </linearGradient>
    <linearGradient id="linear-gradient-17" x1="281.7" y1="-1100" x2="281.7" y2="-1052" gradientTransform="translate(0 3019.7)" gradientUnits="userSpaceOnUse">
      <stop offset="0" stop-color="#f8af00"/>
      <stop offset=".9" stop-color="#ee7d00"/>
    </linearGradient>
    <linearGradient id="linear-gradient-18" x1="226.7" y1="-1139.7" x2="341.7" y2="-1139.7" gradientTransform="translate(0 3019.7)" gradientUnits="userSpaceOnUse">
      <stop offset="0" stop-color="#f8af00"/>
      <stop offset=".9" stop-color="#ee7d00"/>
    </linearGradient>
    <radialGradient id="radial-gradient" cx="1535.1" cy="-587.1" fx="1535.1" fy="-587.1" r="478" gradientTransform="translate(0 3019.7)" gradientUnits="userSpaceOnUse">
      <stop offset="0" stop-color="#000" stop-opacity=".5"/>
      <stop offset="1" stop-color="#231f20" stop-opacity="0"/>
    </radialGradient>
    <linearGradient id="linear-gradient-19" x1="363.5" y1="-1021.5" x2="376.2" y2="-967.2" gradientTransform="translate(0 3019.7)" gradientUnits="userSpaceOnUse">
      <stop offset="0" stop-color="#f8af00"/>
      <stop offset=".9" stop-color="#ee7d00"/>
    </linearGradient>
    <linearGradient id="linear-gradient-20" x1="381.1" y1="-1025.6" x2="393.8" y2="-971.2" gradientTransform="translate(0 3019.7)" gradientUnits="userSpaceOnUse">
      <stop offset="0" stop-color="#f8af00"/>
      <stop offset=".9" stop-color="#ee7d00"/>
    </linearGradient>
    <linearGradient id="linear-gradient-21" x1="396.2" y1="-1029.2" x2="408.9" y2="-974.8" gradientTransform="translate(0 3019.7)" gradientUnits="userSpaceOnUse">
      <stop offset="0" stop-color="#f8af00"/>
      <stop offset=".9" stop-color="#ee7d00"/>
    </linearGradient>
    <linearGradient id="linear-gradient-22" x1="415.5" y1="-1033.7" x2="428.2" y2="-979.3" gradientTransform="translate(0 3019.7)" gradientUnits="userSpaceOnUse">
      <stop offset="0" stop-color="#f8af00"/>
      <stop offset=".9" stop-color="#ee7d00"/>
    </linearGradient>
    <linearGradient id="linear-gradient-23" x1="433" y1="-1037.8" x2="445.7" y2="-983.4" gradientTransform="translate(0 3019.7)" gradientUnits="userSpaceOnUse">
      <stop offset="0" stop-color="#f8af00"/>
      <stop offset=".9" stop-color="#ee7d00"/>
    </linearGradient>
    <linearGradient id="linear-gradient-24" x1="445.6" y1="-1040.7" x2="458.3" y2="-986.4" gradientTransform="translate(0 3019.7)" gradientUnits="userSpaceOnUse">
      <stop offset="0" stop-color="#f8af00"/>
      <stop offset=".9" stop-color="#ee7d00"/>
    </linearGradient>
    <linearGradient id="linear-gradient-25" x1="458.4" y1="-1043.8" x2="471.1" y2="-989.4" gradientTransform="translate(0 3019.7)" gradientUnits="userSpaceOnUse">
      <stop offset="0" stop-color="#f8af00"/>
      <stop offset=".9" stop-color="#ee7d00"/>
    </linearGradient>
    <linearGradient id="linear-gradient-26" x1="479.4" y1="-1048.7" x2="492.2" y2="-994.3" gradientTransform="translate(0 3019.7)" gradientUnits="userSpaceOnUse">
      <stop offset="0" stop-color="#f8af00"/>
      <stop offset=".9" stop-color="#ee7d00"/>
    </linearGradient>
    <linearGradient id="linear-gradient-27" x1="364.5" y1="-1021.5" x2="377.2" y2="-967.2" gradientTransform="translate(0 3019.7)" gradientUnits="userSpaceOnUse">
      <stop offset="0" stop-color="#f8af00"/>
      <stop offset=".9" stop-color="#ee7d00"/>
    </linearGradient>
    <linearGradient id="linear-gradient-28" x1="382.1" y1="-1025.6" x2="394.8" y2="-971.2" gradientTransform="translate(0 3019.7)" gradientUnits="userSpaceOnUse">
      <stop offset="0" stop-color="#f8af00"/>
      <stop offset=".9" stop-color="#ee7d00"/>
    </linearGradient>
    <linearGradient id="linear-gradient-29" x1="397.2" y1="-1029.2" x2="409.9" y2="-974.8" gradientTransform="translate(0 3019.7)" gradientUnits="userSpaceOnUse">
      <stop offset="0" stop-color="#f8af00"/>
      <stop offset=".9" stop-color="#ee7d00"/>
    </linearGradient>
    <linearGradient id="linear-gradient-30" x1="416.5" y1="-1033.7" x2="429.2" y2="-979.3" gradientTransform="translate(0 3019.7)" gradientUnits="userSpaceOnUse">
      <stop offset="0" stop-color="#f8af00"/>
      <stop offset=".9" stop-color="#ee7d00"/>
    </linearGradient>
    <linearGradient id="linear-gradient-31" x1="434" y1="-1037.8" x2="446.7" y2="-983.4" gradientTransform="translate(0 3019.7)" gradientUnits="userSpaceOnUse">
      <stop offset="0" stop-color="#f8af00"/>
      <stop offset=".9" stop-color="#ee7d00"/>
    </linearGradient>
    <linearGradient id="linear-gradient-32" x1="446.6" y1="-1040.7" x2="459.3" y2="-986.4" gradientTransform="translate(0 3019.7)" gradientUnits="userSpaceOnUse">
      <stop offset="0" stop-color="#f8af00"/>
      <stop offset=".9" stop-color="#ee7d00"/>
    </linearGradient>
    <linearGradient id="linear-gradient-33" x1="459.4" y1="-1043.8" x2="472.1" y2="-989.4" gradientTransform="translate(0 3019.7)" gradientUnits="userSpaceOnUse">
      <stop offset="0" stop-color="#f8af00"/>
      <stop offset=".9" stop-color="#ee7d00"/>
    </linearGradient>
    <linearGradient id="linear-gradient-34" x1="480.4" y1="-1048.7" x2="493.2" y2="-994.3" gradientTransform="translate(0 3019.7)" gradientUnits="userSpaceOnUse">
      <stop offset="0" stop-color="#f8af00"/>
      <stop offset=".9" stop-color="#ee7d00"/>
    </linearGradient>
    <linearGradient id="linear-gradient-35" x1="-78.5" y1="-1054.9" x2="-39.5" y2="-887.9" gradientTransform="translate(0 3019.7)" gradientUnits="userSpaceOnUse">
      <stop offset="0" stop-color="#f8af00"/>
      <stop offset=".9" stop-color="#ee7d00"/>
    </linearGradient>
    <linearGradient id="linear-gradient-36" x1="-38.9" y1="-1064.3" x2=".2" y2="-897.3" gradientTransform="translate(0 3019.7)" gradientUnits="userSpaceOnUse">
      <stop offset="0" stop-color="#f8af00"/>
      <stop offset=".9" stop-color="#ee7d00"/>
    </linearGradient>
    <linearGradient id="linear-gradient-37" x1="25.9" y1="-1079.4" x2="65" y2="-912.5" gradientTransform="translate(0 3019.7)" gradientUnits="userSpaceOnUse">
      <stop offset="0" stop-color="#f8af00"/>
      <stop offset=".9" stop-color="#ee7d00"/>
    </linearGradient>
    <linearGradient id="linear-gradient-38" x1="532.6" y1="300.9" x2="2476.1" y2="300.9" gradientTransform="translate(0 3019.7)" gradientUnits="userSpaceOnUse">
      <stop offset="0" stop-color="#000"/>
      <stop offset=".9" stop-color="#ee7d00"/>
    </linearGradient>
    <linearGradient id="linear-gradient-39" x1="2480.1" y1="-880.1" x2="556.1" y2="-880.1" gradientTransform="translate(0 3019.7)" gradientUnits="userSpaceOnUse">
      <stop offset="0" stop-color="#000"/>
      <stop offset=".9" stop-color="#ee7d00"/>
    </linearGradient>
    <linearGradient id="linear-gradient-40" x1="910.5" y1="-836.6" x2="924.9" y2="-775.4" gradientTransform="translate(0 3019.7)" gradientUnits="userSpaceOnUse">
      <stop offset="0" stop-color="#f8af00"/>
      <stop offset=".9" stop-color="#ee7d00"/>
    </linearGradient>
    <linearGradient id="linear-gradient-41" x1="924.9" y1="-840" x2="939.2" y2="-778.8" gradientTransform="translate(0 3019.7)" gradientUnits="userSpaceOnUse">
      <stop offset="0" stop-color="#f8af00"/>
      <stop offset=".9" stop-color="#ee7d00"/>
    </linearGradient>
    <linearGradient id="linear-gradient-42" x1="948.6" y1="-845.4" x2="962.9" y2="-784.3" gradientTransform="translate(0 3019.7)" gradientUnits="userSpaceOnUse">
      <stop offset="0" stop-color="#f8af00"/>
      <stop offset=".9" stop-color="#ee7d00"/>
    </linearGradient>
    <linearGradient id="linear-gradient-43" x1="897.5" y1="-1197.6" x2="911.9" y2="-1136.4" gradientTransform="translate(0 3019.7)" gradientUnits="userSpaceOnUse">
      <stop offset="0" stop-color="#f8af00"/>
      <stop offset=".9" stop-color="#ee7d00"/>
    </linearGradient>
    <linearGradient id="linear-gradient-44" x1="911.9" y1="-1201" x2="926.2" y2="-1139.8" gradientTransform="translate(0 3019.7)" gradientUnits="userSpaceOnUse">
      <stop offset="0" stop-color="#f8af00"/>
      <stop offset=".9" stop-color="#ee7d00"/>
    </linearGradient>
    <linearGradient id="linear-gradient-45" x1="935.6" y1="-1206.3" x2="949.9" y2="-1145.2" gradientTransform="translate(0 3019.7)" gradientUnits="userSpaceOnUse">
      <stop offset="0" stop-color="#f8af00"/>
      <stop offset=".9" stop-color="#ee7d00"/>
    </linearGradient>
    <linearGradient id="linear-gradient-46" x1="1268" y1="-223.2" x2="1268" y2="-204.5" gradientTransform="translate(0 3019.7)" gradientUnits="userSpaceOnUse">
      <stop offset="0" stop-color="#f8af00"/>
      <stop offset=".9" stop-color="#ee7d00"/>
    </linearGradient>
    <linearGradient id="linear-gradient-47" x1="1280.7" y1="-223.2" x2="1280.7" y2="-204.5" gradientTransform="translate(0 3019.7)" gradientUnits="userSpaceOnUse">
      <stop offset="0" stop-color="#f8af00"/>
      <stop offset=".9" stop-color="#ee7d00"/>
    </linearGradient>
    <linearGradient id="linear-gradient-48" x1="1292.8" y1="-223.2" x2="1292.8" y2="-204.5" gradientTransform="translate(0 3019.7)" gradientUnits="userSpaceOnUse">
      <stop offset="0" stop-color="#f8af00"/>
      <stop offset=".9" stop-color="#ee7d00"/>
    </linearGradient>
    <linearGradient id="linear-gradient-49" x1="1306.7" y1="-223.2" x2="1306.7" y2="-204.5" gradientTransform="translate(0 3019.7)" gradientUnits="userSpaceOnUse">
      <stop offset="0" stop-color="#f8af00"/>
      <stop offset=".9" stop-color="#ee7d00"/>
    </linearGradient>
    <linearGradient id="linear-gradient-50" x1="1325.6" y1="-223.2" x2="1325.6" y2="-204.5" gradientTransform="translate(0 3019.7)" gradientUnits="userSpaceOnUse">
      <stop offset="0" stop-color="#f8af00"/>
      <stop offset=".9" stop-color="#ee7d00"/>
    </linearGradient>
    <linearGradient id="linear-gradient-51" x1="1337.7" y1="-223.2" x2="1337.7" y2="-204.5" gradientTransform="translate(0 3019.7)" gradientUnits="userSpaceOnUse">
      <stop offset="0" stop-color="#f8af00"/>
      <stop offset=".9" stop-color="#ee7d00"/>
    </linearGradient>
    <linearGradient id="linear-gradient-52" x1="1349.6" y1="-223.2" x2="1349.6" y2="-204.5" gradientTransform="translate(0 3019.7)" gradientUnits="userSpaceOnUse">
      <stop offset="0" stop-color="#f8af00"/>
      <stop offset=".9" stop-color="#ee7d00"/>
    </linearGradient>
    <linearGradient id="linear-gradient-53" x1="1362.5" y1="-223.2" x2="1362.5" y2="-204.5" gradientTransform="translate(0 3019.7)" gradientUnits="userSpaceOnUse">
      <stop offset="0" stop-color="#f8af00"/>
      <stop offset=".9" stop-color="#ee7d00"/>
    </linearGradient>
    <linearGradient id="linear-gradient-54" x1="1375.9" y1="-223.2" x2="1375.9" y2="-204.5" gradientTransform="translate(0 3019.7)" gradientUnits="userSpaceOnUse">
      <stop offset="0" stop-color="#f8af00"/>
      <stop offset=".9" stop-color="#ee7d00"/>
    </linearGradient>
    <linearGradient id="linear-gradient-55" x1="1409.6" y1="-215" x2="1410.6" y2="-215" gradientTransform="translate(0 3019.7)" gradientUnits="userSpaceOnUse">
      <stop offset="0" stop-color="#f8af00"/>
      <stop offset=".9" stop-color="#ee7d00"/>
    </linearGradient>
    <linearGradient id="linear-gradient-56" x1="-155.2" y1="-2131.2" x2="-127.5" y2="-2012.8" gradientTransform="translate(0 3019.7)" gradientUnits="userSpaceOnUse">
      <stop offset="0" stop-color="#f8af00"/>
      <stop offset=".9" stop-color="#ee7d00"/>
    </linearGradient>
    <linearGradient id="New_Gradient_Swatch_1" data-name="New Gradient Swatch 1" x1="-127.1" y1="-2137.8" x2="-99.4" y2="-2019.4" gradientTransform="translate(0 3019.7)" gradientUnits="userSpaceOnUse">
      <stop offset="0" stop-color="#f8af00"/>
      <stop offset=".9" stop-color="#ee7d00"/>
    </linearGradient>
    <linearGradient id="linear-gradient-57" x1="-81.2" y1="-2148.5" x2="-53.5" y2="-2030.2" gradientTransform="translate(0 3019.7)" gradientUnits="userSpaceOnUse">
      <stop offset="0" stop-color="#f8af00"/>
      <stop offset=".9" stop-color="#ee7d00"/>
    </linearGradient>
    <linearGradient id="linear-gradient-58" x1="614.6" y1="1273" x2="642.6" y2="1392.6" gradientTransform="matrix(1,0,0,1,0,0)" xlink:href="#linear-gradient-56"/>
    <linearGradient id="New_Gradient_Swatch_1-2" data-name="New Gradient Swatch 1" x1="642.6" y1="1265.8" x2="670.4" y2="1384.6" gradientTransform="matrix(1,0,0,1,0,0)" xlink:href="#New_Gradient_Swatch_1"/>
    <linearGradient id="linear-gradient-59" x1="688.1" y1="1253.5" x2="716" y2="1372.7" gradientTransform="matrix(1,0,0,1,0,0)" xlink:href="#linear-gradient-57"/>
    <linearGradient id="linear-gradient-60" x1="216.4" y1="945.2" x2="245.3" y2="945.2" gradientUnits="userSpaceOnUse">
      <stop offset="0" stop-color="#081ef6"/>
      <stop offset=".9" stop-color="#ce112c"/>
    </linearGradient>
    <linearGradient id="linear-gradient-61" x1="246.8" y1="937.7" x2="283.9" y2="937.7" xlink:href="#linear-gradient-60"/>
    <linearGradient id="linear-gradient-62" x1="287.5" y1="925.6" x2="320.1" y2="925.6" xlink:href="#linear-gradient-60"/>
    <linearGradient id="linear-gradient-63" x1="214.4" y1="-2133" x2="242.1" y2="-2014.6" gradientTransform="translate(0 3019.7)" xlink:href="#linear-gradient-60"/>
    <linearGradient id="linear-gradient-64" x1="242.5" y1="-2139.6" x2="270.2" y2="-2021.2" gradientTransform="translate(0 3019.7)" xlink:href="#linear-gradient-60"/>
    <linearGradient id="linear-gradient-65" x1="288.4" y1="-2150.3" x2="316.1" y2="-2032" gradientTransform="translate(0 3019.7)" xlink:href="#linear-gradient-60"/>
    <linearGradient id="linear-gradient-66" x1="-156" y1="-1745.6" x2="-128.3" y2="-1627.2" gradientTransform="translate(0 3019.7)" gradientUnits="userSpaceOnUse">
      <stop offset="0" stop-color="#081ef6"/>
      <stop offset=".9" stop-color="#ce112c"/>
    </linearGradient>
    <linearGradient id="New_Gradient_Swatch_4" data-name="New Gradient Swatch 4" x1="-127.9" y1="-1752.2" x2="-100.2" y2="-1633.8" gradientTransform="translate(0 3019.7)" gradientUnits="userSpaceOnUse">
      <stop offset="0" stop-color="#081ef6"/>
      <stop offset=".9" stop-color="#ce112c"/>
    </linearGradient>
    <linearGradient id="linear-gradient-67" x1="-82" y1="-1762.9" x2="-54.3" y2="-1644.6" gradientTransform="translate(0 3019.7)" gradientUnits="userSpaceOnUse">
      <stop offset="0" stop-color="#081ef6"/>
      <stop offset=".9" stop-color="#ce112c"/>
    </linearGradient>
    <linearGradient id="linear-gradient-68" x1="227.6" y1="1271.2" x2="255.6" y2="1390.8" gradientTransform="matrix(1,0,0,1,0,0)" xlink:href="#linear-gradient-66"/>
    <linearGradient id="New_Gradient_Swatch_4-2" data-name="New Gradient Swatch 4" x1="255.5" y1="1264" x2="283.3" y2="1382.8" gradientTransform="matrix(1,0,0,1,0,0)" xlink:href="#New_Gradient_Swatch_4"/>
    <linearGradient id="linear-gradient-69" x1="301" y1="1251.7" x2="328.9" y2="1370.9" gradientTransform="matrix(1,0,0,1,0,0)" xlink:href="#linear-gradient-67"/>
    <linearGradient id="linear-gradient-70" x1="612.4" y1="-2131.2" x2="640.1" y2="-2012.8" gradientTransform="translate(0 3019.7)" gradientUnits="userSpaceOnUse">
      <stop offset="0" stop-color="#065153"/>
      <stop offset=".9" stop-color="#c26033"/>
    </linearGradient>
    <linearGradient id="New_Gradient_Swatch_3" data-name="New Gradient Swatch 3" x1="640.5" y1="-2137.8" x2="668.2" y2="-2019.4" gradientTransform="translate(0 3019.7)" gradientUnits="userSpaceOnUse">
      <stop offset="0" stop-color="#065153"/>
      <stop offset=".9" stop-color="#c26033"/>
    </linearGradient>
    <linearGradient id="linear-gradient-71" x1="686.4" y1="-2148.5" x2="714.1" y2="-2030.2" gradientTransform="translate(0 3019.7)" gradientUnits="userSpaceOnUse">
      <stop offset="0" stop-color="#065153"/>
      <stop offset=".9" stop-color="#c26033"/>
    </linearGradient>
  </defs>
  <!-- Generator: Adobe Illustrator 28.6.0, SVG Export Plug-In . SVG Version: 1.2.0 Build 709)  -->
  <g>
    <g id="Layer_1">
      <g>
        <g>
          <path class="cls-97" d="M-11.3,1802.1v-53.2l6.1-1.6c1-.3,2-.4,2.7-.4,2.5,0,3.8,1.5,3.8,4.5v41.7c0,3.9-2.1,6.3-6.5,7.5l-6.1,1.6h0ZM-11.1,1749.1v52.8l5.9-1.6c4.3-1.2,6.3-3.5,6.3-7.3v-41.7c0-2.9-1.2-4.3-3.6-4.3s-1.7,0-2.7.4l-6,1.6h0ZM-8.4,1799.2v-48.8h0l2.9-.8c.7-.2,1.2-.3,1.7-.3,1.5,0,2.2.8,2.2,2.6v42.1c0,2.3-1.2,3.6-3.9,4.3l-3,.8h0ZM-8.2,1750.5v48.4l2.8-.7c2.6-.7,3.8-2,3.8-4.2v-42.1c0-1.6-.6-2.4-2-2.4s-1,0-1.7.3l-2.8.8h0Z"/>
          <path class="cls-97" d="M5.8,1797.6v-53.2h0l9.8-2.7v2.4h0l-6.8,1.8v22.3l6.5-1.7v2.4h0l-6.4,1.7v23.7l7.4-2v2.4h0l-10.3,2.8h-.2ZM6,1744.5v52.8l10-2.7v-2l-7.4,2v-24.1h0l6.4-1.7v-2l-6.5,1.7v-22.7h0l6.8-1.8v-2l-9.5,2.6h.2Z"/>
          <path class="cls-97" d="M18.9,1794v-53.2l6.5-1.7c.8-.2,1.6-.3,2.2-.3,2.4,0,3.7,1.3,3.7,3.8v15.6c0,2.5-.5,5-4.2,6.4,2.8-.4,4.2.9,4.2,3.7v22.4h0l-3,.8v-22.4c0-1.8-.9-2.9-2.5-2.9s-.8,0-1.3.2l-2.6.7v26.1l-3,.8h0ZM19.1,1741v52.8l2.6-.7v-26.1h0l2.6-.7c.5,0,1-.2,1.4-.2,1.7,0,2.6,1.1,2.6,3.1v22.2l2.6-.7v-22.2c0-2.4-1-3.6-3.1-3.6s-.8,0-1.2,0h0v-.3h0c3.8-1.4,4.3-3.8,4.3-6.3v-15.6c0-2.3-1.2-3.6-3.5-3.6s-1.4,0-2.2.3l-6.3,1.7.3-.2h0ZM21.8,1764.9v-22.7h0l3-.8c2.4-.6,3.6.2,3.6,2.5v15.6c0,2.4-1.3,4-3.8,4.6l-2.9.8h.1ZM22,1742.4v22.3l2.6-.7c2.4-.6,3.7-2.2,3.7-4.4v-15.6c0-2.2-1.1-2.9-3.4-2.3l-3,.8h.1Z"/>
          <path class="cls-97" d="M36,1789.5v-53.2h0l3-.8v24.3l6.8-26.2,2.8-.7v.2l-7.1,26.8,7.7,26-3,.8h0l-7.3-25.5v27.4l-3,.8h0ZM36.2,1736.4v52.8l2.7-.7v-52.8l-2.7.7ZM39.1,1760.5l7.4,25.9,2.7-.7-7.7-25.9h0l7-26.7-2.3.6-7,26.8h-.1Z"/>
          <path class="cls-97" d="M54,1784.6v-21l-5.9-30.6,3-.8,4.4,27.5,4.4-29.8,3-.8h0l-5.9,33.8v21l-3,.8h0ZM48.3,1733.2l5.9,30.4v20.8l2.6-.7v-20.9l5.9-33.5-2.6.7-4.4,29.9h-.3l-4.4-27.4-2.7.7Z"/>
          <path class="cls-97" d="M67.6,1781c-1.3,0-2.2-.4-2.8-1.2-.6-.7-.8-1.8-.8-3.3v-9.5h0l2.7-.7v9.7c0,1.7.6,2.5,1.9,2.5h0c.4,0,.8,0,1.3-.2,2.4-.6,3.4-1.9,3.4-4.2v-9.1c0-2.7-.5-4.2-1.5-6.4l-6-10.1c-1.1-1.9-1.9-4.5-1.9-6.7v-7.7c0-3.4,2.3-6.2,6-7.2,1-.3,1.8-.4,2.6-.4,2.3,0,3.4,1.3,3.4,3.8v9.5h0l-2.7.7v-9.3c0-2-.9-2.6-2.9-2.1-1.8.5-3,2-3,3.9v8.2c0,1.7.3,3.2,1.1,4.7l5.8,10c1.1,1.9,2.1,4.3,2.1,7.5v10c0,3.7-2,6-6.2,7.2-1,.3-1.8.4-2.5.4h0ZM64.2,1767.2v9.3c0,1.4.3,2.5.8,3.2.6.8,1.4,1.1,2.6,1.1s1.5,0,2.5-.4c4.1-1.1,6-3.3,6-7v-10c0-3.1-1.1-5.5-2.1-7.4l-5.8-10c-.8-1.6-1.1-3.1-1.1-4.8v-8.2c0-2,1.2-3.6,3.1-4.1.5,0,.9-.2,1.2-.2,1.3,0,1.9.8,1.9,2.5v9.1l2.4-.6v-9.4c0-2.5-1-3.7-3.2-3.7s-1.6,0-2.5.4c-3.6,1-5.8,3.6-5.8,7v7.7c0,2.2.7,4.8,1.8,6.7l6,10.1c1,2.3,1.5,3.7,1.5,6.5v9.1c0,2.4-1.1,3.7-3.5,4.4-.5,0-.9.2-1.3.2h0c-1.4,0-2.1-.9-2.1-2.6v-9.5l-2.4.6h0Z"/>
          <path class="cls-97" d="M76.9,1778.5h0l5.8-54.7h0l4.1-1.1h0l5.9,51.6-3,.8h0l-1.6-15.1-6.8,1.8-1.6,15.9-2.7.7h-.1ZM82.8,1723.9l-5.7,54.3,2.4-.6,1.6-15.9,7.2-1.9h0l1.6,15.1,2.6-.7-5.9-51.2-3.8,1h0ZM81.3,1759.6h0l1.8-18c.3-2.7.5-5.5.7-8.2s.4-5.5.7-8.2h0l.3-.2h0c0,4.4.6,8.7,1.1,12.8,0,1,.2,2,.3,2.9l1.8,17-6.7,1.8h0ZM84.6,1725.6c-.3,2.6-.5,5.3-.6,7.8-.2,2.7-.4,5.5-.7,8.2l-1.8,17.8,6.3-1.7-1.8-16.8c0-1-.2-2-.3-2.9-.5-4-.9-8.1-1.1-12.3h0Z"/>
          <path class="cls-97" d="M94.3,1773.9v-53.2h0l4.4-1.2h0l4.8,33c.5,3.7,1.3,9.2,2.3,15.5v-2.5c-.4-6.2-.7-11.5-.7-14v-33.8h0l3-.8v53.2l-4.4,1.2h0l-5-32.5c-.4-2.3-1-7.6-1.6-13.1l-.3-2.9c0,3.8.2,7.5.3,10.3,0,2.1,0,3.8,0,4.5v35.5l-3,.8h.1ZM94.4,1720.8v52.8l2.6-.7v-35.3c0-.7,0-2.4,0-4.5,0-2.9-.3-6.8-.3-10.8h0l.3-.2h0l.4,3.5c.6,5.6,1.2,10.8,1.6,13.1l5,32.3,4.1-1.1v-52.8l-2.6.7v33.7c0,2.5.3,7.8.6,13.9v3c0,0-.2,0-.2,0h0c-1-6.6-1.8-12.2-2.3-16.1l-4.8-32.8-4.1,1.1-.2.2h0Z"/>
        </g>
        <g>
          <path class="cls-30" d="M-12.4,1748.3l6-1.6c4.2-1.1,6.4,0,6.4,3.9v41.7c0,4-2.2,6.2-6.4,7.4l-6,1.6v-53h0ZM-6.7,1797.6c2.6-.7,3.8-2,3.8-4.3v-42.1c0-2.3-1.3-2.9-3.8-2.2l-2.9.8v48.6l2.9-.8Z"/>
          <path class="cls-28" d="M4.7,1743.7l9.7-2.6v2.2l-6.9,1.8v22.5l6.5-1.7v2.2l-6.5,1.7v23.9l7.4-2v2.2l-10.2,2.7v-53h0Z"/>
          <path class="cls-27" d="M17.8,1740.2l6.4-1.7c3.4-.9,5.8,0,5.8,3.4v15.6c0,2.9-.8,5.1-4.4,6.4h0c2.6-.3,4.4.5,4.4,3.7v22.3l-2.8.8v-22.3c0-2-1.1-3.5-3.9-2.8l-2.6.7v26.1l-2.8.8v-53h-.1ZM23.4,1763.4c2.4-.6,3.8-2.2,3.8-4.5v-15.6c0-2.3-1.2-3-3.5-2.4l-3,.8v22.5l2.8-.7h0Z"/>
          <path class="cls-26" d="M34.9,1735.6l2.8-.8v53l-2.8.8v-53ZM37.7,1759.8l7-26.8,2.6-.7-7,26.8,7.7,26-2.8.8-7.4-26h0Z"/>
          <path class="cls-23" d="M58.7,1729.3l2.8-.8-5.9,33.7v20.9l-2.8.8v-20.9l-5.9-30.5,2.8-.8,4.4,27.5h0l4.4-29.9h.2Z"/>
          <path class="cls-24" d="M65.4,1775.3c0,1.8.6,3.1,3.3,2.4,2.4-.6,3.5-1.9,3.5-4.3v-9.1c0-2.8-.5-4.3-1.5-6.4l-6-10.1c-1.2-2-1.8-4.6-1.8-6.7v-7.7c0-3.5,2.3-6.1,5.9-7.1,3.8-1,5.8,0,5.8,3.4v9.5l-2.6.7v-9.2c0-2.1-1.1-2.7-3-2.2-2,.5-3,2.2-3,4v8.2c0,1.8.4,3.2,1.1,4.8l5.8,10c1.2,2.2,2.1,4.5,2.1,7.4v10c0,3.4-1.6,5.9-6.1,7.1-4.4,1.2-6-.4-6-4v-9.4l2.6-.7v9.6-.2h0Z"/>
          <path class="cls-22" d="M86.9,1759.2l-7,1.9-1.6,15.9-2.6.7,5.7-54.5,4-1.1,5.9,51.4-2.8.8-1.6-15.1h0ZM86.7,1757.1l-1.8-16.9c-.6-5.1-1.3-10.3-1.4-15.6h0c-.6,5.5-.8,11-1.3,16.4l-1.8,17.9,6.5-1.7h-.2Z"/>
          <path class="cls-21" d="M93.1,1720l4.3-1.1,4.8,32.9c.6,4,1.4,9.8,2.3,16h0c-.4-7.3-.7-14-.7-16.9v-33.8l2.8-.8v53l-4.3,1.1-5-32.4c-.4-2.7-1.2-9.7-2-16.5h0c0,6.9.5,13.6.5,15.3v35.4l-2.8.8v-53h.1Z"/>
        </g>
        <line class="cls-16" x1="-12.5" y1="1807.3" x2="108.4" y2="1774.9"/>
        <line class="cls-16" x1="-12.7" y1="1743.2" x2="106.9" y2="1711.1"/>
      </g>
      <rect class="cls-34" x="557.1" y="2137.6" width="1920" height="1080"/>
      <g>
        <g>
          <path class="cls-97" d="M468,1844.3v-44.3l5.1-1.4c.9-.2,1.6-.3,2.3-.3,2.1,0,3.1,1.2,3.1,3.7v34.7c0,3.3-1.7,5.2-5.4,6.2l-5.1,1.4h0ZM468.2,1800.2v44l4.9-1.3c3.6-1,5.3-2.9,5.3-6.1v-34.7c0-2.4-1-3.5-3-3.5s-1.4,0-2.2.3l-5,1.3h0ZM470.4,1841.9v-40.6h0l2.4-.7c.6,0,1-.2,1.4-.2,1.2,0,1.8.7,1.8,2.1v35.1c0,1.9-1,3-3.2,3.6l-2.5.7h0,0ZM470.5,1801.4v40.3l2.3-.6c2.2-.6,3.1-1.6,3.1-3.5v-35.1c0-1.3-.5-2-1.7-2s-.9,0-1.4.2l-2.4.6h0Z"/>
          <path class="cls-97" d="M482.2,1840.5v-44.3h0l8.2-2.2v2h0l-5.7,1.5v18.5l5.4-1.4v2h0l-5.3,1.4v19.8l6.1-1.6v2h0l-8.6,2.3h0ZM482.4,1796.4v44l8.3-2.2v-1.7l-6.1,1.6v-20.1h0l5.3-1.4v-1.7l-5.4,1.4v-18.9h0l5.7-1.5v-1.7l-7.9,2.1h0Z"/>
          <path class="cls-97" d="M493.1,1837.6v-44.3l5.4-1.4c.7-.2,1.3-.3,1.9-.3,2,0,3.1,1.1,3.1,3.1v13c0,2.1-.4,4.2-3.5,5.3,2.3-.3,3.5.7,3.5,3.1v18.6h0l-2.5.7v-18.7c0-1.5-.7-2.4-2-2.4s-.7,0-1.1.2l-2.1.6v21.8l-2.5.7h-.2ZM493.3,1793.4v44l2.2-.6v-21.8h0l2.2-.6c.4,0,.8-.2,1.1-.2,1.4,0,2.2.9,2.2,2.5v18.5l2.2-.6v-18.5c0-2-.9-3-2.6-3s-.6,0-1,0h0v-.3h0c3.2-1.1,3.6-3.2,3.6-5.3v-13c0-1.9-1-3-2.9-3s-1.2,0-1.8.3l-5.3,1.4v.2h.1ZM495.5,1813.4v-18.9h0l2.5-.7c2-.5,3,.2,3,2.1v13c0,2-1.1,3.3-3.2,3.8l-2.4.6h0ZM495.7,1794.6v18.5l2.2-.6c2-.5,3.1-1.8,3.1-3.7v-13c0-1.8-.9-2.4-2.8-1.9l-2.5.7h0Z"/>
          <path class="cls-97" d="M507.4,1833.8v-44.3h0l2.5-.7v20.3l5.7-21.8,2.3-.6h0l-5.8,22.4,6.4,21.7-2.5.7h0l-6-21.2v22.8l-2.5.7h0ZM507.5,1789.6v44l2.2-.6v-44l-2.2.6ZM509.9,1809.7l6.2,21.6,2.2-.6-6.4-21.6h0l5.8-22.2-1.9.5-5.8,22.3h0,0Z"/>
          <path class="cls-97" d="M522.3,1829.8v-17.5l-4.9-25.4,2.5-.7,3.7,22.9,3.6-24.8,2.5-.7h0l-4.9,28.1v17.5l-2.5.7h0ZM517.6,1786.9l4.9,25.3v17.3l2.2-.6v-17.4l4.9-27.9-2.2.6-3.7,24.9h-.3l-3.7-22.8-2.2.6h0,0Z"/>
          <path class="cls-97" d="M533.7,1826.7c-1.1,0-1.8-.3-2.3-1-.5-.6-.7-1.5-.7-2.8v-7.9h0l2.2-.6v8.1c0,1.4.5,2,1.6,2h0c.3,0,.7,0,1-.2,2-.5,2.8-1.6,2.8-3.5v-7.6c0-2.3-.4-3.5-1.2-5.3l-5-8.4c-1-1.6-1.5-3.8-1.5-5.6v-6.4c0-2.9,1.9-5.2,5-6,.8-.2,1.5-.3,2.1-.3,1.9,0,2.8,1,2.8,3.2v7.9h0l-2.2.6v-7.7c0-1.7-.8-2.2-2.4-1.7-1.5.4-2.5,1.7-2.5,3.2v6.8c0,1.4.3,2.6.9,3.9l4.8,8.3c.9,1.6,1.8,3.6,1.8,6.2v8.3c0,3.1-1.7,5-5.1,6-.8.2-1.5.3-2.1.3v.2h0ZM530.8,1815.2v7.8c0,1.2.2,2.1.7,2.7.5.6,1.2.9,2.2.9s1.3,0,2-.3c3.4-.9,5-2.8,5-5.8v-8.3c0-2.6-.9-4.6-1.8-6.1l-4.8-8.3c-.7-1.3-1-2.5-1-4v-6.8c0-1.6,1-3,2.6-3.4.4,0,.7-.2,1-.2,1.1,0,1.6.7,1.6,2.1v7.5l2-.5v-7.8c0-2-.9-3-2.6-3s-1.3,0-2.1.3c-3,.8-4.8,3-4.8,5.8v6.4c0,1.8.6,4,1.5,5.5l5,8.4c.9,1.9,1.2,3.1,1.2,5.4v7.6c0,2-.9,3.1-3,3.7-.4,0-.8.2-1.1.2h0c-1.2,0-1.7-.7-1.7-2.2v-7.9l-2,.5v-.2h.1Z"/>
          <path class="cls-97" d="M541.4,1824.7h0l4.8-45.6h0l3.4-.9h0l4.9,43-2.5.7h0l-1.3-12.5-5.7,1.5-1.3,13.2-2.3.6ZM546.3,1779.2l-4.8,45.2,2-.5,1.3-13.2,6-1.6h0l1.3,12.5,2.2-.6-4.9-42.6-3.2.8h0ZM545,1809h0l1.5-15c.2-2.3.4-4.6.6-6.8s.3-4.5.6-6.8h.3c0,3.6.5,7.1.9,10.6,0,.8.2,1.6.3,2.4l1.5,14.2-5.6,1.5h-.1ZM547.8,1780.6c-.2,2.2-.4,4.4-.5,6.5-.2,2.2-.3,4.5-.6,6.8l-1.5,14.8,5.3-1.4-1.5-14c0-.8-.2-1.6-.3-2.4-.4-3.3-.8-6.8-.9-10.2h0Z"/>
          <path class="cls-97" d="M555.8,1820.8v-44.3h0l3.6-1h0l4,27.5c.4,3.1,1.1,7.7,1.9,12.9v-2c-.4-5.1-.6-9.5-.6-11.6v-28.2h0l2.5-.7v44.3l-3.7,1h0l-4.1-27.1c-.3-1.9-.8-6.3-1.3-10.9l-.3-2.4c0,3.2.2,6.3.3,8.6,0,1.8,0,3.1,0,3.8v29.5l-2.5.7h0ZM556,1776.6v44l2.2-.6v-29.4c0-.6,0-2,0-3.8,0-2.4-.2-5.7-.3-9h.3l.3,2.8c.5,4.6,1,9,1.3,10.9l4.1,26.9,3.4-.9v-44l-2.2.6v28c0,2.1.2,6.5.5,11.6v2.5c0,0,0,0,0,0h0c-.8-5.5-1.5-10.2-1.9-13.4l-4-27.3-3.4.9v.2h-.1Z"/>
        </g>
        <g>
          <path class="cls-25" d="M467.1,1799.5l5-1.3c3.5-.9,5.3,0,5.3,3.3v34.7c0,3.3-1.8,5.2-5.3,6.1l-5,1.3v-44.1ZM471.9,1840.5c2.1-.6,3.2-1.6,3.2-3.5v-35.1c0-1.9-1.1-2.4-3.2-1.8l-2.4.6v40.4l2.4-.6h0Z"/>
          <path class="cls-45" d="M481.3,1795.7l8.1-2.2v1.8l-5.7,1.5v18.7l5.4-1.4v1.8l-5.4,1.4v19.9l6.1-1.6v1.8l-8.5,2.3v-44.1h0Z"/>
          <path class="cls-46" d="M492.2,1792.8l5.3-1.4c2.8-.8,4.8,0,4.8,2.8v13c0,2.4-.6,4.3-3.7,5.3h0c2.1-.3,3.7.4,3.7,3.1v18.6l-2.4.6v-18.6c0-1.6-.9-2.9-3.2-2.3l-2.2.6v21.8l-2.4.6v-44.1h0,0ZM496.9,1812.1c2-.5,3.1-1.8,3.1-3.8v-13c0-1.9-1-2.5-2.9-2l-2.5.7v18.7l2.3-.6h0Z"/>
          <path class="cls-47" d="M506.4,1789l2.4-.6v44.1l-2.4.6v-44.1ZM508.8,1809.1l5.8-22.3,2.1-.6-5.8,22.3,6.4,21.6-2.4.6-6.2-21.7h0Z"/>
          <path class="cls-48" d="M526.3,1783.7l2.4-.6-4.9,28v17.4l-2.4.6v-17.4l-4.9-25.4,2.4-.6,3.7,22.9h0l3.7-24.9h0,0Z"/>
          <path class="cls-50" d="M531.8,1822c0,1.5.5,2.5,2.7,2,2-.5,2.9-1.6,2.9-3.6v-7.6c0-2.3-.4-3.6-1.2-5.4l-5-8.4c-1-1.7-1.5-3.9-1.5-5.6v-6.4c0-2.9,1.9-5.1,4.9-5.9,3.2-.9,4.8,0,4.8,2.8v7.9l-2.1.6v-7.6c0-1.8-.9-2.3-2.5-1.8-1.7.4-2.5,1.8-2.5,3.3v6.8c0,1.5.3,2.7.9,4l4.8,8.3c1,1.8,1.8,3.7,1.8,6.2v8.3c0,2.8-1.4,4.9-5.1,5.9s-5-.4-5-3.4v-7.8l2.1-.6v8h0Z"/>
          <path class="cls-61" d="M549.7,1808.6l-5.8,1.6-1.3,13.2-2.1.6,4.8-45.4,3.3-.9,4.9,42.8-2.4.6-1.4-12.5h0ZM549.5,1806.8l-1.5-14.1c-.5-4.3-1.1-8.6-1.2-13h0c-.5,4.6-.6,9.1-1.1,13.7l-1.5,14.9,5.4-1.5h0Z"/>
          <path class="cls-62" d="M554.9,1776l3.5-1,4,27.4c.5,3.4,1.2,8.2,1.9,13.3h0c-.3-6.1-.6-11.7-.6-14v-28.1l2.4-.6v44.1l-3.5.9-4.1-27c-.4-2.3-1-8.1-1.7-13.7h0c0,5.7.4,11.3.4,12.8v29.5l-2.4.6v-44.1h0,0Z"/>
        </g>
        <line class="cls-16" x1="467" y1="1848.6" x2="567.6" y2="1821.6"/>
        <line class="cls-16" x1="466.8" y1="1795.3" x2="566.3" y2="1768.6"/>
      </g>
      <rect class="cls-12" x="217.7" y="1920.6" width="128" height="46"/>
      <g>
        <g>
          <path class="cls-33" d="M234.2,2091.6v-53.2l6.1-1.6c1-.3,2-.4,2.7-.4,2.5,0,3.8,1.5,3.8,4.5v41.7c0,3.9-2.1,6.3-6.5,7.5l-6.1,1.6h0ZM234.4,2038.6v52.8l5.9-1.6c4.3-1.2,6.3-3.5,6.3-7.3v-41.7c0-2.9-1.2-4.3-3.6-4.3s-1.7,0-2.7.4l-6,1.6h0ZM237.1,2088.7v-48.8h0l2.9-.8c.7-.2,1.2-.3,1.7-.3,1.5,0,2.2.8,2.2,2.6v42.1c0,2.3-1.2,3.6-3.9,4.3l-3,.8h0ZM237.3,2040v48.4l2.8-.7c2.6-.7,3.8-2,3.8-4.2v-42.1c0-1.6-.6-2.4-2-2.4s-1,0-1.7.3l-2.8.8h0Z"/>
          <path class="cls-33" d="M251.3,2087.1v-53.2h0l9.8-2.7v2.4h0l-6.8,1.8v22.3l6.5-1.7v2.4h0l-6.4,1.7v23.7l7.4-2v2.4h0l-10.3,2.8h-.2ZM251.5,2034v52.8l10-2.7v-2l-7.4,2v-24.1h0l6.4-1.7v-2l-6.5,1.7v-22.7h0l6.8-1.8v-2l-9.5,2.6h.2Z"/>
          <path class="cls-33" d="M264.4,2083.5v-53.2l6.5-1.7c.8-.2,1.6-.3,2.2-.3,2.4,0,3.7,1.3,3.7,3.8v15.6c0,2.5-.5,5-4.2,6.4,2.8-.4,4.2.9,4.2,3.7v22.4h0l-3,.8v-22.4c0-1.8-.9-2.9-2.5-2.9s-.8,0-1.3.2l-2.6.7v26.1l-3,.8h0ZM264.6,2030.5v52.8l2.6-.7v-26.1h0l2.6-.7c.5,0,1-.2,1.4-.2,1.7,0,2.6,1.1,2.6,3.1v22.2l2.6-.7v-22.2c0-2.4-1-3.6-3.1-3.6s-.8,0-1.2,0h0v-.3h0c3.8-1.4,4.3-3.8,4.3-6.3v-15.6c0-2.3-1.2-3.6-3.5-3.6s-1.4,0-2.2.3l-6.3,1.7.3-.2h0ZM267.3,2054.4v-22.7h0l3-.8c2.4-.6,3.6.2,3.6,2.5v15.6c0,2.4-1.3,4-3.8,4.6l-2.9.8h.1ZM267.5,2031.9v22.3l2.6-.7c2.4-.6,3.7-2.2,3.7-4.4v-15.6c0-2.2-1.1-2.9-3.4-2.3l-3,.8h.1Z"/>
          <path class="cls-33" d="M281.5,2079v-53.2h0l3-.8v24.3l6.8-26.2,2.8-.7v.2l-7.1,26.8,7.7,26-3,.8h0l-7.3-25.5v27.4l-3,.8h0ZM281.7,2025.9v52.8l2.7-.7v-52.8l-2.7.7ZM284.6,2050l7.4,25.9,2.7-.7-7.7-25.9h0l7-26.7-2.3.6-7,26.8h-.1Z"/>
          <path class="cls-33" d="M299.5,2074.1v-21l-5.9-30.6,3-.8,4.4,27.5,4.4-29.8,3-.8h0l-5.9,33.8v21l-3,.8h0ZM293.8,2022.7l5.9,30.4v20.8l2.6-.7v-20.9l5.9-33.5-2.6.7-4.4,29.9h-.3l-4.4-27.4-2.7.7Z"/>
          <path class="cls-33" d="M313.1,2070.5c-1.3,0-2.2-.4-2.8-1.2-.6-.7-.8-1.8-.8-3.3v-9.5h0l2.7-.7v9.7c0,1.7.6,2.5,1.9,2.5h0c.4,0,.8,0,1.3-.2,2.4-.6,3.4-1.9,3.4-4.2v-9.1c0-2.7-.5-4.2-1.5-6.4l-6-10.1c-1.1-1.9-1.9-4.5-1.9-6.7v-7.7c0-3.4,2.3-6.2,6-7.2,1-.3,1.8-.4,2.6-.4,2.3,0,3.4,1.3,3.4,3.8v9.5h0l-2.7.7v-9.3c0-2-.9-2.6-2.9-2.1-1.8.5-3,2-3,3.9v8.2c0,1.7.3,3.2,1.1,4.7l5.8,10c1.1,1.9,2.1,4.3,2.1,7.5v10c0,3.7-2,6-6.2,7.2-1,.3-1.8.4-2.5.4h0ZM309.7,2056.7v9.3c0,1.4.3,2.5.8,3.2.6.8,1.4,1.1,2.6,1.1s1.5,0,2.5-.4c4.1-1.1,6-3.3,6-7v-10c0-3.1-1.1-5.5-2.1-7.4l-5.8-10c-.8-1.6-1.1-3.1-1.1-4.8v-8.2c0-2,1.2-3.6,3.1-4.1.5,0,.9-.2,1.2-.2,1.3,0,1.9.8,1.9,2.5v9.1l2.4-.6v-9.4c0-2.5-1-3.7-3.2-3.7s-1.6,0-2.5.4c-3.6,1-5.8,3.6-5.8,7v7.7c0,2.2.7,4.8,1.8,6.7l6,10.1c1,2.3,1.5,3.7,1.5,6.5v9.1c0,2.4-1.1,3.7-3.5,4.4-.5,0-.9.2-1.3.2h0c-1.4,0-2.1-.9-2.1-2.6v-9.5l-2.4.6h0Z"/>
          <path class="cls-33" d="M322.4,2068h0l5.8-54.7h0l4.1-1.1h0l5.9,51.6-3,.8h0l-1.6-15.1-6.8,1.8-1.6,15.9-2.7.7h-.1ZM328.3,2013.4l-5.7,54.3,2.4-.6,1.6-15.9,7.2-1.9h0l1.6,15.1,2.6-.7-5.9-51.2-3.8,1h0ZM326.8,2049.1h0l1.8-18c.3-2.7.5-5.5.7-8.2s.4-5.5.7-8.2h0l.3-.2h0c0,4.4.6,8.7,1.1,12.8,0,1,.2,2,.3,2.9l1.8,17-6.7,1.8h0ZM330.1,2015.1c-.3,2.6-.5,5.3-.6,7.8-.2,2.7-.4,5.5-.7,8.2l-1.8,17.8,6.3-1.7-1.8-16.8c0-1-.2-2-.3-2.9-.5-4-.9-8.1-1.1-12.3h0Z"/>
          <path class="cls-33" d="M339.8,2063.4v-53.2h0l4.4-1.2h0l4.8,33c.5,3.7,1.3,9.2,2.3,15.5v-2.5c-.4-6.2-.7-11.5-.7-14v-33.8h0l3-.8v53.2l-4.4,1.2h0l-5-32.5c-.4-2.3-1-7.6-1.6-13.1l-.3-2.9c0,3.8.2,7.5.3,10.3,0,2.1,0,3.8,0,4.5v35.5l-3,.8h.1ZM339.9,2010.3v52.8l2.6-.7v-35.3c0-.7,0-2.4,0-4.5,0-2.9-.3-6.8-.3-10.8h0l.3-.2h0l.4,3.5c.6,5.6,1.2,10.8,1.6,13.1l5,32.3,4.1-1.1v-52.8l-2.6.7v33.7c0,2.5.3,7.8.6,13.9v3c0,0-.2,0-.2,0h0c-1-6.6-1.8-12.2-2.3-16.1l-4.8-32.8-4.1,1.1-.2.2h0Z"/>
        </g>
        <g>
          <path class="cls-33" d="M233.1,2037.8l6-1.6c4.2-1.1,6.4,0,6.4,3.9v41.7c0,4-2.2,6.2-6.4,7.4l-6,1.6v-53h0ZM238.8,2087.1c2.6-.7,3.8-2,3.8-4.3v-42.1c0-2.3-1.3-2.9-3.8-2.2l-2.9.8v48.6l2.9-.8h0Z"/>
          <path class="cls-33" d="M250.2,2033.2l9.7-2.6v2.2l-6.9,1.8v22.5l6.5-1.7v2.2l-6.5,1.7v23.9l7.4-2v2.2l-10.2,2.7v-53h0Z"/>
          <path class="cls-33" d="M263.3,2029.7l6.4-1.7c3.4-.9,5.8,0,5.8,3.4v15.6c0,2.9-.8,5.1-4.4,6.4h0c2.6-.3,4.4.5,4.4,3.7v22.3l-2.8.8v-22.3c0-2-1.1-3.5-3.9-2.8l-2.6.7v26.1l-2.8.8v-53h-.1ZM268.9,2052.9c2.4-.6,3.8-2.2,3.8-4.5v-15.6c0-2.3-1.2-3-3.5-2.4l-3,.8v22.5l2.8-.7h0Z"/>
          <path class="cls-33" d="M280.4,2025.1l2.8-.8v53l-2.8.8v-53ZM283.2,2049.3l7-26.8,2.6-.7-7,26.8,7.7,26-2.8.8-7.4-26h0Z"/>
          <path class="cls-33" d="M304.2,2018.8l2.8-.8-5.9,33.7v20.9l-2.8.8v-20.9l-5.9-30.5,2.8-.8,4.4,27.5h0l4.4-29.9h.2Z"/>
          <path class="cls-33" d="M310.9,2064.8c0,1.8.6,3.1,3.3,2.4,2.4-.6,3.5-1.9,3.5-4.3v-9.1c0-2.8-.5-4.3-1.5-6.4l-6-10.1c-1.2-2-1.8-4.6-1.8-6.7v-7.7c0-3.5,2.3-6.1,5.9-7.1,3.8-1,5.8,0,5.8,3.4v9.5l-2.6.7v-9.2c0-2.1-1.1-2.7-3-2.2-2,.5-3,2.2-3,4v8.2c0,1.8.4,3.2,1.1,4.8l5.8,10c1.2,2.2,2.1,4.5,2.1,7.4v10c0,3.4-1.6,5.9-6.1,7.1-4.4,1.2-6-.4-6-4v-9.4l2.6-.7v9.6-.2h0Z"/>
          <path class="cls-33" d="M332.4,2048.7l-7,1.9-1.6,15.9-2.6.7,5.7-54.5,4-1.1,5.9,51.4-2.8.8-1.6-15.1h0ZM332.2,2046.6l-1.8-16.9c-.6-5.1-1.3-10.3-1.4-15.6h0c-.6,5.5-.8,11-1.3,16.4l-1.8,17.9,6.5-1.7h-.1Z"/>
          <path class="cls-33" d="M338.6,2009.5l4.3-1.1,4.8,32.9c.6,4,1.4,9.8,2.3,16h0c-.4-7.3-.7-14-.7-16.9v-33.8l2.8-.8v53l-4.3,1.1-5-32.4c-.4-2.7-1.2-9.7-2-16.5h0c0,6.9.5,13.6.5,15.3v35.4l-2.8.8v-53h.1Z"/>
        </g>
        <line class="cls-16" x1="233" y1="2096.8" x2="353.9" y2="2064.4"/>
        <line class="cls-16" x1="232.8" y1="2032.7" x2="352.4" y2="2000.6"/>
      </g>
      <rect class="cls-34" x="556.1" y="3320.6" width="1920" height="136"/>
      <g class="cls-6">
        <g class="cls-6">
          <text class="cls-8" transform="translate(1985.6 3391.7)"><tspan x="0" y="0">© 2025 All rights reserved.</tspan></text>
        </g>
      </g>
      <g class="cls-6">
        <g class="cls-6">
          <text class="cls-7" transform="translate(9.1 1885.2)"><tspan x="0" y="0">derkysan.dev@gmail.com</tspan></text>
        </g>
      </g>
      <rect class="cls-13" x="-14.3" y="1853.5" width="359.5" height="53"/>
      <rect class="cls-63" x="226.7" y="1857" width="115" height="46"/>
      <g class="cls-6">
        <g class="cls-6">
          <text class="cls-5" transform="translate(261.4 1884.8)"><tspan x="0" y="0">Copiar</tspan></text>
        </g>
      </g>
      <circle class="cls-4" cx="1535.1" cy="2432.6" r="478"/>
      <g>
        <g>
          <path class="cls-97" d="M365.2,2058.1v-57.4l6.6-1.8c1.1-.3,2.1-.5,2.9-.5,2.7,0,4.1,1.6,4.1,4.8v45c0,4.2-2.2,6.8-7,8.1l-6.6,1.8h0ZM365.4,2000.8v57l6.4-1.7c4.6-1.2,6.8-3.7,6.8-7.9v-45c0-3.1-1.3-4.6-3.9-4.6s-1.8,0-2.9.4l-6.4,1.7h0ZM368.2,2054.9v-52.7h0l3.1-.9c.7-.2,1.3-.3,1.9-.3,1.6,0,2.4.9,2.4,2.8v45.5c0,2.4-1.3,3.9-4.2,4.7l-3.3.9h0ZM368.5,2002.3v52.3l3-.8c2.8-.7,4.1-2.1,4.1-4.5v-45.5c0-1.7-.7-2.6-2.2-2.6s-1.1,0-1.8.3l-3.1.8h0Z"/>
          <path class="cls-97" d="M383.6,2053.1v-57.5h0l10.6-2.9v2.6h0l-7.3,2v24l7-1.9v2.6h0l-6.9,1.9v25.6l8-2.1v2.6h0l-11.2,3h-.2ZM383.8,1995.8v57l10.8-2.9v-2.2l-8,2.1v-26.1h0l6.9-1.9v-2.2l-7,1.9v-24.5h0l7.4-2v-2.2l-10.3,2.8.2.2h0Z"/>
          <path class="cls-97" d="M397.8,2049.3v-57.4l7-1.9c.9-.2,1.7-.4,2.4-.4,2.6,0,4,1.5,4,4.1v16.9c0,2.7-.6,5.4-4.6,6.9,3-.5,4.6.9,4.6,4v24.2h0l-3.2.9v-24.2c0-2-1-3.1-2.7-3.1s-.9,0-1.4.2l-2.8.7v28.2l-3.3.9h0ZM398,1992v57l2.9-.8v-28.2h0l2.8-.8c.5,0,1-.2,1.5-.2,1.8,0,2.9,1.2,2.9,3.3v24l2.9-.8v-24c0-2.6-1.1-3.9-3.3-3.9s-.8,0-1.3,0h0v-.3h0c4.1-1.5,4.7-4.1,4.7-6.8v-16.9c0-2.5-1.3-3.9-3.8-3.9s-1.5,0-2.4.4l-6.8,1.8h0ZM400.8,2017.9v-24.5h0l3.3-.9c2.6-.7,3.9.2,3.9,2.7v16.9c0,2.5-1.4,4.3-4.1,5l-3.1.8h0ZM401.1,1993.6v24l2.9-.8c2.6-.7,4-2.4,4-4.8v-16.9c0-2.3-1.2-3.1-3.6-2.5l-3.2.9h-.1Z"/>
          <path class="cls-97" d="M416.3,2044.4v-57.5h0l3.2-.9v26.3l7.4-28.3,3-.8v.2l-7.6,29,8.4,28.1-3.3.9h0l-7.8-27.5v29.6l-3.3.9h0ZM416.5,1987.1v57l2.9-.8v-57l-2.9.8ZM419.5,2013.1l8,28,2.9-.8-8.3-28h0l7.5-28.8-2.5.7-7.6,28.9h0Z"/>
          <path class="cls-97" d="M435.6,2039.2v-22.7l-6.4-33,3.3-.9,4.7,29.7,4.7-32.2,3.3-.9v.2l-6.4,36.3v22.7l-3.3.9h.1ZM429.5,1983.6l6.3,32.8v22.5l2.9-.8v-22.5l6.3-36.2-2.8.8-4.7,32.3h-.3l-4.7-29.6-2.9.8h-.1Z"/>
          <path class="cls-97" d="M450.4,2035.2c-1.4,0-2.4-.4-3-1.3-.6-.8-.9-2-.9-3.6v-10.2h0l2.9-.8v10.5c0,1.8.6,2.7,2,2.7h0c.4,0,.9,0,1.4-.2,2.6-.7,3.7-2,3.7-4.6v-9.8c0-2.9-.5-4.5-1.6-6.9l-6.4-10.9c-1.2-2.1-2-4.9-2-7.3v-8.3c0-3.7,2.5-6.7,6.4-7.7,1.1-.3,2-.4,2.8-.4,2.4,0,3.6,1.4,3.6,4.2v10.3h0l-2.9.8v-10c0-2.2-1-2.9-3.2-2.3-2,.5-3.2,2.2-3.2,4.2v8.9c0,1.8.4,3.4,1.2,5.1l6.3,10.8c1.1,2.1,2.3,4.6,2.3,8.1v10.8c0,4-2.2,6.5-6.7,7.7-1,.3-1.9.4-2.7.4v-.2h0ZM446.6,2020.3v10.1c0,1.6.3,2.7.9,3.5s1.5,1.2,2.9,1.2,1.7,0,2.7-.4c4.4-1.2,6.5-3.6,6.5-7.5v-10.8c0-3.4-1.2-5.9-2.3-8l-6.3-10.8c-.9-1.7-1.2-3.3-1.2-5.2v-8.9c0-2.1,1.3-3.8,3.4-4.4.5,0,.9-.2,1.3-.2,1.4,0,2.1.9,2.1,2.7v9.8l2.6-.7v-10.1c0-2.7-1.1-4-3.4-4s-1.7,0-2.7.4c-3.9,1-6.3,3.9-6.3,7.5v8.3c0,2.4.8,5.1,2,7.2l6.4,10.9c1.1,2.4,1.6,4,1.6,7v9.8c0,2.6-1.1,4-3.8,4.8-.5,0-1,.2-1.4.2h0c-1.5,0-2.2-.9-2.2-2.9v-10.3l-2.6.7h-.2Z"/>
          <path class="cls-97" d="M460.4,2032.6h0l6.2-59.1h0l4.4-1.2h0l6.4,55.7-3.3.9h0l-1.7-16.3-7.4,2-1.7,17.2-3,.8h0ZM466.8,1973.6l-6.2,58.7,2.5-.7,1.7-17.2,7.8-2.1h0l1.7,16.3,2.9-.8-6.3-55.3-4.1,1.1ZM465.1,2012.2h0l2-19.5c.3-2.9.5-5.9.7-8.8.2-2.9.4-5.9.7-8.8h0l.3-.2h0c0,4.8.7,9.4,1.2,13.8,0,1.1.2,2.1.4,3.2l1.9,18.4-7.3,1.9h.1ZM468.7,1975.4c-.3,2.8-.5,5.7-.7,8.5-.2,2.9-.4,5.9-.7,8.8l-2,19.2,6.8-1.8-1.9-18.2c0-1.1-.2-2.1-.4-3.2-.5-4.3-1-8.8-1.2-13.3h0,0Z"/>
          <path class="cls-97" d="M479.1,2027.5v-57.5h0l4.7-1.3h0l5.2,35.7c.6,4,1.4,10,2.5,16.8v-2.7c-.5-6.6-.7-12.4-.7-15.1v-36.5h0l3.2-.9v57.5l-4.8,1.3h0l-5.4-35.1c-.4-2.5-1-8.2-1.7-14.2l-.4-3.1c0,4.1.2,8.1.4,11.1,0,2.3.2,4.1.2,4.9v38.3l-3.3.9h.1ZM479.3,1970.2v57l2.9-.8v-38.1c0-.8,0-2.6-.2-4.9,0-3.1-.3-7.4-.4-11.6h0l.3-.2h0l.4,3.8c.7,6,1.3,11.7,1.7,14.2l5.3,34.9,4.4-1.2v-57l-2.9.8v36.4c0,2.7.3,8.4.6,15.1l.2,3.2h-.3c-1-7-1.9-13.1-2.5-17.2l-5.2-35.4-4.4,1.2v-.2h0Z"/>
        </g>
        <g>
          <path class="cls-49" d="M364,1999.9l6.5-1.7c4.5-1.2,6.9,0,6.9,4.3v45c0,4.3-2.4,6.7-6.9,7.9l-6.5,1.7v-57.2h0ZM370.2,2053.1c2.8-.7,4.1-2.1,4.1-4.6v-45.5c0-2.5-1.4-3.1-4.1-2.4l-3.1.8v52.5l3.1-.8Z"/>
          <path class="cls-52" d="M382.4,1995l10.5-2.8v2.4l-7.4,2v24.3l7-1.9v2.4l-7,1.9v25.8l8-2.1v2.4l-11,3v-57.4h0Z"/>
          <path class="cls-51" d="M396.6,1991.2l6.9-1.8c3.7-1,6.3,0,6.3,3.6v16.9c0,3.1-.8,5.5-4.7,6.9v.2c2.8-.5,4.7.4,4.7,3.9v24.1l-3.1.8v-24.1c0-2.1-1.1-3.8-4.2-3l-2.8.8v28.2l-3.1.8v-57.2h0ZM402.6,2016.2c2.6-.7,4.1-2.4,4.1-4.9v-16.9c0-2.5-1.3-3.2-3.8-2.6l-3.3.9v24.3l3-.8h0Z"/>
          <path class="cls-53" d="M415,1986.2l3.1-.8v57.2l-3.1.8v-57.2ZM418.1,2012.4l7.6-29,2.8-.7-7.6,29,8.3,28.1-3.1.8-8-28.1h0Z"/>
          <path class="cls-54" d="M440.8,1979.4l3.1-.8-6.4,36.3v22.6l-3.1.8v-22.6l-6.4-32.9,3.1-.8,4.7,29.7h.2l4.7-32.3h.1Z"/>
          <path class="cls-68" d="M448,2029.1c0,1.9.7,3.3,3.5,2.5,2.6-.7,3.8-2,3.8-4.7v-9.8c0-3-.5-4.6-1.6-6.9l-6.4-10.9c-1.3-2.2-2-5-2-7.2v-8.3c0-3.7,2.5-6.6,6.4-7.6,4.1-1.1,6.3,0,6.3,3.6v10.2l-2.8.7v-9.9c0-2.3-1.1-2.9-3.3-2.4-2.1.6-3.3,2.4-3.3,4.3v8.9c0,1.9.4,3.5,1.2,5.1l6.3,10.8c1.3,2.3,2.3,4.9,2.3,8v10.8c0,3.6-1.8,6.3-6.6,7.6-4.7,1.3-6.5-.5-6.5-4.4v-10.1l2.8-.7v10.4h-.1Z"/>
          <path class="cls-56" d="M471.2,2011.7l-7.6,2-1.7,17.2-2.8.7,6.2-58.9,4.3-1.1,6.4,55.5-3.1.8-1.8-16.3h0ZM470.9,2009.4l-1.9-18.3c-.6-5.5-1.4-11.1-1.5-16.9h-.2c-.6,5.9-.8,11.8-1.5,17.7l-2,19.3,7-1.9h0Z"/>
          <path class="cls-69" d="M477.9,1969.4l4.6-1.2,5.2,35.6c.6,4.4,1.5,10.6,2.5,17.2h.2c-.4-7.9-.8-15.1-.8-18.2v-36.5l3.1-.8v57.2l-4.6,1.2-5.4-35c-.5-3-1.3-10.5-2.1-17.8h-.2c.2,7.4.5,14.6.5,16.5v38.2l-3.1.8v-57.2h.1Z"/>
        </g>
        <line class="cls-16" x1="363.9" y1="2063.6" x2="494.4" y2="2028.6"/>
        <line class="cls-16" x1="363.6" y1="1994.4" x2="492.7" y2="1959.8"/>
      </g>
      <g>
        <g>
          <path class="cls-97" d="M366.2,2058.1v-57.4l6.6-1.8c1.1-.3,2.1-.5,2.9-.5,2.7,0,4.1,1.6,4.1,4.8v45c0,4.2-2.2,6.8-7,8.1l-6.6,1.8h0ZM366.4,2000.8v57l6.4-1.7c4.6-1.2,6.8-3.7,6.8-7.9v-45c0-3.1-1.3-4.6-3.9-4.6s-1.8,0-2.9.4l-6.4,1.7h0ZM369.2,2054.9v-52.7h0l3.1-.9c.7-.2,1.3-.3,1.9-.3,1.6,0,2.4.9,2.4,2.8v45.5c0,2.4-1.3,3.9-4.2,4.7l-3.3.9h0ZM369.5,2002.3v52.3l3-.8c2.8-.7,4.1-2.1,4.1-4.5v-45.5c0-1.7-.7-2.6-2.2-2.6s-1.1,0-1.8.3l-3.1.8h0Z"/>
          <path class="cls-97" d="M384.6,2053.1v-57.5h0l10.6-2.9v2.6h0l-7.3,2v24l7-1.9v2.6h0l-6.9,1.9v25.6l8-2.1v2.6h0l-11.2,3h-.2ZM384.8,1995.8v57l10.8-2.9v-2.2l-8,2.1v-26.1h0l6.9-1.9v-2.2l-7,1.9v-24.5h0l7.4-2v-2.2l-10.3,2.8.2.2h0Z"/>
          <path class="cls-97" d="M398.8,2049.3v-57.4l7-1.9c.9-.2,1.7-.4,2.4-.4,2.6,0,4,1.5,4,4.1v16.9c0,2.7-.6,5.4-4.6,6.9,3-.5,4.6.9,4.6,4v24.2h0l-3.2.9v-24.2c0-2-1-3.1-2.7-3.1s-.9,0-1.4.2l-2.8.7v28.2l-3.3.9h0ZM399,1992v57l2.9-.8v-28.2h0l2.8-.8c.5,0,1-.2,1.5-.2,1.8,0,2.9,1.2,2.9,3.3v24l2.9-.8v-24c0-2.6-1.1-3.9-3.3-3.9s-.8,0-1.3,0h0v-.3h0c4.1-1.5,4.7-4.1,4.7-6.8v-16.9c0-2.5-1.3-3.9-3.8-3.9s-1.5,0-2.4.4l-6.8,1.8h0ZM401.8,2017.9v-24.5h0l3.3-.9c2.6-.7,3.9.2,3.9,2.7v16.9c0,2.5-1.4,4.3-4.1,5l-3.1.8h0ZM402.1,1993.6v24l2.9-.8c2.6-.7,4-2.4,4-4.8v-16.9c0-2.3-1.2-3.1-3.6-2.5l-3.2.9h-.1Z"/>
          <path class="cls-97" d="M417.3,2044.4v-57.5h0l3.2-.9v26.3l7.4-28.3,3-.8v.2l-7.6,29,8.4,28.1-3.3.9h0l-7.8-27.5v29.6l-3.3.9h0ZM417.5,1987.1v57l2.9-.8v-57l-2.9.8ZM420.5,2013.1l8,28,2.9-.8-8.3-28h0l7.5-28.8-2.5.7-7.6,28.9h0Z"/>
          <path class="cls-97" d="M436.6,2039.2v-22.7l-6.4-33,3.3-.9,4.7,29.7,4.7-32.2,3.3-.9v.2l-6.4,36.3v22.7l-3.3.9h.1ZM430.5,1983.6l6.3,32.8v22.5l2.9-.8v-22.5l6.3-36.2-2.8.8-4.7,32.3h-.3l-4.7-29.6-2.9.8h-.1Z"/>
          <path class="cls-97" d="M451.4,2035.2c-1.4,0-2.4-.4-3-1.3-.6-.8-.9-2-.9-3.6v-10.2h0l2.9-.8v10.5c0,1.8.6,2.7,2,2.7h0c.4,0,.9,0,1.4-.2,2.6-.7,3.7-2,3.7-4.6v-9.8c0-2.9-.5-4.5-1.6-6.9l-6.4-10.9c-1.2-2.1-2-4.9-2-7.3v-8.3c0-3.7,2.5-6.7,6.4-7.7,1.1-.3,2-.4,2.8-.4,2.4,0,3.6,1.4,3.6,4.2v10.3h0l-2.9.8v-10c0-2.2-1-2.9-3.2-2.3-2,.5-3.2,2.2-3.2,4.2v8.9c0,1.8.4,3.4,1.2,5.1l6.3,10.8c1.1,2.1,2.3,4.6,2.3,8.1v10.8c0,4-2.2,6.5-6.7,7.7-1,.3-1.9.4-2.7.4v-.2h0ZM447.6,2020.3v10.1c0,1.6.3,2.7.9,3.5s1.5,1.2,2.9,1.2,1.7,0,2.7-.4c4.4-1.2,6.5-3.6,6.5-7.5v-10.8c0-3.4-1.2-5.9-2.3-8l-6.3-10.8c-.9-1.7-1.2-3.3-1.2-5.2v-8.9c0-2.1,1.3-3.8,3.4-4.4.5,0,.9-.2,1.3-.2,1.4,0,2.1.9,2.1,2.7v9.8l2.6-.7v-10.1c0-2.7-1.1-4-3.4-4s-1.7,0-2.7.4c-3.9,1-6.3,3.9-6.3,7.5v8.3c0,2.4.8,5.1,2,7.2l6.4,10.9c1.1,2.4,1.6,4,1.6,7v9.8c0,2.6-1.1,4-3.8,4.8-.5,0-1,.2-1.4.2h0c-1.5,0-2.2-.9-2.2-2.9v-10.3l-2.6.7h-.2Z"/>
          <path class="cls-97" d="M461.4,2032.6h0l6.2-59.1h0l4.4-1.2h0l6.4,55.7-3.3.9h0l-1.7-16.3-7.4,2-1.7,17.2-3,.8h0ZM467.8,1973.6l-6.2,58.7,2.5-.7,1.7-17.2,7.8-2.1h0l1.7,16.3,2.9-.8-6.3-55.3-4.1,1.1ZM466.1,2012.2h0l2-19.5c.3-2.9.5-5.9.7-8.8.2-2.9.4-5.9.7-8.8h0l.3-.2h0c0,4.8.7,9.4,1.2,13.8,0,1.1.2,2.1.4,3.2l1.9,18.4-7.3,1.9h.1ZM469.7,1975.4c-.3,2.8-.5,5.7-.7,8.5-.2,2.9-.4,5.9-.7,8.8l-2,19.2,6.8-1.8-1.9-18.2c0-1.1-.2-2.1-.4-3.2-.5-4.3-1-8.8-1.2-13.3h0,0Z"/>
          <path class="cls-97" d="M480.1,2027.5v-57.5h0l4.7-1.3h0l5.2,35.7c.6,4,1.4,10,2.5,16.8v-2.7c-.5-6.6-.7-12.4-.7-15.1v-36.5h0l3.2-.9v57.5l-4.8,1.3h0l-5.4-35.1c-.4-2.5-1-8.2-1.7-14.2l-.4-3.1c0,4.1.2,8.1.4,11.1,0,2.3.2,4.1.2,4.9v38.3l-3.3.9h.1ZM480.3,1970.2v57l2.9-.8v-38.1c0-.8,0-2.6-.2-4.9,0-3.1-.3-7.4-.4-11.6h0l.3-.2h0l.4,3.8c.7,6,1.3,11.7,1.7,14.2l5.3,34.9,4.4-1.2v-57l-2.9.8v36.4c0,2.7.3,8.4.6,15.1l.2,3.2h-.3c-1-7-1.9-13.1-2.5-17.2l-5.2-35.4-4.4,1.2v-.2h0Z"/>
        </g>
        <g>
          <path class="cls-67" d="M365,1999.9l6.5-1.7c4.5-1.2,6.9,0,6.9,4.3v45c0,4.3-2.4,6.7-6.9,7.9l-6.5,1.7v-57.2h0ZM371.2,2053.1c2.8-.7,4.1-2.1,4.1-4.6v-45.5c0-2.5-1.4-3.1-4.1-2.4l-3.1.8v52.5l3.1-.8Z"/>
          <path class="cls-55" d="M383.4,1995l10.5-2.8v2.4l-7.4,2v24.3l7-1.9v2.4l-7,1.9v25.8l8-2.1v2.4l-11,3v-57.4h0Z"/>
          <path class="cls-70" d="M397.6,1991.2l6.9-1.8c3.7-1,6.3,0,6.3,3.6v16.9c0,3.1-.8,5.5-4.7,6.9v.2c2.8-.5,4.7.4,4.7,3.9v24.1l-3.1.8v-24.1c0-2.1-1.1-3.8-4.2-3l-2.8.8v28.2l-3.1.8v-57.2h0ZM403.6,2016.2c2.6-.7,4.1-2.4,4.1-4.9v-16.9c0-2.5-1.3-3.2-3.8-2.6l-3.3.9v24.3l3-.8h0Z"/>
          <path class="cls-60" d="M416,1986.2l3.1-.8v57.2l-3.1.8v-57.2ZM419.1,2012.4l7.6-29,2.8-.7-7.6,29,8.3,28.1-3.1.8-8-28.1h0Z"/>
          <path class="cls-58" d="M441.8,1979.4l3.1-.8-6.4,36.3v22.6l-3.1.8v-22.6l-6.4-32.9,3.1-.8,4.7,29.7h.2l4.7-32.3h.1Z"/>
          <path class="cls-57" d="M449,2029.1c0,1.9.7,3.3,3.5,2.5,2.6-.7,3.8-2,3.8-4.7v-9.8c0-3-.5-4.6-1.6-6.9l-6.4-10.9c-1.3-2.2-2-5-2-7.2v-8.3c0-3.7,2.5-6.6,6.4-7.6,4.1-1.1,6.3,0,6.3,3.6v10.2l-2.8.7v-9.9c0-2.3-1.1-2.9-3.3-2.4-2.1.6-3.3,2.4-3.3,4.3v8.9c0,1.9.4,3.5,1.2,5.1l6.3,10.8c1.3,2.3,2.3,4.9,2.3,8v10.8c0,3.6-1.8,6.3-6.6,7.6-4.7,1.3-6.5-.5-6.5-4.4v-10.1l2.8-.7v10.4h-.1Z"/>
          <path class="cls-59" d="M472.2,2011.7l-7.6,2-1.7,17.2-2.8.7,6.2-58.9,4.3-1.1,6.4,55.5-3.1.8-1.8-16.3h0ZM471.9,2009.4l-1.9-18.3c-.6-5.5-1.4-11.1-1.5-16.9h-.2c-.6,5.9-.8,11.8-1.5,17.7l-2,19.3,7-1.9h0Z"/>
          <path class="cls-65" d="M478.9,1969.4l4.6-1.2,5.2,35.6c.6,4.4,1.5,10.6,2.5,17.2h.2c-.4-7.9-.8-15.1-.8-18.2v-36.5l3.1-.8v57.2l-4.6,1.2-5.4-35c-.5-3-1.3-10.5-2.1-17.8h-.2c.2,7.4.5,14.6.5,16.5v38.2l-3.1.8v-57.2h.1Z"/>
        </g>
        <line class="cls-16" x1="364.9" y1="2063.6" x2="495.4" y2="2028.6"/>
        <line class="cls-16" x1="364.6" y1="1994.4" x2="493.7" y2="1959.8"/>
      </g>
      <path class="cls-97" d="M-63.5,2137.6c-4.2,0-7.3-1.3-9.3-3.9-1.9-2.5-2.8-6.1-2.8-11v-31.4h.2l8.9-2.4v32.3c0,5.6,2,8.1,6.2,8.1h0c1.2,0,2.6-.2,4.2-.6,8-2.2,11.3-6.2,11.3-14v-30.2c0-9-1.5-13.8-4.9-21.2l-19.7-33.4c-3.8-6.4-6.2-15-6.2-22.4v-25.6c0-11.4,7.6-20.5,19.8-23.8,3.3-.9,6.1-1.3,8.5-1.3,7.5,0,11.2,4.2,11.2,12.8v31.7h-.2l-8.9,2.4v-30.8c0-6.6-3-8.8-9.7-7-6,1.6-9.9,6.7-9.9,12.9v27.3c0,5.7,1.1,10.5,3.7,15.7l19.3,33c3.5,6.3,7.1,14.2,7.1,24.8v33.1c0,12.3-6.7,20.1-20.5,23.7-3.2.8-6,1.3-8.3,1.3h0ZM-75,2091.7v30.9c0,4.8.9,8.3,2.6,10.6,1.9,2.5,4.8,3.7,8.8,3.7s5.1-.4,8.2-1.3c13.6-3.7,20-11,20-23.1v-33.1c0-10.4-3.5-18.2-7-24.5l-19.3-33.1c-2.6-5.3-3.8-10.2-3.8-15.9v-27.3c0-6.5,4.1-11.8,10.3-13.5,1.5-.4,2.9-.6,4.1-.6,4.3,0,6.4,2.7,6.4,8.2v30l7.8-2.1v-31.2c0-8.2-3.4-12.1-10.5-12.1s-5.2.4-8.4,1.3c-11.9,3.2-19.3,12.1-19.3,23.2v25.6c0,7.3,2.3,15.8,6.1,22.1l19.8,33.4c3.5,7.5,5,12.4,5,21.5v30.2c0,8-3.5,12.4-11.8,14.6-1.6.4-3.1.7-4.3.7h0c-4.6,0-6.9-2.9-6.9-8.8v-31.5l-7.8,2.1h0Z"/>
      <path class="cls-97" d="M-32.8,2129.3v-.5l19.1-181.2h.2l13.5-3.7v.4l19.6,170.9-10,2.7v-.4l-5.4-49.6-22.7,6.1-5.2,52.8-9.1,2.4h0ZM-13.1,1948.2l-19,180.3,7.8-2.1,5.2-52.8,23.8-6.4v.4l5.4,49.6,8.8-2.4L-.5,1944.8l-12.6,3.4ZM-18.2,2066.7v-.4l6.2-59.4c.9-9,1.6-18.2,2.2-27.1.6-8.9,1.3-18.1,2.2-27.2v-.2l1.1-.3v.4c.4,14.3,2,28.4,3.6,42.1.4,3.3.8,6.5,1.1,9.7l5.9,56.4-22.3,6ZM-7.1,1953.8c-.9,8.6-1.5,17.5-2.1,26-.6,8.9-1.3,18.1-2.2,27.2l-6.1,58.9,20.9-5.6-5.9-55.9c-.4-3.2-.7-6.5-1.1-9.7-1.5-13.3-3.1-27-3.6-40.9h0,0Z"/>
      <path class="cls-97" d="M24.9,2113.9v-176.5h.2l14.5-3.9v.3l16,109.2c1.7,12.4,4.4,30.6,7.5,51.5l-.4-8.1c-1-20.4-1.9-38.1-1.9-46.3v-112.3h.2l9.8-2.7v176.5l-14.7,3.9v-.3l-16.5-107.6c-1.2-7.6-3.2-25.1-5.3-43.6l-1.1-9.5c.3,12.6.8,25,1.1,34.1.3,7,.5,12.5.5,15v117.6l-10,2.7h.1ZM25.5,1937.9v175.2l8.8-2.4v-117.1c0-2.5-.2-8-.5-15-.4-9.5-.9-22.6-1.2-35.7v-.2l1.1-.3v.4l1.3,11.2c2.1,18.5,4.1,36,5.3,43.6l16.4,107.3,13.5-3.6v-175.2l-8.8,2.4v111.8c0,8.2.9,25.8,1.9,46.3l.5,9.9-1,.3v-.3c-3.3-21.5-6-40.3-7.8-53l-15.9-108.9-13.5,3.6v-.3h0Z"/>
      <path class="cls-64" d="M-70.9,2118.8c0,5.8,2.1,10.1,10.8,7.8,8-2.1,11.5-6.3,11.5-14.3v-30.2c0-9.3-1.7-14.2-4.9-21.3l-19.8-33.4c-4-6.7-6.1-15.4-6.1-22.2v-25.6c0-11.4,7.5-20.3,19.5-23.5,12.7-3.4,19.3-.3,19.3,11.1v31.4l-8.5,2.3v-30.4c0-7.1-3.5-9-10.1-7.3-6.6,1.8-10.1,7.3-10.1,13.2v27.3c0,5.8,1.2,10.6,3.8,15.8l19.3,33.1c4,7.2,7.1,14.9,7.1,24.7v33.1c0,11.2-5.4,19.5-20.2,23.4-14.6,3.9-20-1.5-20-13.4v-31.2l8.5-2.3v31.9h0Z"/>
      <path class="cls-66" d="M.4,2065.3l-23.3,6.2-5.2,52.8-8.5,2.3,19.1-180.9,13.2-3.5,19.5,170.6-9.4,2.5-5.4-49.9h0ZM-.3,2058.2l-5.9-56.1c-1.9-17-4.2-34.2-4.7-51.8h-.5c-1.9,18.2-2.6,36.4-4.5,54.4l-6.1,59.4,21.6-5.8h.1Z"/>
      <path class="cls-71" d="M21.1,1935.3l14.1-3.8,16,109.2c1.9,13.4,4.7,32.6,7.8,53h.5c-1.2-24.2-2.3-46.5-2.3-56v-112l9.4-2.5v175.8l-14.1,3.8-16.5-107.6c-1.4-9.1-4-32.3-6.6-54.7h-.5c.5,22.9,1.6,45,1.6,50.8v117.4l-9.4,2.5v-175.8h0Z"/>
      <g>
        <g class="cls-6">
          <g class="cls-6">
            <text class="cls-7" transform="translate(919.5 2215.2)"><tspan x="0" y="0">derkysan.dev@gmail.com</tspan></text>
          </g>
        </g>
        <rect class="cls-17" x="903.6" y="2182.3" width="275" height="53" rx="25" ry="25"/>
        <g>
          <circle class="cls-17" cx="1151.6" cy="2209.1" r="21"/>
          <rect class="cls-17" x="1130.6" y="2188.1" width="42" height="42"/>
        </g>
      </g>
      <g>
        <circle class="cls-17" cx="2094.6" cy="2209.1" r="21"/>
        <rect class="cls-17" x="2073.6" y="2188.1" width="42" height="42"/>
      </g>
      <g>
        <circle class="cls-17" cx="2034.6" cy="2209.1" r="21"/>
        <rect class="cls-17" x="2013.6" y="2188.1" width="42" height="42"/>
      </g>
      <rect class="cls-29" x="556.1" y="2916.6" width="1920" height="404"/>
      <line class="cls-15" x1="2476.1" y1="3320.6" x2="532.6" y2="3320.6"/>
      <polygon class="cls-72" points="556.1 2141.6 2480.1 2141.6 2480.1 2137.6 556.1 2137.6 556.1 2141.6 556.1 2141.6"/>
      <g class="cls-6">
        <g class="cls-6">
          <text class="cls-10" transform="translate(1213.1 3051.7)"><tspan x="0" y="0">Tienes algún proyecto en mente,</tspan></text>
        </g>
        <g class="cls-6">
          <text class="cls-10" transform="translate(1374.1 3099.7)"><tspan x="0" y="0">Conversemos!</tspan></text>
        </g>
      </g>
      <g>
        <circle class="cls-17" cx="1535.7" cy="3193.7" r="30.9"/>
        <rect class="cls-17" x="1504.8" y="3162.8" width="61.8" height="61.8"/>
      </g>
      <g>
        <circle class="cls-17" cx="1447.4" cy="3193.7" r="30.9"/>
        <rect class="cls-17" x="1416.5" y="3162.8" width="61.8" height="61.8"/>
      </g>
      <rect class="cls-34" x="887.1" y="2160.6" width="305" height="95"/>
      <g>
        <path class="cls-97" d="M915.8,2246.6c-1.6,0-2.7-.5-3.4-1.4-.7-.9-1-2.2-1-4v-11.5h0l3.2-.9v11.8c0,2,.7,3,2.3,3h0c.4,0,1,0,1.5-.2,2.9-.8,4.1-2.3,4.1-5.1v-11.1c0-3.3-.6-5.1-1.8-7.8l-7.2-12.2c-1.4-2.3-2.3-5.5-2.3-8.2v-9.4c0-4.2,2.8-7.5,7.2-8.7,1.2-.3,2.2-.5,3.1-.5,2.8,0,4.1,1.5,4.1,4.7v11.6h0l-3.2.9v-11.3c0-2.4-1.1-3.2-3.6-2.6-2.2.6-3.6,2.4-3.6,4.7v10c0,2.1.4,3.9,1.4,5.7l7.1,12.1c1.3,2.3,2.6,5.2,2.6,9.1v12.1c0,4.5-2.5,7.3-7.5,8.7-1.2.3-2.2.5-3.1.5h.1ZM911.7,2229.7v11.3c0,1.8.3,3,1,3.9s1.7,1.4,3.2,1.4,1.9-.2,3-.5c5-1.3,7.3-4,7.3-8.5v-12.1c0-3.8-1.3-6.7-2.6-9l-7.1-12.1c-1-1.9-1.4-3.7-1.4-5.8v-10c0-2.4,1.5-4.3,3.8-4.9.6,0,1.1-.2,1.5-.2,1.6,0,2.4,1,2.4,3v11l2.9-.8v-11.4c0-3-1.3-4.4-3.9-4.4s-1.9.2-3.1.5c-4.4,1.2-7.1,4.4-7.1,8.5v9.4c0,2.7.9,5.8,2.2,8.1l7.2,12.2c1.3,2.7,1.8,4.5,1.8,7.9v11.1c0,2.9-1.3,4.5-4.3,5.3-.6.2-1.1.2-1.6.2h0c-1.7,0-2.5-1.1-2.5-3.2v-11.5l-2.9.8.2-.2h0Z"/>
        <path class="cls-97" d="M927.1,2243.5v-.2l7-66.4h0l5-1.3h0l7.2,62.7-3.7,1h0l-2-18.3-8.3,2.2-1.9,19.3-3.3.9h0ZM934.3,2177.2l-7,66,2.9-.8,1.9-19.3,8.7-2.3h0l2,18.3,3.2-.9-7.1-62.3-4.6,1.2h0ZM932.4,2220.6v-.2l2.3-21.7c.3-3.3.6-6.7.8-9.9.2-3.3.5-6.6.8-9.9h0l.4-.2h0c0,5.4.7,10.6,1.3,15.6,0,1.2.3,2.4.4,3.6l2.2,20.7-8.2,2.2v-.2h0ZM936.5,2179.2c-.3,3.2-.6,6.4-.8,9.5-.2,3.3-.5,6.6-.8,9.9l-2.2,21.6,7.7-2.1-2.1-20.5c0-1.2-.3-2.4-.4-3.6-.6-4.9-1.1-9.9-1.3-15v.2h0Z"/>
        <path class="cls-97" d="M948.2,2237.9v-64.7h0l5.3-1.4h0l5.9,40.1c.6,4.5,1.6,11.2,2.8,18.9v-3c-.5-7.5-.8-13.9-.8-17v-41.1h0l3.6-1v64.7l-5.4,1.4h0l-6-39.6c-.4-2.8-1.2-9.2-1.9-16l-.4-3.5c0,4.6.3,9.2.4,12.5,0,2.6.2,4.6.2,5.5v43.1l-3.7,1h0ZM948.5,2173.4v64.2l3.2-.9v-42.9c0-.9,0-2.9-.2-5.5,0-3.5-.3-8.3-.4-13.1h0l.4-.2h0l.5,4.2c.8,6.8,1.5,13.2,1.9,16l6,39.3,5-1.3v-64.2l-3.2.9v41c0,3,.3,9.5.7,16.9l.2,3.6h-.4c-1.2-7.9-2.2-14.8-2.8-19.4l-5.8-39.9-5,1.3h0,0Z"/>
        <path class="cls-36" d="M913.2,2239.7c0,2.1.8,3.7,4,2.9,2.9-.8,4.2-2.3,4.2-5.2v-11.1c0-3.4-.6-5.2-1.8-7.8l-7.2-12.2c-1.5-2.5-2.2-5.6-2.2-8.1v-9.4c0-4.2,2.8-7.4,7.2-8.6,4.7-1.2,7.1,0,7.1,4.1v11.5l-3.1.8v-11.2c0-2.6-1.3-3.3-3.7-2.7-2.4.6-3.7,2.7-3.7,4.8v10c0,2.1.4,3.9,1.4,5.8l7.1,12.1c1.5,2.6,2.6,5.5,2.6,9v12.1c0,4.1-2,7.1-7.4,8.6-5.3,1.4-7.3-.5-7.3-4.9v-11.4l3.1-.8v11.7h-.3,0Z"/>
        <path class="cls-37" d="M939.3,2220.1l-8.5,2.3-1.9,19.3-3.1.8,7-66.3,4.8-1.3,7.2,62.5-3.4.9-2-18.3h0ZM939,2217.5l-2.2-20.6c-.7-6.2-1.5-12.5-1.7-19h-.2c-.7,6.7-.9,13.3-1.6,19.9l-2.2,21.7,7.9-2.1h0Z"/>
        <path class="cls-38" d="M946.9,2172.5l5.2-1.4,5.9,40c.7,4.9,1.7,11.9,2.8,19.4h.2c-.4-8.9-.9-17-.9-20.5v-41.1l3.4-.9v64.4l-5.2,1.4-6-39.4c-.5-3.3-1.5-11.8-2.4-20.1h-.2c.2,8.4.6,16.5.6,18.6v43l-3.4.9v-64.3Z"/>
      </g>
      <g>
        <path class="cls-97" d="M902.8,1885.6c-1.6,0-2.7-.5-3.4-1.4-.7-.9-1-2.2-1-4v-11.5h0l3.2-.9v11.8c0,2,.7,3,2.3,3h0c.4,0,1,0,1.5-.2,2.9-.8,4.1-2.3,4.1-5.1v-11.1c0-3.3-.6-5.1-1.8-7.8l-7.2-12.2c-1.4-2.3-2.3-5.5-2.3-8.2v-9.4c0-4.2,2.8-7.5,7.2-8.7,1.2-.3,2.2-.5,3.1-.5,2.8,0,4.1,1.5,4.1,4.7v11.6h0l-3.2.9v-11.3c0-2.4-1.1-3.2-3.6-2.6-2.2.6-3.6,2.4-3.6,4.7v10c0,2.1.4,3.9,1.4,5.7l7.1,12.1c1.3,2.3,2.6,5.2,2.6,9.1v12.1c0,4.5-2.5,7.3-7.5,8.7-1.2.3-2.2.5-3.1.5h.1ZM898.7,1868.7v11.3c0,1.8.3,3,1,3.9s1.7,1.4,3.2,1.4,1.9-.2,3-.5c5-1.3,7.3-4,7.3-8.5v-12.1c0-3.8-1.3-6.7-2.6-9l-7.1-12.1c-1-1.9-1.4-3.7-1.4-5.8v-10c0-2.4,1.5-4.3,3.8-4.9.6,0,1.1-.2,1.5-.2,1.6,0,2.4,1,2.4,3v11l2.9-.8v-11.4c0-3-1.3-4.4-3.9-4.4s-1.9.2-3.1.5c-4.4,1.2-7.1,4.4-7.1,8.5v9.4c0,2.7.9,5.8,2.2,8.1l7.2,12.2c1.3,2.7,1.8,4.5,1.8,7.9v11.1c0,2.9-1.3,4.5-4.3,5.3-.6.2-1.1.2-1.6.2h0c-1.7,0-2.5-1.1-2.5-3.2v-11.5l-2.9.8.2-.2h0Z"/>
        <path class="cls-97" d="M914.1,1882.5v-.2l7-66.4h0l5-1.3h0c0,0,7.2,62.7,7.2,62.7l-3.7,1h0c0,0-2-18.3-2-18.3l-8.3,2.2-1.9,19.3-3.3.9h0ZM921.3,1816.2l-7,66,2.9-.8,1.9-19.3,8.7-2.3h0c0,0,2,18.3,2,18.3l3.2-.9-7.1-62.3-4.6,1.2h0ZM919.4,1859.6v-.2l2.3-21.7c.3-3.3.6-6.7.8-9.9.2-3.3.5-6.6.8-9.9h0l.4-.2h0c0,5.4.7,10.6,1.3,15.6,0,1.2.3,2.4.4,3.6l2.2,20.7-8.2,2.2v-.2h0ZM923.5,1818.2c-.3,3.2-.6,6.4-.8,9.5-.2,3.3-.5,6.6-.8,9.9l-2.2,21.6,7.7-2.1-2.1-20.5c0-1.2-.3-2.4-.4-3.6-.6-4.9-1.1-9.9-1.3-15v.2h0Z"/>
        <path class="cls-97" d="M935.2,1876.9v-64.7h0l5.3-1.4h0c0,0,5.9,40.1,5.9,40.1.6,4.5,1.6,11.2,2.8,18.9v-3c-.5-7.5-.8-13.9-.8-17v-41.1h0l3.6-1v64.7l-5.4,1.4h0c0,0-6-39.6-6-39.6-.4-2.8-1.2-9.2-1.9-16l-.4-3.5c0,4.6.3,9.2.4,12.5,0,2.6.2,4.6.2,5.5v43.1l-3.7,1h0ZM935.5,1812.4v64.2l3.2-.9v-42.9c0-.9,0-2.9-.2-5.5,0-3.5-.3-8.3-.4-13.1h0l.4-.2h0c0,0,.5,4.2.5,4.2.8,6.8,1.5,13.2,1.9,16l6,39.3,5-1.3v-64.2l-3.2.9v41c0,3,.3,9.5.7,16.9l.2,3.6h-.4c0,0,0,0,0,0-1.2-7.9-2.2-14.8-2.8-19.4l-5.8-39.9-5,1.3h0,0Z"/>
        <path class="cls-35" d="M900.2,1878.7c0,2.1.8,3.7,4,2.9,2.9-.8,4.2-2.3,4.2-5.2v-11.1c0-3.4-.6-5.2-1.8-7.8l-7.2-12.2c-1.5-2.5-2.2-5.6-2.2-8.1v-9.4c0-4.2,2.8-7.4,7.2-8.6,4.7-1.2,7.1,0,7.1,4.1v11.5l-3.1.8v-11.2c0-2.6-1.3-3.3-3.7-2.7-2.4.6-3.7,2.7-3.7,4.8v10c0,2.1.4,3.9,1.4,5.8l7.1,12.1c1.5,2.6,2.6,5.5,2.6,9v12.1c0,4.1-2,7.1-7.4,8.6-5.3,1.4-7.3-.5-7.3-4.9v-11.4l3.1-.8v11.7h-.3,0Z"/>
        <path class="cls-43" d="M926.3,1859.1l-8.5,2.3-1.9,19.3-3.1.8,7-66.3,4.8-1.3,7.2,62.5-3.4.9-2-18.3h0ZM926,1856.5l-2.2-20.6c-.7-6.2-1.5-12.5-1.7-19h-.2c-.7,6.7-.9,13.3-1.6,19.9l-2.2,21.7,7.9-2.1h0Z"/>
        <path class="cls-41" d="M933.9,1811.5l5.2-1.4,5.9,40c.7,4.9,1.7,11.9,2.8,19.4h.2c-.4-8.9-.9-17-.9-20.5v-41l3.4-.9v64.4l-5.2,1.4-6-39.4c-.5-3.3-1.5-11.8-2.4-20.1h-.2c.2,8.4.6,16.5.6,18.6v43l-3.4.9v-64.4Z"/>
      </g>
      <g class="cls-6">
        <g class="cls-6">
          <text class="cls-3" transform="translate(1359.4 2402.7)"><tspan x="0" y="0">DERKY SÁNCHEZ</tspan></text>
        </g>
      </g>
      <g class="cls-6">
        <g class="cls-6">
          <text class="cls-9" transform="translate(1442.8 2426.7)"><tspan x="0" y="0">DESARROLLADOR WEB</tspan></text>
        </g>
      </g>
      <g class="cls-6">
        <g class="cls-6">
          <text class="cls-10" transform="translate(1531 2523)"><tspan x="0" y="0">v</tspan></text>
        </g>
      </g>
      <g>
        <path class="cls-44" d="M1262.3,2799.1v-2.3h11.4v2.3h-4.4v13.4h-2.6v-13.4h-4.4Z"/>
        <path class="cls-42" d="M1275.8,2812.5v-15.6h9.9v2.2h-7.3v4.4h6v2.2h-6v4.6h7.3v2.2h-9.9Z"/>
        <path class="cls-40" d="M1293.5,2812.7c-2.3,0-3.8-.6-4.6-1.9-.8-1.3-1.2-3.3-1.2-6.2s.4-4.9,1.2-6.2,2.4-1.8,4.6-1.8,2.8.2,4.5.6v2.1c-1.5-.2-2.8-.4-4.2-.4s-2.3.4-2.8,1.2-.7,2.3-.7,4.6.2,3.8.7,4.6,1.4,1.2,2.8,1.2,2.8,0,4.1-.3v2.1c-1.5.3-3,.5-4.4.5h0Z"/>
        <path class="cls-39" d="M1310,2812.5v-6.7h-6.7v6.7h-2.5v-15.6h2.5v6.7h6.7v-6.7h2.6v15.6h-2.6Z"/>
        <path class="cls-79" d="M1325.7,2798.8c-1.9,0-2.9.7-2.9,2s.2,1.2.7,1.5,1.5.7,3,1.1c1.6.4,2.7.9,3.3,1.5s1,1.5,1,2.8-.5,2.9-1.4,3.7-2.2,1.2-3.8,1.2-2.7-.2-4.3-.5l-.8-.2.3-2c2.1.3,3.6.4,4.7.4,1.9,0,2.8-.8,2.8-2.5s-.2-1.1-.6-1.4c-.4-.3-1.4-.7-2.9-1-1.5-.4-2.6-.9-3.3-1.5-.7-.7-1.1-1.7-1.1-3.1s.5-2.5,1.4-3.2,2.2-1.1,3.8-1.1,2.6,0,4.1.4h.8l-.2,2.2c-2.1-.2-3.6-.4-4.5-.4h0Z"/>
        <path class="cls-80" d="M1332,2799.1v-2.3h11.4v2.3h-4.4v13.4h-2.6v-13.4h-4.4Z"/>
        <path class="cls-81" d="M1343.2,2812.5l3.9-15.6h5l3.9,15.6h-2.6l-.8-3.4h-6l-.8,3.4h-2.6ZM1349,2799l-1.9,7.9h5l-1.9-7.9h-1.2Z"/>
        <path class="cls-76" d="M1363.2,2812.7c-2.3,0-3.8-.6-4.6-1.9-.8-1.3-1.2-3.3-1.2-6.2s.4-4.9,1.2-6.2,2.4-1.8,4.6-1.8,2.8.2,4.5.6v2.1c-1.5-.2-2.8-.4-4.2-.4s-2.3.4-2.8,1.2-.7,2.3-.7,4.6.2,3.8.7,4.6,1.4,1.2,2.8,1.2,2.8,0,4.1-.3v2.1c-1.5.3-3,.5-4.4.5h0Z"/>
        <path class="cls-77" d="M1372.9,2812.5h-2.5v-15.6h2.5v7l2.3-.2,3.2-6.9h2.9l-3.9,7.8,4,7.8h-2.9l-3.3-6.5-2.3.2v6.4h0Z"/>
      </g>
      <g>
        <circle class="cls-20" cx="1461.6" cy="2803.5" r="21.3"/>
        <rect class="cls-20" x="1440.3" y="2782.1" width="42.7" height="42.7"/>
      </g>
      <g>
        <circle class="cls-20" cx="1526.9" cy="2803.5" r="21.3"/>
        <rect class="cls-20" x="1505.6" y="2782.1" width="42.7" height="42.7"/>
      </g>
      <g>
        <circle class="cls-19" cx="1591.6" cy="2802.7" r="21.3"/>
        <rect class="cls-20" x="1570.9" y="2782.1" width="42.7" height="42.7"/>
      </g>
      <g>
        <circle class="cls-20" cx="1657.5" cy="2803.5" r="21.3"/>
        <rect class="cls-20" x="1636.2" y="2782.1" width="42.7" height="42.7"/>
      </g>
      <g>
        <circle class="cls-20" cx="1722.8" cy="2803.5" r="21.3"/>
        <rect class="cls-20" x="1701.5" y="2782.1" width="42.7" height="42.7"/>
      </g>
      <g>
        <circle class="cls-20" cx="1788.1" cy="2803.5" r="21.3"/>
        <rect class="cls-20" x="1766.8" y="2782.1" width="42.7" height="42.7"/>
      </g>
      <line class="cls-14" x1="1410.1" y1="2775.8" x2="1410.1" y2="2833.6"/>
      <g>
        <circle class="cls-17" cx="998.6" cy="3392.1" r="21"/>
        <rect class="cls-17" x="977.6" y="3371.1" width="42" height="42"/>
      </g>
      <g>
        <circle class="cls-17" cx="938.6" cy="3392.1" r="21"/>
        <rect class="cls-17" x="917.6" y="3371.1" width="42" height="42"/>
      </g>
      <rect class="cls-98" x="-289.8" y="747.8" width="374.6" height="374.6"/>
      <g>
        <path class="cls-97" d="M-144.4,1011c-3,0-5.2-.9-6.6-2.8-1.3-1.8-2-4.3-2-7.8v-22.2h.1l6.3-1.7v22.9c0,4,1.4,5.7,4.4,5.7h0c.9,0,1.8-.1,3-.4,5.7-1.6,8-4.4,8-9.9v-21.4c0-6.4-1.1-9.8-3.5-15l-14-23.7c-2.7-4.5-4.4-10.6-4.4-15.9v-18.1c0-8.1,5.4-14.5,14-16.9,2.3-.6,4.3-.9,6-.9,5.3,0,7.9,3,7.9,9.1v22.5h-.1l-6.3,1.7v-21.8c0-4.7-2.1-6.2-6.9-5-4.3,1.1-7,4.7-7,9.1v19.3c0,4,.8,7.4,2.6,11.1l13.7,23.4c2.5,4.5,5,10.1,5,17.6v23.5c0,8.7-4.7,14.2-14.5,16.8-2.3.6-4.3.9-5.9.9h.2ZM-152.6,978.5v21.9c0,3.4.6,5.9,1.8,7.5,1.3,1.8,3.4,2.6,6.2,2.6s3.6-.3,5.8-.9c9.6-2.6,14.2-7.8,14.2-16.4v-23.5c0-7.4-2.5-12.9-5-17.4l-13.7-23.5c-1.8-3.8-2.7-7.2-2.7-11.3v-19.3c0-4.6,2.9-8.4,7.3-9.6,1.1-.3,2.1-.4,2.9-.4,3,0,4.5,1.9,4.5,5.8v21.3l5.5-1.5v-22.1c0-5.8-2.4-8.6-7.4-8.6s-3.7.3-6,.9c-8.4,2.3-13.7,8.6-13.7,16.4v18.1c0,5.2,1.6,11.2,4.3,15.7l14,23.7c2.5,5.3,3.5,8.8,3.5,15.2v21.4c0,5.7-2.5,8.8-8.4,10.3-1.1.3-2.2.5-3,.5h0c-3.3,0-4.9-2.1-4.9-6.2v-22.3l-5.5,1.5h0l.3.2Z"/>
        <path class="cls-97" d="M-122.7,1005.2v-.4l13.5-128.4h.1l9.6-2.6v.3l13.9,121.1-7.1,1.9v-.3l-3.8-35.1-16.1,4.3-3.7,37.4-6.4,1.7h0ZM-108.7,876.8l-13.5,127.8,5.5-1.5,3.7-37.4,16.9-4.5v.3l3.8,35.1,6.2-1.7-13.7-120.5-8.9,2.4h0ZM-112.3,960.8v-.3l4.4-42.1c.6-6.4,1.1-12.9,1.6-19.2.4-6.3.9-12.8,1.6-19.3h0c0-.1.8-.4.8-.4v.3c.3,10.1,1.4,20.1,2.6,29.8.3,2.3.6,4.6.8,6.9l4.2,40-15.8,4.3h-.2ZM-104.5,880.8c-.6,6.1-1.1,12.4-1.5,18.4-.4,6.3-.9,12.8-1.6,19.3l-4.3,41.7,14.8-4-4.2-39.6c-.3-2.3-.5-4.6-.8-6.9-1.1-9.4-2.2-19.1-2.6-29h.2Z"/>
        <path class="cls-97" d="M-81.8,994.3v-125.1h.1l10.3-2.8v.2l11.3,77.4c1.2,8.8,3.1,21.7,5.3,36.5l-.3-5.7c-.7-14.5-1.3-27-1.3-32.8v-79.6h.1l6.9-1.9v125.1l-10.4,2.8v-.2l-11.7-76.2c-.9-5.4-2.3-17.8-3.8-30.9l-.8-6.7c.2,8.9.6,17.7.8,24.2.2,5,.4,8.9.4,10.6v83.3l-7.1,1.9h.2ZM-81.4,869.5v124.1l6.2-1.7v-83c0-1.8-.1-5.7-.4-10.6-.3-6.7-.6-16-.9-25.3h0c0,0,.8-.4.8-.4v.3l.9,7.9c1.5,13.1,2.9,25.5,3.8,30.9l11.6,76,9.6-2.6v-124.1l-6.2,1.7v79.2c0,5.8.6,18.3,1.3,32.8l.4,7-.7.2v-.2c-2.3-15.2-4.3-28.6-5.5-37.6l-11.3-77.2-9.6,2.6v-.2.2Z"/>
        <path class="cls-78" d="M-149.7,997.7c0,4.1,1.5,7.2,7.7,5.5,5.7-1.5,8.1-4.5,8.1-10.1v-21.4c0-6.6-1.2-10.1-3.5-15.1l-14-23.7c-2.8-4.7-4.3-10.9-4.3-15.7v-18.1c0-8.1,5.3-14.4,13.8-16.7,9-2.4,13.7-.2,13.7,7.9v22.2l-6,1.6v-21.5c0-5-2.5-6.4-7.2-5.2-4.7,1.3-7.2,5.2-7.2,9.4v19.3c0,4.1.9,7.5,2.7,11.2l13.7,23.5c2.8,5.1,5,10.6,5,17.5v23.5c0,7.9-3.8,13.8-14.3,16.6-10.3,2.8-14.2-1.1-14.2-9.5v-22.1l6-1.6v22.6h0Z"/>
        <path class="cls-96" d="M-99.2,959.8l-16.5,4.4-3.7,37.4-6,1.6,13.5-128.2,9.4-2.5,13.8,120.9-6.7,1.8-3.8-35.4h0ZM-99.6,954.8l-4.2-39.8c-1.3-12-3-24.2-3.3-36.7h-.4c-1.3,12.9-1.8,25.8-3.2,38.5l-4.3,42.1,15.3-4.1h0Z"/>
        <path class="cls-73" d="M-84.5,867.7l10-2.7,11.3,77.4c1.3,9.5,3.3,23.1,5.5,37.6h.4c-.9-17.1-1.6-32.9-1.6-39.7v-79.4l6.7-1.8v124.6l-10,2.7-11.7-76.2c-1-6.4-2.8-22.9-4.7-38.8h-.4c.4,16.2,1.1,31.9,1.1,36v83.2l-6.7,1.8v-124.6h0Z"/>
      </g>
      <rect class="cls-32" x="-289.8" y="364.5" width="374.6" height="374.6"/>
      <g>
        <path d="M-149.7,608.2c0,4.1,1.5,7.2,7.7,5.5,5.7-1.5,8.1-4.5,8.1-10.1v-21.4c0-6.6-1.2-10.1-3.5-15.1l-14-23.7c-2.8-4.7-4.3-10.9-4.3-15.7v-18.1c0-8.1,5.3-14.4,13.8-16.7,9-2.4,13.7-.2,13.7,7.9v22.2l-6,1.6v-21.5c0-5-2.5-6.4-7.2-5.2-4.7,1.3-7.2,5.2-7.2,9.4v19.3c0,4.1.9,7.5,2.7,11.2l13.7,23.5c2.8,5.1,5,10.6,5,17.5v23.5c0,7.9-3.8,13.8-14.3,16.6-10.3,2.8-14.2-1.1-14.2-9.5v-22.1l6-1.6v22.6h0Z"/>
        <path d="M-99.2,570.3l-16.5,4.4-3.7,37.4-6,1.6,13.5-128.2,9.4-2.5,13.8,120.9-6.7,1.8-3.8-35.4h0ZM-99.6,565.3l-4.2-39.8c-1.3-12-3-24.2-3.3-36.7h-.4c-1.3,12.9-1.8,25.8-3.2,38.5l-4.3,42.1,15.3-4.1h0Z"/>
        <path d="M-84.5,478.2l10-2.7,11.3,77.4c1.3,9.5,3.3,23.1,5.5,37.6h.4c-.9-17.1-1.6-32.9-1.6-39.7v-79.4l6.7-1.8v124.6l-10,2.7-11.7-76.2c-1-6.4-2.8-22.9-4.7-38.8h-.4c.4,16.2,1.1,31.9,1.1,36v83.2l-6.7,1.8v-124.6h0Z"/>
      </g>
      <g>
        <path class="cls-18" d="M-147.7,609.2c0,4.1,1.5,7.2,7.7,5.5,5.7-1.5,8.1-4.5,8.1-10.1v-21.4c0-6.6-1.2-10.1-3.5-15.1l-14-23.7c-2.8-4.7-4.3-10.9-4.3-15.7v-18.1c0-8.1,5.3-14.4,13.8-16.7,9-2.4,13.7-.2,13.7,7.9v22.2l-6,1.6v-21.5c0-5-2.5-6.4-7.2-5.2-4.7,1.3-7.2,5.2-7.2,9.4v19.3c0,4.1.9,7.5,2.7,11.2l13.7,23.5c2.8,5.1,5,10.6,5,17.5v23.5c0,7.9-3.8,13.8-14.3,16.6-10.3,2.8-14.2-1.1-14.2-9.5v-22.1l6-1.6v22.6h0Z"/>
        <path class="cls-18" d="M-97.2,571.3l-16.5,4.4-3.7,37.4-6,1.6,13.5-128.2,9.4-2.5,13.8,120.9-6.7,1.8-3.8-35.4h0ZM-97.6,566.3l-4.2-39.8c-1.3-12-3-24.2-3.3-36.7h-.4c-1.3,12.9-1.8,25.8-3.2,38.5l-4.3,42.1,15.3-4.1h0Z"/>
        <path class="cls-18" d="M-82.5,479.2l10-2.7,11.3,77.4c1.3,9.5,3.3,23.1,5.5,37.6h.4c-.9-17.1-1.6-32.9-1.6-39.7v-79.4l6.7-1.8v124.6l-10,2.7-11.7-76.2c-1-6.4-2.8-22.9-4.7-38.8h-.4c.4,16.2,1.1,31.9,1.1,36v83.2l-6.7,1.8v-124.6h0Z"/>
      </g>
      <rect class="cls-98" x="480.7" y="1135.2" width="374.6" height="374.6"/>
      <g>
        <path class="cls-97" d="M626.1,1398.4c-3,0-5.2-.9-6.6-2.8-1.3-1.8-2-4.3-2-7.8v-22.2h.1l6.3-1.7v22.9c0,4,1.4,5.7,4.4,5.7h0c.9,0,1.8-.1,3-.4,5.7-1.6,8-4.4,8-9.9v-21.4c0-6.4-1.1-9.8-3.5-15l-14-23.7c-2.7-4.5-4.4-10.6-4.4-15.9v-18.1c0-8.1,5.4-14.5,14-16.9,2.3-.6,4.3-.9,6-.9,5.3,0,7.9,3,7.9,9.1v22.5h-.1l-6.3,1.7v-21.8c0-4.7-2.1-6.2-6.9-5-4.3,1.1-7,4.7-7,9.1v19.3c0,4,.8,7.4,2.6,11.1l13.7,23.4c2.5,4.5,5,10.1,5,17.6v23.5c0,8.7-4.7,14.2-14.5,16.8-2.3.6-4.3.9-5.9.9h.2ZM617.9,1365.9v21.9c0,3.4.6,5.9,1.8,7.5,1.3,1.8,3.4,2.6,6.2,2.6s3.6-.3,5.8-.9c9.6-2.6,14.2-7.8,14.2-16.4v-23.5c0-7.4-2.5-12.9-5-17.4l-13.7-23.5c-1.8-3.8-2.7-7.2-2.7-11.3v-19.3c0-4.6,2.9-8.4,7.3-9.6,1.1-.3,2.1-.4,2.9-.4,3,0,4.5,1.9,4.5,5.8v21.3l5.5-1.5v-22.1c0-5.8-2.4-8.6-7.4-8.6s-3.7.3-6,.9c-8.4,2.3-13.7,8.6-13.7,16.4v18.1c0,5.2,1.6,11.2,4.3,15.7l14,23.7c2.5,5.3,3.5,8.8,3.5,15.2v21.4c0,5.7-2.5,8.8-8.4,10.3-1.1.3-2.2.5-3,.5h0c-3.3,0-4.9-2.1-4.9-6.2v-22.3l-5.5,1.5h0l.3.2Z"/>
        <path class="cls-97" d="M647.8,1392.6v-.4l13.5-128.4h.1l9.6-2.6v.3l13.9,121.1-7.1,1.9v-.3l-3.8-35.1-16.1,4.3-3.7,37.4-6.4,1.7h0ZM661.8,1264.2l-13.5,127.8,5.5-1.5,3.7-37.4,16.9-4.5v.3l3.8,35.1,6.2-1.7-13.7-120.5-8.9,2.4h0ZM658.2,1348.2v-.3l4.4-42.1c.6-6.4,1.1-12.9,1.6-19.2.4-6.3.9-12.8,1.6-19.3h0c0-.1.8-.4.8-.4v.3c.3,10.1,1.4,20.1,2.6,29.8.3,2.3.6,4.6.8,6.9l4.2,40-15.8,4.3h-.2ZM666,1268.2c-.6,6.1-1.1,12.4-1.5,18.4-.4,6.3-.9,12.8-1.6,19.3l-4.3,41.7,14.8-4-4.2-39.6c-.3-2.3-.5-4.6-.8-6.9-1.1-9.4-2.2-19.1-2.6-29h.2Z"/>
        <path class="cls-97" d="M688.7,1381.7v-125.1h.1l10.3-2.8v.2l11.3,77.4c1.2,8.8,3.1,21.7,5.3,36.5l-.3-5.7c-.7-14.5-1.3-27-1.3-32.8v-79.6h.1l6.9-1.9v125.1l-10.4,2.8v-.2l-11.7-76.2c-.9-5.4-2.3-17.8-3.8-30.9l-.8-6.7c.2,8.9.6,17.7.8,24.2.2,5,.4,8.9.4,10.6v83.3l-7.1,1.9h.2ZM689.1,1256.9v124.1l6.2-1.7v-83c0-1.8-.1-5.7-.4-10.6-.3-6.7-.6-16-.9-25.3h0c0,0,.8-.4.8-.4v.3l.9,7.9c1.5,13.1,2.9,25.5,3.8,30.9l11.6,76,9.6-2.6v-124.1l-6.2,1.7v79.2c0,5.8.6,18.3,1.3,32.8l.4,7-.7.2v-.2c-2.3-15.2-4.3-28.6-5.5-37.6l-11.3-77.2-9.6,2.6v-.2.2Z"/>
        <path class="cls-74" d="M634.5,1269.8c4.6,0,6.7,2.4,6.7,7.8v21.4l-4,1.1v-20.2c0-5.5-2.9-6.6-5.4-6.6-.9,0-1.9.1-3.1.4-4.8,1.3-7.9,5.4-7.9,10.4v19.3c0,4.1.9,7.7,2.8,11.6h0s0,0,0,0l13.7,23.5c2.4,4.4,4.9,9.8,4.9,17v23.5c0,8.2-4.3,13.2-13.6,15.6-2.1.6-4,.9-5.6.9-5.1,0-7.4-2.9-7.4-9.4v-21.3l4-1.1v21.2h0c0,0,0,0,0,0,0,5.7,3.1,6.9,5.6,6.9s2.1-.2,3.3-.5c6.1-1.6,8.8-5,8.8-11.1v-21.4c0-6.6-1.2-10.2-3.6-15.5h0s0,0,0,0l-14-23.7c-2.5-4.2-4.2-10.2-4.2-15.2v-18.1c0-7.6,4.9-13.5,13.1-15.7,2.2-.6,4.1-.9,5.7-.9M634.5,1268.8c-1.7,0-3.7.3-6,.9-8.5,2.3-13.8,8.6-13.8,16.7v18.1c0,4.8,1.5,11,4.3,15.7l14,23.7c2.3,5,3.5,8.5,3.5,15.1v21.4c0,5.6-2.4,8.6-8.1,10.1-1.2.3-2.2.5-3.1.5-3.7,0-4.6-2.7-4.6-6h0c0,0,0,0,0,0v-22.5l-6,1.6v22.1c0,6.6,2.4,10.4,8.4,10.4s3.6-.3,5.8-.9c10.5-2.8,14.3-8.7,14.3-16.6v-23.5c0-6.9-2.2-12.4-5-17.5l-13.7-23.5c-1.8-3.7-2.7-7.1-2.7-11.2v-19.3c0-4.2,2.5-8.1,7.2-9.4,1-.3,2-.4,2.8-.4,2.9,0,4.4,1.7,4.4,5.6v21.5l6-1.6v-22.2c0-6.1-2.6-8.8-7.7-8.8h0Z"/>
        <path class="cls-2" d="M667.1,1261.1l13.6,118.9-4.7,1.3-3.7-34.2v-1.2c-.1,0-1.3.3-1.3.3l-16.5,4.4-.7.2v.7c0,0-3.7,36.7-3.7,36.7l-3.9,1,13.3-126.1,7.6-2M654.3,1347.6l1.4-.4,15.2-4.1h1.1v-1.1c-.1,0-4.3-39.8-4.3-39.8-.3-2.5-.6-5-.8-7.5-1.1-9.5-2.2-19.2-2.4-29.1v-1h-2.3v.9c-.7,6-1.1,12.2-1.6,18.1-.5,6.7-1,13.7-1.7,20.4l-4.3,42.1v1.4M668,1259.9l-9.4,2.5-13.5,128.2,6-1.6,3.7-37.4,16.5-4.4,3.8,35.4,6.7-1.8-13.8-120.9h0ZM655.5,1346.3l4.3-42.1c1.4-12.7,1.9-25.6,3.2-38.5h.4c.3,12.5,2,24.7,3.3,36.7l4.2,39.8h0l-15.3,4.1h0Z"/>
        <path class="cls-75" d="M717.3,1247.8v122.5l-8.2,2.2-11.5-75.1c-.7-4.4-1.7-13.5-3-24-.6-4.8-1.1-9.8-1.7-14.8v-.9h-2.4v1c.2,8.4.5,16.6.7,23.2.2,6,.4,10.8.4,12.8v82.4l-4.7,1.3v-122.6l8.3-2.2,11.1,76.3c1.2,9,3.1,22,5.5,37.6v.9h2.4v-1.1c-1.1-19.6-1.7-33.7-1.7-39.6v-78.6l4.7-1.3M718.3,1246.5l-6.7,1.8v79.4c0,6.8.7,22.6,1.6,39.7h-.4c-2.2-14.5-4.2-28.1-5.5-37.6l-11.3-77.4-10,2.7h-.1v124.7l6.7-1.8v-83.2c0-4.1-.7-19.8-1.1-36h.4c1.9,15.9,3.7,32.4,4.7,38.8l11.7,76.2,10-2.7v-124.6h0Z"/>
      </g>
      <rect x="94" y="747.8" width="374.6" height="374.6"/>
      <g>
        <path class="cls-89" d="M225.1,1009.2c-3,0-5.2-.9-6.6-2.8-1.3-1.8-2-4.3-2-7.8v-22.2h.1l6.3-1.7v22.9c0,4,1.4,5.7,4.4,5.7h0c.9,0,1.8-.1,3-.4,5.7-1.6,8-4.4,8-9.9v-21.4c0-6.4-1.1-9.8-3.5-15l-14-23.7c-2.7-4.5-4.4-10.6-4.4-15.9v-18.1c0-8.1,5.4-14.5,14-16.9,2.3-.6,4.3-.9,6-.9,5.3,0,7.9,3,7.9,9.1v22.5h-.1l-6.3,1.7v-21.8c0-4.7-2.1-6.2-6.9-5-4.3,1.1-7,4.7-7,9.1v19.3c0,4,.8,7.4,2.6,11.1l13.7,23.4c2.5,4.5,5,10.1,5,17.6v23.5c0,8.7-4.7,14.2-14.5,16.8-2.3.6-4.3.9-5.9.9h.2ZM216.9,976.7v21.9c0,3.4.6,5.9,1.8,7.5,1.3,1.8,3.4,2.6,6.2,2.6s3.6-.3,5.8-.9c9.6-2.6,14.2-7.8,14.2-16.4v-23.5c0-7.4-2.5-12.9-5-17.4l-13.7-23.5c-1.8-3.8-2.7-7.2-2.7-11.3v-19.3c0-4.6,2.9-8.4,7.3-9.6,1.1-.3,2.1-.4,2.9-.4,3,0,4.5,1.9,4.5,5.8v21.3l5.5-1.5v-22.1c0-5.8-2.4-8.6-7.4-8.6s-3.7.3-6,.9c-8.4,2.3-13.7,8.6-13.7,16.4v18.1c0,5.2,1.6,11.2,4.3,15.7l14,23.7c2.5,5.3,3.5,8.8,3.5,15.2v21.4c0,5.7-2.5,8.8-8.4,10.3-1.1.3-2.2.5-3,.5h0c-3.3,0-4.9-2.1-4.9-6.2v-22.3l-5.5,1.5h0l.3.2Z"/>
        <path class="cls-90" d="M246.8,1003.4v-.4l13.5-128.4h.1l9.6-2.6v.3l13.9,121.1-7.1,1.9v-.3l-3.8-35.1-16.1,4.3-3.7,37.4-6.4,1.7h0ZM260.8,875l-13.5,127.8,5.5-1.5,3.7-37.4,16.9-4.5v.3l3.8,35.1,6.2-1.7-13.7-120.5-8.9,2.4h0ZM257.2,959v-.3l4.4-42.1c.6-6.4,1.1-12.9,1.6-19.2.4-6.3.9-12.8,1.6-19.3h0c0-.1.8-.4.8-.4v.3c.3,10.1,1.4,20.1,2.6,29.8.3,2.3.6,4.6.8,6.9l4.2,40-15.8,4.3h-.2ZM265,879c-.6,6.1-1.1,12.4-1.5,18.4-.4,6.3-.9,12.8-1.6,19.3l-4.3,41.7,14.8-4-4.2-39.6c-.3-2.3-.5-4.6-.8-6.9-1.1-9.4-2.2-19.1-2.6-29h.2Z"/>
        <path class="cls-91" d="M287.7,992.5v-125.1h.1l10.3-2.8v.2l11.3,77.4c1.2,8.8,3.1,21.7,5.3,36.5l-.3-5.7c-.7-14.5-1.3-27-1.3-32.8v-79.6h.1l6.9-1.9v125.1l-10.4,2.8v-.2l-11.7-76.2c-.9-5.4-2.3-17.8-3.8-30.9l-.8-6.7c.2,8.9.6,17.7.8,24.2.2,5,.4,8.9.4,10.6v83.3l-7.1,1.9h.2ZM288.1,867.7v124.1l6.2-1.7v-83c0-1.8-.1-5.7-.4-10.6-.3-6.7-.6-16-.9-25.3h0c0,0,.8-.4.8-.4v.3l.9,7.9c1.5,13.1,2.9,25.5,3.8,30.9l11.6,76,9.6-2.6v-124.1l-6.2,1.7v79.2c0,5.8.6,18.3,1.3,32.8l.4,7-.7.2v-.2c-2.3-15.2-4.3-28.6-5.5-37.6l-11.3-77.2-9.6,2.6v-.2.2Z"/>
        <path class="cls-85" d="M219.8,995.9c0,4.1,1.5,7.2,7.7,5.5,5.7-1.5,8.1-4.5,8.1-10.1v-21.4c0-6.6-1.2-10.1-3.5-15.1l-14-23.7c-2.8-4.7-4.3-10.9-4.3-15.7v-18.1c0-8.1,5.3-14.4,13.8-16.7,9-2.4,13.7-.2,13.7,7.9v22.2l-6,1.6v-21.5c0-5-2.5-6.4-7.2-5.2-4.7,1.3-7.2,5.2-7.2,9.4v19.3c0,4.1.9,7.5,2.7,11.2l13.7,23.5c2.8,5.1,5,10.6,5,17.5v23.5c0,7.9-3.8,13.8-14.3,16.6-10.3,2.8-14.2-1.1-14.2-9.5v-22.1l6-1.6v22.6h0Z"/>
        <path class="cls-86" d="M270.3,958l-16.5,4.4-3.7,37.4-6,1.6,13.5-128.2,9.4-2.5,13.8,120.9-6.7,1.8-3.8-35.4h0ZM269.9,953l-4.2-39.8c-1.3-12-3-24.2-3.3-36.7h-.4c-1.3,12.9-1.8,25.8-3.2,38.5l-4.3,42.1,15.3-4.1h0Z"/>
        <path class="cls-87" d="M285,865.9l10-2.7,11.3,77.4c1.3,9.5,3.3,23.1,5.5,37.6h.4c-.9-17.1-1.6-32.9-1.6-39.7v-79.4l6.7-1.8v124.6l-10,2.7-11.7-76.2c-1-6.4-2.8-22.9-4.7-38.8h-.4c.4,16.2,1.1,31.9,1.1,36v83.2l-6.7,1.8v-124.6h0Z"/>
      </g>
      <rect x="-290.7" y="1135.2" width="374.6" height="374.6"/>
      <g>
        <path class="cls-31" d="M-145.3,1396.6c-3,0-5.2-.9-6.6-2.8-1.3-1.8-2-4.3-2-7.8v-22.2h.1l6.3-1.7v22.9c0,4,1.4,5.7,4.4,5.7h0c.9,0,1.8-.1,3-.4,5.7-1.6,8-4.4,8-9.9v-21.4c0-6.4-1.1-9.8-3.5-15l-14-23.7c-2.7-4.5-4.4-10.6-4.4-15.9v-18.1c0-8.1,5.4-14.5,14-16.9,2.3-.6,4.3-.9,6-.9,5.3,0,7.9,3,7.9,9.1v22.5h-.1l-6.3,1.7v-21.8c0-4.7-2.1-6.2-6.9-5-4.3,1.1-7,4.7-7,9.1v19.3c0,4,.8,7.4,2.6,11.1l13.7,23.4c2.5,4.5,5,10.1,5,17.6v23.5c0,8.7-4.7,14.2-14.5,16.8-2.3.6-4.3.9-5.9.9h.2ZM-153.5,1364.1v21.9c0,3.4.6,5.9,1.8,7.5,1.3,1.8,3.4,2.6,6.2,2.6s3.6-.3,5.8-.9c9.6-2.6,14.2-7.8,14.2-16.4v-23.5c0-7.4-2.5-12.9-5-17.4l-13.7-23.5c-1.8-3.8-2.7-7.2-2.7-11.3v-19.3c0-4.6,2.9-8.4,7.3-9.6,1.1-.3,2.1-.4,2.9-.4,3,0,4.5,1.9,4.5,5.8v21.3l5.5-1.5v-22.1c0-5.8-2.4-8.6-7.4-8.6s-3.7.3-6,.9c-8.4,2.3-13.7,8.6-13.7,16.4v18.1c0,5.2,1.6,11.2,4.3,15.7l14,23.7c2.5,5.3,3.5,8.8,3.5,15.2v21.4c0,5.7-2.5,8.8-8.4,10.3-1.1.3-2.2.5-3,.5h0c-3.3,0-4.9-2.1-4.9-6.2v-22.3l-5.5,1.5h0l.3.2Z"/>
        <path class="cls-31" d="M-123.6,1390.8v-.4l13.5-128.4h.1l9.6-2.6v.3l13.9,121.1-7.1,1.9v-.3l-3.8-35.1-16.1,4.3-3.7,37.4-6.4,1.7h0ZM-109.6,1262.4l-13.5,127.8,5.5-1.5,3.7-37.4,16.9-4.5v.3l3.8,35.1,6.2-1.7-13.7-120.5-8.9,2.4h0ZM-113.2,1346.4v-.3l4.4-42.1c.6-6.4,1.1-12.9,1.6-19.2.4-6.3.9-12.8,1.6-19.3h0c0-.1.8-.4.8-.4v.3c.3,10.1,1.4,20.1,2.6,29.8.3,2.3.6,4.6.8,6.9l4.2,40-15.8,4.3h-.2ZM-105.4,1266.4c-.6,6.1-1.1,12.4-1.5,18.4-.4,6.3-.9,12.8-1.6,19.3l-4.3,41.7,14.8-4-4.2-39.6c-.3-2.3-.5-4.6-.8-6.9-1.1-9.4-2.2-19.1-2.6-29h.2Z"/>
        <path class="cls-31" d="M-82.7,1379.9v-125.1h.1l10.3-2.8v.2l11.3,77.4c1.2,8.8,3.1,21.7,5.3,36.5l-.3-5.7c-.7-14.5-1.3-27-1.3-32.8v-79.6h.1l6.9-1.9v125.1l-10.4,2.8v-.2l-11.7-76.2c-.9-5.4-2.3-17.8-3.8-30.9l-.8-6.7c.2,8.9.6,17.7.8,24.2.2,5,.4,8.9.4,10.6v83.3l-7.1,1.9h.2ZM-82.3,1255.1v124.1l6.2-1.7v-83c0-1.8-.1-5.7-.4-10.6-.3-6.7-.6-16-.9-25.3h0c0,0,.8-.4.8-.4v.3l.9,7.9c1.5,13.1,2.9,25.5,3.8,30.9l11.6,76,9.6-2.6v-124.1l-6.2,1.7v79.2c0,5.8.6,18.3,1.3,32.8l.4,7-.7.2v-.2c-2.3-15.2-4.3-28.6-5.5-37.6l-11.3-77.2-9.6,2.6v-.2.2Z"/>
        <path class="cls-88" d="M-150.6,1383.3c0,4.1,1.5,7.2,7.7,5.5,5.7-1.5,8.1-4.5,8.1-10.1v-21.4c0-6.6-1.2-10.1-3.5-15.1l-14-23.7c-2.8-4.7-4.3-10.9-4.3-15.7v-18.1c0-8.1,5.3-14.4,13.8-16.7,9-2.4,13.7-.2,13.7,7.9v22.2l-6,1.6v-21.5c0-5-2.5-6.4-7.2-5.2-4.7,1.3-7.2,5.2-7.2,9.4v19.3c0,4.1.9,7.5,2.7,11.2l13.7,23.5c2.8,5.1,5,10.6,5,17.5v23.5c0,7.9-3.8,13.8-14.3,16.6-10.3,2.8-14.2-1.1-14.2-9.5v-22.1l6-1.6v22.6h0Z"/>
        <path class="cls-95" d="M-100.1,1345.4l-16.5,4.4-3.7,37.4-6,1.6,13.5-128.2,9.4-2.5,13.8,120.9-6.7,1.8-3.8-35.4h0ZM-100.5,1340.4l-4.2-39.8c-1.3-12-3-24.2-3.3-36.7h-.4c-1.3,12.9-1.8,25.8-3.2,38.5l-4.3,42.1,15.3-4.1h0Z"/>
        <path class="cls-82" d="M-85.4,1253.3l10-2.7,11.3,77.4c1.3,9.5,3.3,23.1,5.5,37.6h.4c-.9-17.1-1.6-32.9-1.6-39.7v-79.4l6.7-1.8v124.6l-10,2.7-11.7-76.2c-1-6.4-2.8-22.9-4.7-38.8h-.4c.4,16.2,1.1,31.9,1.1,36v83.2l-6.7,1.8v-124.6h0Z"/>
      </g>
      <rect x="93.5" y="1135.2" width="374.6" height="374.6"/>
      <g>
        <path class="cls-31" d="M239,1396.6c-3,0-5.2-.9-6.6-2.8-1.3-1.8-2-4.3-2-7.8v-22.2h.1l6.3-1.7v22.9c0,4,1.4,5.7,4.4,5.7h0c.9,0,1.8-.1,3-.4,5.7-1.6,8-4.4,8-9.9v-21.4c0-6.4-1.1-9.8-3.5-15l-14-23.7c-2.7-4.5-4.4-10.6-4.4-15.9v-18.1c0-8.1,5.4-14.5,14-16.9,2.3-.6,4.3-.9,6-.9,5.3,0,7.9,3,7.9,9.1v22.5h-.1l-6.3,1.7v-21.8c0-4.7-2.1-6.2-6.9-5-4.3,1.1-7,4.7-7,9.1v19.3c0,4,.8,7.4,2.6,11.1l13.7,23.4c2.5,4.5,5,10.1,5,17.6v23.5c0,8.7-4.7,14.2-14.5,16.8-2.3.6-4.3.9-5.9.9h.2ZM230.8,1364.1v21.9c0,3.4.6,5.9,1.8,7.5,1.3,1.8,3.4,2.6,6.2,2.6s3.6-.3,5.8-.9c9.6-2.6,14.2-7.8,14.2-16.4v-23.5c0-7.4-2.5-12.9-5-17.4l-13.7-23.5c-1.8-3.8-2.7-7.2-2.7-11.3v-19.3c0-4.6,2.9-8.4,7.3-9.6,1.1-.3,2.1-.4,2.9-.4,3,0,4.5,1.9,4.5,5.8v21.3l5.5-1.5v-22.1c0-5.8-2.3-8.5-7.4-8.6s-3.7.3-6,.9c-8.4,2.3-13.7,8.6-13.7,16.4v18.1c0,5.2,1.6,11.2,4.3,15.7l14,23.7c2.5,5.3,3.5,8.8,3.5,15.2v21.4c0,5.7-2.5,8.8-8.4,10.3-1.1.3-2.2.5-3,.5h0c-3.3,0-4.9-2.1-4.9-6.2v-22.3l-5.5,1.5h0l.3.2Z"/>
        <path class="cls-31" d="M260.7,1390.8v-.4l13.5-128.4h.1l9.6-2.6v.3l13.9,121.1-7.1,1.9v-.3l-3.8-35.1-16.1,4.3-3.7,37.4-6.4,1.7h0ZM274.7,1262.4l-13.5,127.8,5.5-1.5,3.7-37.4,16.9-4.5v.3l3.8,35.1,6.2-1.7-13.7-120.5-8.9,2.4h0ZM271.1,1346.4v-.3l4.4-42.1c.6-6.4,1.1-12.9,1.6-19.2.4-6.3.9-12.8,1.6-19.3h0c0-.1.8-.4.8-.4v.3c.3,10.1,1.4,20.1,2.6,29.8.3,2.3.6,4.6.8,6.9l4.2,40-15.8,4.3h-.2ZM278.9,1266.4c-.6,6.1-1.1,12.4-1.5,18.4-.4,6.3-.9,12.8-1.6,19.3l-4.3,41.7,14.8-4-4.2-39.6c-.3-2.3-.5-4.6-.8-6.9-1.1-9.4-2.2-19.1-2.6-29h.2Z"/>
        <path class="cls-31" d="M301.6,1379.9v-125.1h.1l10.3-2.8v.2l11.3,77.4c1.2,8.8,3.1,21.7,5.3,36.5l-.3-5.7c-.7-14.5-1.3-27-1.3-32.8v-79.6h.1l6.9-1.9v125.1l-10.4,2.8v-.2l-11.7-76.2c-.9-5.4-2.3-17.8-3.8-30.9l-.8-6.7c.2,8.9.6,17.7.8,24.2.2,5,.4,8.9.4,10.6v83.3l-7.1,1.9h.2ZM302,1255.1v124.1l6.2-1.7v-83c0-1.8-.1-5.7-.4-10.6-.3-6.7-.6-16-.9-25.3h0c0,0,.8-.4.8-.4v.3l.9,7.9c1.5,13.1,2.9,25.5,3.8,30.9l11.6,76,9.6-2.6v-124.1l-6.2,1.7v79.2c0,5.8.6,18.3,1.3,32.8l.4,7-.7.2v-.2c-2.3-15.2-4.3-28.6-5.5-37.6l-11.3-77.2-9.6,2.6v-.2.2Z"/>
        <path class="cls-83" d="M247.5,1269c3,0,5.7.8,5.7,6.8v20.7l-2,.5v-18.9c0-6.6-4-7.6-6.4-7.6-1,0-2.1.2-3.3.5-5.3,1.5-8.7,5.9-8.7,11.3v19.3c0,4.2.9,8,2.9,12.1h0c0,0,0,.1,0,.1l13.7,23.5c2.3,4.3,4.7,9.6,4.7,16.5v23.5c0,7.8-4,12.3-12.8,14.7-2,.5-3.8.8-5.3.8-3.2,0-6.4-1-6.4-8.4v-20.6l2-.5v19.9h0c0,0,0,0,0,0,0,6.8,4.2,7.9,6.6,7.9s2.3-.2,3.6-.5c6.5-1.7,9.6-5.5,9.6-12v-21.4c0-6.7-1.2-10.5-3.7-15.9h0c0,0,0-.2,0-.2l-14-23.7c-2.4-4.1-4-9.9-4-14.7v-18.1c0-7.2,4.6-12.7,12.3-14.8,2.1-.6,4-.8,5.5-.8M247.5,1267c-1.7,0-3.7.3-6,.9-8.5,2.3-13.8,8.6-13.8,16.7v18.1c0,4.8,1.5,11,4.3,15.7l14,23.7c2.3,5,3.5,8.5,3.5,15.1v21.4c0,5.6-2.4,8.6-8.1,10.1-1.2.3-2.2.5-3.1.5-3.7,0-4.6-2.7-4.6-6h0c0,0,0,0,0,0v-22.5l-6,1.6v22.1c0,6.6,2.4,10.4,8.4,10.4s3.6-.3,5.8-.9c10.5-2.8,14.3-8.7,14.3-16.6v-23.5c0-6.9-2.2-12.4-5-17.5l-13.7-23.5c-1.8-3.7-2.7-7.1-2.7-11.2v-19.3c0-4.2,2.5-8.1,7.2-9.4,1-.3,2-.4,2.8-.4,2.9,0,4.4,1.7,4.4,5.6v21.5l6-1.6v-22.2c0-6.1-2.6-8.8-7.7-8.8h0Z"/>
        <path class="cls-1" d="M279.2,1260.6l13.3,116.9-2.8.7-3.6-33.1-.2-2.3-2.3.6-16.5,4.4-1.3.4v1.4c-.1,0-3.7,36-3.7,36l-1.9.5,13.1-123.9.7-.2-.2,1.7c-.6,6-1,12.2-1.5,18.1-.5,6.7-1,13.6-1.7,20.4l-4.3,42.1-.3,2.9,2.8-.8,15-4h2.1l-.2-2.2-4.2-39.8c-.3-2.5-.6-5-.8-7.5-1.1-9.4-2.2-19.2-2.4-29v-2h-3.9l4.8-1.3M280.9,1258.1l-9.4,2.5-13.5,128.2,6-1.6,3.7-37.4,16.5-4.4,3.8,35.4,6.7-1.8-13.8-120.9h0ZM268.4,1344.5l4.3-42.1c1.4-12.7,1.9-25.6,3.2-38.5h.4c.3,12.5,2,24.7,3.3,36.7l4.2,39.8h0l-15.3,4.1h0Z"/>
        <path class="cls-84" d="M329.2,1247.3v120.5l-6.4,1.7-11.4-74c-.7-4.4-1.7-13.4-3-24-.6-4.8-1.1-9.8-1.7-14.8l-.2-1.8h-4.2v2c.3,8.4.5,16.6.8,23.2.2,6,.4,10.8.4,12.7v81.7l-2.7.7v-120.5l6.4-1.7,11,75.2c1.2,9,3.1,22,5.5,37.6l.3,1.7h4.2v-2.1c-1.1-19.6-1.7-33.6-1.7-39.6v-77.9l2.7-.7M331.2,1244.7l-6.7,1.8v79.4c0,6.8.7,22.6,1.6,39.7h-.4c-2.2-14.5-4.2-28.1-5.5-37.6l-11.3-77.4-10,2.7h0v124.7l6.7-1.8v-83.2c0-4.1-.7-19.8-1.1-36h.4c1.9,15.9,3.7,32.4,4.7,38.8l11.7,76.2,10-2.7v-124.6h0Z"/>
      </g>
      <rect x="477.8" y="747.8" width="374.6" height="374.6"/>
      <g>
        <path class="cls-11" d="M623.2,1011c-3,0-5.2-.9-6.6-2.8-1.3-1.8-2-4.3-2-7.8v-22.2h.1l6.3-1.7v22.9c0,4,1.4,5.7,4.4,5.7h0c.9,0,1.8-.1,3-.4,5.7-1.6,8-4.4,8-9.9v-21.4c0-6.4-1.1-9.8-3.5-15l-14-23.7c-2.7-4.5-4.4-10.6-4.4-15.9v-18.1c0-8.1,5.4-14.5,14-16.9,2.3-.6,4.3-.9,6-.9,5.3,0,7.9,3,7.9,9.1v22.5h-.1l-6.3,1.7v-21.8c0-4.7-2.1-6.2-6.9-5-4.3,1.1-7,4.7-7,9.1v19.3c0,4,.8,7.4,2.6,11.1l13.7,23.4c2.5,4.5,5,10.1,5,17.6v23.5c0,8.7-4.7,14.2-14.5,16.8-2.3.6-4.3.9-5.9.9h.2ZM615,978.5v21.9c0,3.4.6,5.9,1.8,7.5,1.3,1.8,3.4,2.6,6.2,2.6s3.6-.3,5.8-.9c9.6-2.6,14.2-7.8,14.2-16.4v-23.5c0-7.4-2.5-12.9-5-17.4l-13.7-23.5c-1.8-3.8-2.7-7.2-2.7-11.3v-19.3c0-4.6,2.9-8.4,7.3-9.6,1.1-.3,2.1-.4,2.9-.4,3,0,4.5,1.9,4.5,5.8v21.3l5.5-1.5v-22.1c0-5.8-2.4-8.6-7.4-8.6s-3.7.3-6,.9c-8.4,2.3-13.7,8.6-13.7,16.4v18.1c0,5.2,1.6,11.2,4.3,15.7l14,23.7c2.5,5.3,3.5,8.8,3.5,15.2v21.4c0,5.7-2.5,8.8-8.4,10.3-1.1.3-2.2.5-3,.5h0c-3.3,0-4.9-2.1-4.9-6.2v-22.3l-5.5,1.5h0l.3.2Z"/>
        <path class="cls-11" d="M644.9,1005.2v-.4l13.5-128.4h.1l9.6-2.6v.3l13.9,121.1-7.1,1.9v-.3l-3.8-35.1-16.1,4.3-3.7,37.4-6.4,1.7h0ZM658.9,876.8l-13.5,127.8,5.5-1.5,3.7-37.4,16.9-4.5v.3l3.8,35.1,6.2-1.7-13.7-120.5-8.9,2.4h0ZM655.3,960.8v-.3l4.4-42.1c.6-6.4,1.1-12.9,1.6-19.2.4-6.3.9-12.8,1.6-19.3h0c0-.1.8-.4.8-.4v.3c.3,10.1,1.4,20.1,2.6,29.8.3,2.3.6,4.6.8,6.9l4.2,40-15.8,4.3h-.2ZM663.1,880.8c-.6,6.1-1.1,12.4-1.5,18.4-.4,6.3-.9,12.8-1.6,19.3l-4.3,41.7,14.8-4-4.2-39.6c-.3-2.3-.5-4.6-.8-6.9-1.1-9.4-2.2-19.1-2.6-29h.2Z"/>
        <path class="cls-11" d="M685.8,994.3v-125.1h.1l10.3-2.8v.2l11.3,77.4c1.2,8.8,3.1,21.7,5.3,36.5l-.3-5.7c-.7-14.5-1.3-27-1.3-32.8v-79.6h.1l6.9-1.9v125.1l-10.4,2.8v-.2l-11.7-76.2c-.9-5.4-2.3-17.8-3.8-30.9l-.8-6.7c.2,8.9.6,17.7.8,24.2.2,5,.4,8.9.4,10.6v83.3l-7.1,1.9h.2ZM686.2,869.5v124.1l6.2-1.7v-83c0-1.8-.1-5.7-.4-10.6-.3-6.7-.6-16-.9-25.3h0c0,0,.8-.4.8-.4v.3l.9,7.9c1.5,13.1,2.9,25.5,3.8,30.9l11.6,76,9.6-2.6v-124.1l-6.2,1.7v79.2c0,5.8.6,18.3,1.3,32.8l.4,7-.7.2v-.2c-2.3-15.2-4.3-28.6-5.5-37.6l-11.3-77.2-9.6,2.6v-.2.2Z"/>
        <path class="cls-93" d="M617.9,997.7c0,4.1,1.5,7.2,7.7,5.5,5.7-1.5,8.1-4.5,8.1-10.1v-21.4c0-6.6-1.2-10.1-3.5-15.1l-14-23.7c-2.8-4.7-4.3-10.9-4.3-15.7v-18.1c0-8.1,5.3-14.4,13.8-16.7,9-2.4,13.7-.2,13.7,7.9v22.2l-6,1.6v-21.5c0-5-2.5-6.4-7.2-5.2-4.7,1.3-7.2,5.2-7.2,9.4v19.3c0,4.1.9,7.5,2.7,11.2l13.7,23.5c2.8,5.1,5,10.6,5,17.5v23.5c0,7.9-3.8,13.8-14.3,16.6-10.3,2.8-14.2-1.1-14.2-9.5v-22.1l6-1.6v22.6h0Z"/>
        <path class="cls-94" d="M668.4,959.8l-16.5,4.4-3.7,37.4-6,1.6,13.5-128.2,9.4-2.5,13.8,120.9-6.7,1.8-3.8-35.4h0ZM668,954.8l-4.2-39.8c-1.3-12-3-24.2-3.3-36.7h-.4c-1.3,12.9-1.8,25.8-3.2,38.5l-4.3,42.1,15.3-4.1h0Z"/>
        <path class="cls-92" d="M683.1,867.7l10-2.7,11.3,77.4c1.3,9.5,3.3,23.1,5.5,37.6h.4c-.9-17.1-1.6-32.9-1.6-39.7v-79.4l6.7-1.8v124.6l-10,2.7-11.7-76.2c-1-6.4-2.8-22.9-4.7-38.8h-.4c.4,16.2,1.1,31.9,1.1,36v83.2l-6.7,1.8v-124.6h0Z"/>
      </g>
      <g>
        <g>
          <path d="M6,138.6c0,4.1,1.5,7.2,7.7,5.5,5.7-1.5,8.1-4.5,8.1-10.1v-21.4c0-6.6-1.2-10.1-3.5-15.1l-14-23.7c-2.8-4.7-4.3-10.9-4.3-15.7v-18.1c0-8.1,5.3-14.4,13.8-16.7,9-2.4,13.7-.2,13.7,7.9v22.2l-6,1.6v-21.5c0-5-2.5-6.4-7.2-5.2-4.7,1.3-7.2,5.2-7.2,9.4v19.3c0,4.1.9,7.5,2.7,11.2l13.7,23.5c2.8,5.1,5,10.6,5,17.5v23.5c0,7.9-3.8,13.8-14.3,16.6-10.3,2.8-14.2-1.1-14.2-9.5v-22.1l6-1.6v22.6h0Z"/>
          <path d="M56.5,100.7l-16.5,4.4-3.7,37.4-6,1.6L43.8,15.9l9.4-2.5,13.8,120.9-6.7,1.8-3.8-35.4h0ZM56.1,95.7l-4.2-39.8c-1.3-12-3-24.2-3.3-36.7h-.4c-1.3,12.9-1.8,25.8-3.2,38.5l-4.3,42.1,15.3-4.1h0Z"/>
          <path d="M71.2,8.6l10-2.7,11.3,77.4c1.3,9.5,3.3,23.1,5.5,37.6h.4c-.9-17.1-1.6-32.9-1.6-39.7V1.8l6.7-1.8v124.6l-10,2.7-11.7-76.2c-1-6.4-2.8-22.9-4.7-38.8h-.4c.4,16.2,1.1,31.9,1.1,36v83.2l-6.7,1.8V8.7h0Z"/>
        </g>
        <g>
          <path class="cls-18" d="M8,139.6c0,4.1,1.5,7.2,7.7,5.5,5.7-1.5,8.1-4.5,8.1-10.1v-21.4c0-6.6-1.2-10.1-3.5-15.1l-14-23.7c-2.8-4.7-4.3-10.9-4.3-15.7v-18.1c0-8.1,5.3-14.4,13.8-16.7,9-2.4,13.7-.2,13.7,7.9v22.2l-6,1.6v-21.5c0-5-2.5-6.4-7.2-5.2-4.7,1.3-7.2,5.2-7.2,9.4v19.3c0,4.1.9,7.5,2.7,11.2l13.7,23.5c2.8,5.1,5,10.6,5,17.5v23.5c0,7.9-3.8,13.8-14.3,16.6-10.3,2.8-14.2-1.1-14.2-9.5v-22.1l6-1.6v22.6h0Z"/>
          <path class="cls-18" d="M58.5,101.7l-16.5,4.4-3.7,37.4-6,1.6L45.8,16.9l9.4-2.5,13.8,120.9-6.7,1.8-3.8-35.4h0ZM58.1,96.7l-4.2-39.8c-1.3-12-3-24.2-3.3-36.7h-.4c-1.3,12.9-1.8,25.8-3.2,38.5l-4.3,42.1,15.3-4.1h0Z"/>
          <path class="cls-18" d="M73.2,9.6l10-2.7,11.3,77.4c1.3,9.5,3.3,23.1,5.5,37.6h.4c-.9-17.1-1.6-32.9-1.6-39.7V2.8l6.7-1.8v124.6l-10,2.7-11.7-76.2c-1-6.4-2.8-22.9-4.7-38.8h-.4c.4,16.2,1.1,31.9,1.1,36v83.2l-6.7,1.8V9.7h0Z"/>
        </g>
      </g>
    </g>
  </g>
</svg>