<?xml version="1.0" encoding="UTF-8"?>
<svg xmlns="http://www.w3.org/2000/svg" xmlns:xlink="http://www.w3.org/1999/xlink" version="1.1" viewBox="0 0 106.3 152">
  <defs>
    <style>
      .cls-1 {
        fill: url(#New_Gradient_Swatch_4-2);
      }

      .cls-2 {
        fill: url(#New_Gradient_Swatch_1-2);
      }

      .cls-3 {
        fill: #f8af00;
        font-size: 50px;
      }

      .cls-3, .cls-4, .cls-5, .cls-6, .cls-7, .cls-8, .cls-9, .cls-10 {
        isolation: isolate;
      }

      .cls-3, .cls-8 {
        font-family: TitilliumWeb-Regular, 'Titillium Web';
      }

      .cls-4 {
        fill: url(#radial-gradient);
        opacity: .8;
      }

      .cls-11 {
        fill: #be6f68;
      }

      .cls-12 {
        stroke: url(#linear-gradient-17);
      }

      .cls-12, .cls-13, .cls-14, .cls-15, .cls-16, .cls-17, .cls-18, .cls-19 {
        fill: none;
      }

      .cls-12, .cls-13, .cls-14, .cls-15, .cls-16, .cls-17, .cls-19 {
        stroke-miterlimit: 10;
      }

      .cls-12, .cls-19 {
        stroke-width: 2px;
      }

      .cls-20 {
        fill: url(#linear-gradient-8);
      }

      .cls-21 {
        fill: url(#linear-gradient-7);
      }

      .cls-22 {
        fill: url(#linear-gradient-5);
      }

      .cls-23 {
        fill: url(#linear-gradient-6);
      }

      .cls-24 {
        fill: url(#linear-gradient-9);
      }

      .cls-25 {
        fill: url(#linear-gradient-4);
      }

      .cls-26 {
        fill: url(#linear-gradient-3);
      }

      .cls-27 {
        fill: url(#linear-gradient-2);
      }

      .cls-28 {
        fill: #1c1c1c;
      }

      .cls-13, .cls-17 {
        stroke: #fff;
      }

      .cls-29 {
        fill: url(#linear-gradient);
      }

      .cls-30 {
        fill: #ff0bb5;
      }

      .cls-14 {
        stroke: url(#linear-gradient-55);
      }

      .cls-15 {
        stroke: url(#linear-gradient-38);
      }

      .cls-5 {
        font-family: TitilliumWeb-BoldItalic, 'Titillium Web';
        font-style: italic;
        font-weight: 700;
      }

      .cls-5, .cls-7 {
        font-size: 18px;
      }

      .cls-31 {
        fill: #61ff6c;
      }

      .cls-16 {
        stroke: #f6a500;
        stroke-linecap: round;
        stroke-width: .3px;
      }

      .cls-17 {
        stroke-width: .5px;
      }

      .cls-32 {
        fill: #262626;
      }

      .cls-7, .cls-8, .cls-9 {
        fill: #fff;
      }

      .cls-7, .cls-9 {
        font-family: TitilliumWeb-Light, 'Titillium Web';
        font-weight: 300;
      }

      .cls-33 {
        fill: url(#linear-gradient-43);
      }

      .cls-34 {
        fill: url(#linear-gradient-40);
      }

      .cls-35 {
        fill: url(#linear-gradient-41);
      }

      .cls-36 {
        fill: url(#linear-gradient-42);
      }

      .cls-37 {
        fill: url(#linear-gradient-49);
      }

      .cls-38 {
        fill: url(#linear-gradient-48);
      }

      .cls-39 {
        fill: url(#linear-gradient-45);
      }

      .cls-40 {
        fill: url(#linear-gradient-47);
      }

      .cls-41 {
        fill: url(#linear-gradient-44);
      }

      .cls-42 {
        fill: url(#linear-gradient-46);
      }

      .cls-43 {
        fill: url(#linear-gradient-10);
      }

      .cls-44 {
        fill: url(#linear-gradient-11);
      }

      .cls-45 {
        fill: url(#linear-gradient-12);
      }

      .cls-46 {
        fill: url(#linear-gradient-13);
      }

      .cls-47 {
        fill: url(#linear-gradient-19);
      }

      .cls-48 {
        fill: url(#linear-gradient-14);
      }

      .cls-49 {
        fill: url(#linear-gradient-21);
      }

      .cls-50 {
        fill: url(#linear-gradient-20);
      }

      .cls-51 {
        fill: url(#linear-gradient-22);
      }

      .cls-52 {
        fill: url(#linear-gradient-23);
      }

      .cls-53 {
        fill: url(#linear-gradient-28);
      }

      .cls-54 {
        fill: url(#linear-gradient-25);
      }

      .cls-55 {
        fill: url(#linear-gradient-32);
      }

      .cls-56 {
        fill: url(#linear-gradient-31);
      }

      .cls-57 {
        fill: url(#linear-gradient-33);
      }

      .cls-58 {
        fill: url(#linear-gradient-30);
      }

      .cls-59 {
        fill: url(#linear-gradient-15);
      }

      .cls-60 {
        fill: url(#linear-gradient-16);
      }

      .cls-61 {
        fill: url(#linear-gradient-18);
      }

      .cls-62 {
        fill: url(#linear-gradient-35);
      }

      .cls-63 {
        fill: url(#linear-gradient-34);
      }

      .cls-64 {
        fill: url(#linear-gradient-36);
      }

      .cls-65 {
        fill: url(#linear-gradient-27);
      }

      .cls-66 {
        fill: url(#linear-gradient-24);
      }

      .cls-67 {
        fill: url(#linear-gradient-26);
      }

      .cls-68 {
        fill: url(#linear-gradient-29);
      }

      .cls-69 {
        fill: url(#linear-gradient-37);
      }

      .cls-70 {
        fill: url(#linear-gradient-39);
      }

      .cls-71 {
        fill: url(#linear-gradient-57);
      }

      .cls-72 {
        fill: url(#linear-gradient-58);
      }

      .cls-73 {
        fill: url(#linear-gradient-59);
      }

      .cls-74 {
        fill: url(#linear-gradient-53);
      }

      .cls-75 {
        fill: url(#linear-gradient-54);
      }

      .cls-76 {
        fill: url(#linear-gradient-56);
      }

      .cls-77 {
        fill: url(#linear-gradient-50);
      }

      .cls-78 {
        fill: url(#linear-gradient-51);
      }

      .cls-79 {
        fill: url(#linear-gradient-52);
      }

      .cls-80 {
        fill: url(#linear-gradient-67);
      }

      .cls-81 {
        fill: url(#linear-gradient-68);
      }

      .cls-82 {
        fill: url(#linear-gradient-69);
      }

      .cls-83 {
        fill: url(#linear-gradient-63);
      }

      .cls-84 {
        fill: url(#linear-gradient-64);
      }

      .cls-85 {
        fill: url(#linear-gradient-65);
      }

      .cls-86 {
        fill: url(#linear-gradient-66);
      }

      .cls-87 {
        fill: url(#linear-gradient-60);
      }

      .cls-88 {
        fill: url(#linear-gradient-61);
      }

      .cls-89 {
        fill: url(#linear-gradient-62);
      }

      .cls-90 {
        fill: url(#linear-gradient-75);
      }

      .cls-91 {
        fill: url(#linear-gradient-72);
      }

      .cls-92 {
        fill: url(#linear-gradient-77);
      }

      .cls-93 {
        fill: url(#linear-gradient-74);
      }

      .cls-94 {
        fill: url(#linear-gradient-76);
      }

      .cls-95 {
        fill: url(#linear-gradient-71);
      }

      .cls-96 {
        fill: url(#linear-gradient-73);
      }

      .cls-97 {
        fill: url(#linear-gradient-70);
      }

      .cls-98 {
        fill: url(#New_Gradient_Swatch_3);
      }

      .cls-99 {
        fill: url(#New_Gradient_Swatch_4);
      }

      .cls-100 {
        fill: url(#New_Gradient_Swatch_1);
      }

      .cls-18 {
        stroke-miterlimit: 10;
        stroke-width: 2px;
      }

      .cls-18, .cls-19 {
        stroke: #777;
      }

      .cls-101 {
        fill: #f6a500;
      }

      .cls-102 {
        fill: #0a0a0a;
      }

      .cls-8, .cls-9 {
        font-size: 12px;
      }

      .cls-9 {
        letter-spacing: .4em;
      }

      .cls-10 {
        fill: #777;
        font-family: Avenir-Medium, Avenir;
        font-size: 40px;
        font-weight: 500;
      }
    </style>
    <linearGradient id="linear-gradient" x1="-133.1" y1="-1673.1" x2="-121.4" y2="-1622.8" gradientTransform="translate(0 3019.7)" gradientUnits="userSpaceOnUse">
      <stop offset="0" stop-color="#f8af00"/>
      <stop offset=".9" stop-color="#ee7d00"/>
    </linearGradient>
    <linearGradient id="linear-gradient-2" x1="-116.7" y1="-1676.9" x2="-104.9" y2="-1626.6" gradientTransform="translate(0 3019.7)" gradientUnits="userSpaceOnUse">
      <stop offset="0" stop-color="#f8af00"/>
      <stop offset=".9" stop-color="#ee7d00"/>
    </linearGradient>
    <linearGradient id="linear-gradient-3" x1="-102.7" y1="-1680.2" x2="-90.9" y2="-1629.9" gradientTransform="translate(0 3019.7)" gradientUnits="userSpaceOnUse">
      <stop offset="0" stop-color="#f8af00"/>
      <stop offset=".9" stop-color="#ee7d00"/>
    </linearGradient>
    <linearGradient id="linear-gradient-4" x1="-85" y1="-1684.4" x2="-73.2" y2="-1634.1" gradientTransform="translate(0 3019.7)" gradientUnits="userSpaceOnUse">
      <stop offset="0" stop-color="#f8af00"/>
      <stop offset=".9" stop-color="#ee7d00"/>
    </linearGradient>
    <linearGradient id="linear-gradient-5" x1="-68.7" y1="-1688.1" x2="-57" y2="-1637.8" gradientTransform="translate(0 3019.7)" gradientUnits="userSpaceOnUse">
      <stop offset="0" stop-color="#f8af00"/>
      <stop offset=".9" stop-color="#ee7d00"/>
    </linearGradient>
    <linearGradient id="linear-gradient-6" x1="-57" y1="-1690.8" x2="-45.2" y2="-1640.5" gradientTransform="translate(0 3019.7)" gradientUnits="userSpaceOnUse">
      <stop offset="0" stop-color="#f8af00"/>
      <stop offset=".9" stop-color="#ee7d00"/>
    </linearGradient>
    <linearGradient id="linear-gradient-7" x1="-45.2" y1="-1693.6" x2="-33.4" y2="-1643.3" gradientTransform="translate(0 3019.7)" gradientUnits="userSpaceOnUse">
      <stop offset="0" stop-color="#f8af00"/>
      <stop offset=".9" stop-color="#ee7d00"/>
    </linearGradient>
    <linearGradient id="linear-gradient-8" x1="-25.7" y1="-1698.2" x2="-13.9" y2="-1647.8" gradientTransform="translate(0 3019.7)" gradientUnits="userSpaceOnUse">
      <stop offset="0" stop-color="#f8af00"/>
      <stop offset=".9" stop-color="#ee7d00"/>
    </linearGradient>
    <linearGradient id="linear-gradient-9" x1="346.5" y1="-1621.6" x2="356.3" y2="-1579.6" gradientTransform="translate(0 3019.7)" gradientUnits="userSpaceOnUse">
      <stop offset="0" stop-color="#f8af00"/>
      <stop offset=".9" stop-color="#ee7d00"/>
    </linearGradient>
    <linearGradient id="linear-gradient-10" x1="360.1" y1="-1624.8" x2="370" y2="-1582.9" gradientTransform="translate(0 3019.7)" gradientUnits="userSpaceOnUse">
      <stop offset="0" stop-color="#f8af00"/>
      <stop offset=".9" stop-color="#ee7d00"/>
    </linearGradient>
    <linearGradient id="linear-gradient-11" x1="371.7" y1="-1627.4" x2="381.5" y2="-1585.5" gradientTransform="translate(0 3019.7)" gradientUnits="userSpaceOnUse">
      <stop offset="0" stop-color="#f8af00"/>
      <stop offset=".9" stop-color="#ee7d00"/>
    </linearGradient>
    <linearGradient id="linear-gradient-12" x1="386.6" y1="-1630.9" x2="396.4" y2="-1589" gradientTransform="translate(0 3019.7)" gradientUnits="userSpaceOnUse">
      <stop offset="0" stop-color="#f8af00"/>
      <stop offset=".9" stop-color="#ee7d00"/>
    </linearGradient>
    <linearGradient id="linear-gradient-13" x1="400.1" y1="-1634.2" x2="409.9" y2="-1592.3" gradientTransform="translate(0 3019.7)" gradientUnits="userSpaceOnUse">
      <stop offset="0" stop-color="#f8af00"/>
      <stop offset=".9" stop-color="#ee7d00"/>
    </linearGradient>
    <linearGradient id="linear-gradient-14" x1="409.8" y1="-1636.3" x2="419.6" y2="-1594.4" gradientTransform="translate(0 3019.7)" gradientUnits="userSpaceOnUse">
      <stop offset="0" stop-color="#f8af00"/>
      <stop offset=".9" stop-color="#ee7d00"/>
    </linearGradient>
    <linearGradient id="linear-gradient-15" x1="419.8" y1="-1638.8" x2="429.6" y2="-1596.9" gradientTransform="translate(0 3019.7)" gradientUnits="userSpaceOnUse">
      <stop offset="0" stop-color="#f8af00"/>
      <stop offset=".9" stop-color="#ee7d00"/>
    </linearGradient>
    <linearGradient id="linear-gradient-16" x1="435.9" y1="-1642.5" x2="445.7" y2="-1600.6" gradientTransform="translate(0 3019.7)" gradientUnits="userSpaceOnUse">
      <stop offset="0" stop-color="#f8af00"/>
      <stop offset=".9" stop-color="#ee7d00"/>
    </linearGradient>
    <linearGradient id="linear-gradient-17" x1="161.6" y1="-1500.1" x2="161.6" y2="-1452.1" gradientTransform="translate(0 3019.7)" gradientUnits="userSpaceOnUse">
      <stop offset="0" stop-color="#f8af00"/>
      <stop offset=".9" stop-color="#ee7d00"/>
    </linearGradient>
    <linearGradient id="linear-gradient-18" x1="106.6" y1="-1539.8" x2="221.6" y2="-1539.8" gradientTransform="translate(0 3019.7)" gradientUnits="userSpaceOnUse">
      <stop offset="0" stop-color="#f8af00"/>
      <stop offset=".9" stop-color="#ee7d00"/>
    </linearGradient>
    <radialGradient id="radial-gradient" cx="1414.9" cy="-987.2" fx="1414.9" fy="-987.2" r="478" gradientTransform="translate(0 3019.7)" gradientUnits="userSpaceOnUse">
      <stop offset="0" stop-color="#000" stop-opacity=".5"/>
      <stop offset="1" stop-color="#231f20" stop-opacity="0"/>
    </radialGradient>
    <linearGradient id="linear-gradient-19" x1="243.3" y1="-1421.6" x2="256" y2="-1367.3" gradientTransform="translate(0 3019.7)" gradientUnits="userSpaceOnUse">
      <stop offset="0" stop-color="#f8af00"/>
      <stop offset=".9" stop-color="#ee7d00"/>
    </linearGradient>
    <linearGradient id="linear-gradient-20" x1="261" y1="-1425.7" x2="273.7" y2="-1371.3" gradientTransform="translate(0 3019.7)" gradientUnits="userSpaceOnUse">
      <stop offset="0" stop-color="#f8af00"/>
      <stop offset=".9" stop-color="#ee7d00"/>
    </linearGradient>
    <linearGradient id="linear-gradient-21" x1="276.1" y1="-1429.3" x2="288.8" y2="-1374.9" gradientTransform="translate(0 3019.7)" gradientUnits="userSpaceOnUse">
      <stop offset="0" stop-color="#f8af00"/>
      <stop offset=".9" stop-color="#ee7d00"/>
    </linearGradient>
    <linearGradient id="linear-gradient-22" x1="295.3" y1="-1433.8" x2="308" y2="-1379.4" gradientTransform="translate(0 3019.7)" gradientUnits="userSpaceOnUse">
      <stop offset="0" stop-color="#f8af00"/>
      <stop offset=".9" stop-color="#ee7d00"/>
    </linearGradient>
    <linearGradient id="linear-gradient-23" x1="312.8" y1="-1437.9" x2="325.5" y2="-1383.5" gradientTransform="translate(0 3019.7)" gradientUnits="userSpaceOnUse">
      <stop offset="0" stop-color="#f8af00"/>
      <stop offset=".9" stop-color="#ee7d00"/>
    </linearGradient>
    <linearGradient id="linear-gradient-24" x1="325.5" y1="-1440.8" x2="338.2" y2="-1386.5" gradientTransform="translate(0 3019.7)" gradientUnits="userSpaceOnUse">
      <stop offset="0" stop-color="#f8af00"/>
      <stop offset=".9" stop-color="#ee7d00"/>
    </linearGradient>
    <linearGradient id="linear-gradient-25" x1="338.2" y1="-1443.8" x2="350.9" y2="-1389.4" gradientTransform="translate(0 3019.7)" gradientUnits="userSpaceOnUse">
      <stop offset="0" stop-color="#f8af00"/>
      <stop offset=".9" stop-color="#ee7d00"/>
    </linearGradient>
    <linearGradient id="linear-gradient-26" x1="359.3" y1="-1448.7" x2="372.1" y2="-1394.3" gradientTransform="translate(0 3019.7)" gradientUnits="userSpaceOnUse">
      <stop offset="0" stop-color="#f8af00"/>
      <stop offset=".9" stop-color="#ee7d00"/>
    </linearGradient>
    <linearGradient id="linear-gradient-27" x1="244.3" y1="-1421.6" x2="257" y2="-1367.3" gradientTransform="translate(0 3019.7)" gradientUnits="userSpaceOnUse">
      <stop offset="0" stop-color="#f8af00"/>
      <stop offset=".9" stop-color="#ee7d00"/>
    </linearGradient>
    <linearGradient id="linear-gradient-28" x1="262" y1="-1425.7" x2="274.7" y2="-1371.3" gradientTransform="translate(0 3019.7)" gradientUnits="userSpaceOnUse">
      <stop offset="0" stop-color="#f8af00"/>
      <stop offset=".9" stop-color="#ee7d00"/>
    </linearGradient>
    <linearGradient id="linear-gradient-29" x1="277.1" y1="-1429.3" x2="289.8" y2="-1374.9" gradientTransform="translate(0 3019.7)" gradientUnits="userSpaceOnUse">
      <stop offset="0" stop-color="#f8af00"/>
      <stop offset=".9" stop-color="#ee7d00"/>
    </linearGradient>
    <linearGradient id="linear-gradient-30" x1="296.3" y1="-1433.8" x2="309" y2="-1379.4" gradientTransform="translate(0 3019.7)" gradientUnits="userSpaceOnUse">
      <stop offset="0" stop-color="#f8af00"/>
      <stop offset=".9" stop-color="#ee7d00"/>
    </linearGradient>
    <linearGradient id="linear-gradient-31" x1="313.8" y1="-1437.9" x2="326.5" y2="-1383.5" gradientTransform="translate(0 3019.7)" gradientUnits="userSpaceOnUse">
      <stop offset="0" stop-color="#f8af00"/>
      <stop offset=".9" stop-color="#ee7d00"/>
    </linearGradient>
    <linearGradient id="linear-gradient-32" x1="326.5" y1="-1440.8" x2="339.2" y2="-1386.5" gradientTransform="translate(0 3019.7)" gradientUnits="userSpaceOnUse">
      <stop offset="0" stop-color="#f8af00"/>
      <stop offset=".9" stop-color="#ee7d00"/>
    </linearGradient>
    <linearGradient id="linear-gradient-33" x1="339.2" y1="-1443.8" x2="351.9" y2="-1389.4" gradientTransform="translate(0 3019.7)" gradientUnits="userSpaceOnUse">
      <stop offset="0" stop-color="#f8af00"/>
      <stop offset=".9" stop-color="#ee7d00"/>
    </linearGradient>
    <linearGradient id="linear-gradient-34" x1="360.3" y1="-1448.7" x2="373.1" y2="-1394.3" gradientTransform="translate(0 3019.7)" gradientUnits="userSpaceOnUse">
      <stop offset="0" stop-color="#f8af00"/>
      <stop offset=".9" stop-color="#ee7d00"/>
    </linearGradient>
    <linearGradient id="linear-gradient-35" x1="-198.6" y1="-1455" x2="-159.6" y2="-1288" gradientTransform="translate(0 3019.7)" gradientUnits="userSpaceOnUse">
      <stop offset="0" stop-color="#f8af00"/>
      <stop offset=".9" stop-color="#ee7d00"/>
    </linearGradient>
    <linearGradient id="linear-gradient-36" x1="-159" y1="-1464.3" x2="-119.9" y2="-1297.3" gradientTransform="translate(0 3019.7)" gradientUnits="userSpaceOnUse">
      <stop offset="0" stop-color="#f8af00"/>
      <stop offset=".9" stop-color="#ee7d00"/>
    </linearGradient>
    <linearGradient id="linear-gradient-37" x1="-94.3" y1="-1479.5" x2="-55.2" y2="-1312.6" gradientTransform="translate(0 3019.7)" gradientUnits="userSpaceOnUse">
      <stop offset="0" stop-color="#f8af00"/>
      <stop offset=".9" stop-color="#ee7d00"/>
    </linearGradient>
    <linearGradient id="linear-gradient-38" x1="412.4" y1="-99.2" x2="2355.9" y2="-99.2" gradientTransform="translate(0 3019.7)" gradientUnits="userSpaceOnUse">
      <stop offset="0" stop-color="#000"/>
      <stop offset=".9" stop-color="#ee7d00"/>
    </linearGradient>
    <linearGradient id="linear-gradient-39" x1="2359.9" y1="-1280.2" x2="435.9" y2="-1280.2" gradientTransform="translate(0 3019.7)" gradientUnits="userSpaceOnUse">
      <stop offset="0" stop-color="#000"/>
      <stop offset=".9" stop-color="#ee7d00"/>
    </linearGradient>
    <linearGradient id="linear-gradient-40" x1="790.4" y1="-1236.6" x2="804.8" y2="-1175.4" gradientTransform="translate(0 3019.7)" gradientUnits="userSpaceOnUse">
      <stop offset="0" stop-color="#f8af00"/>
      <stop offset=".9" stop-color="#ee7d00"/>
    </linearGradient>
    <linearGradient id="linear-gradient-41" x1="804.8" y1="-1240" x2="819.1" y2="-1178.8" gradientTransform="translate(0 3019.7)" gradientUnits="userSpaceOnUse">
      <stop offset="0" stop-color="#f8af00"/>
      <stop offset=".9" stop-color="#ee7d00"/>
    </linearGradient>
    <linearGradient id="linear-gradient-42" x1="828.4" y1="-1245.5" x2="842.7" y2="-1184.4" gradientTransform="translate(0 3019.7)" gradientUnits="userSpaceOnUse">
      <stop offset="0" stop-color="#f8af00"/>
      <stop offset=".9" stop-color="#ee7d00"/>
    </linearGradient>
    <linearGradient id="linear-gradient-43" x1="777.4" y1="-1597.6" x2="791.8" y2="-1536.4" gradientTransform="translate(0 3019.7)" gradientUnits="userSpaceOnUse">
      <stop offset="0" stop-color="#f8af00"/>
      <stop offset=".9" stop-color="#ee7d00"/>
    </linearGradient>
    <linearGradient id="linear-gradient-44" x1="791.8" y1="-1601" x2="806.1" y2="-1539.8" gradientTransform="translate(0 3019.7)" gradientUnits="userSpaceOnUse">
      <stop offset="0" stop-color="#f8af00"/>
      <stop offset=".9" stop-color="#ee7d00"/>
    </linearGradient>
    <linearGradient id="linear-gradient-45" x1="815.4" y1="-1606.4" x2="829.7" y2="-1545.3" gradientTransform="translate(0 3019.7)" gradientUnits="userSpaceOnUse">
      <stop offset="0" stop-color="#f8af00"/>
      <stop offset=".9" stop-color="#ee7d00"/>
    </linearGradient>
    <linearGradient id="linear-gradient-46" x1="1147.8" y1="-623.3" x2="1147.8" y2="-604.6" gradientTransform="translate(0 3019.7)" gradientUnits="userSpaceOnUse">
      <stop offset="0" stop-color="#f8af00"/>
      <stop offset=".9" stop-color="#ee7d00"/>
    </linearGradient>
    <linearGradient id="linear-gradient-47" x1="1160.6" y1="-623.3" x2="1160.6" y2="-604.6" gradientTransform="translate(0 3019.7)" gradientUnits="userSpaceOnUse">
      <stop offset="0" stop-color="#f8af00"/>
      <stop offset=".9" stop-color="#ee7d00"/>
    </linearGradient>
    <linearGradient id="linear-gradient-48" x1="1172.7" y1="-623.3" x2="1172.7" y2="-604.6" gradientTransform="translate(0 3019.7)" gradientUnits="userSpaceOnUse">
      <stop offset="0" stop-color="#f8af00"/>
      <stop offset=".9" stop-color="#ee7d00"/>
    </linearGradient>
    <linearGradient id="linear-gradient-49" x1="1186.5" y1="-623.3" x2="1186.5" y2="-604.6" gradientTransform="translate(0 3019.7)" gradientUnits="userSpaceOnUse">
      <stop offset="0" stop-color="#f8af00"/>
      <stop offset=".9" stop-color="#ee7d00"/>
    </linearGradient>
    <linearGradient id="linear-gradient-50" x1="1205.4" y1="-623.3" x2="1205.4" y2="-604.6" gradientTransform="translate(0 3019.7)" gradientUnits="userSpaceOnUse">
      <stop offset="0" stop-color="#f8af00"/>
      <stop offset=".9" stop-color="#ee7d00"/>
    </linearGradient>
    <linearGradient id="linear-gradient-51" x1="1217.5" y1="-623.3" x2="1217.5" y2="-604.6" gradientTransform="translate(0 3019.7)" gradientUnits="userSpaceOnUse">
      <stop offset="0" stop-color="#f8af00"/>
      <stop offset=".9" stop-color="#ee7d00"/>
    </linearGradient>
    <linearGradient id="linear-gradient-52" x1="1229.4" y1="-623.3" x2="1229.4" y2="-604.6" gradientTransform="translate(0 3019.7)" gradientUnits="userSpaceOnUse">
      <stop offset="0" stop-color="#f8af00"/>
      <stop offset=".9" stop-color="#ee7d00"/>
    </linearGradient>
    <linearGradient id="linear-gradient-53" x1="1242.4" y1="-623.3" x2="1242.4" y2="-604.6" gradientTransform="translate(0 3019.7)" gradientUnits="userSpaceOnUse">
      <stop offset="0" stop-color="#f8af00"/>
      <stop offset=".9" stop-color="#ee7d00"/>
    </linearGradient>
    <linearGradient id="linear-gradient-54" x1="1255.7" y1="-623.3" x2="1255.7" y2="-604.6" gradientTransform="translate(0 3019.7)" gradientUnits="userSpaceOnUse">
      <stop offset="0" stop-color="#f8af00"/>
      <stop offset=".9" stop-color="#ee7d00"/>
    </linearGradient>
    <linearGradient id="linear-gradient-55" x1="1289.4" y1="-615.1" x2="1290.4" y2="-615.1" gradientTransform="translate(0 3019.7)" gradientUnits="userSpaceOnUse">
      <stop offset="0" stop-color="#f8af00"/>
      <stop offset=".9" stop-color="#ee7d00"/>
    </linearGradient>
    <linearGradient id="linear-gradient-56" x1="-275.3" y1="-2531.3" x2="-247.6" y2="-2412.9" gradientTransform="translate(0 3019.7)" gradientUnits="userSpaceOnUse">
      <stop offset="0" stop-color="#f8af00"/>
      <stop offset=".9" stop-color="#ee7d00"/>
    </linearGradient>
    <linearGradient id="New_Gradient_Swatch_1" data-name="New Gradient Swatch 1" x1="-247.2" y1="-2537.9" x2="-219.5" y2="-2419.5" gradientTransform="translate(0 3019.7)" gradientUnits="userSpaceOnUse">
      <stop offset="0" stop-color="#f8af00"/>
      <stop offset=".9" stop-color="#ee7d00"/>
    </linearGradient>
    <linearGradient id="linear-gradient-57" x1="-201.3" y1="-2548.6" x2="-173.6" y2="-2430.3" gradientTransform="translate(0 3019.7)" gradientUnits="userSpaceOnUse">
      <stop offset="0" stop-color="#f8af00"/>
      <stop offset=".9" stop-color="#ee7d00"/>
    </linearGradient>
    <linearGradient id="linear-gradient-58" x1="494.5" y1="872.9" x2="522.5" y2="992.5" gradientTransform="matrix(1,0,0,1,0,0)" xlink:href="#linear-gradient-56"/>
    <linearGradient id="New_Gradient_Swatch_1-2" data-name="New Gradient Swatch 1" x1="522.5" y1="865.7" x2="550.3" y2="984.6" gradientTransform="matrix(1,0,0,1,0,0)" xlink:href="#New_Gradient_Swatch_1"/>
    <linearGradient id="linear-gradient-59" x1="567.9" y1="853.4" x2="595.9" y2="972.6" gradientTransform="matrix(1,0,0,1,0,0)" xlink:href="#linear-gradient-57"/>
    <linearGradient id="linear-gradient-60" x1="96.3" y1="545.1" x2="125.2" y2="545.1" gradientUnits="userSpaceOnUse">
      <stop offset="0" stop-color="#081ef6"/>
      <stop offset=".9" stop-color="#ce112c"/>
    </linearGradient>
    <linearGradient id="linear-gradient-61" x1="126.7" y1="537.6" x2="163.8" y2="537.6" xlink:href="#linear-gradient-60"/>
    <linearGradient id="linear-gradient-62" x1="167.4" y1="525.5" x2="200" y2="525.5" xlink:href="#linear-gradient-60"/>
    <linearGradient id="linear-gradient-63" x1="94.2" y1="-2533.1" x2="121.9" y2="-2414.7" gradientTransform="translate(0 3019.7)" xlink:href="#linear-gradient-60"/>
    <linearGradient id="linear-gradient-64" x1="122.3" y1="-2539.7" x2="150" y2="-2421.3" gradientTransform="translate(0 3019.7)" xlink:href="#linear-gradient-60"/>
    <linearGradient id="linear-gradient-65" x1="168.2" y1="-2550.4" x2="195.9" y2="-2432.1" gradientTransform="translate(0 3019.7)" xlink:href="#linear-gradient-60"/>
    <linearGradient id="linear-gradient-66" x1="-276.2" y1="-2145.7" x2="-248.5" y2="-2027.3" gradientTransform="translate(0 3019.7)" gradientUnits="userSpaceOnUse">
      <stop offset="0" stop-color="#081ef6"/>
      <stop offset=".9" stop-color="#ce112c"/>
    </linearGradient>
    <linearGradient id="New_Gradient_Swatch_4" data-name="New Gradient Swatch 4" x1="-248.1" y1="-2152.3" x2="-220.4" y2="-2033.9" gradientTransform="translate(0 3019.7)" gradientUnits="userSpaceOnUse">
      <stop offset="0" stop-color="#081ef6"/>
      <stop offset=".9" stop-color="#ce112c"/>
    </linearGradient>
    <linearGradient id="linear-gradient-67" x1="-202.2" y1="-2163" x2="-174.5" y2="-2044.7" gradientTransform="translate(0 3019.7)" gradientUnits="userSpaceOnUse">
      <stop offset="0" stop-color="#081ef6"/>
      <stop offset=".9" stop-color="#ce112c"/>
    </linearGradient>
    <linearGradient id="linear-gradient-68" x1="107.4" y1="871.1" x2="135.4" y2="990.7" gradientTransform="matrix(1,0,0,1,0,0)" xlink:href="#linear-gradient-66"/>
    <linearGradient id="New_Gradient_Swatch_4-2" data-name="New Gradient Swatch 4" x1="135.4" y1="863.9" x2="163.2" y2="982.8" gradientTransform="matrix(1,0,0,1,0,0)" xlink:href="#New_Gradient_Swatch_4"/>
    <linearGradient id="linear-gradient-69" x1="180.9" y1="851.6" x2="208.8" y2="970.8" gradientTransform="matrix(1,0,0,1,0,0)" xlink:href="#linear-gradient-67"/>
    <linearGradient id="linear-gradient-70" x1="492.3" y1="-2531.3" x2="520" y2="-2412.9" gradientTransform="translate(0 3019.7)" gradientUnits="userSpaceOnUse">
      <stop offset="0" stop-color="#065153"/>
      <stop offset=".9" stop-color="#c26033"/>
    </linearGradient>
    <linearGradient id="New_Gradient_Swatch_3" data-name="New Gradient Swatch 3" x1="520.4" y1="-2537.9" x2="548.1" y2="-2419.5" gradientTransform="translate(0 3019.7)" gradientUnits="userSpaceOnUse">
      <stop offset="0" stop-color="#065153"/>
      <stop offset=".9" stop-color="#c26033"/>
    </linearGradient>
    <linearGradient id="linear-gradient-71" x1="566.2" y1="-2548.6" x2="593.9" y2="-2430.3" gradientTransform="translate(0 3019.7)" gradientUnits="userSpaceOnUse">
      <stop offset="0" stop-color="#065153"/>
      <stop offset=".9" stop-color="#c26033"/>
    </linearGradient>
    <linearGradient id="linear-gradient-72" x1="2.6" y1="87.9" x2="31.5" y2="87.9" xlink:href="#linear-gradient-60"/>
    <linearGradient id="linear-gradient-73" x1="33" y1="80.4" x2="70.1" y2="80.4" xlink:href="#linear-gradient-60"/>
    <linearGradient id="linear-gradient-74" x1="73.7" y1="68.3" x2="106.3" y2="68.3" xlink:href="#linear-gradient-60"/>
    <linearGradient id="linear-gradient-75" x1=".6" y1="-2990.3" x2="28.3" y2="-2871.9" gradientTransform="translate(0 3019.7)" xlink:href="#linear-gradient-60"/>
    <linearGradient id="linear-gradient-76" x1="28.7" y1="-2996.9" x2="56.4" y2="-2878.5" gradientTransform="translate(0 3019.7)" xlink:href="#linear-gradient-60"/>
    <linearGradient id="linear-gradient-77" x1="74.5" y1="-3007.6" x2="102.2" y2="-2889.3" gradientTransform="translate(0 3019.7)" xlink:href="#linear-gradient-60"/>
  </defs>
  <!-- Generator: Adobe Illustrator 28.6.0, SVG Export Plug-In . SVG Version: 1.2.0 Build 709)  -->
  <g>
    <g id="Layer_1">
      <g>
        <g>
          <path class="cls-101" d="M-131.5,1402v-53.2l6.1-1.6c1-.3,2-.4,2.7-.4,2.5,0,3.8,1.5,3.8,4.5v41.7c0,3.9-2.1,6.3-6.5,7.5l-6.1,1.6h0ZM-131.3,1349v52.8l5.9-1.6c4.3-1.2,6.3-3.5,6.3-7.3v-41.7c0-2.9-1.2-4.3-3.6-4.3s-1.7,0-2.7.4l-6,1.6h0ZM-128.6,1399.1v-48.8h0l2.9-.8c.7-.2,1.2-.3,1.7-.3,1.5,0,2.2.8,2.2,2.6v42.1c0,2.3-1.2,3.6-3.9,4.3l-3,.8h0ZM-128.4,1350.4v48.4l2.8-.7c2.6-.7,3.8-2,3.8-4.2v-42.1c0-1.6-.6-2.4-2-2.4s-1,0-1.7.3l-2.8.8h0Z"/>
          <path class="cls-101" d="M-114.4,1397.5v-53.2h0l9.8-2.7v2.4h0l-6.8,1.8v22.3l6.5-1.7v2.4h0l-6.4,1.7v23.7l7.4-2v2.4h0l-10.3,2.8h-.2ZM-114.2,1344.4v52.8l10-2.7v-2l-7.4,2v-24.1h0l6.4-1.7v-2l-6.5,1.7v-22.7h0l6.8-1.8v-2l-9.5,2.6h.2Z"/>
          <path class="cls-101" d="M-101.3,1393.9v-53.2l6.5-1.7c.8-.2,1.6-.3,2.2-.3,2.4,0,3.7,1.3,3.7,3.8v15.6c0,2.5-.5,5-4.2,6.4,2.8-.4,4.2.9,4.2,3.7v22.4h0l-3,.8v-22.4c0-1.8-.9-2.9-2.5-2.9s-.8,0-1.3.2l-2.6.7v26.1l-3,.8h0ZM-101.1,1340.9v52.8l2.6-.7v-26.1h0l2.6-.7c.5,0,1-.2,1.4-.2,1.7,0,2.6,1.1,2.6,3.1v22.2l2.6-.7v-22.2c0-2.4-1-3.6-3.1-3.6s-.8,0-1.2,0h0v-.3h0c3.8-1.4,4.3-3.8,4.3-6.3v-15.6c0-2.3-1.2-3.6-3.5-3.6s-1.4,0-2.2.3l-6.3,1.7.3-.2h0ZM-98.4,1364.8v-22.7h0l3-.8c2.4-.6,3.6.2,3.6,2.5v15.6c0,2.4-1.3,4-3.8,4.6l-2.9.8h.1ZM-98.2,1342.3v22.3l2.6-.7c2.4-.6,3.7-2.2,3.7-4.4v-15.6c0-2.2-1.1-2.9-3.4-2.3l-3,.8h.1Z"/>
          <path class="cls-101" d="M-84.2,1389.4v-53.2h0l3-.8v24.3l6.8-26.2,2.8-.7v.2l-7.1,26.8,7.7,26-3,.8h0l-7.3-25.5v27.4l-3,.8h0ZM-84,1336.3v52.8l2.7-.7v-52.8l-2.7.7ZM-81.1,1360.4l7.4,25.9,2.7-.7-7.7-25.9h0l7-26.7-2.3.6-7,26.8h-.1Z"/>
          <path class="cls-101" d="M-66.2,1384.5v-21l-5.9-30.6,3-.8,4.4,27.5,4.4-29.8,3-.8h0l-5.9,33.8v21l-3,.8h0ZM-71.9,1333.1l5.9,30.4v20.8l2.6-.7v-20.9l5.9-33.5-2.6.7-4.4,29.9h-.3l-4.4-27.4-2.7.7Z"/>
          <path class="cls-101" d="M-52.6,1380.9c-1.3,0-2.2-.4-2.8-1.2-.6-.7-.8-1.8-.8-3.3v-9.5h0l2.7-.7v9.7c0,1.7.6,2.5,1.9,2.5h0c.4,0,.8,0,1.3-.2,2.4-.6,3.4-1.9,3.4-4.2v-9.1c0-2.7-.5-4.2-1.5-6.4l-6-10.1c-1.1-1.9-1.9-4.5-1.9-6.7v-7.7c0-3.4,2.3-6.2,6-7.2,1-.3,1.8-.4,2.6-.4,2.3,0,3.4,1.3,3.4,3.8v9.5h0l-2.7.7v-9.3c0-2-.9-2.6-2.9-2.1-1.8.5-3,2-3,3.9v8.2c0,1.7.3,3.2,1.1,4.7l5.8,10c1.1,1.9,2.1,4.3,2.1,7.5v10c0,3.7-2,6-6.2,7.2-1,.3-1.8.4-2.5.4h0ZM-56,1367.1v9.3c0,1.4.3,2.5.8,3.2.6.8,1.4,1.1,2.6,1.1s1.5,0,2.5-.4c4.1-1.1,6-3.3,6-7v-10c0-3.1-1.1-5.5-2.1-7.4l-5.8-10c-.8-1.6-1.1-3.1-1.1-4.8v-8.2c0-2,1.2-3.6,3.1-4.1.5,0,.9-.2,1.2-.2,1.3,0,1.9.8,1.9,2.5v9.1l2.4-.6v-9.4c0-2.5-1-3.7-3.2-3.7s-1.6,0-2.5.4c-3.6,1-5.8,3.6-5.8,7v7.7c0,2.2.7,4.8,1.8,6.7l6,10.1c1,2.3,1.5,3.7,1.5,6.5v9.1c0,2.4-1.1,3.7-3.5,4.4-.5,0-.9.2-1.3.2h0c-1.4,0-2.1-.9-2.1-2.6v-9.5l-2.4.6h0Z"/>
          <path class="cls-101" d="M-43.3,1378.4h0l5.8-54.7h0l4.1-1.1h0l5.9,51.6-3,.8h0l-1.6-15.1-6.8,1.8-1.6,15.9-2.7.7h-.1ZM-37.4,1323.8l-5.7,54.3,2.4-.6,1.6-15.9,7.2-1.9h0l1.6,15.1,2.6-.7-5.9-51.2-3.8,1h0ZM-38.9,1359.5h0l1.8-18c.3-2.7.5-5.5.7-8.2s.4-5.5.7-8.2h0l.3-.2h0c0,4.4.6,8.7,1.1,12.8,0,1,.2,2,.3,2.9l1.8,17-6.7,1.8h0ZM-35.6,1325.5c-.3,2.6-.5,5.3-.6,7.8-.2,2.7-.4,5.5-.7,8.2l-1.8,17.8,6.3-1.7-1.8-16.8c0-1-.2-2-.3-2.9-.5-4-.9-8.1-1.1-12.3h0Z"/>
          <path class="cls-101" d="M-25.9,1373.8v-53.2h0l4.4-1.2h0l4.8,33c.5,3.7,1.3,9.2,2.3,15.5v-2.5c-.4-6.2-.7-11.5-.7-14v-33.8h0l3-.8v53.2l-4.4,1.2h0l-5-32.5c-.4-2.3-1-7.6-1.6-13.1l-.3-2.9c0,3.8.2,7.5.3,10.3,0,2.1,0,3.8,0,4.5v35.5l-3,.8h.1ZM-25.8,1320.7v52.8l2.6-.7v-35.3c0-.7,0-2.4,0-4.5,0-2.9-.3-6.8-.3-10.8h0l.3-.2h0l.4,3.5c.6,5.6,1.2,10.8,1.6,13.1l5,32.3,4.1-1.1v-52.8l-2.6.7v33.7c0,2.5.3,7.8.6,13.9v3c0,0-.2,0-.2,0h0c-1-6.6-1.8-12.2-2.3-16.1l-4.8-32.8-4.1,1.1-.2.2h0Z"/>
        </g>
        <g>
          <path class="cls-29" d="M-132.6,1348.2l6-1.6c4.2-1.1,6.4,0,6.4,3.9v41.7c0,4-2.2,6.2-6.4,7.4l-6,1.6v-53h0ZM-126.9,1397.5c2.6-.7,3.8-2,3.8-4.3v-42.1c0-2.3-1.3-2.9-3.8-2.2l-2.9.8v48.6l2.9-.8Z"/>
          <path class="cls-27" d="M-115.5,1343.6l9.7-2.6v2.2l-6.9,1.8v22.5l6.5-1.7v2.2l-6.5,1.7v23.9l7.4-2v2.2l-10.2,2.7v-53h0Z"/>
          <path class="cls-26" d="M-102.4,1340.1l6.4-1.7c3.4-.9,5.8,0,5.8,3.4v15.6c0,2.9-.8,5.1-4.4,6.4h0c2.6-.3,4.4.5,4.4,3.7v22.3l-2.8.8v-22.3c0-2-1.1-3.5-3.9-2.8l-2.6.7v26.1l-2.8.8v-53h-.1ZM-96.8,1363.3c2.4-.6,3.8-2.2,3.8-4.5v-15.6c0-2.3-1.2-3-3.5-2.4l-3,.8v22.5l2.8-.7h0Z"/>
          <path class="cls-25" d="M-85.3,1335.5l2.8-.8v53l-2.8.8v-53ZM-82.5,1359.7l7-26.8,2.6-.7-7,26.8,7.7,26-2.8.8-7.4-26h0Z"/>
          <path class="cls-22" d="M-61.5,1329.2l2.8-.8-5.9,33.7v20.9l-2.8.8v-20.9l-5.9-30.5,2.8-.8,4.4,27.5h0l4.4-29.9h.2Z"/>
          <path class="cls-23" d="M-54.8,1375.2c0,1.8.6,3.1,3.3,2.4,2.4-.6,3.5-1.9,3.5-4.3v-9.1c0-2.8-.5-4.3-1.5-6.4l-6-10.1c-1.2-2-1.8-4.6-1.8-6.7v-7.7c0-3.5,2.3-6.1,5.9-7.1,3.8-1,5.8,0,5.8,3.4v9.5l-2.6.7v-9.2c0-2.1-1.1-2.7-3-2.2-2,.5-3,2.2-3,4v8.2c0,1.8.4,3.2,1.1,4.8l5.8,10c1.2,2.2,2.1,4.5,2.1,7.4v10c0,3.4-1.6,5.9-6.1,7.1-4.4,1.2-6-.4-6-4v-9.4l2.6-.7v9.6-.2h0Z"/>
          <path class="cls-21" d="M-33.3,1359.1l-7,1.9-1.6,15.9-2.6.7,5.7-54.5,4-1.1,5.9,51.4-2.8.8-1.6-15.1h0ZM-33.5,1357l-1.8-16.9c-.6-5.1-1.3-10.3-1.4-15.6h0c-.6,5.5-.8,11-1.3,16.4l-1.8,17.9,6.5-1.7h-.2Z"/>
          <path class="cls-20" d="M-27.1,1319.9l4.3-1.1,4.8,32.9c.6,4,1.4,9.8,2.3,16h0c-.4-7.3-.7-14-.7-16.9v-33.8l2.8-.8v53l-4.3,1.1-5-32.4c-.4-2.7-1.2-9.7-2-16.5h0c0,6.9.5,13.6.5,15.3v35.4l-2.8.8v-53h.1Z"/>
        </g>
        <line class="cls-16" x1="-132.7" y1="1407.2" x2="-11.8" y2="1374.8"/>
        <line class="cls-16" x1="-132.9" y1="1343.1" x2="-13.3" y2="1311"/>
      </g>
      <rect class="cls-32" x="436.9" y="1737.5" width="1920" height="1080"/>
      <g>
        <g>
          <path class="cls-101" d="M347.9,1444.2v-44.3l5.1-1.4c.9-.2,1.6-.3,2.3-.3,2.1,0,3.1,1.2,3.1,3.7v34.7c0,3.3-1.7,5.2-5.4,6.2l-5.1,1.4h0ZM348.1,1400.1v44l4.9-1.3c3.6-1,5.3-2.9,5.3-6.1v-34.7c0-2.4-1-3.5-3-3.5s-1.4,0-2.2.3l-5,1.3h0ZM350.3,1441.8v-40.6h0l2.4-.7c.6,0,1-.2,1.4-.2,1.2,0,1.8.7,1.8,2.1v35.1c0,1.9-1,3-3.2,3.6l-2.5.7h0,0ZM350.4,1401.3v40.3l2.3-.6c2.2-.6,3.1-1.6,3.1-3.5v-35.1c0-1.3-.5-2-1.7-2s-.9,0-1.4.2l-2.4.6h0Z"/>
          <path class="cls-101" d="M362.1,1440.4v-44.3h0l8.2-2.2v2h0l-5.7,1.5v18.5l5.4-1.4v2h0l-5.3,1.4v19.8l6.1-1.6v2h0l-8.6,2.3h0ZM362.3,1396.3v44l8.3-2.2v-1.7l-6.1,1.6v-20.1h0l5.3-1.4v-1.7l-5.4,1.4v-18.9h0l5.7-1.5v-1.7l-7.9,2.1h0Z"/>
          <path class="cls-101" d="M373,1437.5v-44.3l5.4-1.4c.7-.2,1.3-.3,1.9-.3,2,0,3.1,1.1,3.1,3.1v13c0,2.1-.4,4.2-3.5,5.3,2.3-.3,3.5.7,3.5,3.1v18.6h0l-2.5.7v-18.7c0-1.5-.7-2.4-2-2.4s-.7,0-1.1.2l-2.1.6v21.8l-2.5.7h-.2ZM373.2,1393.3v44l2.2-.6v-21.8h0l2.2-.6c.4,0,.8-.2,1.1-.2,1.4,0,2.2.9,2.2,2.5v18.5l2.2-.6v-18.5c0-2-.9-3-2.6-3s-.6,0-1,0h0v-.3h0c3.2-1.1,3.6-3.2,3.6-5.3v-13c0-1.9-1-3-2.9-3s-1.2,0-1.8.3l-5.3,1.4v.2h.1ZM375.4,1413.3v-18.9h0l2.5-.7c2-.5,3,.2,3,2.1v13c0,2-1.1,3.3-3.2,3.8l-2.4.6h0ZM375.6,1394.5v18.5l2.2-.6c2-.5,3.1-1.8,3.1-3.7v-13c0-1.8-.9-2.4-2.8-1.9l-2.5.7h0Z"/>
          <path class="cls-101" d="M387.3,1433.7v-44.3h0l2.5-.7v20.3l5.7-21.8,2.3-.6h0l-5.8,22.4,6.4,21.7-2.5.7h0l-6-21.2v22.8l-2.5.7h0ZM387.4,1389.5v44l2.2-.6v-44l-2.2.6ZM389.8,1409.6l6.2,21.6,2.2-.6-6.4-21.6h0l5.8-22.2-1.9.5-5.8,22.3h0,0Z"/>
          <path class="cls-101" d="M402.2,1429.7v-17.5l-4.9-25.4,2.5-.7,3.7,22.9,3.6-24.8,2.5-.7h0l-4.9,28.1v17.5l-2.5.7h0ZM397.5,1386.8l4.9,25.3v17.3l2.2-.6v-17.4l4.9-27.9-2.2.6-3.7,24.9h-.3l-3.7-22.8-2.2.6h0,0Z"/>
          <path class="cls-101" d="M413.6,1426.6c-1.1,0-1.8-.3-2.3-1-.5-.6-.7-1.5-.7-2.8v-7.9h0l2.2-.6v8.1c0,1.4.5,2,1.6,2h0c.3,0,.7,0,1-.2,2-.5,2.8-1.6,2.8-3.5v-7.6c0-2.3-.4-3.5-1.2-5.3l-5-8.4c-1-1.6-1.5-3.8-1.5-5.6v-6.4c0-2.9,1.9-5.2,5-6,.8-.2,1.5-.3,2.1-.3,1.9,0,2.8,1,2.8,3.2v7.9h0l-2.2.6v-7.7c0-1.7-.8-2.2-2.4-1.7-1.5.4-2.5,1.7-2.5,3.2v6.8c0,1.4.3,2.6.9,3.9l4.8,8.3c.9,1.6,1.8,3.6,1.8,6.2v8.3c0,3.1-1.7,5-5.1,6-.8.2-1.5.3-2.1.3v.2h0ZM410.7,1415.1v7.8c0,1.2.2,2.1.7,2.7.5.6,1.2.9,2.2.9s1.3,0,2-.3c3.4-.9,5-2.8,5-5.8v-8.3c0-2.6-.9-4.6-1.8-6.1l-4.8-8.3c-.7-1.3-1-2.5-1-4v-6.8c0-1.6,1-3,2.6-3.4.4,0,.7-.2,1-.2,1.1,0,1.6.7,1.6,2.1v7.5l2-.5v-7.8c0-2-.9-3-2.6-3s-1.3,0-2.1.3c-3,.8-4.8,3-4.8,5.8v6.4c0,1.8.6,4,1.5,5.5l5,8.4c.9,1.9,1.2,3.1,1.2,5.4v7.6c0,2-.9,3.1-3,3.7-.4,0-.8.2-1.1.2h0c-1.2,0-1.7-.7-1.7-2.2v-7.9l-2,.5v-.2h.1Z"/>
          <path class="cls-101" d="M421.3,1424.6h0l4.8-45.6h0l3.4-.9h0l4.9,43-2.5.7h0l-1.3-12.5-5.7,1.5-1.3,13.2-2.3.6ZM426.2,1379.1l-4.8,45.2,2-.5,1.3-13.2,6-1.6h0l1.3,12.5,2.2-.6-4.9-42.6-3.2.8h0ZM424.9,1408.9h0l1.5-15c.2-2.3.4-4.6.6-6.8s.3-4.5.6-6.8h.3c0,3.6.5,7.1.9,10.6,0,.8.2,1.6.3,2.4l1.5,14.2-5.6,1.5h-.1ZM427.7,1380.5c-.2,2.2-.4,4.4-.5,6.5-.2,2.2-.3,4.5-.6,6.8l-1.5,14.8,5.3-1.4-1.5-14c0-.8-.2-1.6-.3-2.4-.4-3.3-.8-6.8-.9-10.2h0Z"/>
          <path class="cls-101" d="M435.7,1420.7v-44.3h0l3.6-1h0l4,27.5c.4,3.1,1.1,7.7,1.9,12.9v-2c-.4-5.1-.6-9.5-.6-11.6v-28.2h0l2.5-.7v44.3l-3.7,1h0l-4.1-27.1c-.3-1.9-.8-6.3-1.3-10.9l-.3-2.4c0,3.2.2,6.3.3,8.6,0,1.8,0,3.1,0,3.8v29.5l-2.5.7h0ZM435.9,1376.5v44l2.2-.6v-29.4c0-.6,0-2,0-3.8,0-2.4-.2-5.7-.3-9h.3l.3,2.8c.5,4.6,1,9,1.3,10.9l4.1,26.9,3.4-.9v-44l-2.2.6v28c0,2.1.2,6.5.5,11.6v2.5c0,0,0,0,0,0h0c-.8-5.5-1.5-10.2-1.9-13.4l-4-27.3-3.4.9v.2h-.1Z"/>
        </g>
        <g>
          <path class="cls-24" d="M347,1399.4l5-1.3c3.5-.9,5.3,0,5.3,3.3v34.7c0,3.3-1.8,5.2-5.3,6.1l-5,1.3v-44.1ZM351.8,1440.4c2.1-.6,3.2-1.6,3.2-3.5v-35.1c0-1.9-1.1-2.4-3.2-1.8l-2.4.6v40.4l2.4-.6h0Z"/>
          <path class="cls-43" d="M361.2,1395.6l8.1-2.2v1.8l-5.7,1.5v18.7l5.4-1.4v1.8l-5.4,1.4v19.9l6.1-1.6v1.8l-8.5,2.3v-44.1h0Z"/>
          <path class="cls-44" d="M372.1,1392.7l5.3-1.4c2.8-.8,4.8,0,4.8,2.8v13c0,2.4-.6,4.3-3.7,5.3h0c2.1-.3,3.7.4,3.7,3.1v18.6l-2.4.6v-18.6c0-1.6-.9-2.9-3.2-2.3l-2.2.6v21.8l-2.4.6v-44.1h0,0ZM376.8,1412c2-.5,3.1-1.8,3.1-3.8v-13c0-1.9-1-2.5-2.9-2l-2.5.7v18.7l2.3-.6h0Z"/>
          <path class="cls-45" d="M386.3,1388.9l2.4-.6v44.1l-2.4.6v-44.1ZM388.7,1409l5.8-22.3,2.1-.6-5.8,22.3,6.4,21.6-2.4.6-6.2-21.7h0Z"/>
          <path class="cls-46" d="M406.2,1383.6l2.4-.6-4.9,28v17.4l-2.4.6v-17.4l-4.9-25.4,2.4-.6,3.7,22.9h0l3.7-24.9h0,0Z"/>
          <path class="cls-48" d="M411.7,1421.9c0,1.5.5,2.5,2.7,2,2-.5,2.9-1.6,2.9-3.6v-7.6c0-2.3-.4-3.6-1.2-5.4l-5-8.4c-1-1.7-1.5-3.9-1.5-5.6v-6.4c0-2.9,1.9-5.1,4.9-5.9,3.2-.9,4.8,0,4.8,2.8v7.9l-2.1.6v-7.6c0-1.8-.9-2.3-2.5-1.8-1.7.4-2.5,1.8-2.5,3.3v6.8c0,1.5.3,2.7.9,4l4.8,8.3c1,1.8,1.8,3.7,1.8,6.2v8.3c0,2.8-1.4,4.9-5.1,5.9s-5-.4-5-3.4v-7.8l2.1-.6v8h0Z"/>
          <path class="cls-59" d="M429.6,1408.5l-5.8,1.6-1.3,13.2-2.1.6,4.8-45.4,3.3-.9,4.9,42.8-2.4.6-1.4-12.5h0ZM429.4,1406.7l-1.5-14.1c-.5-4.3-1.1-8.6-1.2-13h0c-.5,4.6-.6,9.1-1.1,13.7l-1.5,14.9,5.4-1.5h0Z"/>
          <path class="cls-60" d="M434.8,1375.9l3.5-1,4,27.4c.5,3.4,1.2,8.2,1.9,13.3h0c-.3-6.1-.6-11.7-.6-14v-28.1l2.4-.6v44.1l-3.5.9-4.1-27c-.4-2.3-1-8.1-1.7-13.7h0c0,5.7.4,11.3.4,12.8v29.5l-2.4.6v-44.1h0,0Z"/>
        </g>
        <line class="cls-16" x1="346.9" y1="1448.5" x2="447.5" y2="1421.5"/>
        <line class="cls-16" x1="346.7" y1="1395.2" x2="446.2" y2="1368.5"/>
      </g>
      <rect class="cls-12" x="97.6" y="1520.5" width="128" height="46"/>
      <g>
        <g>
          <path class="cls-31" d="M114.1,1691.5v-53.2l6.1-1.6c1-.3,2-.4,2.7-.4,2.5,0,3.8,1.5,3.8,4.5v41.7c0,3.9-2.1,6.3-6.5,7.5l-6.1,1.6h0ZM114.3,1638.5v52.8l5.9-1.6c4.3-1.2,6.3-3.5,6.3-7.3v-41.7c0-2.9-1.2-4.3-3.6-4.3s-1.7,0-2.7.4l-6,1.6h0ZM117,1688.6v-48.8h0l2.9-.8c.7-.2,1.2-.3,1.7-.3,1.5,0,2.2.8,2.2,2.6v42.1c0,2.3-1.2,3.6-3.9,4.3l-3,.8h0ZM117.2,1639.9v48.4l2.8-.7c2.6-.7,3.8-2,3.8-4.2v-42.1c0-1.6-.6-2.4-2-2.4s-1,0-1.7.3l-2.8.8h0Z"/>
          <path class="cls-31" d="M131.2,1687v-53.2h0l9.8-2.7v2.4h0l-6.8,1.8v22.3l6.5-1.7v2.4h0l-6.4,1.7v23.7l7.4-2v2.4h0l-10.3,2.8h-.2ZM131.4,1633.9v52.8l10-2.7v-2l-7.4,2v-24.1h0l6.4-1.7v-2l-6.5,1.7v-22.7h0l6.8-1.8v-2l-9.5,2.6h.2Z"/>
          <path class="cls-31" d="M144.3,1683.4v-53.2l6.5-1.7c.8-.2,1.6-.3,2.2-.3,2.4,0,3.7,1.3,3.7,3.8v15.6c0,2.5-.5,5-4.2,6.4,2.8-.4,4.2.9,4.2,3.7v22.4h0l-3,.8v-22.4c0-1.8-.9-2.9-2.5-2.9s-.8,0-1.3.2l-2.6.7v26.1l-3,.8h0ZM144.5,1630.4v52.8l2.6-.7v-26.1h0l2.6-.7c.5,0,1-.2,1.4-.2,1.7,0,2.6,1.1,2.6,3.1v22.2l2.6-.7v-22.2c0-2.4-1-3.6-3.1-3.6s-.8,0-1.2,0h0v-.3h0c3.8-1.4,4.3-3.8,4.3-6.3v-15.6c0-2.3-1.2-3.6-3.5-3.6s-1.4,0-2.2.3l-6.3,1.7.3-.2h0ZM147.2,1654.3v-22.7h0l3-.8c2.4-.6,3.6.2,3.6,2.5v15.6c0,2.4-1.3,4-3.8,4.6l-2.9.8h.1ZM147.4,1631.8v22.3l2.6-.7c2.4-.6,3.7-2.2,3.7-4.4v-15.6c0-2.2-1.1-2.9-3.4-2.3l-3,.8h.1Z"/>
          <path class="cls-31" d="M161.4,1678.9v-53.2h0l3-.8v24.3l6.8-26.2,2.8-.7v.2l-7.1,26.8,7.7,26-3,.8h0l-7.3-25.5v27.4l-3,.8h0ZM161.6,1625.8v52.8l2.7-.7v-52.8l-2.7.7ZM164.5,1649.9l7.4,25.9,2.7-.7-7.7-25.9h0l7-26.7-2.3.6-7,26.8h-.1Z"/>
          <path class="cls-31" d="M179.4,1674v-21l-5.9-30.6,3-.8,4.4,27.5,4.4-29.8,3-.8h0l-5.9,33.8v21l-3,.8h0ZM173.7,1622.6l5.9,30.4v20.8l2.6-.7v-20.9l5.9-33.5-2.6.7-4.4,29.9h-.3l-4.4-27.4-2.7.7Z"/>
          <path class="cls-31" d="M193,1670.4c-1.3,0-2.2-.4-2.8-1.2-.6-.7-.8-1.8-.8-3.3v-9.5h0l2.7-.7v9.7c0,1.7.6,2.5,1.9,2.5h0c.4,0,.8,0,1.3-.2,2.4-.6,3.4-1.9,3.4-4.2v-9.1c0-2.7-.5-4.2-1.5-6.4l-6-10.1c-1.1-1.9-1.9-4.5-1.9-6.7v-7.7c0-3.4,2.3-6.2,6-7.2,1-.3,1.8-.4,2.6-.4,2.3,0,3.4,1.3,3.4,3.8v9.5h0l-2.7.7v-9.3c0-2-.9-2.6-2.9-2.1-1.8.5-3,2-3,3.9v8.2c0,1.7.3,3.2,1.1,4.7l5.8,10c1.1,1.9,2.1,4.3,2.1,7.5v10c0,3.7-2,6-6.2,7.2-1,.3-1.8.4-2.5.4h0ZM189.6,1656.6v9.3c0,1.4.3,2.5.8,3.2.6.8,1.4,1.1,2.6,1.1s1.5,0,2.5-.4c4.1-1.1,6-3.3,6-7v-10c0-3.1-1.1-5.5-2.1-7.4l-5.8-10c-.8-1.6-1.1-3.1-1.1-4.8v-8.2c0-2,1.2-3.6,3.1-4.1.5,0,.9-.2,1.2-.2,1.3,0,1.9.8,1.9,2.5v9.1l2.4-.6v-9.4c0-2.5-1-3.7-3.2-3.7s-1.6,0-2.5.4c-3.6,1-5.8,3.6-5.8,7v7.7c0,2.2.7,4.8,1.8,6.7l6,10.1c1,2.3,1.5,3.7,1.5,6.5v9.1c0,2.4-1.1,3.7-3.5,4.4-.5,0-.9.2-1.3.2h0c-1.4,0-2.1-.9-2.1-2.6v-9.5l-2.4.6h0Z"/>
          <path class="cls-31" d="M202.3,1667.9h0l5.8-54.7h0l4.1-1.1h0l5.9,51.6-3,.8h0l-1.6-15.1-6.8,1.8-1.6,15.9-2.7.7h-.1ZM208.2,1613.3l-5.7,54.3,2.4-.6,1.6-15.9,7.2-1.9h0l1.6,15.1,2.6-.7-5.9-51.2-3.8,1h0ZM206.7,1649h0l1.8-18c.3-2.7.5-5.5.7-8.2s.4-5.5.7-8.2h0l.3-.2h0c0,4.4.6,8.7,1.1,12.8,0,1,.2,2,.3,2.9l1.8,17-6.7,1.8h0ZM210,1615c-.3,2.6-.5,5.3-.6,7.8-.2,2.7-.4,5.5-.7,8.2l-1.8,17.8,6.3-1.7-1.8-16.8c0-1-.2-2-.3-2.9-.5-4-.9-8.1-1.1-12.3h0Z"/>
          <path class="cls-31" d="M219.7,1663.3v-53.2h0l4.4-1.2h0l4.8,33c.5,3.7,1.3,9.2,2.3,15.5v-2.5c-.4-6.2-.7-11.5-.7-14v-33.8h0l3-.8v53.2l-4.4,1.2h0l-5-32.5c-.4-2.3-1-7.6-1.6-13.1l-.3-2.9c0,3.8.2,7.5.3,10.3,0,2.1,0,3.8,0,4.5v35.5l-3,.8h.1ZM219.8,1610.2v52.8l2.6-.7v-35.3c0-.7,0-2.4,0-4.5,0-2.9-.3-6.8-.3-10.8h0l.3-.2h0l.4,3.5c.6,5.6,1.2,10.8,1.6,13.1l5,32.3,4.1-1.1v-52.8l-2.6.7v33.7c0,2.5.3,7.8.6,13.9v3c0,0-.2,0-.2,0h0c-1-6.6-1.8-12.2-2.3-16.1l-4.8-32.8-4.1,1.1-.2.2h0Z"/>
        </g>
        <g>
          <path class="cls-31" d="M113,1637.7l6-1.6c4.2-1.1,6.4,0,6.4,3.9v41.7c0,4-2.2,6.2-6.4,7.4l-6,1.6v-53h0ZM118.7,1687c2.6-.7,3.8-2,3.8-4.3v-42.1c0-2.3-1.3-2.9-3.8-2.2l-2.9.8v48.6l2.9-.8h0Z"/>
          <path class="cls-31" d="M130.1,1633.1l9.7-2.6v2.2l-6.9,1.8v22.5l6.5-1.7v2.2l-6.5,1.7v23.9l7.4-2v2.2l-10.2,2.7v-53h0Z"/>
          <path class="cls-31" d="M143.2,1629.6l6.4-1.7c3.4-.9,5.8,0,5.8,3.4v15.6c0,2.9-.8,5.1-4.4,6.4h0c2.6-.3,4.4.5,4.4,3.7v22.3l-2.8.8v-22.3c0-2-1.1-3.5-3.9-2.8l-2.6.7v26.1l-2.8.8v-53h-.1ZM148.8,1652.8c2.4-.6,3.8-2.2,3.8-4.5v-15.6c0-2.3-1.2-3-3.5-2.4l-3,.8v22.5l2.8-.7h0Z"/>
          <path class="cls-31" d="M160.3,1625l2.8-.8v53l-2.8.8v-53ZM163.1,1649.2l7-26.8,2.6-.7-7,26.8,7.7,26-2.8.8-7.4-26h0Z"/>
          <path class="cls-31" d="M184.1,1618.7l2.8-.8-5.9,33.7v20.9l-2.8.8v-20.9l-5.9-30.5,2.8-.8,4.4,27.5h0l4.4-29.9h.2Z"/>
          <path class="cls-31" d="M190.8,1664.7c0,1.8.6,3.1,3.3,2.4,2.4-.6,3.5-1.9,3.5-4.3v-9.1c0-2.8-.5-4.3-1.5-6.4l-6-10.1c-1.2-2-1.8-4.6-1.8-6.7v-7.7c0-3.5,2.3-6.1,5.9-7.1,3.8-1,5.8,0,5.8,3.4v9.5l-2.6.7v-9.2c0-2.1-1.1-2.7-3-2.2-2,.5-3,2.2-3,4v8.2c0,1.8.4,3.2,1.1,4.8l5.8,10c1.2,2.2,2.1,4.5,2.1,7.4v10c0,3.4-1.6,5.9-6.1,7.1-4.4,1.2-6-.4-6-4v-9.4l2.6-.7v9.6-.2h0Z"/>
          <path class="cls-31" d="M212.3,1648.6l-7,1.9-1.6,15.9-2.6.7,5.7-54.5,4-1.1,5.9,51.4-2.8.8-1.6-15.1h0ZM212.1,1646.5l-1.8-16.9c-.6-5.1-1.3-10.3-1.4-15.6h0c-.6,5.5-.8,11-1.3,16.4l-1.8,17.9,6.5-1.7h-.1Z"/>
          <path class="cls-31" d="M218.5,1609.4l4.3-1.1,4.8,32.9c.6,4,1.4,9.8,2.3,16h0c-.4-7.3-.7-14-.7-16.9v-33.8l2.8-.8v53l-4.3,1.1-5-32.4c-.4-2.7-1.2-9.7-2-16.5h0c0,6.9.5,13.6.5,15.3v35.4l-2.8.8v-53h.1Z"/>
        </g>
        <line class="cls-16" x1="112.9" y1="1696.7" x2="233.8" y2="1664.3"/>
        <line class="cls-16" x1="112.7" y1="1632.6" x2="232.3" y2="1600.5"/>
      </g>
      <rect class="cls-32" x="435.9" y="2920.5" width="1920" height="136"/>
      <g class="cls-6">
        <g class="cls-6">
          <text class="cls-8" transform="translate(1865.4 2991.6)"><tspan x="0" y="0">© 2025 All rights reserved.</tspan></text>
        </g>
      </g>
      <g class="cls-6">
        <g class="cls-6">
          <text class="cls-7" transform="translate(-111 1485.1)"><tspan x="0" y="0">derkysan.dev@gmail.com</tspan></text>
        </g>
      </g>
      <rect class="cls-13" x="-134.4" y="1453.4" width="359.5" height="53"/>
      <rect class="cls-61" x="106.6" y="1456.9" width="115" height="46"/>
      <g class="cls-6">
        <g class="cls-6">
          <text class="cls-5" transform="translate(141.3 1484.7)"><tspan x="0" y="0">Copiar</tspan></text>
        </g>
      </g>
      <circle class="cls-4" cx="1414.9" cy="2032.5" r="478"/>
      <g>
        <g>
          <path class="cls-101" d="M245.1,1658v-57.4l6.6-1.8c1.1-.3,2.1-.5,2.9-.5,2.7,0,4.1,1.6,4.1,4.8v45c0,4.2-2.2,6.8-7,8.1l-6.6,1.8h0ZM245.3,1600.7v57l6.4-1.7c4.6-1.2,6.8-3.7,6.8-7.9v-45c0-3.1-1.3-4.6-3.9-4.6s-1.8,0-2.9.4l-6.4,1.7h0ZM248.1,1654.8v-52.7h0l3.1-.9c.7-.2,1.3-.3,1.9-.3,1.6,0,2.4.9,2.4,2.8v45.5c0,2.4-1.3,3.9-4.2,4.7l-3.3.9h0ZM248.4,1602.2v52.3l3-.8c2.8-.7,4.1-2.1,4.1-4.5v-45.5c0-1.7-.7-2.6-2.2-2.6s-1.1,0-1.8.3l-3.1.8h0Z"/>
          <path class="cls-101" d="M263.5,1653v-57.5h0l10.6-2.9v2.6h0l-7.3,2v24l7-1.9v2.6h0l-6.9,1.9v25.6l8-2.1v2.6h0l-11.2,3h-.2ZM263.7,1595.7v57l10.8-2.9v-2.2l-8,2.1v-26.1h0l6.9-1.9v-2.2l-7,1.9v-24.5h0l7.4-2v-2.2l-10.3,2.8.2.2h0Z"/>
          <path class="cls-101" d="M277.7,1649.2v-57.4l7-1.9c.9-.2,1.7-.4,2.4-.4,2.6,0,4,1.5,4,4.1v16.9c0,2.7-.6,5.4-4.6,6.9,3-.5,4.6.9,4.6,4v24.2h0l-3.2.9v-24.2c0-2-1-3.1-2.7-3.1s-.9,0-1.4.2l-2.8.7v28.2l-3.3.9h0ZM277.9,1591.9v57l2.9-.8v-28.2h0l2.8-.8c.5,0,1-.2,1.5-.2,1.8,0,2.9,1.2,2.9,3.3v24l2.9-.8v-24c0-2.6-1.1-3.9-3.3-3.9s-.8,0-1.3,0h0v-.3h0c4.1-1.5,4.7-4.1,4.7-6.8v-16.9c0-2.5-1.3-3.9-3.8-3.9s-1.5,0-2.4.4l-6.8,1.8h0ZM280.7,1617.8v-24.5h0l3.3-.9c2.6-.7,3.9.2,3.9,2.7v16.9c0,2.5-1.4,4.3-4.1,5l-3.1.8h0ZM281,1593.5v24l2.9-.8c2.6-.7,4-2.4,4-4.8v-16.9c0-2.3-1.2-3.1-3.6-2.5l-3.2.9h-.1Z"/>
          <path class="cls-101" d="M296.2,1644.3v-57.5h0l3.2-.9v26.3l7.4-28.3,3-.8v.2l-7.6,29,8.4,28.1-3.3.9h0l-7.8-27.5v29.6l-3.3.9h0ZM296.4,1587v57l2.9-.8v-57l-2.9.8ZM299.4,1613l8,28,2.9-.8-8.3-28h0l7.5-28.8-2.5.7-7.6,28.9h0Z"/>
          <path class="cls-101" d="M315.5,1639.1v-22.7l-6.4-33,3.3-.9,4.7,29.7,4.7-32.2,3.3-.9v.2l-6.4,36.3v22.7l-3.3.9h.1ZM309.4,1583.5l6.3,32.8v22.5l2.9-.8v-22.5l6.3-36.2-2.8.8-4.7,32.3h-.3l-4.7-29.6-2.9.8h-.1Z"/>
          <path class="cls-101" d="M330.3,1635.1c-1.4,0-2.4-.4-3-1.3-.6-.8-.9-2-.9-3.6v-10.2h0l2.9-.8v10.5c0,1.8.6,2.7,2,2.7h0c.4,0,.9,0,1.4-.2,2.6-.7,3.7-2,3.7-4.6v-9.8c0-2.9-.5-4.5-1.6-6.9l-6.4-10.9c-1.2-2.1-2-4.9-2-7.3v-8.3c0-3.7,2.5-6.7,6.4-7.7,1.1-.3,2-.4,2.8-.4,2.4,0,3.6,1.4,3.6,4.2v10.3h0l-2.9.8v-10c0-2.2-1-2.9-3.2-2.3-2,.5-3.2,2.2-3.2,4.2v8.9c0,1.8.4,3.4,1.2,5.1l6.3,10.8c1.1,2.1,2.3,4.6,2.3,8.1v10.8c0,4-2.2,6.5-6.7,7.7-1,.3-1.9.4-2.7.4v-.2h0ZM326.5,1620.2v10.1c0,1.6.3,2.7.9,3.5s1.5,1.2,2.9,1.2,1.7,0,2.7-.4c4.4-1.2,6.5-3.6,6.5-7.5v-10.8c0-3.4-1.2-5.9-2.3-8l-6.3-10.8c-.9-1.7-1.2-3.3-1.2-5.2v-8.9c0-2.1,1.3-3.8,3.4-4.4.5,0,.9-.2,1.3-.2,1.4,0,2.1.9,2.1,2.7v9.8l2.6-.7v-10.1c0-2.7-1.1-4-3.4-4s-1.7,0-2.7.4c-3.9,1-6.3,3.9-6.3,7.5v8.3c0,2.4.8,5.1,2,7.2l6.4,10.9c1.1,2.4,1.6,4,1.6,7v9.8c0,2.6-1.1,4-3.8,4.8-.5,0-1,.2-1.4.2h0c-1.5,0-2.2-.9-2.2-2.9v-10.3l-2.6.7h-.2Z"/>
          <path class="cls-101" d="M340.3,1632.5h0l6.2-59.1h0l4.4-1.2h0l6.4,55.7-3.3.9h0l-1.7-16.3-7.4,2-1.7,17.2-3,.8h0ZM346.7,1573.5l-6.2,58.7,2.5-.7,1.7-17.2,7.8-2.1h0l1.7,16.3,2.9-.8-6.3-55.3-4.1,1.1ZM345,1612.1h0l2-19.5c.3-2.9.5-5.9.7-8.8.2-2.9.4-5.9.7-8.8h0l.3-.2h0c0,4.8.7,9.4,1.2,13.8,0,1.1.2,2.1.4,3.2l1.9,18.4-7.3,1.9h.1ZM348.6,1575.3c-.3,2.8-.5,5.7-.7,8.5-.2,2.9-.4,5.9-.7,8.8l-2,19.2,6.8-1.8-1.9-18.2c0-1.1-.2-2.1-.4-3.2-.5-4.3-1-8.8-1.2-13.3h0,0Z"/>
          <path class="cls-101" d="M359,1627.4v-57.5h0l4.7-1.3h0l5.2,35.7c.6,4,1.4,10,2.5,16.8v-2.7c-.5-6.6-.7-12.4-.7-15.1v-36.5h0l3.2-.9v57.5l-4.8,1.3h0l-5.4-35.1c-.4-2.5-1-8.2-1.7-14.2l-.4-3.1c0,4.1.2,8.1.4,11.1,0,2.3.2,4.1.2,4.9v38.3l-3.3.9h.1ZM359.2,1570.1v57l2.9-.8v-38.1c0-.8,0-2.6-.2-4.9,0-3.1-.3-7.4-.4-11.6h0l.3-.2h0l.4,3.8c.7,6,1.3,11.7,1.7,14.2l5.3,34.9,4.4-1.2v-57l-2.9.8v36.4c0,2.7.3,8.4.6,15.1l.2,3.2h-.3c-1-7-1.9-13.1-2.5-17.2l-5.2-35.4-4.4,1.2v-.2h0Z"/>
        </g>
        <g>
          <path class="cls-47" d="M243.9,1599.8l6.5-1.7c4.5-1.2,6.9,0,6.9,4.3v45c0,4.3-2.4,6.7-6.9,7.9l-6.5,1.7v-57.2h0ZM250.1,1653c2.8-.7,4.1-2.1,4.1-4.6v-45.5c0-2.5-1.4-3.1-4.1-2.4l-3.1.8v52.5l3.1-.8Z"/>
          <path class="cls-50" d="M262.3,1594.9l10.5-2.8v2.4l-7.4,2v24.3l7-1.9v2.4l-7,1.9v25.8l8-2.1v2.4l-11,3v-57.4h0Z"/>
          <path class="cls-49" d="M276.5,1591.1l6.9-1.8c3.7-1,6.3,0,6.3,3.6v16.9c0,3.1-.8,5.5-4.7,6.9v.2c2.8-.5,4.7.4,4.7,3.9v24.1l-3.1.8v-24.1c0-2.1-1.1-3.8-4.2-3l-2.8.8v28.2l-3.1.8v-57.2h0ZM282.5,1616.1c2.6-.7,4.1-2.4,4.1-4.9v-16.9c0-2.5-1.3-3.2-3.8-2.6l-3.3.9v24.3l3-.8h0Z"/>
          <path class="cls-51" d="M294.9,1586.1l3.1-.8v57.2l-3.1.8v-57.2ZM298,1612.3l7.6-29,2.8-.7-7.6,29,8.3,28.1-3.1.8-8-28.1h0Z"/>
          <path class="cls-52" d="M320.7,1579.3l3.1-.8-6.4,36.3v22.6l-3.1.8v-22.6l-6.4-32.9,3.1-.8,4.7,29.7h.2l4.7-32.3h.1Z"/>
          <path class="cls-66" d="M327.9,1629c0,1.9.7,3.3,3.5,2.5,2.6-.7,3.8-2,3.8-4.7v-9.8c0-3-.5-4.6-1.6-6.9l-6.4-10.9c-1.3-2.2-2-5-2-7.2v-8.3c0-3.7,2.5-6.6,6.4-7.6,4.1-1.1,6.3,0,6.3,3.6v10.2l-2.8.7v-9.9c0-2.3-1.1-2.9-3.3-2.4-2.1.6-3.3,2.4-3.3,4.3v8.9c0,1.9.4,3.5,1.2,5.1l6.3,10.8c1.3,2.3,2.3,4.9,2.3,8v10.8c0,3.6-1.8,6.3-6.6,7.6-4.7,1.3-6.5-.5-6.5-4.4v-10.1l2.8-.7v10.4h-.1Z"/>
          <path class="cls-54" d="M351.1,1611.6l-7.6,2-1.7,17.2-2.8.7,6.2-58.9,4.3-1.1,6.4,55.5-3.1.8-1.8-16.3h0ZM350.8,1609.3l-1.9-18.3c-.6-5.5-1.4-11.1-1.5-16.9h-.2c-.6,5.9-.8,11.8-1.5,17.7l-2,19.3,7-1.9h0Z"/>
          <path class="cls-67" d="M357.8,1569.3l4.6-1.2,5.2,35.6c.6,4.4,1.5,10.6,2.5,17.2h.2c-.4-7.9-.8-15.1-.8-18.2v-36.5l3.1-.8v57.2l-4.6,1.2-5.4-35c-.5-3-1.3-10.5-2.1-17.8h-.2c.2,7.4.5,14.6.5,16.5v38.2l-3.1.8v-57.2h.1Z"/>
        </g>
        <line class="cls-16" x1="243.8" y1="1663.5" x2="374.3" y2="1628.5"/>
        <line class="cls-16" x1="243.5" y1="1594.3" x2="372.6" y2="1559.7"/>
      </g>
      <g>
        <g>
          <path class="cls-101" d="M246.1,1658v-57.4l6.6-1.8c1.1-.3,2.1-.5,2.9-.5,2.7,0,4.1,1.6,4.1,4.8v45c0,4.2-2.2,6.8-7,8.1l-6.6,1.8h0ZM246.3,1600.7v57l6.4-1.7c4.6-1.2,6.8-3.7,6.8-7.9v-45c0-3.1-1.3-4.6-3.9-4.6s-1.8,0-2.9.4l-6.4,1.7h0ZM249.1,1654.8v-52.7h0l3.1-.9c.7-.2,1.3-.3,1.9-.3,1.6,0,2.4.9,2.4,2.8v45.5c0,2.4-1.3,3.9-4.2,4.7l-3.3.9h0ZM249.4,1602.2v52.3l3-.8c2.8-.7,4.1-2.1,4.1-4.5v-45.5c0-1.7-.7-2.6-2.2-2.6s-1.1,0-1.8.3l-3.1.8h0Z"/>
          <path class="cls-101" d="M264.5,1653v-57.5h0l10.6-2.9v2.6h0l-7.3,2v24l7-1.9v2.6h0l-6.9,1.9v25.6l8-2.1v2.6h0l-11.2,3h-.2ZM264.7,1595.7v57l10.8-2.9v-2.2l-8,2.1v-26.1h0l6.9-1.9v-2.2l-7,1.9v-24.5h0l7.4-2v-2.2l-10.3,2.8.2.2h0Z"/>
          <path class="cls-101" d="M278.7,1649.2v-57.4l7-1.9c.9-.2,1.7-.4,2.4-.4,2.6,0,4,1.5,4,4.1v16.9c0,2.7-.6,5.4-4.6,6.9,3-.5,4.6.9,4.6,4v24.2h0l-3.2.9v-24.2c0-2-1-3.1-2.7-3.1s-.9,0-1.4.2l-2.8.7v28.2l-3.3.9h0ZM278.9,1591.9v57l2.9-.8v-28.2h0l2.8-.8c.5,0,1-.2,1.5-.2,1.8,0,2.9,1.2,2.9,3.3v24l2.9-.8v-24c0-2.6-1.1-3.9-3.3-3.9s-.8,0-1.3,0h0v-.3h0c4.1-1.5,4.7-4.1,4.7-6.8v-16.9c0-2.5-1.3-3.9-3.8-3.9s-1.5,0-2.4.4l-6.8,1.8h0ZM281.7,1617.8v-24.5h0l3.3-.9c2.6-.7,3.9.2,3.9,2.7v16.9c0,2.5-1.4,4.3-4.1,5l-3.1.8h0ZM282,1593.5v24l2.9-.8c2.6-.7,4-2.4,4-4.8v-16.9c0-2.3-1.2-3.1-3.6-2.5l-3.2.9h-.1Z"/>
          <path class="cls-101" d="M297.2,1644.3v-57.5h0l3.2-.9v26.3l7.4-28.3,3-.8v.2l-7.6,29,8.4,28.1-3.3.9h0l-7.8-27.5v29.6l-3.3.9h0ZM297.4,1587v57l2.9-.8v-57l-2.9.8ZM300.4,1613l8,28,2.9-.8-8.3-28h0l7.5-28.8-2.5.7-7.6,28.9h0Z"/>
          <path class="cls-101" d="M316.5,1639.1v-22.7l-6.4-33,3.3-.9,4.7,29.7,4.7-32.2,3.3-.9v.2l-6.4,36.3v22.7l-3.3.9h.1ZM310.4,1583.5l6.3,32.8v22.5l2.9-.8v-22.5l6.3-36.2-2.8.8-4.7,32.3h-.3l-4.7-29.6-2.9.8h-.1Z"/>
          <path class="cls-101" d="M331.3,1635.1c-1.4,0-2.4-.4-3-1.3-.6-.8-.9-2-.9-3.6v-10.2h0l2.9-.8v10.5c0,1.8.6,2.7,2,2.7h0c.4,0,.9,0,1.4-.2,2.6-.7,3.7-2,3.7-4.6v-9.8c0-2.9-.5-4.5-1.6-6.9l-6.4-10.9c-1.2-2.1-2-4.9-2-7.3v-8.3c0-3.7,2.5-6.7,6.4-7.7,1.1-.3,2-.4,2.8-.4,2.4,0,3.6,1.4,3.6,4.2v10.3h0l-2.9.8v-10c0-2.2-1-2.9-3.2-2.3-2,.5-3.2,2.2-3.2,4.2v8.9c0,1.8.4,3.4,1.2,5.1l6.3,10.8c1.1,2.1,2.3,4.6,2.3,8.1v10.8c0,4-2.2,6.5-6.7,7.7-1,.3-1.9.4-2.7.4v-.2h0ZM327.5,1620.2v10.1c0,1.6.3,2.7.9,3.5s1.5,1.2,2.9,1.2,1.7,0,2.7-.4c4.4-1.2,6.5-3.6,6.5-7.5v-10.8c0-3.4-1.2-5.9-2.3-8l-6.3-10.8c-.9-1.7-1.2-3.3-1.2-5.2v-8.9c0-2.1,1.3-3.8,3.4-4.4.5,0,.9-.2,1.3-.2,1.4,0,2.1.9,2.1,2.7v9.8l2.6-.7v-10.1c0-2.7-1.1-4-3.4-4s-1.7,0-2.7.4c-3.9,1-6.3,3.9-6.3,7.5v8.3c0,2.4.8,5.1,2,7.2l6.4,10.9c1.1,2.4,1.6,4,1.6,7v9.8c0,2.6-1.1,4-3.8,4.8-.5,0-1,.2-1.4.2h0c-1.5,0-2.2-.9-2.2-2.9v-10.3l-2.6.7h-.2Z"/>
          <path class="cls-101" d="M341.3,1632.5h0l6.2-59.1h0l4.4-1.2h0l6.4,55.7-3.3.9h0l-1.7-16.3-7.4,2-1.7,17.2-3,.8h0ZM347.7,1573.5l-6.2,58.7,2.5-.7,1.7-17.2,7.8-2.1h0l1.7,16.3,2.9-.8-6.3-55.3-4.1,1.1ZM346,1612.1h0l2-19.5c.3-2.9.5-5.9.7-8.8.2-2.9.4-5.9.7-8.8h0l.3-.2h0c0,4.8.7,9.4,1.2,13.8,0,1.1.2,2.1.4,3.2l1.9,18.4-7.3,1.9h.1ZM349.6,1575.3c-.3,2.8-.5,5.7-.7,8.5-.2,2.9-.4,5.9-.7,8.8l-2,19.2,6.8-1.8-1.9-18.2c0-1.1-.2-2.1-.4-3.2-.5-4.3-1-8.8-1.2-13.3h0,0Z"/>
          <path class="cls-101" d="M360,1627.4v-57.5h0l4.7-1.3h0l5.2,35.7c.6,4,1.4,10,2.5,16.8v-2.7c-.5-6.6-.7-12.4-.7-15.1v-36.5h0l3.2-.9v57.5l-4.8,1.3h0l-5.4-35.1c-.4-2.5-1-8.2-1.7-14.2l-.4-3.1c0,4.1.2,8.1.4,11.1,0,2.3.2,4.1.2,4.9v38.3l-3.3.9h.1ZM360.2,1570.1v57l2.9-.8v-38.1c0-.8,0-2.6-.2-4.9,0-3.1-.3-7.4-.4-11.6h0l.3-.2h0l.4,3.8c.7,6,1.3,11.7,1.7,14.2l5.3,34.9,4.4-1.2v-57l-2.9.8v36.4c0,2.7.3,8.4.6,15.1l.2,3.2h-.3c-1-7-1.9-13.1-2.5-17.2l-5.2-35.4-4.4,1.2v-.2h0Z"/>
        </g>
        <g>
          <path class="cls-65" d="M244.9,1599.8l6.5-1.7c4.5-1.2,6.9,0,6.9,4.3v45c0,4.3-2.4,6.7-6.9,7.9l-6.5,1.7v-57.2h0ZM251.1,1653c2.8-.7,4.1-2.1,4.1-4.6v-45.5c0-2.5-1.4-3.1-4.1-2.4l-3.1.8v52.5l3.1-.8Z"/>
          <path class="cls-53" d="M263.3,1594.9l10.5-2.8v2.4l-7.4,2v24.3l7-1.9v2.4l-7,1.9v25.8l8-2.1v2.4l-11,3v-57.4h0Z"/>
          <path class="cls-68" d="M277.5,1591.1l6.9-1.8c3.7-1,6.3,0,6.3,3.6v16.9c0,3.1-.8,5.5-4.7,6.9v.2c2.8-.5,4.7.4,4.7,3.9v24.1l-3.1.8v-24.1c0-2.1-1.1-3.8-4.2-3l-2.8.8v28.2l-3.1.8v-57.2h0ZM283.5,1616.1c2.6-.7,4.1-2.4,4.1-4.9v-16.9c0-2.5-1.3-3.2-3.8-2.6l-3.3.9v24.3l3-.8h0Z"/>
          <path class="cls-58" d="M295.9,1586.1l3.1-.8v57.2l-3.1.8v-57.2ZM299,1612.3l7.6-29,2.8-.7-7.6,29,8.3,28.1-3.1.8-8-28.1h0Z"/>
          <path class="cls-56" d="M321.7,1579.3l3.1-.8-6.4,36.3v22.6l-3.1.8v-22.6l-6.4-32.9,3.1-.8,4.7,29.7h.2l4.7-32.3h.1Z"/>
          <path class="cls-55" d="M328.9,1629c0,1.9.7,3.3,3.5,2.5,2.6-.7,3.8-2,3.8-4.7v-9.8c0-3-.5-4.6-1.6-6.9l-6.4-10.9c-1.3-2.2-2-5-2-7.2v-8.3c0-3.7,2.5-6.6,6.4-7.6,4.1-1.1,6.3,0,6.3,3.6v10.2l-2.8.7v-9.9c0-2.3-1.1-2.9-3.3-2.4-2.1.6-3.3,2.4-3.3,4.3v8.9c0,1.9.4,3.5,1.2,5.1l6.3,10.8c1.3,2.3,2.3,4.9,2.3,8v10.8c0,3.6-1.8,6.3-6.6,7.6-4.7,1.3-6.5-.5-6.5-4.4v-10.1l2.8-.7v10.4h-.1Z"/>
          <path class="cls-57" d="M352.1,1611.6l-7.6,2-1.7,17.2-2.8.7,6.2-58.9,4.3-1.1,6.4,55.5-3.1.8-1.8-16.3h0ZM351.8,1609.3l-1.9-18.3c-.6-5.5-1.4-11.1-1.5-16.9h-.2c-.6,5.9-.8,11.8-1.5,17.7l-2,19.3,7-1.9h0Z"/>
          <path class="cls-63" d="M358.8,1569.3l4.6-1.2,5.2,35.6c.6,4.4,1.5,10.6,2.5,17.2h.2c-.4-7.9-.8-15.1-.8-18.2v-36.5l3.1-.8v57.2l-4.6,1.2-5.4-35c-.5-3-1.3-10.5-2.1-17.8h-.2c.2,7.4.5,14.6.5,16.5v38.2l-3.1.8v-57.2h.1Z"/>
        </g>
        <line class="cls-16" x1="244.8" y1="1663.5" x2="375.3" y2="1628.5"/>
        <line class="cls-16" x1="244.5" y1="1594.3" x2="373.6" y2="1559.7"/>
      </g>
      <path class="cls-101" d="M-183.6,1737.5c-4.2,0-7.3-1.3-9.3-3.9-1.9-2.5-2.8-6.1-2.8-11v-31.4h.2l8.9-2.4v32.3c0,5.6,2,8.1,6.2,8.1h0c1.2,0,2.6-.2,4.2-.6,8-2.2,11.3-6.2,11.3-14v-30.2c0-9-1.5-13.8-4.9-21.2l-19.7-33.4c-3.8-6.4-6.2-15-6.2-22.4v-25.6c0-11.4,7.6-20.5,19.8-23.8,3.3-.9,6.1-1.3,8.5-1.3,7.5,0,11.2,4.2,11.2,12.8v31.7h-.2l-8.9,2.4v-30.8c0-6.6-3-8.8-9.7-7-6,1.6-9.9,6.7-9.9,12.9v27.3c0,5.7,1.1,10.5,3.7,15.7l19.3,33c3.5,6.3,7.1,14.2,7.1,24.8v33.1c0,12.3-6.7,20.1-20.5,23.7-3.2.8-6,1.3-8.3,1.3h0ZM-195.1,1691.6v30.9c0,4.8.9,8.3,2.6,10.6,1.9,2.5,4.8,3.7,8.8,3.7s5.1-.4,8.2-1.3c13.6-3.7,20-11,20-23.1v-33.1c0-10.4-3.5-18.2-7-24.5l-19.3-33.1c-2.6-5.3-3.8-10.2-3.8-15.9v-27.3c0-6.5,4.1-11.8,10.3-13.5,1.5-.4,2.9-.6,4.1-.6,4.3,0,6.4,2.7,6.4,8.2v30l7.8-2.1v-31.2c0-8.2-3.4-12.1-10.5-12.1s-5.2.4-8.4,1.3c-11.9,3.2-19.3,12.1-19.3,23.2v25.6c0,7.3,2.3,15.8,6.1,22.1l19.8,33.4c3.5,7.5,5,12.4,5,21.5v30.2c0,8-3.5,12.4-11.8,14.6-1.6.4-3.1.7-4.3.7h0c-4.6,0-6.9-2.9-6.9-8.8v-31.5l-7.8,2.1h0Z"/>
      <path class="cls-101" d="M-152.9,1729.2v-.5l19.1-181.2h.2l13.5-3.7v.4l19.6,170.9-10,2.7v-.4l-5.4-49.6-22.7,6.1-5.2,52.8-9.1,2.4h0ZM-133.2,1548.1l-19,180.3,7.8-2.1,5.2-52.8,23.8-6.4v.4l5.4,49.6,8.8-2.4-19.4-170-12.6,3.4ZM-138.3,1666.6v-.4l6.2-59.4c.9-9,1.6-18.2,2.2-27.1.6-8.9,1.3-18.1,2.2-27.2v-.2l1.1-.3v.4c.4,14.3,2,28.4,3.6,42.1.4,3.3.8,6.5,1.1,9.7l5.9,56.4-22.3,6ZM-127.2,1553.7c-.9,8.6-1.5,17.5-2.1,26-.6,8.9-1.3,18.1-2.2,27.2l-6.1,58.9,20.9-5.6-5.9-55.9c-.4-3.2-.7-6.5-1.1-9.7-1.5-13.3-3.1-27-3.6-40.9h0,0Z"/>
      <path class="cls-101" d="M-95.2,1713.8v-176.5h.2l14.5-3.9v.3l16,109.2c1.7,12.4,4.4,30.6,7.5,51.5l-.4-8.1c-1-20.4-1.9-38.1-1.9-46.3v-112.3h.2l9.8-2.7v176.5l-14.7,3.9v-.3l-16.5-107.6c-1.2-7.6-3.2-25.1-5.3-43.6l-1.1-9.5c.3,12.6.8,25,1.1,34.1.3,7,.5,12.5.5,15v117.6l-10,2.7h.1ZM-94.6,1537.8v175.2l8.8-2.4v-117.1c0-2.5-.2-8-.5-15-.4-9.5-.9-22.6-1.2-35.7v-.2l1.1-.3v.4l1.3,11.2c2.1,18.5,4.1,36,5.3,43.6l16.4,107.3,13.5-3.6v-175.2l-8.8,2.4v111.8c0,8.2.9,25.8,1.9,46.3l.5,9.9-1,.3v-.3c-3.3-21.5-6-40.3-7.8-53l-15.9-108.9-13.5,3.6v-.3h0Z"/>
      <path class="cls-62" d="M-191,1718.7c0,5.8,2.1,10.1,10.8,7.8,8-2.1,11.5-6.3,11.5-14.3v-30.2c0-9.3-1.7-14.2-4.9-21.3l-19.8-33.4c-4-6.7-6.1-15.4-6.1-22.2v-25.6c0-11.4,7.5-20.3,19.5-23.5,12.7-3.4,19.3-.3,19.3,11.1v31.4l-8.5,2.3v-30.4c0-7.1-3.5-9-10.1-7.3-6.6,1.8-10.1,7.3-10.1,13.2v27.3c0,5.8,1.2,10.6,3.8,15.8l19.3,33.1c4,7.2,7.1,14.9,7.1,24.7v33.1c0,11.2-5.4,19.5-20.2,23.4-14.6,3.9-20-1.5-20-13.4v-31.2l8.5-2.3v31.9h0Z"/>
      <path class="cls-64" d="M-119.7,1665.2l-23.3,6.2-5.2,52.8-8.5,2.3,19.1-180.9,13.2-3.5,19.5,170.6-9.4,2.5-5.4-49.9h0ZM-120.4,1658.1l-5.9-56.1c-1.9-17-4.2-34.2-4.7-51.8h-.5c-1.9,18.2-2.6,36.4-4.5,54.4l-6.1,59.4,21.6-5.8h.1Z"/>
      <path class="cls-69" d="M-99,1535.2l14.1-3.8,16,109.2c1.9,13.4,4.7,32.6,7.8,53h.5c-1.2-24.2-2.3-46.5-2.3-56v-112l9.4-2.5v175.8l-14.1,3.8-16.5-107.6c-1.4-9.1-4-32.3-6.6-54.7h-.5c.5,22.9,1.6,45,1.6,50.8v117.4l-9.4,2.5v-175.8h0Z"/>
      <g>
        <g class="cls-6">
          <g class="cls-6">
            <text class="cls-7" transform="translate(799.3 1815.1)"><tspan x="0" y="0">derkysan.dev@gmail.com</tspan></text>
          </g>
        </g>
        <rect class="cls-17" x="783.4" y="1782.2" width="275" height="53" rx="25" ry="25"/>
        <g>
          <circle class="cls-17" cx="1031.4" cy="1809" r="21"/>
          <rect class="cls-17" x="1010.4" y="1788" width="42" height="42"/>
        </g>
      </g>
      <g>
        <circle class="cls-17" cx="1974.4" cy="1809" r="21"/>
        <rect class="cls-17" x="1953.4" y="1788" width="42" height="42"/>
      </g>
      <g>
        <circle class="cls-17" cx="1914.4" cy="1809" r="21"/>
        <rect class="cls-17" x="1893.4" y="1788" width="42" height="42"/>
      </g>
      <rect class="cls-28" x="435.9" y="2516.5" width="1920" height="404"/>
      <line class="cls-15" x1="2355.9" y1="2920.5" x2="412.4" y2="2920.5"/>
      <polygon class="cls-70" points="435.9 1741.5 2359.9 1741.5 2359.9 1737.5 435.9 1737.5 435.9 1741.5 435.9 1741.5"/>
      <g class="cls-6">
        <g class="cls-6">
          <text class="cls-10" transform="translate(1092.9 2651.6)"><tspan x="0" y="0">Tienes algún proyecto en mente,</tspan></text>
        </g>
        <g class="cls-6">
          <text class="cls-10" transform="translate(1253.9 2699.6)"><tspan x="0" y="0">Conversemos!</tspan></text>
        </g>
      </g>
      <g>
        <circle class="cls-17" cx="1415.5" cy="2793.6" r="30.9"/>
        <rect class="cls-17" x="1384.6" y="2762.7" width="61.8" height="61.8"/>
      </g>
      <g>
        <circle class="cls-17" cx="1327.2" cy="2793.6" r="30.9"/>
        <rect class="cls-17" x="1296.3" y="2762.7" width="61.8" height="61.8"/>
      </g>
      <rect class="cls-32" x="766.9" y="1760.5" width="305" height="95"/>
      <g>
        <path class="cls-101" d="M795.6,1846.5c-1.6,0-2.7-.5-3.4-1.4-.7-.9-1-2.2-1-4v-11.5h0l3.2-.9v11.8c0,2,.7,3,2.3,3h0c.4,0,1,0,1.5-.2,2.9-.8,4.1-2.3,4.1-5.1v-11.1c0-3.3-.6-5.1-1.8-7.8l-7.2-12.2c-1.4-2.3-2.3-5.5-2.3-8.2v-9.4c0-4.2,2.8-7.5,7.2-8.7,1.2-.3,2.2-.5,3.1-.5,2.8,0,4.1,1.5,4.1,4.7v11.6h0l-3.2.9v-11.3c0-2.4-1.1-3.2-3.6-2.6-2.2.6-3.6,2.4-3.6,4.7v10c0,2.1.4,3.9,1.4,5.7l7.1,12.1c1.3,2.3,2.6,5.2,2.6,9.1v12.1c0,4.5-2.5,7.3-7.5,8.7-1.2.3-2.2.5-3.1.5h.1ZM791.5,1829.6v11.3c0,1.8.3,3,1,3.9s1.7,1.4,3.2,1.4,1.9-.2,3-.5c5-1.3,7.3-4,7.3-8.5v-12.1c0-3.8-1.3-6.7-2.6-9l-7.1-12.1c-1-1.9-1.4-3.7-1.4-5.8v-10c0-2.4,1.5-4.3,3.8-4.9.6,0,1.1-.2,1.5-.2,1.6,0,2.4,1,2.4,3v11l2.9-.8v-11.4c0-3-1.3-4.4-3.9-4.4s-1.9.2-3.1.5c-4.4,1.2-7.1,4.4-7.1,8.5v9.4c0,2.7.9,5.8,2.2,8.1l7.2,12.2c1.3,2.7,1.8,4.5,1.8,7.9v11.1c0,2.9-1.3,4.5-4.3,5.3-.6.2-1.1.2-1.6.2h0c-1.7,0-2.5-1.1-2.5-3.2v-11.5l-2.9.8.2-.2h0Z"/>
        <path class="cls-101" d="M806.9,1843.4v-.2l7-66.4h0l5-1.3h0l7.2,62.7-3.7,1h0l-2-18.3-8.3,2.2-1.9,19.3-3.3.9h0ZM814.1,1777.1l-7,66,2.9-.8,1.9-19.3,8.7-2.3h0l2,18.3,3.2-.9-7.1-62.3-4.6,1.2h0ZM812.2,1820.5v-.2l2.3-21.7c.3-3.3.6-6.7.8-9.9.2-3.3.5-6.6.8-9.9h0l.4-.2h0c0,5.4.7,10.6,1.3,15.6,0,1.2.3,2.4.4,3.6l2.2,20.7-8.2,2.2v-.2h0ZM816.3,1779.1c-.3,3.2-.6,6.4-.8,9.5-.2,3.3-.5,6.6-.8,9.9l-2.2,21.6,7.7-2.1-2.1-20.5c0-1.2-.3-2.4-.4-3.6-.6-4.9-1.1-9.9-1.3-15v.2h0Z"/>
        <path class="cls-101" d="M828,1837.8v-64.7h0l5.3-1.4h0l5.9,40.1c.6,4.5,1.6,11.2,2.8,18.9v-3c-.5-7.5-.8-13.9-.8-17v-41.1h0l3.6-1v64.7l-5.4,1.4h0l-6-39.6c-.4-2.8-1.2-9.2-1.9-16l-.4-3.5c0,4.6.3,9.2.4,12.5,0,2.6.2,4.6.2,5.5v43.1l-3.7,1h0ZM828.3,1773.3v64.2l3.2-.9v-42.9c0-.9,0-2.9-.2-5.5,0-3.5-.3-8.3-.4-13.1h0l.4-.2h0l.5,4.2c.8,6.8,1.5,13.2,1.9,16l6,39.3,5-1.3v-64.2l-3.2.9v41c0,3,.3,9.5.7,16.9l.2,3.6h-.4c-1.2-7.9-2.2-14.8-2.8-19.4l-5.8-39.9-5,1.3h0,0Z"/>
        <path class="cls-34" d="M793,1839.6c0,2.1.8,3.7,4,2.9,2.9-.8,4.2-2.3,4.2-5.2v-11.1c0-3.4-.6-5.2-1.8-7.8l-7.2-12.2c-1.5-2.5-2.2-5.6-2.2-8.1v-9.4c0-4.2,2.8-7.4,7.2-8.6,4.7-1.2,7.1,0,7.1,4.1v11.5l-3.1.8v-11.2c0-2.6-1.3-3.3-3.7-2.7-2.4.6-3.7,2.7-3.7,4.8v10c0,2.1.4,3.9,1.4,5.8l7.1,12.1c1.5,2.6,2.6,5.5,2.6,9v12.1c0,4.1-2,7.1-7.4,8.6-5.3,1.4-7.3-.5-7.3-4.9v-11.4l3.1-.8v11.7h-.3,0Z"/>
        <path class="cls-35" d="M819.1,1820l-8.5,2.3-1.9,19.3-3.1.8,7-66.3,4.8-1.3,7.2,62.5-3.4.9-2-18.3h0ZM818.8,1817.4l-2.2-20.6c-.7-6.2-1.5-12.5-1.7-19h-.2c-.7,6.7-.9,13.3-1.6,19.9l-2.2,21.7,7.9-2.1h0Z"/>
        <path class="cls-36" d="M826.7,1772.4l5.2-1.4,5.9,40c.7,4.9,1.7,11.9,2.8,19.4h.2c-.4-8.9-.9-17-.9-20.5v-41.1l3.4-.9v64.4l-5.2,1.4-6-39.4c-.5-3.3-1.5-11.8-2.4-20.1h-.2c.2,8.4.6,16.5.6,18.6v43l-3.4.9v-64.3Z"/>
      </g>
      <g>
        <path class="cls-101" d="M782.6,1485.5c-1.6,0-2.7-.5-3.4-1.4-.7-.9-1-2.2-1-4v-11.5h0l3.2-.9v11.8c0,2,.7,3,2.3,3h0c.4,0,1,0,1.5-.2,2.9-.8,4.1-2.3,4.1-5.1v-11.1c0-3.3-.6-5.1-1.8-7.8l-7.2-12.2c-1.4-2.3-2.3-5.5-2.3-8.2v-9.4c0-4.2,2.8-7.5,7.2-8.7,1.2-.3,2.2-.5,3.1-.5,2.8,0,4.1,1.5,4.1,4.7v11.6h0l-3.2.9v-11.3c0-2.4-1.1-3.2-3.6-2.6-2.2.6-3.6,2.4-3.6,4.7v10c0,2.1.4,3.9,1.4,5.7l7.1,12.1c1.3,2.3,2.6,5.2,2.6,9.1v12.1c0,4.5-2.5,7.3-7.5,8.7-1.2.3-2.2.5-3.1.5h.1ZM778.5,1468.6v11.3c0,1.8.3,3,1,3.9s1.7,1.4,3.2,1.4,1.9-.2,3-.5c5-1.3,7.3-4,7.3-8.5v-12.1c0-3.8-1.3-6.7-2.6-9l-7.1-12.1c-1-1.9-1.4-3.7-1.4-5.8v-10c0-2.4,1.5-4.3,3.8-4.9.6,0,1.1-.2,1.5-.2,1.6,0,2.4,1,2.4,3v11l2.9-.8v-11.4c0-3-1.3-4.4-3.9-4.4s-1.9.2-3.1.5c-4.4,1.2-7.1,4.4-7.1,8.5v9.4c0,2.7.9,5.8,2.2,8.1l7.2,12.2c1.3,2.7,1.8,4.5,1.8,7.9v11.1c0,2.9-1.3,4.5-4.3,5.3-.6.2-1.1.2-1.6.2h0c-1.7,0-2.5-1.1-2.5-3.2v-11.5l-2.9.8.2-.2h0Z"/>
        <path class="cls-101" d="M793.9,1482.4v-.2l7-66.4h0l5-1.3h0c0,0,7.2,62.7,7.2,62.7l-3.7,1h0c0,0-2-18.3-2-18.3l-8.3,2.2-1.9,19.3-3.3.9h0ZM801.1,1416.1l-7,66,2.9-.8,1.9-19.3,8.7-2.3h0c0,0,2,18.3,2,18.3l3.2-.9-7.1-62.3-4.6,1.2h0ZM799.2,1459.5v-.2l2.3-21.7c.3-3.3.6-6.7.8-9.9.2-3.3.5-6.6.8-9.9h0l.4-.2h0c0,5.4.7,10.6,1.3,15.6,0,1.2.3,2.4.4,3.6l2.2,20.7-8.2,2.2v-.2h0ZM803.3,1418.1c-.3,3.2-.6,6.4-.8,9.5-.2,3.3-.5,6.6-.8,9.9l-2.2,21.6,7.7-2.1-2.1-20.5c0-1.2-.3-2.4-.4-3.6-.6-4.9-1.1-9.9-1.3-15v.2h0Z"/>
        <path class="cls-101" d="M815,1476.8v-64.7h0l5.3-1.4h0c0,0,5.9,40.1,5.9,40.1.6,4.5,1.6,11.2,2.8,18.9v-3c-.5-7.5-.8-13.9-.8-17v-41.1h0l3.6-1v64.7l-5.4,1.4h0c0,0-6-39.6-6-39.6-.4-2.8-1.2-9.2-1.9-16l-.4-3.5c0,4.6.3,9.2.4,12.5,0,2.6.2,4.6.2,5.5v43.1l-3.7,1h0ZM815.3,1412.3v64.2l3.2-.9v-42.9c0-.9,0-2.9-.2-5.5,0-3.5-.3-8.3-.4-13.1h0l.4-.2h0c0,0,.5,4.2.5,4.2.8,6.8,1.5,13.2,1.9,16l6,39.3,5-1.3v-64.2l-3.2.9v41c0,3,.3,9.5.7,16.9l.2,3.6h-.4c0,0,0,0,0,0-1.2-7.9-2.2-14.8-2.8-19.4l-5.8-39.9-5,1.3h0,0Z"/>
        <path class="cls-33" d="M780,1478.6c0,2.1.8,3.7,4,2.9,2.9-.8,4.2-2.3,4.2-5.2v-11.1c0-3.4-.6-5.2-1.8-7.8l-7.2-12.2c-1.5-2.5-2.2-5.6-2.2-8.1v-9.4c0-4.2,2.8-7.4,7.2-8.6,4.7-1.2,7.1,0,7.1,4.1v11.5l-3.1.8v-11.2c0-2.6-1.3-3.3-3.7-2.7-2.4.6-3.7,2.7-3.7,4.8v10c0,2.1.4,3.9,1.4,5.8l7.1,12.1c1.5,2.6,2.6,5.5,2.6,9v12.1c0,4.1-2,7.1-7.4,8.6-5.3,1.4-7.3-.5-7.3-4.9v-11.4l3.1-.8v11.7h-.3,0Z"/>
        <path class="cls-41" d="M806.1,1459l-8.5,2.3-1.9,19.3-3.1.8,7-66.3,4.8-1.3,7.2,62.5-3.4.9-2-18.3h0ZM805.8,1456.4l-2.2-20.6c-.7-6.2-1.5-12.5-1.7-19h-.2c-.7,6.7-.9,13.3-1.6,19.9l-2.2,21.7,7.9-2.1h0Z"/>
        <path class="cls-39" d="M813.7,1411.4l5.2-1.4,5.9,40c.7,4.9,1.7,11.9,2.8,19.4h.2c-.4-8.9-.9-17-.9-20.5v-41l3.4-.9v64.4l-5.2,1.4-6-39.4c-.5-3.3-1.5-11.8-2.4-20.1h-.2c.2,8.4.6,16.5.6,18.6v43l-3.4.9v-64.4Z"/>
      </g>
      <g class="cls-6">
        <g class="cls-6">
          <text class="cls-3" transform="translate(1239.2 2002.6)"><tspan x="0" y="0">DERKY SÁNCHEZ</tspan></text>
        </g>
      </g>
      <g class="cls-6">
        <g class="cls-6">
          <text class="cls-9" transform="translate(1322.6 2026.6)"><tspan x="0" y="0">DESARROLLADOR WEB</tspan></text>
        </g>
      </g>
      <g class="cls-6">
        <g class="cls-6">
          <text class="cls-10" transform="translate(1410.8 2122.9)"><tspan x="0" y="0">v</tspan></text>
        </g>
      </g>
      <g>
        <path class="cls-42" d="M1142.1,2399v-2.3h11.4v2.3h-4.4v13.4h-2.6v-13.4h-4.4Z"/>
        <path class="cls-40" d="M1155.6,2412.4v-15.6h9.9v2.2h-7.3v4.4h6v2.2h-6v4.6h7.3v2.2h-9.9Z"/>
        <path class="cls-38" d="M1173.3,2412.6c-2.3,0-3.8-.6-4.6-1.9-.8-1.3-1.2-3.3-1.2-6.2s.4-4.9,1.2-6.2,2.4-1.8,4.6-1.8,2.8.2,4.5.6v2.1c-1.5-.2-2.8-.4-4.2-.4s-2.3.4-2.8,1.2-.7,2.3-.7,4.6.2,3.8.7,4.6,1.4,1.2,2.8,1.2,2.8,0,4.1-.3v2.1c-1.5.3-3,.5-4.4.5h0Z"/>
        <path class="cls-37" d="M1189.8,2412.4v-6.7h-6.7v6.7h-2.5v-15.6h2.5v6.7h6.7v-6.7h2.6v15.6h-2.6Z"/>
        <path class="cls-77" d="M1205.5,2398.7c-1.9,0-2.9.7-2.9,2s.2,1.2.7,1.5,1.5.7,3,1.1c1.6.4,2.7.9,3.3,1.5s1,1.5,1,2.8-.5,2.9-1.4,3.7-2.2,1.2-3.8,1.2-2.7-.2-4.3-.5l-.8-.2.3-2c2.1.3,3.6.4,4.7.4,1.9,0,2.8-.8,2.8-2.5s-.2-1.1-.6-1.4c-.4-.3-1.4-.7-2.9-1-1.5-.4-2.6-.9-3.3-1.5-.7-.7-1.1-1.7-1.1-3.1s.5-2.5,1.4-3.2,2.2-1.1,3.8-1.1,2.6,0,4.1.4h.8l-.2,2.2c-2.1-.2-3.6-.4-4.5-.4h0Z"/>
        <path class="cls-78" d="M1211.8,2399v-2.3h11.4v2.3h-4.4v13.4h-2.6v-13.4h-4.4Z"/>
        <path class="cls-79" d="M1223,2412.4l3.9-15.6h5l3.9,15.6h-2.6l-.8-3.4h-6l-.8,3.4h-2.6ZM1228.8,2398.9l-1.9,7.9h5l-1.9-7.9h-1.2Z"/>
        <path class="cls-74" d="M1243,2412.6c-2.3,0-3.8-.6-4.6-1.9-.8-1.3-1.2-3.3-1.2-6.2s.4-4.9,1.2-6.2,2.4-1.8,4.6-1.8,2.8.2,4.5.6v2.1c-1.5-.2-2.8-.4-4.2-.4s-2.3.4-2.8,1.2-.7,2.3-.7,4.6.2,3.8.7,4.6,1.4,1.2,2.8,1.2,2.8,0,4.1-.3v2.1c-1.5.3-3,.5-4.4.5h0Z"/>
        <path class="cls-75" d="M1252.7,2412.4h-2.5v-15.6h2.5v7l2.3-.2,3.2-6.9h2.9l-3.9,7.8,4,7.8h-2.9l-3.3-6.5-2.3.2v6.4h0Z"/>
      </g>
      <g>
        <circle class="cls-19" cx="1341.4" cy="2403.4" r="21.3"/>
        <rect class="cls-19" x="1320.1" y="2382" width="42.7" height="42.7"/>
      </g>
      <g>
        <circle class="cls-19" cx="1406.7" cy="2403.4" r="21.3"/>
        <rect class="cls-19" x="1385.4" y="2382" width="42.7" height="42.7"/>
      </g>
      <g>
        <circle class="cls-18" cx="1471.5" cy="2402.7" r="21.3"/>
        <rect class="cls-19" x="1450.7" y="2382" width="42.7" height="42.7"/>
      </g>
      <g>
        <circle class="cls-19" cx="1537.3" cy="2403.4" r="21.3"/>
        <rect class="cls-19" x="1516" y="2382" width="42.7" height="42.7"/>
      </g>
      <g>
        <circle class="cls-19" cx="1602.6" cy="2403.4" r="21.3"/>
        <rect class="cls-19" x="1581.3" y="2382" width="42.7" height="42.7"/>
      </g>
      <g>
        <circle class="cls-19" cx="1667.9" cy="2403.4" r="21.3"/>
        <rect class="cls-19" x="1646.6" y="2382" width="42.7" height="42.7"/>
      </g>
      <line class="cls-14" x1="1289.9" y1="2375.7" x2="1289.9" y2="2433.5"/>
      <g>
        <circle class="cls-17" cx="878.4" cy="2992" r="21"/>
        <rect class="cls-17" x="857.4" y="2971" width="42" height="42"/>
      </g>
      <g>
        <circle class="cls-17" cx="818.4" cy="2992" r="21"/>
        <rect class="cls-17" x="797.4" y="2971" width="42" height="42"/>
      </g>
      <rect class="cls-102" x="-410" y="347.7" width="374.6" height="374.6"/>
      <g>
        <path class="cls-101" d="M-264.6,610.9c-3,0-5.2-.9-6.6-2.8-1.3-1.8-2-4.3-2-7.8v-22.2h.1l6.3-1.7v22.9c0,4,1.4,5.7,4.4,5.7h0c.9,0,1.8-.1,3-.4,5.7-1.6,8-4.4,8-9.9v-21.4c0-6.4-1.1-9.8-3.5-15l-14-23.7c-2.7-4.5-4.4-10.6-4.4-15.9v-18.1c0-8.1,5.4-14.5,14-16.9,2.3-.6,4.3-.9,6-.9,5.3,0,7.9,3,7.9,9.1v22.5h-.1l-6.3,1.7v-21.8c0-4.7-2.1-6.2-6.9-5-4.3,1.1-7,4.7-7,9.1v19.3c0,4,.8,7.4,2.6,11.1l13.7,23.4c2.5,4.5,5,10.1,5,17.6v23.5c0,8.7-4.7,14.2-14.5,16.8-2.3.6-4.3.9-5.9.9h.2ZM-272.8,578.4v21.9c0,3.4.6,5.9,1.8,7.5,1.3,1.8,3.4,2.6,6.2,2.6s3.6-.3,5.8-.9c9.6-2.6,14.2-7.8,14.2-16.4v-23.5c0-7.4-2.5-12.9-5-17.4l-13.7-23.5c-1.8-3.8-2.7-7.2-2.7-11.3v-19.3c0-4.6,2.9-8.4,7.3-9.6,1.1-.3,2.1-.4,2.9-.4,3,0,4.5,1.9,4.5,5.8v21.3l5.5-1.5v-22.1c0-5.8-2.4-8.6-7.4-8.6s-3.7.3-6,.9c-8.4,2.3-13.7,8.6-13.7,16.4v18.1c0,5.2,1.6,11.2,4.3,15.7l14,23.7c2.5,5.3,3.5,8.8,3.5,15.2v21.4c0,5.7-2.5,8.8-8.4,10.3-1.1.3-2.2.5-3,.5h0c-3.3,0-4.9-2.1-4.9-6.2v-22.3l-5.5,1.5h0l.3.2Z"/>
        <path class="cls-101" d="M-242.9,605.1v-.4l13.5-128.4h.1l9.6-2.6v.3l13.9,121.1-7.1,1.9v-.3l-3.8-35.1-16.1,4.3-3.7,37.4-6.4,1.7h0ZM-228.9,476.7l-13.5,127.8,5.5-1.5,3.7-37.4,16.9-4.5v.3l3.8,35.1,6.2-1.7-13.7-120.5-8.9,2.4h0ZM-232.5,560.7v-.3l4.4-42.1c.6-6.4,1.1-12.9,1.6-19.2.4-6.3.9-12.8,1.6-19.3h0c0-.1.8-.4.8-.4v.3c.3,10.1,1.4,20.1,2.6,29.8.3,2.3.6,4.6.8,6.9l4.2,40-15.8,4.3h-.2ZM-224.7,480.7c-.6,6.1-1.1,12.4-1.5,18.4-.4,6.3-.9,12.8-1.6,19.3l-4.3,41.7,14.8-4-4.2-39.6c-.3-2.3-.5-4.6-.8-6.9-1.1-9.4-2.2-19.1-2.6-29h.2Z"/>
        <path class="cls-101" d="M-202,594.2v-125.1h.1l10.3-2.8v.2l11.3,77.4c1.2,8.8,3.1,21.7,5.3,36.5l-.3-5.7c-.7-14.5-1.3-27-1.3-32.8v-79.6h.1l6.9-1.9v125.1l-10.4,2.8v-.2l-11.7-76.2c-.9-5.4-2.3-17.8-3.8-30.9l-.8-6.7c.2,8.9.6,17.7.8,24.2.2,5,.4,8.9.4,10.6v83.3l-7.1,1.9h.2ZM-201.6,469.4v124.1l6.2-1.7v-83c0-1.8-.1-5.7-.4-10.6-.3-6.7-.6-16-.9-25.3h0c0,0,.8-.4.8-.4v.3l.9,7.9c1.5,13.1,2.9,25.5,3.8,30.9l11.6,76,9.6-2.6v-124.1l-6.2,1.7v79.2c0,5.8.6,18.3,1.3,32.8l.4,7-.7.2v-.2c-2.3-15.2-4.3-28.6-5.5-37.6l-11.3-77.2-9.6,2.6v-.2.2Z"/>
        <path class="cls-76" d="M-269.9,597.6c0,4.1,1.5,7.2,7.7,5.5,5.7-1.5,8.1-4.5,8.1-10.1v-21.4c0-6.6-1.2-10.1-3.5-15.1l-14-23.7c-2.8-4.7-4.3-10.9-4.3-15.7v-18.1c0-8.1,5.3-14.4,13.8-16.7,9-2.4,13.7-.2,13.7,7.9v22.2l-6,1.6v-21.5c0-5-2.5-6.4-7.2-5.2-4.7,1.3-7.2,5.2-7.2,9.4v19.3c0,4.1.9,7.5,2.7,11.2l13.7,23.5c2.8,5.1,5,10.6,5,17.5v23.5c0,7.9-3.8,13.8-14.3,16.6-10.3,2.8-14.2-1.1-14.2-9.5v-22.1l6-1.6v22.6h0Z"/>
        <path class="cls-100" d="M-219.4,559.7l-16.5,4.4-3.7,37.4-6,1.6,13.5-128.2,9.4-2.5,13.8,120.9-6.7,1.8-3.8-35.4h0ZM-219.8,554.7l-4.2-39.8c-1.3-12-3-24.2-3.3-36.7h-.4c-1.3,12.9-1.8,25.8-3.2,38.5l-4.3,42.1,15.3-4.1h0Z"/>
        <path class="cls-71" d="M-204.7,467.6l10-2.7,11.3,77.4c1.3,9.5,3.3,23.1,5.5,37.6h.4c-.9-17.1-1.6-32.9-1.6-39.7v-79.4l6.7-1.8v124.6l-10,2.7-11.7-76.2c-1-6.4-2.8-22.9-4.7-38.8h-.4c.4,16.2,1.1,31.9,1.1,36v83.2l-6.7,1.8v-124.6h0Z"/>
      </g>
      <rect class="cls-102" x="360.5" y="735.1" width="374.6" height="374.6"/>
      <g>
        <path class="cls-101" d="M505.9,998.3c-3,0-5.2-.9-6.6-2.8-1.3-1.8-2-4.3-2-7.8v-22.2h.1l6.3-1.7v22.9c0,4,1.4,5.7,4.4,5.7h0c.9,0,1.8-.1,3-.4,5.7-1.6,8-4.4,8-9.9v-21.4c0-6.4-1.1-9.8-3.5-15l-14-23.7c-2.7-4.5-4.4-10.6-4.4-15.9v-18.1c0-8.1,5.4-14.5,14-16.9,2.3-.6,4.3-.9,6-.9,5.3,0,7.9,3,7.9,9.1v22.5h-.1l-6.3,1.7v-21.8c0-4.7-2.1-6.2-6.9-5-4.3,1.1-7,4.7-7,9.1v19.3c0,4,.8,7.4,2.6,11.1l13.7,23.4c2.5,4.5,5,10.1,5,17.6v23.5c0,8.7-4.7,14.2-14.5,16.8-2.3.6-4.3.9-5.9.9h.2ZM497.7,965.8v21.9c0,3.4.6,5.9,1.8,7.5,1.3,1.8,3.4,2.6,6.2,2.6s3.6-.3,5.8-.9c9.6-2.6,14.2-7.8,14.2-16.4v-23.5c0-7.4-2.5-12.9-5-17.4l-13.7-23.5c-1.8-3.8-2.7-7.2-2.7-11.3v-19.3c0-4.6,2.9-8.4,7.3-9.6,1.1-.3,2.1-.4,2.9-.4,3,0,4.5,1.9,4.5,5.8v21.3l5.5-1.5v-22.1c0-5.8-2.4-8.6-7.4-8.6s-3.7.3-6,.9c-8.4,2.3-13.7,8.6-13.7,16.4v18.1c0,5.2,1.6,11.2,4.3,15.7l14,23.7c2.5,5.3,3.5,8.8,3.5,15.2v21.4c0,5.7-2.5,8.8-8.4,10.3-1.1.3-2.2.5-3,.5h0c-3.3,0-4.9-2.1-4.9-6.2v-22.3l-5.5,1.5h0l.3.2Z"/>
        <path class="cls-101" d="M527.6,992.5v-.4l13.5-128.4h.1l9.6-2.6v.3l13.9,121.1-7.1,1.9v-.3l-3.8-35.1-16.1,4.3-3.7,37.4-6.4,1.7h0ZM541.6,864.1l-13.5,127.8,5.5-1.5,3.7-37.4,16.9-4.5v.3l3.8,35.1,6.2-1.7-13.7-120.5-8.9,2.4h0ZM538,948.1v-.3l4.4-42.1c.6-6.4,1.1-12.9,1.6-19.2.4-6.3.9-12.8,1.6-19.3h0c0-.1.8-.4.8-.4v.3c.3,10.1,1.4,20.1,2.6,29.8.3,2.3.6,4.6.8,6.9l4.2,40-15.8,4.3h-.2ZM545.8,868.1c-.6,6.1-1.1,12.4-1.5,18.4-.4,6.3-.9,12.8-1.6,19.3l-4.3,41.7,14.8-4-4.2-39.6c-.3-2.3-.5-4.6-.8-6.9-1.1-9.4-2.2-19.1-2.6-29h.2Z"/>
        <path class="cls-101" d="M568.5,981.6v-125.1h.1l10.3-2.8v.2l11.3,77.4c1.2,8.8,3.1,21.7,5.3,36.5l-.3-5.7c-.7-14.5-1.3-27-1.3-32.8v-79.6h.1l6.9-1.9v125.1l-10.4,2.8v-.2l-11.7-76.2c-.9-5.4-2.3-17.8-3.8-30.9l-.8-6.7c.2,8.9.6,17.7.8,24.2.2,5,.4,8.9.4,10.6v83.3l-7.1,1.9h.2ZM568.9,856.8v124.1l6.2-1.7v-83c0-1.8-.1-5.7-.4-10.6-.3-6.7-.6-16-.9-25.3h0c0,0,.8-.4.8-.4v.3l.9,7.9c1.5,13.1,2.9,25.5,3.8,30.9l11.6,76,9.6-2.6v-124.1l-6.2,1.7v79.2c0,5.8.6,18.3,1.3,32.8l.4,7-.7.2v-.2c-2.3-15.2-4.3-28.6-5.5-37.6l-11.3-77.2-9.6,2.6v-.2.2Z"/>
        <path class="cls-72" d="M514.4,869.8c4.6,0,6.7,2.4,6.7,7.8v21.4l-4,1.1v-20.2c0-5.5-2.9-6.6-5.4-6.6-.9,0-1.9.1-3.1.4-4.8,1.3-7.9,5.4-7.9,10.4v19.3c0,4.1.9,7.7,2.8,11.6h0s0,0,0,0l13.7,23.5c2.4,4.4,4.9,9.8,4.9,17v23.5c0,8.2-4.3,13.2-13.6,15.6-2.1.6-4,.9-5.6.9-5.1,0-7.4-2.9-7.4-9.4v-21.3l4-1.1v21.2h0c0,0,0,0,0,0,0,5.7,3.1,6.9,5.6,6.9s2.1-.2,3.3-.5c6.1-1.6,8.8-5,8.8-11.1v-21.4c0-6.6-1.2-10.2-3.6-15.5h0s0,0,0,0l-14-23.7c-2.5-4.2-4.2-10.2-4.2-15.2v-18.1c0-7.6,4.9-13.5,13.1-15.7,2.2-.6,4.1-.9,5.7-.9M514.4,868.8c-1.7,0-3.7.3-6,.9-8.5,2.3-13.8,8.6-13.8,16.7v18.1c0,4.8,1.5,11,4.3,15.7l14,23.7c2.3,5,3.5,8.5,3.5,15.1v21.4c0,5.6-2.4,8.6-8.1,10.1-1.2.3-2.2.5-3.1.5-3.7,0-4.6-2.7-4.6-6h0c0,0,0,0,0,0v-22.5l-6,1.6v22.1c0,6.6,2.4,10.4,8.4,10.4s3.6-.3,5.8-.9c10.5-2.8,14.3-8.7,14.3-16.6v-23.5c0-6.9-2.2-12.4-5-17.5l-13.7-23.5c-1.8-3.7-2.7-7.1-2.7-11.2v-19.3c0-4.2,2.5-8.1,7.2-9.4,1-.3,2-.4,2.8-.4,2.9,0,4.4,1.7,4.4,5.6v21.5l6-1.6v-22.2c0-6.1-2.6-8.8-7.7-8.8h0Z"/>
        <path class="cls-2" d="M546.9,861l13.6,118.9-4.7,1.3-3.7-34.2v-1.2c-.1,0-1.3.3-1.3.3l-16.5,4.4-.7.2v.7c0,0-3.7,36.7-3.7,36.7l-3.9,1,13.3-126.1,7.6-2M534.2,947.5l1.4-.4,15.2-4.1h1.1v-1.1c-.1,0-4.3-39.8-4.3-39.8-.3-2.5-.6-5-.8-7.5-1.1-9.5-2.2-19.2-2.4-29.1v-1h-2.3v.9c-.7,6-1.1,12.2-1.6,18.1-.5,6.7-1,13.7-1.7,20.4l-4.3,42.1v1.4M547.8,859.8l-9.4,2.5-13.5,128.2,6-1.6,3.7-37.4,16.5-4.4,3.8,35.4,6.7-1.8-13.8-120.9h0ZM535.3,946.2l4.3-42.1c1.4-12.7,1.9-25.6,3.2-38.5h.4c.3,12.5,2,24.7,3.3,36.7l4.2,39.8h0l-15.3,4.1h0Z"/>
        <path class="cls-73" d="M597.1,847.7v122.5l-8.2,2.2-11.5-75.1c-.7-4.4-1.7-13.5-3-24-.6-4.8-1.1-9.8-1.7-14.8v-.9h-2.4v1c.2,8.4.5,16.6.7,23.2.2,6,.4,10.8.4,12.8v82.4l-4.7,1.3v-122.6l8.3-2.2,11.1,76.3c1.2,9,3.1,22,5.5,37.6v.9h2.4v-1.1c-1.1-19.6-1.7-33.7-1.7-39.6v-78.6l4.7-1.3M598.1,846.4l-6.7,1.8v79.4c0,6.8.7,22.6,1.6,39.7h-.4c-2.2-14.5-4.2-28.1-5.5-37.6l-11.3-77.4-10,2.7h-.1v124.7l6.7-1.8v-83.2c0-4.1-.7-19.8-1.1-36h.4c1.9,15.9,3.7,32.4,4.7,38.8l11.7,76.2,10-2.7v-124.6h0Z"/>
      </g>
      <rect x="-26.2" y="347.7" width="374.6" height="374.6"/>
      <g>
        <path class="cls-87" d="M105,609.1c-3,0-5.2-.9-6.6-2.8-1.3-1.8-2-4.3-2-7.8v-22.2h.1l6.3-1.7v22.9c0,4,1.4,5.7,4.4,5.7h0c.9,0,1.8-.1,3-.4,5.7-1.6,8-4.4,8-9.9v-21.4c0-6.4-1.1-9.8-3.5-15l-14-23.7c-2.7-4.5-4.4-10.6-4.4-15.9v-18.1c0-8.1,5.4-14.5,14-16.9,2.3-.6,4.3-.9,6-.9,5.3,0,7.9,3,7.9,9.1v22.5h-.1l-6.3,1.7v-21.8c0-4.7-2.1-6.2-6.9-5-4.3,1.1-7,4.7-7,9.1v19.3c0,4,.8,7.4,2.6,11.1l13.7,23.4c2.5,4.5,5,10.1,5,17.6v23.5c0,8.7-4.7,14.2-14.5,16.8-2.3.6-4.3.9-5.9.9h.2ZM96.8,576.6v21.9c0,3.4.6,5.9,1.8,7.5,1.3,1.8,3.4,2.6,6.2,2.6s3.6-.3,5.8-.9c9.6-2.6,14.2-7.8,14.2-16.4v-23.5c0-7.4-2.5-12.9-5-17.4l-13.7-23.5c-1.8-3.8-2.7-7.2-2.7-11.3v-19.3c0-4.6,2.9-8.4,7.3-9.6,1.1-.3,2.1-.4,2.9-.4,3,0,4.5,1.9,4.5,5.8v21.3l5.5-1.5v-22.1c0-5.8-2.4-8.6-7.4-8.6s-3.7.3-6,.9c-8.4,2.3-13.7,8.6-13.7,16.4v18.1c0,5.2,1.6,11.2,4.3,15.7l14,23.7c2.5,5.3,3.5,8.8,3.5,15.2v21.4c0,5.7-2.5,8.8-8.4,10.3-1.1.3-2.2.5-3,.5h0c-3.3,0-4.9-2.1-4.9-6.2v-22.3l-5.5,1.5h0l.3.2Z"/>
        <path class="cls-88" d="M126.7,603.3v-.4l13.5-128.4h.1l9.6-2.6v.3l13.9,121.1-7.1,1.9v-.3l-3.8-35.1-16.1,4.3-3.7,37.4-6.4,1.7h0ZM140.7,474.9l-13.5,127.8,5.5-1.5,3.7-37.4,16.9-4.5v.3l3.8,35.1,6.2-1.7-13.7-120.5-8.9,2.4h0ZM137.1,558.9v-.3l4.4-42.1c.6-6.4,1.1-12.9,1.6-19.2.4-6.3.9-12.8,1.6-19.3h0c0-.1.8-.4.8-.4v.3c.3,10.1,1.4,20.1,2.6,29.8.3,2.3.6,4.6.8,6.9l4.2,40-15.8,4.3h-.2ZM144.9,478.9c-.6,6.1-1.1,12.4-1.5,18.4-.4,6.3-.9,12.8-1.6,19.3l-4.3,41.7,14.8-4-4.2-39.6c-.3-2.3-.5-4.6-.8-6.9-1.1-9.4-2.2-19.1-2.6-29h.2Z"/>
        <path class="cls-89" d="M167.6,592.4v-125.1h.1l10.3-2.8v.2l11.3,77.4c1.2,8.8,3.1,21.7,5.3,36.5l-.3-5.7c-.7-14.5-1.3-27-1.3-32.8v-79.6h.1l6.9-1.9v125.1l-10.4,2.8v-.2l-11.7-76.2c-.9-5.4-2.3-17.8-3.8-30.9l-.8-6.7c.2,8.9.6,17.7.8,24.2.2,5,.4,8.9.4,10.6v83.3l-7.1,1.9h.2ZM168,467.6v124.1l6.2-1.7v-83c0-1.8-.1-5.7-.4-10.6-.3-6.7-.6-16-.9-25.3h0c0,0,.8-.4.8-.4v.3l.9,7.9c1.5,13.1,2.9,25.5,3.8,30.9l11.6,76,9.6-2.6v-124.1l-6.2,1.7v79.2c0,5.8.6,18.3,1.3,32.8l.4,7-.7.2v-.2c-2.3-15.2-4.3-28.6-5.5-37.6l-11.3-77.2-9.6,2.6v-.2.2Z"/>
        <path class="cls-83" d="M99.7,595.8c0,4.1,1.5,7.2,7.7,5.5,5.7-1.5,8.1-4.5,8.1-10.1v-21.4c0-6.6-1.2-10.1-3.5-15.1l-14-23.7c-2.8-4.7-4.3-10.9-4.3-15.7v-18.1c0-8.1,5.3-14.4,13.8-16.7,9-2.4,13.7-.2,13.7,7.9v22.2l-6,1.6v-21.5c0-5-2.5-6.4-7.2-5.2-4.7,1.3-7.2,5.2-7.2,9.4v19.3c0,4.1.9,7.5,2.7,11.2l13.7,23.5c2.8,5.1,5,10.6,5,17.5v23.5c0,7.9-3.8,13.8-14.3,16.6-10.3,2.8-14.2-1.1-14.2-9.5v-22.1l6-1.6v22.6h0Z"/>
        <path class="cls-84" d="M150.2,557.9l-16.5,4.4-3.7,37.4-6,1.6,13.5-128.2,9.4-2.5,13.8,120.9-6.7,1.8-3.8-35.4h0ZM149.8,552.9l-4.2-39.8c-1.3-12-3-24.2-3.3-36.7h-.4c-1.3,12.9-1.8,25.8-3.2,38.5l-4.3,42.1,15.3-4.1h0Z"/>
        <path class="cls-85" d="M164.9,465.8l10-2.7,11.3,77.4c1.3,9.5,3.3,23.1,5.5,37.6h.4c-.9-17.1-1.6-32.9-1.6-39.7v-79.4l6.7-1.8v124.6l-10,2.7-11.7-76.2c-1-6.4-2.8-22.9-4.7-38.8h-.4c.4,16.2,1.1,31.9,1.1,36v83.2l-6.7,1.8v-124.6h0Z"/>
      </g>
      <rect x="-410.9" y="735.1" width="374.6" height="374.6"/>
      <g>
        <path class="cls-30" d="M-265.4,996.5c-3,0-5.2-.9-6.6-2.8-1.3-1.8-2-4.3-2-7.8v-22.2h.1l6.3-1.7v22.9c0,4,1.4,5.7,4.4,5.7h0c.9,0,1.8-.1,3-.4,5.7-1.6,8-4.4,8-9.9v-21.4c0-6.4-1.1-9.8-3.5-15l-14-23.7c-2.7-4.5-4.4-10.6-4.4-15.9v-18.1c0-8.1,5.4-14.5,14-16.9,2.3-.6,4.3-.9,6-.9,5.3,0,7.9,3,7.9,9.1v22.5h-.1l-6.3,1.7v-21.8c0-4.7-2.1-6.2-6.9-5-4.3,1.1-7,4.7-7,9.1v19.3c0,4,.8,7.4,2.6,11.1l13.7,23.4c2.5,4.5,5,10.1,5,17.6v23.5c0,8.7-4.7,14.2-14.5,16.8-2.3.6-4.3.9-5.9.9h.2ZM-273.6,964v21.9c0,3.4.6,5.9,1.8,7.5,1.3,1.8,3.4,2.6,6.2,2.6s3.6-.3,5.8-.9c9.6-2.6,14.2-7.8,14.2-16.4v-23.5c0-7.4-2.5-12.9-5-17.4l-13.7-23.5c-1.8-3.8-2.7-7.2-2.7-11.3v-19.3c0-4.6,2.9-8.4,7.3-9.6,1.1-.3,2.1-.4,2.9-.4,3,0,4.5,1.9,4.5,5.8v21.3l5.5-1.5v-22.1c0-5.8-2.4-8.6-7.4-8.6s-3.7.3-6,.9c-8.4,2.3-13.7,8.6-13.7,16.4v18.1c0,5.2,1.6,11.2,4.3,15.7l14,23.7c2.5,5.3,3.5,8.8,3.5,15.2v21.4c0,5.7-2.5,8.8-8.4,10.3-1.1.3-2.2.5-3,.5h0c-3.3,0-4.9-2.1-4.9-6.2v-22.3l-5.5,1.5h0l.3.2Z"/>
        <path class="cls-30" d="M-243.7,990.7v-.4l13.5-128.4h.1l9.6-2.6v.3l13.9,121.1-7.1,1.9v-.3l-3.8-35.1-16.1,4.3-3.7,37.4-6.4,1.7h0ZM-229.7,862.3l-13.5,127.8,5.5-1.5,3.7-37.4,16.9-4.5v.3l3.8,35.1,6.2-1.7-13.7-120.5-8.9,2.4h0ZM-233.3,946.3v-.3l4.4-42.1c.6-6.4,1.1-12.9,1.6-19.2.4-6.3.9-12.8,1.6-19.3h0c0-.1.8-.4.8-.4v.3c.3,10.1,1.4,20.1,2.6,29.8.3,2.3.6,4.6.8,6.9l4.2,40-15.8,4.3h-.2ZM-225.5,866.3c-.6,6.1-1.1,12.4-1.5,18.4-.4,6.3-.9,12.8-1.6,19.3l-4.3,41.7,14.8-4-4.2-39.6c-.3-2.3-.5-4.6-.8-6.9-1.1-9.4-2.2-19.1-2.6-29h.2Z"/>
        <path class="cls-30" d="M-202.8,979.8v-125.1h.1l10.3-2.8v.2l11.3,77.4c1.2,8.8,3.1,21.7,5.3,36.5l-.3-5.7c-.7-14.5-1.3-27-1.3-32.8v-79.6h.1l6.9-1.9v125.1l-10.4,2.8v-.2l-11.7-76.2c-.9-5.4-2.3-17.8-3.8-30.9l-.8-6.7c.2,8.9.6,17.7.8,24.2.2,5,.4,8.9.4,10.6v83.3l-7.1,1.9h.2ZM-202.4,855v124.1l6.2-1.7v-83c0-1.8-.1-5.7-.4-10.6-.3-6.7-.6-16-.9-25.3h0c0,0,.8-.4.8-.4v.3l.9,7.9c1.5,13.1,2.9,25.5,3.8,30.9l11.6,76,9.6-2.6v-124.1l-6.2,1.7v79.2c0,5.8.6,18.3,1.3,32.8l.4,7-.7.2v-.2c-2.3-15.2-4.3-28.6-5.5-37.6l-11.3-77.2-9.6,2.6v-.2.2Z"/>
        <path class="cls-86" d="M-270.7,983.2c0,4.1,1.5,7.2,7.7,5.5,5.7-1.5,8.1-4.5,8.1-10.1v-21.4c0-6.6-1.2-10.1-3.5-15.1l-14-23.7c-2.8-4.7-4.3-10.9-4.3-15.7v-18.1c0-8.1,5.3-14.4,13.8-16.7,9-2.4,13.7-.2,13.7,7.9v22.2l-6,1.6v-21.5c0-5-2.5-6.4-7.2-5.2-4.7,1.3-7.2,5.2-7.2,9.4v19.3c0,4.1.9,7.5,2.7,11.2l13.7,23.5c2.8,5.1,5,10.6,5,17.5v23.5c0,7.9-3.8,13.8-14.3,16.6-10.3,2.8-14.2-1.1-14.2-9.5v-22.1l6-1.6v22.6h0Z"/>
        <path class="cls-99" d="M-220.2,945.3l-16.5,4.4-3.7,37.4-6,1.6,13.5-128.2,9.4-2.5,13.8,120.9-6.7,1.8-3.8-35.4h0ZM-220.6,940.3l-4.2-39.8c-1.3-12-3-24.2-3.3-36.7h-.4c-1.3,12.9-1.8,25.8-3.2,38.5l-4.3,42.1,15.3-4.1h0Z"/>
        <path class="cls-80" d="M-205.5,853.2l10-2.7,11.3,77.4c1.3,9.5,3.3,23.1,5.5,37.6h.4c-.9-17.1-1.6-32.9-1.6-39.7v-79.4l6.7-1.8v124.6l-10,2.7-11.7-76.2c-1-6.4-2.8-22.9-4.7-38.8h-.4c.4,16.2,1.1,31.9,1.1,36v83.2l-6.7,1.8v-124.6h0Z"/>
      </g>
      <rect x="-26.6" y="735.1" width="374.6" height="374.6"/>
      <g>
        <path class="cls-30" d="M118.8,996.5c-3,0-5.2-.9-6.6-2.8-1.3-1.8-2-4.3-2-7.8v-22.2h.1l6.3-1.7v22.9c0,4,1.4,5.7,4.4,5.7h0c.9,0,1.8-.1,3-.4,5.7-1.6,8-4.4,8-9.9v-21.4c0-6.4-1.1-9.8-3.5-15l-14-23.7c-2.7-4.5-4.4-10.6-4.4-15.9v-18.1c0-8.1,5.4-14.5,14-16.9,2.3-.6,4.3-.9,6-.9,5.3,0,7.9,3,7.9,9.1v22.5h-.1l-6.3,1.7v-21.8c0-4.7-2.1-6.2-6.9-5-4.3,1.1-7,4.7-7,9.1v19.3c0,4,.8,7.4,2.6,11.1l13.7,23.4c2.5,4.5,5,10.1,5,17.6v23.5c0,8.7-4.7,14.2-14.5,16.8-2.3.6-4.3.9-5.9.9h.2ZM110.6,964v21.9c0,3.4.6,5.9,1.8,7.5,1.3,1.8,3.4,2.6,6.2,2.6s3.6-.3,5.8-.9c9.6-2.6,14.2-7.8,14.2-16.4v-23.5c0-7.4-2.5-12.9-5-17.4l-13.7-23.5c-1.8-3.8-2.7-7.2-2.7-11.3v-19.3c0-4.6,2.9-8.4,7.3-9.6,1.1-.3,2.1-.4,2.9-.4,3,0,4.5,1.9,4.5,5.8v21.3l5.5-1.5v-22.1c0-5.8-2.3-8.5-7.4-8.6s-3.7.3-6,.9c-8.4,2.3-13.7,8.6-13.7,16.4v18.1c0,5.2,1.6,11.2,4.3,15.7l14,23.7c2.5,5.3,3.5,8.8,3.5,15.2v21.4c0,5.7-2.5,8.8-8.4,10.3-1.1.3-2.2.5-3,.5h0c-3.3,0-4.9-2.1-4.9-6.2v-22.3l-5.5,1.5h0l.3.2Z"/>
        <path class="cls-30" d="M140.5,990.7v-.4l13.5-128.4h.1l9.6-2.6v.3l13.9,121.1-7.1,1.9v-.3l-3.8-35.1-16.1,4.3-3.7,37.4-6.4,1.7h0ZM154.5,862.3l-13.5,127.8,5.5-1.5,3.7-37.4,16.9-4.5v.3l3.8,35.1,6.2-1.7-13.7-120.5-8.9,2.4h0ZM150.9,946.3v-.3l4.4-42.1c.6-6.4,1.1-12.9,1.6-19.2.4-6.3.9-12.8,1.6-19.3h0c0-.1.8-.4.8-.4v.3c.3,10.1,1.4,20.1,2.6,29.8.3,2.3.6,4.6.8,6.9l4.2,40-15.8,4.3h-.2ZM158.7,866.3c-.6,6.1-1.1,12.4-1.5,18.4-.4,6.3-.9,12.8-1.6,19.3l-4.3,41.7,14.8-4-4.2-39.6c-.3-2.3-.5-4.6-.8-6.9-1.1-9.4-2.2-19.1-2.6-29h.2Z"/>
        <path class="cls-30" d="M181.4,979.8v-125.1h.1l10.3-2.8v.2l11.3,77.4c1.2,8.8,3.1,21.7,5.3,36.5l-.3-5.7c-.7-14.5-1.3-27-1.3-32.8v-79.6h.1l6.9-1.9v125.1l-10.4,2.8v-.2l-11.7-76.2c-.9-5.4-2.3-17.8-3.8-30.9l-.8-6.7c.2,8.9.6,17.7.8,24.2.2,5,.4,8.9.4,10.6v83.3l-7.1,1.9h.2ZM181.8,855v124.1l6.2-1.7v-83c0-1.8-.1-5.7-.4-10.6-.3-6.7-.6-16-.9-25.3h0c0,0,.8-.4.8-.4v.3l.9,7.9c1.5,13.1,2.9,25.5,3.8,30.9l11.6,76,9.6-2.6v-124.1l-6.2,1.7v79.2c0,5.8.6,18.3,1.3,32.8l.4,7-.7.2v-.2c-2.3-15.2-4.3-28.6-5.5-37.6l-11.3-77.2-9.6,2.6v-.2.2Z"/>
        <path class="cls-81" d="M127.3,869c3,0,5.7.8,5.7,6.8v20.7l-2,.5v-18.9c0-6.6-4-7.6-6.4-7.6-1,0-2.1.2-3.3.5-5.3,1.5-8.7,5.9-8.7,11.3v19.3c0,4.2.9,8,2.9,12.1h0c0,0,0,.1,0,.1l13.7,23.5c2.3,4.3,4.7,9.6,4.7,16.5v23.5c0,7.8-4,12.3-12.8,14.7-2,.5-3.8.8-5.3.8-3.2,0-6.4-1-6.4-8.4v-20.6l2-.5v19.9h0c0,0,0,0,0,0,0,6.8,4.2,7.9,6.6,7.9s2.3-.2,3.6-.5c6.5-1.7,9.6-5.5,9.6-12v-21.4c0-6.7-1.2-10.5-3.7-15.9h0c0,0,0-.2,0-.2l-14-23.7c-2.4-4.1-4-9.9-4-14.7v-18.1c0-7.2,4.6-12.7,12.3-14.8,2.1-.6,4-.8,5.5-.8M127.3,867c-1.7,0-3.7.3-6,.9-8.5,2.3-13.8,8.6-13.8,16.7v18.1c0,4.8,1.5,11,4.3,15.7l14,23.7c2.3,5,3.5,8.5,3.5,15.1v21.4c0,5.6-2.4,8.6-8.1,10.1-1.2.3-2.2.5-3.1.5-3.7,0-4.6-2.7-4.6-6h0c0,0,0,0,0,0v-22.5l-6,1.6v22.1c0,6.6,2.4,10.4,8.4,10.4s3.6-.3,5.8-.9c10.5-2.8,14.3-8.7,14.3-16.6v-23.5c0-6.9-2.2-12.4-5-17.5l-13.7-23.5c-1.8-3.7-2.7-7.1-2.7-11.2v-19.3c0-4.2,2.5-8.1,7.2-9.4,1-.3,2-.4,2.8-.4,2.9,0,4.4,1.7,4.4,5.6v21.5l6-1.6v-22.2c0-6.1-2.6-8.8-7.7-8.8h0Z"/>
        <path class="cls-1" d="M159,860.5l13.3,116.9-2.8.7-3.6-33.1-.2-2.3-2.3.6-16.5,4.4-1.3.4v1.4c-.1,0-3.7,36-3.7,36l-1.9.5,13.1-123.9.7-.2-.2,1.7c-.6,6-1,12.2-1.5,18.1-.5,6.7-1,13.6-1.7,20.4l-4.3,42.1-.3,2.9,2.8-.8,15-4h2.1l-.2-2.2-4.2-39.8c-.3-2.5-.6-5-.8-7.5-1.1-9.4-2.2-19.2-2.4-29v-2h-3.9l4.8-1.3M160.7,858l-9.4,2.5-13.5,128.2,6-1.6,3.7-37.4,16.5-4.4,3.8,35.4,6.7-1.8-13.8-120.9h0ZM148.2,944.4l4.3-42.1c1.4-12.7,1.9-25.6,3.2-38.5h.4c.3,12.5,2,24.7,3.3,36.7l4.2,39.8h0l-15.3,4.1h0Z"/>
        <path class="cls-82" d="M209,847.2v120.5l-6.4,1.7-11.4-74c-.7-4.4-1.7-13.4-3-24-.6-4.8-1.1-9.8-1.7-14.8l-.2-1.8h-4.2v2c.3,8.4.5,16.6.8,23.2.2,6,.4,10.8.4,12.7v81.7l-2.7.7v-120.5l6.4-1.7,11,75.2c1.2,9,3.1,22,5.5,37.6l.3,1.7h4.2v-2.1c-1.1-19.6-1.7-33.6-1.7-39.6v-77.9l2.7-.7M211,844.6l-6.7,1.8v79.4c0,6.8.7,22.6,1.6,39.7h-.4c-2.2-14.5-4.2-28.1-5.5-37.6l-11.3-77.4-10,2.7h0v124.7l6.7-1.8v-83.2c0-4.1-.7-19.8-1.1-36h.4c1.9,15.9,3.7,32.4,4.7,38.8l11.7,76.2,10-2.7v-124.6h0Z"/>
      </g>
      <rect x="357.6" y="347.7" width="374.6" height="374.6"/>
      <g>
        <path class="cls-11" d="M503,610.9c-3,0-5.2-.9-6.6-2.8-1.3-1.8-2-4.3-2-7.8v-22.2h.1l6.3-1.7v22.9c0,4,1.4,5.7,4.4,5.7h0c.9,0,1.8-.1,3-.4,5.7-1.6,8-4.4,8-9.9v-21.4c0-6.4-1.1-9.8-3.5-15l-14-23.7c-2.7-4.5-4.4-10.6-4.4-15.9v-18.1c0-8.1,5.4-14.5,14-16.9,2.3-.6,4.3-.9,6-.9,5.3,0,7.9,3,7.9,9.1v22.5h-.1l-6.3,1.7v-21.8c0-4.7-2.1-6.2-6.9-5-4.3,1.1-7,4.7-7,9.1v19.3c0,4,.8,7.4,2.6,11.1l13.7,23.4c2.5,4.5,5,10.1,5,17.6v23.5c0,8.7-4.7,14.2-14.5,16.8-2.3.6-4.3.9-5.9.9h.2ZM494.8,578.4v21.9c0,3.4.6,5.9,1.8,7.5,1.3,1.8,3.4,2.6,6.2,2.6s3.6-.3,5.8-.9c9.6-2.6,14.2-7.8,14.2-16.4v-23.5c0-7.4-2.5-12.9-5-17.4l-13.7-23.5c-1.8-3.8-2.7-7.2-2.7-11.3v-19.3c0-4.6,2.9-8.4,7.3-9.6,1.1-.3,2.1-.4,2.9-.4,3,0,4.5,1.9,4.5,5.8v21.3l5.5-1.5v-22.1c0-5.8-2.4-8.6-7.4-8.6s-3.7.3-6,.9c-8.4,2.3-13.7,8.6-13.7,16.4v18.1c0,5.2,1.6,11.2,4.3,15.7l14,23.7c2.5,5.3,3.5,8.8,3.5,15.2v21.4c0,5.7-2.5,8.8-8.4,10.3-1.1.3-2.2.5-3,.5h0c-3.3,0-4.9-2.1-4.9-6.2v-22.3l-5.5,1.5h0l.3.2Z"/>
        <path class="cls-11" d="M524.7,605.1v-.4l13.5-128.4h.1l9.6-2.6v.3l13.9,121.1-7.1,1.9v-.3l-3.8-35.1-16.1,4.3-3.7,37.4-6.4,1.7h0ZM538.7,476.7l-13.5,127.8,5.5-1.5,3.7-37.4,16.9-4.5v.3l3.8,35.1,6.2-1.7-13.7-120.5-8.9,2.4h0ZM535.1,560.7v-.3l4.4-42.1c.6-6.4,1.1-12.9,1.6-19.2.4-6.3.9-12.8,1.6-19.3h0c0-.1.8-.4.8-.4v.3c.3,10.1,1.4,20.1,2.6,29.8.3,2.3.6,4.6.8,6.9l4.2,40-15.8,4.3h-.2ZM542.9,480.7c-.6,6.1-1.1,12.4-1.5,18.4-.4,6.3-.9,12.8-1.6,19.3l-4.3,41.7,14.8-4-4.2-39.6c-.3-2.3-.5-4.6-.8-6.9-1.1-9.4-2.2-19.1-2.6-29h.2Z"/>
        <path class="cls-11" d="M565.6,594.2v-125.1h.1l10.3-2.8v.2l11.3,77.4c1.2,8.8,3.1,21.7,5.3,36.5l-.3-5.7c-.7-14.5-1.3-27-1.3-32.8v-79.6h.1l6.9-1.9v125.1l-10.4,2.8v-.2l-11.7-76.2c-.9-5.4-2.3-17.8-3.8-30.9l-.8-6.7c.2,8.9.6,17.7.8,24.2.2,5,.4,8.9.4,10.6v83.3l-7.1,1.9h.2ZM566,469.4v124.1l6.2-1.7v-83c0-1.8-.1-5.7-.4-10.6-.3-6.7-.6-16-.9-25.3h0c0,0,.8-.4.8-.4v.3l.9,7.9c1.5,13.1,2.9,25.5,3.8,30.9l11.6,76,9.6-2.6v-124.1l-6.2,1.7v79.2c0,5.8.6,18.3,1.3,32.8l.4,7-.7.2v-.2c-2.3-15.2-4.3-28.6-5.5-37.6l-11.3-77.2-9.6,2.6v-.2.2Z"/>
        <path class="cls-97" d="M497.7,597.6c0,4.1,1.5,7.2,7.7,5.5,5.7-1.5,8.1-4.5,8.1-10.1v-21.4c0-6.6-1.2-10.1-3.5-15.1l-14-23.7c-2.8-4.7-4.3-10.9-4.3-15.7v-18.1c0-8.1,5.3-14.4,13.8-16.7,9-2.4,13.7-.2,13.7,7.9v22.2l-6,1.6v-21.5c0-5-2.5-6.4-7.2-5.2-4.7,1.3-7.2,5.2-7.2,9.4v19.3c0,4.1.9,7.5,2.7,11.2l13.7,23.5c2.8,5.1,5,10.6,5,17.5v23.5c0,7.9-3.8,13.8-14.3,16.6-10.3,2.8-14.2-1.1-14.2-9.5v-22.1l6-1.6v22.6h0Z"/>
        <path class="cls-98" d="M548.2,559.7l-16.5,4.4-3.7,37.4-6,1.6,13.5-128.2,9.4-2.5,13.8,120.9-6.7,1.8-3.8-35.4h0ZM547.8,554.7l-4.2-39.8c-1.3-12-3-24.2-3.3-36.7h-.4c-1.3,12.9-1.8,25.8-3.2,38.5l-4.3,42.1,15.3-4.1h0Z"/>
        <path class="cls-95" d="M562.9,467.6l10-2.7,11.3,77.4c1.3,9.5,3.3,23.1,5.5,37.6h.4c-.9-17.1-1.6-32.9-1.6-39.7v-79.4l6.7-1.8v124.6l-10,2.7-11.7-76.2c-1-6.4-2.8-22.9-4.7-38.8h-.4c.4,16.2,1.1,31.9,1.1,36v83.2l-6.7,1.8v-124.6h0Z"/>
      </g>
      <g>
        <path class="cls-91" d="M11.3,151.9c-3,0-5.2-.9-6.6-2.8-1.3-1.8-2-4.3-2-7.8v-22.2h.1l6.3-1.7v22.9c0,4,1.4,5.7,4.4,5.7h0c.9,0,1.8-.1,3-.4,5.7-1.6,8-4.4,8-9.9v-21.4c0-6.4-1.1-9.8-3.5-15l-14-23.7c-2.7-4.5-4.4-10.6-4.4-15.9v-18.1c0-8.1,5.4-14.5,14-16.9,2.3-.6,4.3-.9,6-.9,5.3,0,7.9,3,7.9,9.1v22.5h-.1l-6.3,1.7v-21.8c0-4.7-2.1-6.2-6.9-5-4.3,1.1-7,4.7-7,9.1v19.3c0,4,.8,7.4,2.6,11.1l13.7,23.4c2.5,4.5,5,10.1,5,17.6v23.5c0,8.7-4.7,14.2-14.5,16.8-2.3.6-4.3.9-5.9.9h.2ZM3.1,119.4v21.9c0,3.4.6,5.9,1.8,7.5,1.3,1.8,3.4,2.6,6.2,2.6s3.6-.3,5.8-.9c9.6-2.6,14.2-7.8,14.2-16.4v-23.5c0-7.4-2.5-12.9-5-17.4l-13.7-23.5c-1.8-3.8-2.7-7.2-2.7-11.3v-19.3c0-4.6,2.9-8.4,7.3-9.6,1.1-.3,2.1-.4,2.9-.4,3,0,4.5,1.9,4.5,5.8v21.3l5.5-1.5v-22.1c0-5.8-2.4-8.6-7.4-8.6s-3.7.3-6,.9c-8.4,2.3-13.7,8.6-13.7,16.4v18.1c0,5.2,1.6,11.2,4.3,15.7l14,23.7c2.5,5.3,3.5,8.8,3.5,15.2v21.4c0,5.7-2.5,8.8-8.4,10.3-1.1.3-2.2.5-3,.5h0c-3.3,0-4.9-2.1-4.9-6.2v-22.3l-5.5,1.5h0l.3.2Z"/>
        <path class="cls-96" d="M33,146.1v-.4L46.5,17.3h.1l9.6-2.6v.3l13.9,121.1-7.1,1.9v-.3l-3.8-35.1-16.1,4.3-3.7,37.4-6.4,1.7h0ZM47,17.7l-13.5,127.8,5.5-1.5,3.7-37.4,16.9-4.5v.3l3.8,35.1,6.2-1.7L55.9,15.3l-8.9,2.4h0ZM43.4,101.7v-.3l4.4-42.1c.6-6.4,1.1-12.9,1.6-19.2.4-6.3.9-12.8,1.6-19.3h0c0-.1.8-.4.8-.4v.3c.3,10.1,1.4,20.1,2.6,29.8.3,2.3.6,4.6.8,6.9l4.2,40-15.8,4.3h-.2ZM51.2,21.7c-.6,6.1-1.1,12.4-1.5,18.4-.4,6.3-.9,12.8-1.6,19.3l-4.3,41.7,14.8-4-4.2-39.6c-.3-2.3-.5-4.6-.8-6.9-1.1-9.4-2.2-19.1-2.6-29h.2Z"/>
        <path class="cls-93" d="M73.9,135.2V10.1h.1l10.3-2.8v.2l11.3,77.4c1.2,8.8,3.1,21.7,5.3,36.5l-.3-5.7c-.7-14.5-1.3-27-1.3-32.8V3.3h.1l6.9-1.9v125.1l-10.4,2.8v-.2l-11.7-76.2c-.9-5.4-2.3-17.8-3.8-30.9l-.8-6.7c.2,8.9.6,17.7.8,24.2.2,5,.4,8.9.4,10.6v83.3l-7.1,1.9h.2ZM74.3,10.4v124.1l6.2-1.7V49.8c0-1.8-.1-5.7-.4-10.6-.3-6.7-.6-16-.9-25.3h0c0,0,.8-.4.8-.4v.3l.9,7.9c1.5,13.1,2.9,25.5,3.8,30.9l11.6,76,9.6-2.6V1.9l-6.2,1.7v79.2c0,5.8.6,18.3,1.3,32.8l.4,7-.7.2v-.2c-2.3-15.2-4.3-28.6-5.5-37.6L83.9,7.8l-9.6,2.6v-.2.2Z"/>
        <path class="cls-90" d="M6,138.6c0,4.1,1.5,7.2,7.7,5.5,5.7-1.5,8.1-4.5,8.1-10.1v-21.4c0-6.6-1.2-10.1-3.5-15.1l-14-23.7c-2.8-4.7-4.3-10.9-4.3-15.7v-18.1c0-8.1,5.3-14.4,13.8-16.7,9-2.4,13.7-.2,13.7,7.9v22.2l-6,1.6v-21.5c0-5-2.5-6.4-7.2-5.2-4.7,1.3-7.2,5.2-7.2,9.4v19.3c0,4.1.9,7.5,2.7,11.2l13.7,23.5c2.8,5.1,5,10.6,5,17.5v23.5c0,7.9-3.8,13.8-14.3,16.6-10.3,2.8-14.2-1.1-14.2-9.5v-22.1l6-1.6v22.6h0Z"/>
        <path class="cls-94" d="M56.5,100.7l-16.5,4.4-3.7,37.4-6,1.6L43.8,15.9l9.4-2.5,13.8,120.9-6.7,1.8-3.8-35.4h0ZM56.1,95.7l-4.2-39.8c-1.3-12-3-24.2-3.3-36.7h-.4c-1.3,12.9-1.8,25.8-3.2,38.5l-4.3,42.1,15.3-4.1h0Z"/>
        <path class="cls-92" d="M71.2,8.6l10-2.7,11.3,77.4c1.3,9.5,3.3,23.1,5.5,37.6h.4c-.9-17.1-1.6-32.9-1.6-39.7V1.8l6.7-1.8v124.6l-10,2.7-11.7-76.2c-1-6.4-2.8-22.9-4.7-38.8h-.4c.4,16.2,1.1,31.9,1.1,36v83.2l-6.7,1.8V8.7h0Z"/>
      </g>
    </g>
  </g>
</svg>