<?xml version="1.0" encoding="UTF-8"?>
<svg xmlns="http://www.w3.org/2000/svg" xmlns:xlink="http://www.w3.org/1999/xlink" version="1.1" viewBox="0 0 55 78.6">
  <defs>
    <style>
      .cls-1, .cls-2, .cls-3, .cls-4, .cls-5, .cls-6, .cls-7, .cls-8 {
        fill: #fff;
      }

      .cls-1, .cls-5, .cls-7 {
        font-size: 30px;
      }

      .cls-9 {
        stroke: url(#linear-gradient-18);
      }

      .cls-9, .cls-10, .cls-11, .cls-12, .cls-13, .cls-14, .cls-15, .cls-16, .cls-17 {
        stroke-miterlimit: 10;
      }

      .cls-9, .cls-10, .cls-11, .cls-12, .cls-15, .cls-17 {
        fill: none;
      }

      .cls-9, .cls-13, .cls-17 {
        stroke-width: 2px;
      }

      .cls-18 {
        fill: url(#linear-gradient-8);
      }

      .cls-19 {
        fill: url(#linear-gradient-7);
      }

      .cls-20 {
        fill: url(#linear-gradient-5);
      }

      .cls-21 {
        fill: url(#linear-gradient-6);
      }

      .cls-22 {
        fill: url(#linear-gradient-9);
      }

      .cls-23 {
        fill: url(#linear-gradient-4);
      }

      .cls-24 {
        fill: url(#linear-gradient-3);
      }

      .cls-25 {
        fill: url(#linear-gradient-2);
      }

      .cls-26 {
        fill: #1c1c1c;
      }

      .cls-10, .cls-15 {
        stroke: #fff;
      }

      .cls-2 {
        font-family: Lato-Light, Lato;
      }

      .cls-2, .cls-3, .cls-27, .cls-6, .cls-7, .cls-8 {
        font-weight: 300;
      }

      .cls-2, .cls-6 {
        font-size: 26px;
      }

      .cls-28 {
        fill: url(#linear-gradient);
      }

      .cls-11 {
        stroke: url(#linear-gradient-59);
      }

      .cls-12 {
        stroke: url(#linear-gradient-39);
      }

      .cls-3 {
        letter-spacing: .4em;
      }

      .cls-3, .cls-27, .cls-7, .cls-8 {
        font-family: TitilliumWeb-Light, 'Titillium Web';
      }

      .cls-3, .cls-4 {
        font-size: 12px;
      }

      .cls-29 {
        fill: url(#radial-gradient);
        opacity: .8;
      }

      .cls-13, .cls-14, .cls-16 {
        stroke: #f6a500;
        stroke-linecap: round;
      }

      .cls-13, .cls-14, .cls-30 {
        fill: #f8af00;
      }

      .cls-31, .cls-32 {
        fill: #777;
        font-family: Avenir-Medium, Avenir;
        font-size: 40px;
        font-weight: 500;
      }

      .cls-33, .cls-16 {
        fill: #61ff6c;
      }

      .cls-14, .cls-16 {
        stroke-width: .3px;
      }

      .cls-15 {
        stroke-width: .5px;
      }

      .cls-34 {
        fill: #262626;
      }

      .cls-32, .cls-35 {
        letter-spacing: 0em;
      }

      .cls-36 {
        fill: url(#linear-gradient-43);
      }

      .cls-37 {
        fill: url(#linear-gradient-40);
      }

      .cls-38 {
        fill: url(#linear-gradient-41);
      }

      .cls-39 {
        fill: url(#linear-gradient-42);
      }

      .cls-40 {
        fill: url(#linear-gradient-49);
      }

      .cls-41 {
        fill: url(#linear-gradient-48);
      }

      .cls-42 {
        fill: url(#linear-gradient-45);
      }

      .cls-43 {
        fill: url(#linear-gradient-47);
      }

      .cls-44 {
        fill: url(#linear-gradient-44);
      }

      .cls-45 {
        fill: url(#linear-gradient-46);
      }

      .cls-46 {
        fill: url(#linear-gradient-10);
      }

      .cls-47 {
        fill: url(#linear-gradient-11);
      }

      .cls-48 {
        fill: url(#linear-gradient-12);
      }

      .cls-49 {
        fill: url(#linear-gradient-13);
      }

      .cls-50 {
        fill: url(#linear-gradient-19);
      }

      .cls-51 {
        fill: url(#linear-gradient-14);
      }

      .cls-52 {
        fill: url(#linear-gradient-21);
      }

      .cls-53 {
        fill: url(#linear-gradient-20);
      }

      .cls-54 {
        fill: url(#linear-gradient-22);
      }

      .cls-55 {
        fill: url(#linear-gradient-23);
      }

      .cls-56 {
        fill: url(#linear-gradient-28);
      }

      .cls-57 {
        fill: url(#linear-gradient-25);
      }

      .cls-58 {
        fill: url(#linear-gradient-32);
      }

      .cls-59 {
        fill: url(#linear-gradient-31);
      }

      .cls-60 {
        fill: url(#linear-gradient-33);
      }

      .cls-61 {
        fill: url(#linear-gradient-30);
      }

      .cls-62 {
        fill: url(#linear-gradient-15);
      }

      .cls-63 {
        fill: url(#linear-gradient-16);
      }

      .cls-64 {
        fill: url(#linear-gradient-17);
      }

      .cls-65 {
        fill: url(#linear-gradient-35);
      }

      .cls-66 {
        fill: url(#linear-gradient-34);
      }

      .cls-67 {
        fill: url(#linear-gradient-36);
      }

      .cls-68 {
        fill: url(#linear-gradient-38);
      }

      .cls-69 {
        fill: url(#linear-gradient-27);
      }

      .cls-70 {
        fill: url(#linear-gradient-24);
      }

      .cls-71 {
        fill: url(#linear-gradient-26);
      }

      .cls-72 {
        fill: url(#linear-gradient-29);
      }

      .cls-73 {
        fill: url(#linear-gradient-37);
      }

      .cls-74 {
        fill: url(#linear-gradient-57);
      }

      .cls-75 {
        fill: url(#linear-gradient-58);
      }

      .cls-76 {
        fill: url(#linear-gradient-53);
      }

      .cls-77 {
        fill: url(#linear-gradient-54);
      }

      .cls-78 {
        fill: url(#linear-gradient-55);
      }

      .cls-79 {
        fill: url(#linear-gradient-56);
      }

      .cls-80 {
        fill: url(#linear-gradient-50);
      }

      .cls-81 {
        fill: url(#linear-gradient-51);
      }

      .cls-82 {
        fill: url(#linear-gradient-52);
      }

      .cls-4, .cls-5, .cls-30 {
        font-family: TitilliumWeb-Regular, 'Titillium Web';
      }

      .cls-6 {
        font-family: RobotoSlab-Light, 'Roboto Slab';
      }

      .cls-83 {
        font-family: TitilliumWeb-BoldItalic, 'Titillium Web';
        font-style: italic;
      }

      .cls-83, .cls-84 {
        font-weight: 700;
      }

      .cls-83, .cls-8 {
        font-size: 18px;
      }

      .cls-17 {
        stroke: #777;
      }

      .cls-84 {
        font-family: TitilliumWeb-Bold, 'Titillium Web';
      }

      .cls-85 {
        fill: #f6a500;
      }

      .cls-86 {
        letter-spacing: 0em;
      }

      .cls-30 {
        font-size: 50px;
      }
    </style>
    <linearGradient id="linear-gradient" x1="-477.1" y1="-443.8" x2="-465.3" y2="-393.5" gradientUnits="userSpaceOnUse">
      <stop offset="0" stop-color="#f8af00"/>
      <stop offset=".9" stop-color="#ee7d00"/>
    </linearGradient>
    <linearGradient id="linear-gradient-2" x1="-460.7" y1="-447.7" x2="-448.9" y2="-397.3" xlink:href="#linear-gradient"/>
    <linearGradient id="linear-gradient-3" x1="-446.7" y1="-450.9" x2="-434.9" y2="-400.6" xlink:href="#linear-gradient"/>
    <linearGradient id="linear-gradient-4" x1="-428.9" y1="-455.1" x2="-417.1" y2="-404.8" xlink:href="#linear-gradient"/>
    <linearGradient id="linear-gradient-5" x1="-412.7" y1="-458.9" x2="-400.9" y2="-408.6" xlink:href="#linear-gradient"/>
    <linearGradient id="linear-gradient-6" x1="-401.1" y1="-461.6" x2="-389.3" y2="-411.3" xlink:href="#linear-gradient"/>
    <linearGradient id="linear-gradient-7" x1="-389.1" y1="-464.4" x2="-377.3" y2="-414.1" xlink:href="#linear-gradient"/>
    <linearGradient id="linear-gradient-8" x1="-369.6" y1="-469" x2="-357.8" y2="-418.7" xlink:href="#linear-gradient"/>
    <linearGradient id="linear-gradient-9" x1="-70" y1="-464.8" x2="-60.2" y2="-422.9" xlink:href="#linear-gradient"/>
    <linearGradient id="linear-gradient-10" x1="-56.4" y1="-468" x2="-46.6" y2="-426.1" xlink:href="#linear-gradient"/>
    <linearGradient id="linear-gradient-11" x1="-44.8" y1="-470.7" x2="-35" y2="-428.9" xlink:href="#linear-gradient"/>
    <linearGradient id="linear-gradient-12" x1="-29.9" y1="-474.2" x2="-20.1" y2="-432.3" xlink:href="#linear-gradient"/>
    <linearGradient id="linear-gradient-13" x1="-16.4" y1="-477.4" x2="-6.6" y2="-435.5" xlink:href="#linear-gradient"/>
    <linearGradient id="linear-gradient-14" x1="-6.8" y1="-479.6" x2="3.1" y2="-437.7" xlink:href="#linear-gradient"/>
    <linearGradient id="linear-gradient-15" x1="3.2" y1="-482" x2="13" y2="-440.1" xlink:href="#linear-gradient"/>
    <linearGradient id="linear-gradient-16" x1="19.4" y1="-485.8" x2="29.2" y2="-443.9" xlink:href="#linear-gradient"/>
    <linearGradient id="linear-gradient-17" x1="-904.5" y1="-235.9" x2="-904.5" y2="-137.9" xlink:href="#linear-gradient"/>
    <linearGradient id="linear-gradient-18" x1="-255" y1="-343.4" x2="-255" y2="-295.4" xlink:href="#linear-gradient"/>
    <linearGradient id="linear-gradient-19" x1="-310" y1="-383" x2="-195" y2="-383" xlink:href="#linear-gradient"/>
    <radialGradient id="radial-gradient" cx="638" cy="625.6" fx="638" fy="625.6" r="478" gradientUnits="userSpaceOnUse">
      <stop offset="0" stop-color="#000" stop-opacity=".5"/>
      <stop offset="1" stop-color="#231f20" stop-opacity="0"/>
    </radialGradient>
    <linearGradient id="linear-gradient-20" x1="-173.3" y1="-264.8" x2="-160.5" y2="-210.5" xlink:href="#linear-gradient"/>
    <linearGradient id="linear-gradient-21" x1="-155.6" y1="-269" x2="-142.9" y2="-214.6" xlink:href="#linear-gradient"/>
    <linearGradient id="linear-gradient-22" x1="-140.5" y1="-272.5" x2="-127.8" y2="-218.2" xlink:href="#linear-gradient"/>
    <linearGradient id="linear-gradient-23" x1="-121.2" y1="-277" x2="-108.5" y2="-222.7" xlink:href="#linear-gradient"/>
    <linearGradient id="linear-gradient-24" x1="-103.7" y1="-281.1" x2="-91" y2="-226.8" xlink:href="#linear-gradient"/>
    <linearGradient id="linear-gradient-25" x1="-91.2" y1="-284" x2="-78.5" y2="-229.7" xlink:href="#linear-gradient"/>
    <linearGradient id="linear-gradient-26" x1="-78.3" y1="-287.1" x2="-65.5" y2="-232.7" xlink:href="#linear-gradient"/>
    <linearGradient id="linear-gradient-27" x1="-57.2" y1="-292" x2="-44.5" y2="-237.6" xlink:href="#linear-gradient"/>
    <linearGradient id="linear-gradient-28" x1="-172.3" y1="-264.8" x2="-159.5" y2="-210.5" xlink:href="#linear-gradient"/>
    <linearGradient id="linear-gradient-29" x1="-154.6" y1="-269" x2="-141.9" y2="-214.6" xlink:href="#linear-gradient"/>
    <linearGradient id="linear-gradient-30" x1="-139.5" y1="-272.5" x2="-126.8" y2="-218.2" xlink:href="#linear-gradient"/>
    <linearGradient id="linear-gradient-31" x1="-120.2" y1="-277" x2="-107.5" y2="-222.7" xlink:href="#linear-gradient"/>
    <linearGradient id="linear-gradient-32" x1="-102.7" y1="-281.1" x2="-90" y2="-226.8" xlink:href="#linear-gradient"/>
    <linearGradient id="linear-gradient-33" x1="-90.2" y1="-284" x2="-77.5" y2="-229.7" xlink:href="#linear-gradient"/>
    <linearGradient id="linear-gradient-34" x1="-77.3" y1="-287.1" x2="-64.5" y2="-232.7" xlink:href="#linear-gradient"/>
    <linearGradient id="linear-gradient-35" x1="-56.2" y1="-292" x2="-43.5" y2="-237.6" xlink:href="#linear-gradient"/>
    <linearGradient id="linear-gradient-36" x1="-615.2" y1="-298.3" x2="-576.1" y2="-131.4" xlink:href="#linear-gradient"/>
    <linearGradient id="linear-gradient-37" x1="-575.5" y1="-307.6" x2="-536.5" y2="-140.6" xlink:href="#linear-gradient"/>
    <linearGradient id="linear-gradient-38" x1="-510.8" y1="-322.7" x2="-471.7" y2="-155.8" xlink:href="#linear-gradient"/>
    <linearGradient id="linear-gradient-39" x1="-364.5" y1="1513.6" x2="1579" y2="1513.6" gradientUnits="userSpaceOnUse">
      <stop offset="0" stop-color="#000"/>
      <stop offset=".9" stop-color="#ee7d00"/>
    </linearGradient>
    <linearGradient id="linear-gradient-40" x1="1583" y1="332.6" x2="-341" y2="332.6" xlink:href="#linear-gradient-39"/>
    <linearGradient id="linear-gradient-41" x1="25.6" y1="236.6" x2="35.6" y2="279" xlink:href="#linear-gradient"/>
    <linearGradient id="linear-gradient-42" x1="35.7" y1="234.2" x2="45.6" y2="276.7" xlink:href="#linear-gradient"/>
    <linearGradient id="linear-gradient-43" x1="52.2" y1="230.4" x2="62.1" y2="272.8" xlink:href="#linear-gradient"/>
    <linearGradient id="linear-gradient-44" x1="13.3" y1="376.2" x2="27.6" y2="437.4" xlink:href="#linear-gradient"/>
    <linearGradient id="linear-gradient-45" x1="27.8" y1="372.8" x2="42.1" y2="434" xlink:href="#linear-gradient"/>
    <linearGradient id="linear-gradient-46" x1="51.5" y1="367.3" x2="65.9" y2="428.4" xlink:href="#linear-gradient"/>
    <linearGradient id="linear-gradient-47" x1=".3" y1="15.2" x2="14.6" y2="76.4" xlink:href="#linear-gradient"/>
    <linearGradient id="linear-gradient-48" x1="14.8" y1="11.8" x2="29.1" y2="73" xlink:href="#linear-gradient"/>
    <linearGradient id="linear-gradient-49" x1="38.5" y1="6.3" x2="52.9" y2="67.4" xlink:href="#linear-gradient"/>
    <linearGradient id="linear-gradient-50" x1="371" y1="989.4" x2="371" y2="1008.1" xlink:href="#linear-gradient"/>
    <linearGradient id="linear-gradient-51" x1="383.7" y1="989.4" x2="383.7" y2="1008.1" xlink:href="#linear-gradient"/>
    <linearGradient id="linear-gradient-52" x1="395.8" y1="989.4" x2="395.8" y2="1008.1" xlink:href="#linear-gradient"/>
    <linearGradient id="linear-gradient-53" x1="409.6" y1="989.4" x2="409.6" y2="1008.1" xlink:href="#linear-gradient"/>
    <linearGradient id="linear-gradient-54" x1="428.5" y1="989.4" x2="428.5" y2="1008.1" xlink:href="#linear-gradient"/>
    <linearGradient id="linear-gradient-55" x1="440.7" y1="989.4" x2="440.7" y2="1008.1" xlink:href="#linear-gradient"/>
    <linearGradient id="linear-gradient-56" x1="452.6" y1="989.4" x2="452.6" y2="1008.1" xlink:href="#linear-gradient"/>
    <linearGradient id="linear-gradient-57" x1="465.5" y1="989.4" x2="465.5" y2="1008.1" xlink:href="#linear-gradient"/>
    <linearGradient id="linear-gradient-58" x1="478.9" y1="989.4" x2="478.9" y2="1008.1" xlink:href="#linear-gradient"/>
    <linearGradient id="linear-gradient-59" x1="512.6" y1="997.7" x2="513.6" y2="997.7" xlink:href="#linear-gradient"/>
  </defs>
  <!-- Generator: Adobe Illustrator 28.6.0, SVG Export Plug-In . SVG Version: 1.2.0 Build 709)  -->
  <g>
    <g id="Layer_1">
      <g>
        <g>
          <path class="cls-85" d="M-475.4-388.4v-53.2l6.1-1.6c1-.3,2-.4,2.7-.4,2.5,0,3.8,1.5,3.8,4.5v41.7c0,3.9-2.1,6.3-6.5,7.5l-6.1,1.6ZM-475.2-441.4v52.8l5.9-1.6c4.3-1.2,6.3-3.5,6.3-7.3v-41.7c0-2.9-1.2-4.3-3.6-4.3s-1.7.1-2.7.4l-6,1.6ZM-472.6-391.3v-48.8h0s2.9-.8,2.9-.8c.7-.2,1.2-.3,1.7-.3,1.5,0,2.2.8,2.2,2.6v42.1c0,2.3-1.2,3.6-3.9,4.3l-3,.8ZM-472.4-440v48.4l2.8-.7c2.6-.7,3.8-2,3.8-4.2v-42.1c0-1.6-.6-2.4-2-2.4s-1,0-1.7.3l-2.8.8Z"/>
          <path class="cls-85" d="M-458.3-393v-53.2h0s9.8-2.7,9.8-2.7v2.4h0s-6.8,1.8-6.8,1.8v22.3l6.5-1.7v2.4h0s-6.4,1.7-6.4,1.7v23.7l7.4-2v2.4h0s-10.3,2.8-10.3,2.8ZM-458.1-446v52.8l10-2.7v-2l-7.4,2v-24.1h0s6.4-1.7,6.4-1.7v-2l-6.5,1.7v-22.7h0s6.8-1.8,6.8-1.8v-2l-9.5,2.6Z"/>
          <path class="cls-85" d="M-445.2-396.5v-53.2l6.5-1.7c.8-.2,1.6-.3,2.2-.3,2.4,0,3.7,1.3,3.7,3.8v15.6c0,2.5-.5,5-4.2,6.4,2.8-.4,4.2.9,4.2,3.7v22.4h0s-3,.8-3,.8v-22.4c0-1.8-.9-2.9-2.5-2.9s-.8,0-1.3.2l-2.6.7v26.1l-3,.8ZM-445-449.5v52.8l2.6-.7v-26.1h0s2.6-.7,2.6-.7c.5-.1,1-.2,1.4-.2,1.7,0,2.6,1.1,2.6,3.1v22.2l2.6-.7v-22.2c0-2.4-1-3.6-3.1-3.6s-.8,0-1.2.1h-.1s0-.3,0-.3h0c3.8-1.4,4.3-3.8,4.3-6.3v-15.6c0-2.3-1.2-3.6-3.5-3.6s-1.4.1-2.2.3l-6.3,1.7ZM-442.4-425.6v-22.7h0s3-.8,3-.8c2.4-.6,3.6.2,3.6,2.5v15.6c0,2.4-1.3,4-3.8,4.6l-2.9.8ZM-442.2-448.1v22.3l2.6-.7c2.4-.6,3.7-2.2,3.7-4.4v-15.6c0-2.2-1.1-2.9-3.4-2.3l-3,.8Z"/>
          <path class="cls-85" d="M-428.1-401.1v-53.2h0s3-.8,3-.8v24.3l6.8-26.2,2.8-.7v.2s-7.1,26.8-7.1,26.8l7.7,26-3,.8h0c0,0-7.3-25.5-7.3-25.5v27.4l-3,.8ZM-427.9-454.1v52.8l2.7-.7v-52.8l-2.7.7ZM-425.1-430l7.4,25.9,2.7-.7-7.7-25.9h0s7-26.7,7-26.7l-2.3.6-7,26.8Z"/>
          <path class="cls-85" d="M-410.2-405.9v-21l-5.9-30.6,3-.8,4.4,27.5,4.4-29.8,3-.8h0c0,.1-5.9,33.8-5.9,33.8v21s-3,.8-3,.8ZM-415.9-457.3l5.9,30.4v20.8s2.6-.7,2.6-.7v-20.9l5.9-33.5-2.6.7-4.4,29.9h-.3c0,0-4.4-27.4-4.4-27.4l-2.7.7Z"/>
          <path class="cls-85" d="M-396.5-409.5c-1.3,0-2.2-.4-2.8-1.2-.6-.7-.8-1.8-.8-3.3v-9.5h0s2.7-.7,2.7-.7v9.7c0,1.7.6,2.5,1.9,2.5h0c.4,0,.8,0,1.3-.2,2.4-.6,3.4-1.9,3.4-4.2v-9.1c0-2.7-.5-4.2-1.5-6.4l-6-10.1c-1.1-1.9-1.9-4.5-1.9-6.7v-7.7c0-3.4,2.3-6.2,6-7.2,1-.3,1.8-.4,2.6-.4,2.3,0,3.4,1.3,3.4,3.8v9.5h0s-2.7.7-2.7.7v-9.3c0-2-.9-2.6-2.9-2.1-1.8.5-3,2-3,3.9v8.2c0,1.7.3,3.2,1.1,4.7l5.8,10c1.1,1.9,2.1,4.3,2.1,7.5v10c0,3.7-2,6-6.2,7.2-1,.3-1.8.4-2.5.4ZM-400-423.3v9.3c0,1.4.3,2.5.8,3.2.6.8,1.4,1.1,2.6,1.1s1.5-.1,2.5-.4c4.1-1.1,6-3.3,6-7v-10c0-3.1-1.1-5.5-2.1-7.4l-5.8-10c-.8-1.6-1.1-3.1-1.1-4.8v-8.2c0-2,1.2-3.6,3.1-4.1.5-.1.9-.2,1.2-.2,1.3,0,1.9.8,1.9,2.5v9.1l2.4-.6v-9.4c0-2.5-1-3.7-3.2-3.7s-1.6.1-2.5.4c-3.6,1-5.8,3.6-5.8,7v7.7c0,2.2.7,4.8,1.8,6.7l6,10.1c1,2.3,1.5,3.7,1.5,6.5v9.1c0,2.4-1.1,3.7-3.5,4.4-.5.1-.9.2-1.3.2h0c-1.4,0-2.1-.9-2.1-2.6v-9.5l-2.4.6Z"/>
          <path class="cls-85" d="M-387.3-412h0c0-.1,5.8-54.7,5.8-54.7h0s4.1-1.1,4.1-1.1h0c0,.1,5.9,51.6,5.9,51.6l-3,.8h0c0-.1-1.6-15.1-1.6-15.1l-6.8,1.8-1.6,15.9-2.7.7ZM-381.3-466.6l-5.7,54.3,2.4-.6,1.6-15.9,7.2-1.9h0c0,.1,1.6,15.1,1.6,15.1l2.6-.7-5.9-51.2-3.8,1ZM-382.9-430.9h0c0-.1,1.8-18,1.8-18,.3-2.7.5-5.5.7-8.2.2-2.7.4-5.5.7-8.2h0c0,0,.3-.2.3-.2h0c.1,4.4.6,8.7,1.1,12.8.1,1,.2,2,.3,2.9l1.8,17-6.7,1.8ZM-379.5-464.9c-.3,2.6-.5,5.3-.6,7.8-.2,2.7-.4,5.5-.7,8.2l-1.8,17.8,6.3-1.7-1.8-16.8c-.1-1-.2-2-.3-2.9-.5-4-.9-8.1-1.1-12.3Z"/>
          <path class="cls-85" d="M-369.9-416.7v-53.2h0s4.4-1.2,4.4-1.2h0c0,.1,4.8,33,4.8,33,.5,3.7,1.3,9.2,2.3,15.5v-2.5c-.4-6.2-.7-11.5-.7-14v-33.8h0s3-.8,3-.8v53.2l-4.4,1.2h0c0-.1-5-32.5-5-32.5-.4-2.3-1-7.6-1.6-13.1l-.3-2.9c0,3.8.2,7.5.3,10.3,0,2.1.1,3.8.1,4.5v35.5l-3,.8ZM-369.7-469.7v52.8l2.6-.7v-35.3c0-.7,0-2.4-.1-4.5-.1-2.9-.3-6.8-.3-10.8h0c0,0,.3-.2.3-.2h0c0,.1.4,3.5.4,3.5.6,5.6,1.2,10.8,1.6,13.1l5,32.3,4.1-1.1v-52.8l-2.6.7v33.7c0,2.5.3,7.8.6,13.9v3c.1,0-.2,0-.2,0h0c-1-6.6-1.8-12.2-2.3-16.1l-4.8-32.8-4.1,1.1Z"/>
        </g>
        <g>
          <path class="cls-28" d="M-476.5-442.2l6-1.6c4.2-1.1,6.4,0,6.4,3.9v41.7c0,4-2.2,6.2-6.4,7.4l-6,1.6v-53ZM-470.8-392.9c2.6-.7,3.8-2,3.8-4.3v-42.1c0-2.3-1.3-2.9-3.8-2.2l-2.9.8v48.6l2.9-.8Z"/>
          <path class="cls-25" d="M-459.5-446.8l9.7-2.6v2.2l-6.9,1.8v22.5l6.5-1.7v2.2l-6.5,1.7v23.9l7.4-2v2.2l-10.2,2.7v-53Z"/>
          <path class="cls-24" d="M-446.4-450.3l6.4-1.7c3.4-.9,5.8,0,5.8,3.4v15.6c0,2.9-.8,5.1-4.4,6.4h0c2.6-.3,4.4.5,4.4,3.7v22.3l-2.8.8v-22.3c0-2-1.1-3.5-3.9-2.8l-2.6.7v26.1l-2.8.8v-53ZM-440.8-427.1c2.4-.6,3.8-2.2,3.8-4.5v-15.6c0-2.3-1.2-3-3.5-2.4l-3,.8v22.5l2.8-.7Z"/>
          <path class="cls-23" d="M-429.2-454.9l2.8-.8v53l-2.8.8v-53ZM-426.4-430.7l7-26.8,2.6-.7-7,26.8,7.7,26-2.8.8-7.4-26Z"/>
          <path class="cls-20" d="M-405.4-461.3l2.8-.8-5.9,33.7v20.9l-2.8.8v-20.9l-5.9-30.5,2.8-.8,4.4,27.5h.1s4.4-29.9,4.4-29.9Z"/>
          <path class="cls-21" d="M-398.8-415.2c0,1.8.6,3.1,3.3,2.4,2.4-.6,3.5-1.9,3.5-4.3v-9.1c0-2.8-.5-4.3-1.5-6.4l-6-10.1c-1.2-2-1.8-4.6-1.8-6.7v-7.7c0-3.5,2.3-6.1,5.9-7.1,3.8-1,5.8,0,5.8,3.4v9.5l-2.6.7v-9.2c0-2.1-1.1-2.7-3-2.2-2,.5-3,2.2-3,4v8.2c0,1.8.4,3.2,1.1,4.8l5.8,10c1.2,2.2,2.1,4.5,2.1,7.4v10c0,3.4-1.6,5.9-6.1,7.1-4.4,1.2-6-.4-6-4v-9.4l2.6-.7v9.6Z"/>
          <path class="cls-19" d="M-377.3-431.3l-7,1.9-1.6,15.9-2.6.7,5.7-54.5,4-1.1,5.9,51.4-2.8.8-1.6-15.1ZM-377.5-433.4l-1.8-16.9c-.6-5.1-1.3-10.3-1.4-15.6h-.1c-.6,5.5-.8,11-1.3,16.4l-1.8,17.9,6.5-1.7Z"/>
          <path class="cls-18" d="M-371-470.5l4.3-1.1,4.8,32.9c.6,4,1.4,9.8,2.3,16h.1c-.4-7.3-.7-14-.7-16.9v-33.8l2.8-.8v53l-4.3,1.1-5-32.4c-.4-2.7-1.2-9.7-2-16.5h-.1c.1,6.9.5,13.6.5,15.3v35.4l-2.8.8v-53Z"/>
        </g>
        <line class="cls-14" x1="-476.6" y1="-383.2" x2="-355.7" y2="-415.6"/>
        <line class="cls-14" x1="-476.9" y1="-447.3" x2="-357.3" y2="-479.4"/>
      </g>
      <rect class="cls-34" x="-340" y="330.6" width="1920" height="1080"/>
      <g>
        <g>
          <path class="cls-85" d="M-68.6-418.7v-44.3l5.1-1.4c.9-.2,1.6-.3,2.3-.3,2.1,0,3.1,1.2,3.1,3.7v34.7c0,3.3-1.7,5.2-5.4,6.2l-5.1,1.4ZM-68.5-462.8v44l4.9-1.3c3.6-1,5.3-2.9,5.3-6.1v-34.7c0-2.4-1-3.5-3-3.5s-1.4.1-2.2.3l-5,1.3ZM-66.3-421.1v-40.6h0s2.4-.7,2.4-.7c.6-.1,1-.2,1.4-.2,1.2,0,1.8.7,1.8,2.1v35.1c0,1.9-1,3-3.2,3.6l-2.5.7ZM-66.1-461.6v40.3l2.3-.6c2.2-.6,3.1-1.6,3.1-3.5v-35.1c0-1.3-.5-2-1.7-2s-.9,0-1.4.2l-2.4.6Z"/>
          <path class="cls-85" d="M-54.4-422.5v-44.3h0s8.2-2.2,8.2-2.2v2h0s-5.7,1.5-5.7,1.5v18.5l5.4-1.4v2h0s-5.3,1.4-5.3,1.4v19.8l6.1-1.6v2h0s-8.6,2.3-8.6,2.3ZM-54.3-466.6v44l8.3-2.2v-1.7l-6.1,1.6v-20.1h0s5.3-1.4,5.3-1.4v-1.7l-5.4,1.4v-18.9h0s5.7-1.5,5.7-1.5v-1.7l-7.9,2.1Z"/>
          <path class="cls-85" d="M-43.5-425.4v-44.3l5.4-1.4c.7-.2,1.3-.3,1.9-.3,2,0,3.1,1.1,3.1,3.1v13c0,2.1-.4,4.2-3.5,5.3,2.3-.3,3.5.7,3.5,3.1v18.6h0s-2.5.7-2.5.7v-18.7c0-1.5-.7-2.4-2-2.4s-.7,0-1.1.2l-2.1.6v21.8l-2.5.7ZM-43.3-469.6v44l2.2-.6v-21.8h0s2.2-.6,2.2-.6c.4-.1.8-.2,1.1-.2,1.4,0,2.2.9,2.2,2.5v18.5l2.2-.6v-18.5c0-2-.9-3-2.6-3s-.6,0-1,0h0s0-.3,0-.3h0c3.2-1.1,3.6-3.2,3.6-5.3v-13c0-1.9-1-3-2.9-3s-1.2,0-1.8.3l-5.3,1.4ZM-41.1-449.6v-18.9h0s2.5-.7,2.5-.7c2-.5,3,.2,3,2.1v13c0,2-1.1,3.3-3.2,3.8l-2.4.6ZM-41-468.4v18.5l2.2-.6c2-.5,3.1-1.8,3.1-3.7v-13c0-1.8-.9-2.4-2.8-1.9l-2.5.7Z"/>
          <path class="cls-85" d="M-29.3-429.2v-44.3h0s2.5-.7,2.5-.7v20.3l5.7-21.8,2.3-.6h0c0,.1-5.8,22.4-5.8,22.4l6.4,21.7-2.5.7h0c0,0-6-21.2-6-21.2v22.8l-2.5.7ZM-29.1-473.4v44l2.2-.6v-44l-2.2.6ZM-26.7-453.3l6.2,21.6,2.2-.6-6.4-21.6h0s5.8-22.2,5.8-22.2l-1.9.5-5.8,22.3Z"/>
          <path class="cls-85" d="M-14.3-433.2v-17.5l-4.9-25.4,2.5-.7,3.7,22.9,3.6-24.8,2.5-.7h0c0,.1-4.9,28.1-4.9,28.1v17.5s-2.5.7-2.5.7ZM-19.1-476.1l4.9,25.3v17.3s2.2-.6,2.2-.6v-17.4l4.9-27.9-2.2.6-3.7,24.9h-.3c0,0-3.7-22.8-3.7-22.8l-2.2.6Z"/>
          <path class="cls-85" d="M-3-436.3c-1.1,0-1.8-.3-2.3-1-.5-.6-.7-1.5-.7-2.8v-7.9h0s2.2-.6,2.2-.6v8.1c0,1.4.5,2,1.6,2h0c.3,0,.7,0,1-.2,2-.5,2.8-1.6,2.8-3.5v-7.6c0-2.3-.4-3.5-1.2-5.3l-5-8.4c-1-1.6-1.5-3.8-1.5-5.6v-6.4c0-2.9,1.9-5.2,5-6,.8-.2,1.5-.3,2.1-.3,1.9,0,2.8,1,2.8,3.2v7.9h0s-2.2.6-2.2.6v-7.7c0-1.7-.8-2.2-2.4-1.7-1.5.4-2.5,1.7-2.5,3.2v6.8c0,1.4.3,2.6.9,3.9l4.8,8.3c.9,1.6,1.8,3.6,1.8,6.2v8.3c0,3.1-1.7,5-5.1,6-.8.2-1.5.3-2.1.3ZM-5.9-447.8v7.8c0,1.2.2,2.1.7,2.7.5.6,1.2.9,2.2.9s1.3-.1,2-.3c3.4-.9,5-2.8,5-5.8v-8.3c0-2.6-.9-4.6-1.8-6.1l-4.8-8.3c-.7-1.3-1-2.5-1-4v-6.8c0-1.6,1-3,2.6-3.4.4-.1.7-.2,1-.2,1.1,0,1.6.7,1.6,2.1v7.5l2-.5v-7.8c0-2-.9-3-2.6-3s-1.3.1-2.1.3c-3,.8-4.8,3-4.8,5.8v6.4c0,1.8.6,4,1.5,5.5l5,8.4c.9,1.9,1.2,3.1,1.2,5.4v7.6c0,2-.9,3.1-3,3.7-.4.1-.8.2-1.1.2h0c-1.2,0-1.7-.7-1.7-2.2v-7.9l-2,.5Z"/>
          <path class="cls-85" d="M4.7-438.3h0c0-.1,4.8-45.6,4.8-45.6h0s3.4-.9,3.4-.9h0c0,0,4.9,43,4.9,43l-2.5.7h0c0,0-1.3-12.5-1.3-12.5l-5.7,1.5-1.3,13.2-2.3.6ZM9.7-483.8l-4.8,45.2,2-.5,1.3-13.2,6-1.6h0c0,0,1.3,12.5,1.3,12.5l2.2-.6-4.9-42.6-3.2.8ZM8.4-454h0c0-.1,1.5-15,1.5-15,.2-2.3.4-4.6.6-6.8.2-2.2.3-4.5.6-6.8h0c0,0,.3-.1.3-.1h0c0,3.7.5,7.2.9,10.7,0,.8.2,1.6.3,2.4l1.5,14.2-5.6,1.5ZM11.2-482.4c-.2,2.2-.4,4.4-.5,6.5-.2,2.2-.3,4.5-.6,6.8l-1.5,14.8,5.3-1.4-1.5-14c0-.8-.2-1.6-.3-2.4-.4-3.3-.8-6.8-.9-10.2Z"/>
          <path class="cls-85" d="M19.2-442.2v-44.3h0s3.6-1,3.6-1h0c0,0,4,27.5,4,27.5.4,3.1,1.1,7.7,1.9,12.9v-2c-.4-5.1-.6-9.5-.6-11.6v-28.2h0s2.5-.7,2.5-.7v44.3l-3.7,1h0c0,0-4.1-27.1-4.1-27.1-.3-1.9-.8-6.3-1.3-10.9l-.3-2.4c0,3.2.2,6.3.3,8.6,0,1.8.1,3.1.1,3.8v29.5l-2.5.7ZM19.4-486.4v44l2.2-.6v-29.4c0-.6,0-2-.1-3.8,0-2.4-.2-5.7-.3-9h0c0,0,.3-.1.3-.1h0c0,0,.3,2.9.3,2.9.5,4.6,1,9,1.3,10.9l4.1,26.9,3.4-.9v-44l-2.2.6v28c0,2.1.2,6.5.5,11.6v2.5c.1,0-.1,0-.1,0h0c-.8-5.5-1.5-10.2-1.9-13.4l-4-27.3-3.4.9Z"/>
        </g>
        <g>
          <path class="cls-22" d="M-69.6-463.5l5-1.3c3.5-.9,5.3,0,5.3,3.3v34.7c0,3.3-1.8,5.2-5.3,6.1l-5,1.3v-44.1ZM-64.8-422.5c2.1-.6,3.2-1.6,3.2-3.5v-35.1c0-1.9-1.1-2.4-3.2-1.8l-2.4.6v40.4l2.4-.6Z"/>
          <path class="cls-46" d="M-55.4-467.3l8.1-2.2v1.8l-5.7,1.5v18.7l5.4-1.4v1.8l-5.4,1.4v19.9l6.1-1.6v1.8l-8.5,2.3v-44.1Z"/>
          <path class="cls-47" d="M-44.4-470.2l5.3-1.4c2.8-.8,4.8,0,4.8,2.8v13c0,2.4-.6,4.3-3.7,5.3h0c2.1-.3,3.7.4,3.7,3.1v18.6l-2.4.6v-18.6c0-1.6-.9-2.9-3.2-2.3l-2.2.6v21.8l-2.4.6v-44.1ZM-39.8-450.9c2-.5,3.1-1.8,3.1-3.8v-13c0-1.9-1-2.5-2.9-2l-2.5.7v18.7l2.3-.6Z"/>
          <path class="cls-48" d="M-30.2-474l2.4-.6v44.1l-2.4.6v-44.1ZM-27.8-453.9l5.8-22.3,2.1-.6-5.8,22.3,6.4,21.6-2.4.6-6.2-21.7Z"/>
          <path class="cls-49" d="M-10.4-479.3l2.4-.6-4.9,28v17.4l-2.4.6v-17.4l-4.9-25.4,2.4-.6,3.7,22.9h.1s3.7-24.9,3.7-24.9Z"/>
          <path class="cls-51" d="M-4.8-441c0,1.5.5,2.5,2.7,2,2-.5,2.9-1.6,2.9-3.6v-7.6c0-2.3-.4-3.6-1.2-5.4l-5-8.4c-1-1.7-1.5-3.9-1.5-5.6v-6.4c0-2.9,1.9-5.1,4.9-5.9,3.2-.9,4.8,0,4.8,2.8v7.9l-2.1.6v-7.6c0-1.8-.9-2.3-2.5-1.8-1.7.4-2.5,1.8-2.5,3.3v6.8c0,1.5.3,2.7.9,4l4.8,8.3c1,1.8,1.8,3.7,1.8,6.2v8.3c0,2.8-1.4,4.9-5.1,5.9-3.7,1-5-.4-5-3.4v-7.8l2.1-.6v8Z"/>
          <path class="cls-62" d="M13.1-454.4l-5.8,1.6-1.3,13.2-2.1.6,4.8-45.4,3.3-.9,4.9,42.8-2.4.6-1.4-12.5ZM12.9-456.2l-1.5-14.1c-.5-4.3-1.1-8.6-1.2-13h-.1c-.5,4.6-.6,9.1-1.1,13.7l-1.5,14.9,5.4-1.5Z"/>
          <path class="cls-63" d="M18.2-487l3.5-1,4,27.4c.5,3.4,1.2,8.2,1.9,13.3h.1c-.3-6.1-.6-11.7-.6-14v-28.1l2.4-.6v44.1l-3.5.9-4.1-27c-.4-2.3-1-8.1-1.7-13.7h-.1c.1,5.7.4,11.3.4,12.8v29.5l-2.4.6v-44.1Z"/>
        </g>
        <line class="cls-14" x1="-69.6" y1="-414.4" x2="31" y2="-441.4"/>
        <line class="cls-14" x1="-69.9" y1="-467.7" x2="29.7" y2="-494.4"/>
      </g>
      <rect class="cls-64" x="-953.5" y="-235.9" width="98" height="98"/>
      <rect class="cls-9" x="-319" y="-342.4" width="128" height="46" rx="-125.2" ry="-125.2"/>
      <g>
        <g>
          <path class="cls-33" d="M-302.4-171.4v-53.2l6.1-1.6c1-.3,2-.4,2.7-.4,2.5,0,3.8,1.5,3.8,4.5v41.7c0,3.9-2.1,6.3-6.5,7.5l-6.1,1.6ZM-302.2-224.4v52.8l5.9-1.6c4.3-1.2,6.3-3.5,6.3-7.3v-41.7c0-2.9-1.2-4.3-3.6-4.3s-1.7.1-2.7.4l-6,1.6ZM-299.6-174.3v-48.8h0s2.9-.8,2.9-.8c.7-.2,1.2-.3,1.7-.3,1.5,0,2.2.8,2.2,2.6v42.1c0,2.3-1.2,3.6-3.9,4.3l-3,.8ZM-299.4-223v48.4l2.8-.7c2.6-.7,3.8-2,3.8-4.2v-42.1c0-1.6-.6-2.4-2-2.4s-1,0-1.7.3l-2.8.8Z"/>
          <path class="cls-33" d="M-285.3-176v-53.2h0s9.8-2.7,9.8-2.7v2.4h0s-6.8,1.8-6.8,1.8v22.3l6.5-1.7v2.4h0s-6.4,1.7-6.4,1.7v23.7l7.4-2v2.4h0s-10.3,2.8-10.3,2.8ZM-285.1-229v52.8l10-2.7v-2l-7.4,2v-24.1h0s6.4-1.7,6.4-1.7v-2l-6.5,1.7v-22.7h0s6.8-1.8,6.8-1.8v-2l-9.5,2.6Z"/>
          <path class="cls-33" d="M-272.2-179.5v-53.2l6.5-1.7c.8-.2,1.6-.3,2.2-.3,2.4,0,3.7,1.3,3.7,3.8v15.6c0,2.5-.5,5-4.2,6.4,2.8-.4,4.2.9,4.2,3.7v22.4h0s-3,.8-3,.8v-22.4c0-1.8-.9-2.9-2.5-2.9s-.8,0-1.3.2l-2.6.7v26.1l-3,.8ZM-272-232.5v52.8l2.6-.7v-26.1h0s2.6-.7,2.6-.7c.5-.1,1-.2,1.4-.2,1.7,0,2.6,1.1,2.6,3.1v22.2l2.6-.7v-22.2c0-2.4-1-3.6-3.1-3.6s-.8,0-1.2.1h-.1s0-.3,0-.3h0c3.8-1.4,4.3-3.8,4.3-6.3v-15.6c0-2.3-1.2-3.6-3.5-3.6s-1.4.1-2.2.3l-6.3,1.7ZM-269.4-208.6v-22.7h0s3-.8,3-.8c2.4-.6,3.6.2,3.6,2.5v15.6c0,2.4-1.3,4-3.8,4.6l-2.9.8ZM-269.2-231.1v22.3l2.6-.7c2.4-.6,3.7-2.2,3.7-4.4v-15.6c0-2.2-1.1-2.9-3.4-2.3l-3,.8Z"/>
          <path class="cls-33" d="M-255.1-184.1v-53.2h0s3-.8,3-.8v24.3l6.8-26.2,2.8-.7v.2s-7.1,26.8-7.1,26.8l7.7,26-3,.8h0c0,0-7.3-25.5-7.3-25.5v27.4l-3,.8ZM-254.9-237.1v52.8l2.7-.7v-52.8l-2.7.7ZM-252.1-213l7.4,25.9,2.7-.7-7.7-25.9h0s7-26.7,7-26.7l-2.3.6-7,26.8Z"/>
          <path class="cls-33" d="M-237.2-188.9v-21l-5.9-30.6,3-.8,4.4,27.5,4.4-29.8,3-.8h0c0,.1-5.9,33.8-5.9,33.8v21s-3,.8-3,.8ZM-242.9-240.3l5.9,30.4v20.8s2.6-.7,2.6-.7v-20.9l5.9-33.5-2.6.7-4.4,29.9h-.3c0,0-4.4-27.4-4.4-27.4l-2.7.7Z"/>
          <path class="cls-33" d="M-223.5-192.5c-1.3,0-2.2-.4-2.8-1.2-.6-.7-.8-1.8-.8-3.3v-9.5h0s2.7-.7,2.7-.7v9.7c0,1.7.6,2.5,1.9,2.5h0c.4,0,.8,0,1.3-.2,2.4-.6,3.4-1.9,3.4-4.2v-9.1c0-2.7-.5-4.2-1.5-6.4l-6-10.1c-1.1-1.9-1.9-4.5-1.9-6.7v-7.7c0-3.4,2.3-6.2,6-7.2,1-.3,1.8-.4,2.6-.4,2.3,0,3.4,1.3,3.4,3.8v9.5h0s-2.7.7-2.7.7v-9.3c0-2-.9-2.6-2.9-2.1-1.8.5-3,2-3,3.9v8.2c0,1.7.3,3.2,1.1,4.7l5.8,10c1.1,1.9,2.1,4.3,2.1,7.5v10c0,3.7-2,6-6.2,7.2-1,.3-1.8.4-2.5.4ZM-227-206.3v9.3c0,1.4.3,2.5.8,3.2.6.8,1.4,1.1,2.6,1.1s1.5-.1,2.5-.4c4.1-1.1,6-3.3,6-7v-10c0-3.1-1.1-5.5-2.1-7.4l-5.8-10c-.8-1.6-1.1-3.1-1.1-4.8v-8.2c0-2,1.2-3.6,3.1-4.1.5-.1.9-.2,1.2-.2,1.3,0,1.9.8,1.9,2.5v9.1l2.4-.6v-9.4c0-2.5-1-3.7-3.2-3.7s-1.6.1-2.5.4c-3.6,1-5.8,3.6-5.8,7v7.7c0,2.2.7,4.8,1.8,6.7l6,10.1c1,2.3,1.5,3.7,1.5,6.5v9.1c0,2.4-1.1,3.7-3.5,4.4-.5.1-.9.2-1.3.2h0c-1.4,0-2.1-.9-2.1-2.6v-9.5l-2.4.6Z"/>
          <path class="cls-33" d="M-214.3-195h0c0-.1,5.8-54.7,5.8-54.7h0s4.1-1.1,4.1-1.1h0c0,.1,5.9,51.6,5.9,51.6l-3,.8h0c0-.1-1.6-15.1-1.6-15.1l-6.8,1.8-1.6,15.9-2.7.7ZM-208.3-249.6l-5.7,54.3,2.4-.6,1.6-15.9,7.2-1.9h0c0,.1,1.6,15.1,1.6,15.1l2.6-.7-5.9-51.2-3.8,1ZM-209.9-213.9h0c0-.1,1.8-18,1.8-18,.3-2.7.5-5.5.7-8.2.2-2.7.4-5.5.7-8.2h0c0,0,.3-.2.3-.2h0c.1,4.4.6,8.7,1.1,12.8.1,1,.2,2,.3,2.9l1.8,17-6.7,1.8ZM-206.5-247.9c-.3,2.6-.5,5.3-.6,7.8-.2,2.7-.4,5.5-.7,8.2l-1.8,17.8,6.3-1.7-1.8-16.8c-.1-1-.2-2-.3-2.9-.5-4-.9-8.1-1.1-12.3Z"/>
          <path class="cls-33" d="M-196.9-199.7v-53.2h0s4.4-1.2,4.4-1.2h0c0,.1,4.8,33,4.8,33,.5,3.7,1.3,9.2,2.3,15.5v-2.5c-.4-6.2-.7-11.5-.7-14v-33.8h0s3-.8,3-.8v53.2l-4.4,1.2h0c0-.1-5-32.5-5-32.5-.4-2.3-1-7.6-1.6-13.1l-.3-2.9c0,3.8.2,7.5.3,10.3,0,2.1.1,3.8.1,4.5v35.5l-3,.8ZM-196.7-252.7v52.8l2.6-.7v-35.3c0-.7,0-2.4-.1-4.5-.1-2.9-.3-6.8-.3-10.8h0c0,0,.3-.2.3-.2h0c0,.1.4,3.5.4,3.5.6,5.6,1.2,10.8,1.6,13.1l5,32.3,4.1-1.1v-52.8l-2.6.7v33.7c0,2.5.3,7.8.6,13.9v3c.1,0-.2,0-.2,0h0c-1-6.6-1.8-12.2-2.3-16.1l-4.8-32.8-4.1,1.1Z"/>
        </g>
        <g>
          <path class="cls-33" d="M-303.5-225.2l6-1.6c4.2-1.1,6.4,0,6.4,3.9v41.7c0,4-2.2,6.2-6.4,7.4l-6,1.6v-53ZM-297.8-175.9c2.6-.7,3.8-2,3.8-4.3v-42.1c0-2.3-1.3-2.9-3.8-2.2l-2.9.8v48.6l2.9-.8Z"/>
          <path class="cls-33" d="M-286.5-229.8l9.7-2.6v2.2l-6.9,1.8v22.5l6.5-1.7v2.2l-6.5,1.7v23.9l7.4-2v2.2l-10.2,2.7v-53Z"/>
          <path class="cls-33" d="M-273.4-233.3l6.4-1.7c3.4-.9,5.8,0,5.8,3.4v15.6c0,2.9-.8,5.1-4.4,6.4h0c2.6-.3,4.4.5,4.4,3.7v22.3l-2.8.8v-22.3c0-2-1.1-3.5-3.9-2.8l-2.6.7v26.1l-2.8.8v-53ZM-267.8-210.1c2.4-.6,3.8-2.2,3.8-4.5v-15.6c0-2.3-1.2-3-3.5-2.4l-3,.8v22.5l2.8-.7Z"/>
          <path class="cls-33" d="M-256.2-237.9l2.8-.8v53l-2.8.8v-53ZM-253.4-213.7l7-26.8,2.6-.7-7,26.8,7.7,26-2.8.8-7.4-26Z"/>
          <path class="cls-33" d="M-232.4-244.3l2.8-.8-5.9,33.7v20.9l-2.8.8v-20.9l-5.9-30.5,2.8-.8,4.4,27.5h.1s4.4-29.9,4.4-29.9Z"/>
          <path class="cls-33" d="M-225.8-198.2c0,1.8.6,3.1,3.3,2.4,2.4-.6,3.5-1.9,3.5-4.3v-9.1c0-2.8-.5-4.3-1.5-6.4l-6-10.1c-1.2-2-1.8-4.6-1.8-6.7v-7.7c0-3.5,2.3-6.1,5.9-7.1,3.8-1,5.8,0,5.8,3.4v9.5l-2.6.7v-9.2c0-2.1-1.1-2.7-3-2.2-2,.5-3,2.2-3,4v8.2c0,1.8.4,3.2,1.1,4.8l5.8,10c1.2,2.2,2.1,4.5,2.1,7.4v10c0,3.4-1.6,5.9-6.1,7.1-4.4,1.2-6-.4-6-4v-9.4l2.6-.7v9.6Z"/>
          <path class="cls-33" d="M-204.3-214.3l-7,1.9-1.6,15.9-2.6.7,5.7-54.5,4-1.1,5.9,51.4-2.8.8-1.6-15.1ZM-204.5-216.4l-1.8-16.9c-.6-5.1-1.3-10.3-1.4-15.6h-.1c-.6,5.5-.8,11-1.3,16.4l-1.8,17.9,6.5-1.7Z"/>
          <path class="cls-33" d="M-198-253.5l4.3-1.1,4.8,32.9c.6,4,1.4,9.8,2.3,16h.1c-.4-7.3-.7-14-.7-16.9v-33.8l2.8-.8v53l-4.3,1.1-5-32.4c-.4-2.7-1.2-9.7-2-16.5h-.1c.1,6.9.5,13.6.5,15.3v35.4l-2.8.8v-53Z"/>
        </g>
        <line class="cls-16" x1="-303.6" y1="-166.2" x2="-182.7" y2="-198.6"/>
        <line class="cls-16" x1="-303.9" y1="-230.3" x2="-184.3" y2="-262.4"/>
      </g>
      <rect class="cls-34" x="-341" y="1513.6" width="1920" height="136"/>
      <text class="cls-4" transform="translate(1088.5 1584.7)"><tspan x="0" y="0">© 2025 All rights reserved.</tspan></text>
      <text class="cls-1" transform="translate(836.4 -252.3)"><tspan class="cls-27" x="0" y="0">Hola! Soy </tspan><tspan class="cls-84" x="124.4" y="0">Derky Sánchez</tspan></text>
      <text class="cls-5" transform="translate(220.5 -251.3)"><tspan x="0" y="0">APP</tspan></text>
      <text class="cls-5" transform="translate(220.5 -210.3)"><tspan x="0" y="0">DESIGN</tspan></text>
      <text class="cls-7" transform="translate(770.2 -206)"><tspan x="0" y="0">Desarrollador web dedicado a crear </tspan><tspan x="-51.8" y="36">soluciones digitales funcionales y atractivas.</tspan></text>
      <text class="cls-8" transform="translate(-527.6 -377.8)"><tspan x="0" y="0">derkysan.dev@gmail.com</tspan></text>
      <rect class="cls-10" x="-551" y="-409.5" width="359.5" height="53" rx="-151.7" ry="-151.7"/>
      <rect class="cls-50" x="-310" y="-406" width="115" height="46" rx="-157" ry="-157"/>
      <text class="cls-83" transform="translate(-275.2 -378.2)"><tspan x="0" y="0">Copiar</tspan></text>
      <circle class="cls-29" cx="638" cy="625.6" r="478"/>
      <g>
        <g>
          <path class="cls-85" d="M-171.5-205v-57.4l6.6-1.8c1.1-.3,2.1-.5,2.9-.5,2.7,0,4.1,1.6,4.1,4.8v45c0,4.2-2.2,6.8-7,8.1l-6.6,1.8ZM-171.3-262.2v57l6.4-1.7c4.6-1.2,6.8-3.7,6.8-7.9v-45c0-3.1-1.3-4.6-3.9-4.6s-1.8.1-2.9.4l-6.4,1.7ZM-168.4-208.2v-52.7h0s3.1-.9,3.1-.9c.7-.2,1.3-.3,1.9-.3,1.6,0,2.4.9,2.4,2.8v45.5c0,2.4-1.3,3.9-4.2,4.7l-3.3.9ZM-168.2-260.7v52.3l3-.8c2.8-.7,4.1-2.1,4.1-4.5v-45.5c0-1.7-.7-2.6-2.2-2.6s-1.1,0-1.8.3l-3.1.8Z"/>
          <path class="cls-85" d="M-153-209.9v-57.5h0s10.6-2.9,10.6-2.9v2.6h0s-7.3,2-7.3,2v24l7-1.9v2.6h0s-6.9,1.9-6.9,1.9v25.6l8-2.1v2.6h0s-11.2,3-11.2,3ZM-152.8-267.2v57l10.8-2.9v-2.2l-8,2.1v-26.1h0s6.9-1.9,6.9-1.9v-2.2l-7,1.9v-24.5h0s7.4-2,7.4-2v-2.2l-10.3,2.8Z"/>
          <path class="cls-85" d="M-138.9-213.7v-57.4l7-1.9c.9-.2,1.7-.4,2.4-.4,2.6,0,4,1.5,4,4.1v16.9c0,2.7-.6,5.4-4.6,6.9,3-.5,4.6.9,4.6,4v24.2h0s-3.2.9-3.2.9v-24.2c0-2-1-3.1-2.7-3.1s-.9,0-1.4.2l-2.8.7v28.2l-3.3.9ZM-138.7-271v57l2.9-.8v-28.2h0s2.8-.8,2.8-.8c.5-.1,1-.2,1.5-.2,1.8,0,2.9,1.2,2.9,3.3v24l2.9-.8v-24c0-2.6-1.1-3.9-3.3-3.9s-.8,0-1.3.1h-.1s0-.3,0-.3h0c4.1-1.5,4.7-4.1,4.7-6.8v-16.9c0-2.5-1.3-3.9-3.8-3.9s-1.5.1-2.4.4l-6.8,1.8ZM-135.8-245.1v-24.5h0s3.3-.9,3.3-.9c2.6-.7,3.9.2,3.9,2.7v16.9c0,2.5-1.4,4.3-4.1,5l-3.1.8ZM-135.6-269.4v24l2.9-.8c2.6-.7,4-2.4,4-4.8v-16.9c0-2.3-1.2-3.1-3.6-2.5l-3.2.9Z"/>
          <path class="cls-85" d="M-120.4-218.6v-57.5h0s3.2-.9,3.2-.9v26.3l7.4-28.3,3-.8v.2s-7.6,29-7.6,29l8.4,28.1-3.3.9h0c0,0-7.8-27.5-7.8-27.5v29.6l-3.3.9ZM-120.2-275.9v57l2.9-.8v-57l-2.9.8ZM-117.1-249.9l8,28,2.9-.8-8.3-28h0s7.5-28.8,7.5-28.8l-2.5.7-7.6,28.9Z"/>
          <path class="cls-85" d="M-101-223.8v-22.7l-6.4-33,3.3-.9,4.7,29.7,4.7-32.2,3.3-.9v.2s-6.4,36.3-6.4,36.3v22.7s-3.3.9-3.3.9ZM-107.2-279.4l6.3,32.8v22.5s2.9-.8,2.9-.8v-22.5l6.3-36.2-2.8.8-4.7,32.3h-.3c0,0-4.7-29.6-4.7-29.6l-2.9.8Z"/>
          <path class="cls-85" d="M-86.3-227.8c-1.4,0-2.4-.4-3-1.3-.6-.8-.9-2-.9-3.6v-10.2h0s2.9-.8,2.9-.8v10.5c0,1.8.6,2.7,2,2.7h0c.4,0,.9,0,1.4-.2,2.6-.7,3.7-2,3.7-4.6v-9.8c0-2.9-.5-4.5-1.6-6.9l-6.4-10.9c-1.2-2.1-2-4.9-2-7.3v-8.3c0-3.7,2.5-6.7,6.4-7.7,1.1-.3,2-.4,2.8-.4,2.4,0,3.6,1.4,3.6,4.2v10.3h0s-2.9.8-2.9.8v-10c0-2.2-1-2.9-3.2-2.3-2,.5-3.2,2.2-3.2,4.2v8.9c0,1.8.4,3.4,1.2,5.1l6.3,10.8c1.1,2.1,2.3,4.6,2.3,8.1v10.8c0,4-2.2,6.5-6.7,7.7-1,.3-1.9.4-2.7.4ZM-90-242.7v10.1c0,1.6.3,2.7.9,3.5.6.8,1.5,1.2,2.9,1.2s1.7-.1,2.7-.4c4.4-1.2,6.5-3.6,6.5-7.5v-10.8c0-3.4-1.2-5.9-2.3-8l-6.3-10.8c-.9-1.7-1.2-3.3-1.2-5.2v-8.9c0-2.1,1.3-3.8,3.4-4.4.5-.1.9-.2,1.3-.2,1.4,0,2.1.9,2.1,2.7v9.8l2.6-.7v-10.1c0-2.7-1.1-4-3.4-4s-1.7.1-2.7.4c-3.9,1-6.3,3.9-6.3,7.5v8.3c0,2.4.8,5.1,2,7.2l6.4,10.9c1.1,2.4,1.6,4,1.6,7v9.8c0,2.6-1.1,4-3.8,4.8-.5.1-1,.2-1.4.2h0c-1.5,0-2.2-.9-2.2-2.9v-10.3l-2.6.7Z"/>
          <path class="cls-85" d="M-76.3-230.5h0c0-.1,6.2-59.1,6.2-59.1h0s4.4-1.2,4.4-1.2h0c0,.1,6.4,55.7,6.4,55.7l-3.3.9h0c0-.1-1.7-16.3-1.7-16.3l-7.4,2-1.7,17.2-3,.8ZM-69.9-289.4l-6.2,58.7,2.5-.7,1.7-17.2,7.8-2.1h0c0,.1,1.7,16.3,1.7,16.3l2.9-.8-6.3-55.3-4.1,1.1ZM-71.5-250.8h0c0-.1,2-19.5,2-19.5.3-2.9.5-5.9.7-8.8.2-2.9.4-5.9.7-8.8h0c0,0,.3-.2.3-.2h0c.1,4.8.7,9.4,1.2,13.8.1,1.1.2,2.1.4,3.2l1.9,18.4-7.3,1.9ZM-67.9-287.6c-.3,2.8-.5,5.7-.7,8.5-.2,2.9-.4,5.9-.7,8.8l-2,19.2,6.8-1.8-1.9-18.2c-.1-1.1-.2-2.1-.4-3.2-.5-4.3-1-8.8-1.2-13.3Z"/>
          <path class="cls-85" d="M-57.5-235.5v-57.5h0s4.7-1.3,4.7-1.3h0c0,.1,5.2,35.7,5.2,35.7.6,4,1.4,10,2.5,16.8v-2.7c-.5-6.6-.7-12.4-.7-15.1v-36.5h0s3.2-.9,3.2-.9v57.5l-4.8,1.3h0c0-.1-5.4-35.1-5.4-35.1-.4-2.5-1-8.2-1.7-14.2l-.4-3.1c0,4.1.2,8.1.4,11.1,0,2.3.2,4.1.2,4.9v38.3l-3.3.9ZM-57.3-292.8v57l2.9-.8v-38.1c0-.8,0-2.6-.2-4.9-.1-3.1-.3-7.4-.4-11.6h0c0,0,.3-.2.3-.2h0c0,.1.4,3.8.4,3.8.7,6,1.3,11.7,1.7,14.2l5.3,34.9,4.4-1.2v-57l-2.9.8v36.4c0,2.7.3,8.4.6,15.1l.2,3.2h-.3c0,0,0,0,0,0-1-7-1.9-13.1-2.5-17.2l-5.2-35.4-4.4,1.2Z"/>
        </g>
        <g>
          <path class="cls-53" d="M-172.7-263.1l6.5-1.7c4.5-1.2,6.9,0,6.9,4.3v45c0,4.3-2.4,6.7-6.9,7.9l-6.5,1.7v-57.2ZM-166.5-209.9c2.8-.7,4.1-2.1,4.1-4.6v-45.5c0-2.5-1.4-3.1-4.1-2.4l-3.1.8v52.5l3.1-.8Z"/>
          <path class="cls-52" d="M-154.3-268l10.5-2.8v2.4l-7.4,2v24.3l7-1.9v2.4l-7,1.9v25.8l8-2.1v2.4l-11,3v-57.2Z"/>
          <path class="cls-54" d="M-140.1-271.8l6.9-1.8c3.7-1,6.3,0,6.3,3.6v16.9c0,3.1-.8,5.5-4.7,6.9v.2c2.8-.5,4.7.4,4.7,3.9v24.1l-3.1.8v-24.1c0-2.1-1.1-3.8-4.2-3l-2.8.8v28.2l-3.1.8v-57.2ZM-134-246.8c2.6-.7,4.1-2.4,4.1-4.9v-16.9c0-2.5-1.3-3.2-3.8-2.6l-3.3.9v24.3l3-.8Z"/>
          <path class="cls-55" d="M-121.6-276.8l3.1-.8v57.2l-3.1.8v-57.2ZM-118.5-250.6l7.6-29,2.8-.7-7.6,29,8.3,28.1-3.1.8-8-28.1Z"/>
          <path class="cls-70" d="M-95.9-283.7l3.1-.8-6.4,36.3v22.6l-3.1.8v-22.6l-6.4-32.9,3.1-.8,4.7,29.7h.2s4.7-32.3,4.7-32.3Z"/>
          <path class="cls-57" d="M-88.7-233.9c0,1.9.7,3.3,3.5,2.5,2.6-.7,3.8-2,3.8-4.7v-9.8c0-3-.5-4.6-1.6-6.9l-6.4-10.9c-1.3-2.2-2-5-2-7.2v-8.3c0-3.7,2.5-6.6,6.4-7.6,4.1-1.1,6.3,0,6.3,3.6v10.2l-2.8.7v-9.9c0-2.3-1.1-2.9-3.3-2.4-2.1.6-3.3,2.4-3.3,4.3v8.9c0,1.9.4,3.5,1.2,5.1l6.3,10.8c1.3,2.3,2.3,4.9,2.3,8v10.8c0,3.6-1.8,6.3-6.6,7.6-4.7,1.3-6.5-.5-6.5-4.4v-10.1l2.8-.7v10.4Z"/>
          <path class="cls-71" d="M-65.5-251.3l-7.6,2-1.7,17.2-2.8.7,6.2-58.9,4.3-1.1,6.4,55.5-3.1.8-1.8-16.3ZM-65.7-253.6l-1.9-18.3c-.6-5.5-1.4-11.1-1.5-16.9h-.2c-.6,5.9-.8,11.8-1.5,17.7l-2,19.3,7-1.9Z"/>
          <path class="cls-69" d="M-58.7-293.6l4.6-1.2,5.2,35.6c.6,4.4,1.5,10.6,2.5,17.2h.2c-.4-7.9-.8-15.1-.8-18.2v-36.5l3.1-.8v57.2l-4.6,1.2-5.4-35c-.5-3-1.3-10.5-2.1-17.8h-.2c.2,7.4.5,14.6.5,16.5v38.2l-3.1.8v-57.2Z"/>
        </g>
        <line class="cls-14" x1="-172.8" y1="-199.4" x2="-42.2" y2="-234.4"/>
        <line class="cls-14" x1="-173.1" y1="-268.6" x2="-43.9" y2="-303.2"/>
      </g>
      <g>
        <g>
          <path class="cls-85" d="M-170.5-205v-57.4l6.6-1.8c1.1-.3,2.1-.5,2.9-.5,2.7,0,4.1,1.6,4.1,4.8v45c0,4.2-2.2,6.8-7,8.1l-6.6,1.8ZM-170.3-262.2v57l6.4-1.7c4.6-1.2,6.8-3.7,6.8-7.9v-45c0-3.1-1.3-4.6-3.9-4.6s-1.8.1-2.9.4l-6.4,1.7ZM-167.4-208.2v-52.7h0s3.1-.9,3.1-.9c.7-.2,1.3-.3,1.9-.3,1.6,0,2.4.9,2.4,2.8v45.5c0,2.4-1.3,3.9-4.2,4.7l-3.3.9ZM-167.2-260.7v52.3l3-.8c2.8-.7,4.1-2.1,4.1-4.5v-45.5c0-1.7-.7-2.6-2.2-2.6s-1.1,0-1.8.3l-3.1.8Z"/>
          <path class="cls-85" d="M-152-209.9v-57.5h0s10.6-2.9,10.6-2.9v2.6h0s-7.3,2-7.3,2v24l7-1.9v2.6h0s-6.9,1.9-6.9,1.9v25.6l8-2.1v2.6h0s-11.2,3-11.2,3ZM-151.8-267.2v57l10.8-2.9v-2.2l-8,2.1v-26.1h0s6.9-1.9,6.9-1.9v-2.2l-7,1.9v-24.5h0s7.4-2,7.4-2v-2.2l-10.3,2.8Z"/>
          <path class="cls-85" d="M-137.9-213.7v-57.4l7-1.9c.9-.2,1.7-.4,2.4-.4,2.6,0,4,1.5,4,4.1v16.9c0,2.7-.6,5.4-4.6,6.9,3-.5,4.6.9,4.6,4v24.2h0s-3.2.9-3.2.9v-24.2c0-2-1-3.1-2.7-3.1s-.9,0-1.4.2l-2.8.7v28.2l-3.3.9ZM-137.7-271v57l2.9-.8v-28.2h0s2.8-.8,2.8-.8c.5-.1,1-.2,1.5-.2,1.8,0,2.9,1.2,2.9,3.3v24l2.9-.8v-24c0-2.6-1.1-3.9-3.3-3.9s-.8,0-1.3.1h-.1s0-.3,0-.3h0c4.1-1.5,4.7-4.1,4.7-6.8v-16.9c0-2.5-1.3-3.9-3.8-3.9s-1.5.1-2.4.4l-6.8,1.8ZM-134.8-245.1v-24.5h0s3.3-.9,3.3-.9c2.6-.7,3.9.2,3.9,2.7v16.9c0,2.5-1.4,4.3-4.1,5l-3.1.8ZM-134.6-269.4v24l2.9-.8c2.6-.7,4-2.4,4-4.8v-16.9c0-2.3-1.2-3.1-3.6-2.5l-3.2.9Z"/>
          <path class="cls-85" d="M-119.4-218.6v-57.5h0s3.2-.9,3.2-.9v26.3l7.4-28.3,3-.8v.2s-7.6,29-7.6,29l8.4,28.1-3.3.9h0c0,0-7.8-27.5-7.8-27.5v29.6l-3.3.9ZM-119.2-275.9v57l2.9-.8v-57l-2.9.8ZM-116.1-249.9l8,28,2.9-.8-8.3-28h0s7.5-28.8,7.5-28.8l-2.5.7-7.6,28.9Z"/>
          <path class="cls-85" d="M-100-223.8v-22.7l-6.4-33,3.3-.9,4.7,29.7,4.7-32.2,3.3-.9v.2s-6.4,36.3-6.4,36.3v22.7s-3.3.9-3.3.9ZM-106.2-279.4l6.3,32.8v22.5s2.9-.8,2.9-.8v-22.5l6.3-36.2-2.8.8-4.7,32.3h-.3c0,0-4.7-29.6-4.7-29.6l-2.9.8Z"/>
          <path class="cls-85" d="M-85.3-227.8c-1.4,0-2.4-.4-3-1.3-.6-.8-.9-2-.9-3.6v-10.2h0s2.9-.8,2.9-.8v10.5c0,1.8.6,2.7,2,2.7h0c.4,0,.9,0,1.4-.2,2.6-.7,3.7-2,3.7-4.6v-9.8c0-2.9-.5-4.5-1.6-6.9l-6.4-10.9c-1.2-2.1-2-4.9-2-7.3v-8.3c0-3.7,2.5-6.7,6.4-7.7,1.1-.3,2-.4,2.8-.4,2.4,0,3.6,1.4,3.6,4.2v10.3h0s-2.9.8-2.9.8v-10c0-2.2-1-2.9-3.2-2.3-2,.5-3.2,2.2-3.2,4.2v8.9c0,1.8.4,3.4,1.2,5.1l6.3,10.8c1.1,2.1,2.3,4.6,2.3,8.1v10.8c0,4-2.2,6.5-6.7,7.7-1,.3-1.9.4-2.7.4ZM-89-242.7v10.1c0,1.6.3,2.7.9,3.5.6.8,1.5,1.2,2.9,1.2s1.7-.1,2.7-.4c4.4-1.2,6.5-3.6,6.5-7.5v-10.8c0-3.4-1.2-5.9-2.3-8l-6.3-10.8c-.9-1.7-1.2-3.3-1.2-5.2v-8.9c0-2.1,1.3-3.8,3.4-4.4.5-.1.9-.2,1.3-.2,1.4,0,2.1.9,2.1,2.7v9.8l2.6-.7v-10.1c0-2.7-1.1-4-3.4-4s-1.7.1-2.7.4c-3.9,1-6.3,3.9-6.3,7.5v8.3c0,2.4.8,5.1,2,7.2l6.4,10.9c1.1,2.4,1.6,4,1.6,7v9.8c0,2.6-1.1,4-3.8,4.8-.5.1-1,.2-1.4.2h0c-1.5,0-2.2-.9-2.2-2.9v-10.3l-2.6.7Z"/>
          <path class="cls-85" d="M-75.3-230.5h0c0-.1,6.2-59.1,6.2-59.1h0s4.4-1.2,4.4-1.2h0c0,.1,6.4,55.7,6.4,55.7l-3.3.9h0c0-.1-1.7-16.3-1.7-16.3l-7.4,2-1.7,17.2-3,.8ZM-68.9-289.4l-6.2,58.7,2.5-.7,1.7-17.2,7.8-2.1h0c0,.1,1.7,16.3,1.7,16.3l2.9-.8-6.3-55.3-4.1,1.1ZM-70.5-250.8h0c0-.1,2-19.5,2-19.5.3-2.9.5-5.9.7-8.8.2-2.9.4-5.9.7-8.8h0c0,0,.3-.2.3-.2h0c.1,4.8.7,9.4,1.2,13.8.1,1.1.2,2.1.4,3.2l1.9,18.4-7.3,1.9ZM-66.9-287.6c-.3,2.8-.5,5.7-.7,8.5-.2,2.9-.4,5.9-.7,8.8l-2,19.2,6.8-1.8-1.9-18.2c-.1-1.1-.2-2.1-.4-3.2-.5-4.3-1-8.8-1.2-13.3Z"/>
          <path class="cls-85" d="M-56.5-235.5v-57.5h0s4.7-1.3,4.7-1.3h0c0,.1,5.2,35.7,5.2,35.7.6,4,1.4,10,2.5,16.8v-2.7c-.5-6.6-.7-12.4-.7-15.1v-36.5h0s3.2-.9,3.2-.9v57.5l-4.8,1.3h0c0-.1-5.4-35.1-5.4-35.1-.4-2.5-1-8.2-1.7-14.2l-.4-3.1c0,4.1.2,8.1.4,11.1,0,2.3.2,4.1.2,4.9v38.3l-3.3.9ZM-56.3-292.8v57l2.9-.8v-38.1c0-.8,0-2.6-.2-4.9-.1-3.1-.3-7.4-.4-11.6h0c0,0,.3-.2.3-.2h0c0,.1.4,3.8.4,3.8.7,6,1.3,11.7,1.7,14.2l5.3,34.9,4.4-1.2v-57l-2.9.8v36.4c0,2.7.3,8.4.6,15.1l.2,3.2h-.3c0,0,0,0,0,0-1-7-1.9-13.1-2.5-17.2l-5.2-35.4-4.4,1.2Z"/>
        </g>
        <g>
          <path class="cls-56" d="M-171.7-263.1l6.5-1.7c4.5-1.2,6.9,0,6.9,4.3v45c0,4.3-2.4,6.7-6.9,7.9l-6.5,1.7v-57.2ZM-165.5-209.9c2.8-.7,4.1-2.1,4.1-4.6v-45.5c0-2.5-1.4-3.1-4.1-2.4l-3.1.8v52.5l3.1-.8Z"/>
          <path class="cls-72" d="M-153.3-268l10.5-2.8v2.4l-7.4,2v24.3l7-1.9v2.4l-7,1.9v25.8l8-2.1v2.4l-11,3v-57.2Z"/>
          <path class="cls-61" d="M-139.1-271.8l6.9-1.8c3.7-1,6.3,0,6.3,3.6v16.9c0,3.1-.8,5.5-4.7,6.9v.2c2.8-.5,4.7.4,4.7,3.9v24.1l-3.1.8v-24.1c0-2.1-1.1-3.8-4.2-3l-2.8.8v28.2l-3.1.8v-57.2ZM-133-246.8c2.6-.7,4.1-2.4,4.1-4.9v-16.9c0-2.5-1.3-3.2-3.8-2.6l-3.3.9v24.3l3-.8Z"/>
          <path class="cls-59" d="M-120.6-276.8l3.1-.8v57.2l-3.1.8v-57.2ZM-117.5-250.6l7.6-29,2.8-.7-7.6,29,8.3,28.1-3.1.8-8-28.1Z"/>
          <path class="cls-58" d="M-94.9-283.7l3.1-.8-6.4,36.3v22.6l-3.1.8v-22.6l-6.4-32.9,3.1-.8,4.7,29.7h.2s4.7-32.3,4.7-32.3Z"/>
          <path class="cls-60" d="M-87.7-233.9c0,1.9.7,3.3,3.5,2.5,2.6-.7,3.8-2,3.8-4.7v-9.8c0-3-.5-4.6-1.6-6.9l-6.4-10.9c-1.3-2.2-2-5-2-7.2v-8.3c0-3.7,2.5-6.6,6.4-7.6,4.1-1.1,6.3,0,6.3,3.6v10.2l-2.8.7v-9.9c0-2.3-1.1-2.9-3.3-2.4-2.1.6-3.3,2.4-3.3,4.3v8.9c0,1.9.4,3.5,1.2,5.1l6.3,10.8c1.3,2.3,2.3,4.9,2.3,8v10.8c0,3.6-1.8,6.3-6.6,7.6-4.7,1.3-6.5-.5-6.5-4.4v-10.1l2.8-.7v10.4Z"/>
          <path class="cls-66" d="M-64.5-251.3l-7.6,2-1.7,17.2-2.8.7,6.2-58.9,4.3-1.1,6.4,55.5-3.1.8-1.8-16.3ZM-64.7-253.6l-1.9-18.3c-.6-5.5-1.4-11.1-1.5-16.9h-.2c-.6,5.9-.8,11.8-1.5,17.7l-2,19.3,7-1.9Z"/>
          <path class="cls-65" d="M-57.7-293.6l4.6-1.2,5.2,35.6c.6,4.4,1.5,10.6,2.5,17.2h.2c-.4-7.9-.8-15.1-.8-18.2v-36.5l3.1-.8v57.2l-4.6,1.2-5.4-35c-.5-3-1.3-10.5-2.1-17.8h-.2c.2,7.4.5,14.6.5,16.5v38.2l-3.1.8v-57.2Z"/>
        </g>
        <line class="cls-14" x1="-171.8" y1="-199.4" x2="-41.2" y2="-234.4"/>
        <line class="cls-14" x1="-172.1" y1="-268.6" x2="-42.9" y2="-303.2"/>
      </g>
      <g>
        <path class="cls-85" d="M-600.2-125.4c-4.2,0-7.3-1.3-9.3-3.9-1.9-2.5-2.8-6.1-2.8-11v-31.4h.2c0,0,8.9-2.4,8.9-2.4v32.3c0,5.6,2,8.1,6.2,8.1h0c1.2,0,2.6-.2,4.2-.6,8-2.2,11.3-6.2,11.3-14v-30.2c0-9-1.5-13.8-4.9-21.2l-19.7-33.4c-3.8-6.4-6.2-15-6.2-22.4v-25.6c0-11.4,7.6-20.5,19.8-23.8,3.3-.9,6.1-1.3,8.5-1.3,7.5,0,11.2,4.2,11.2,12.8v31.7h-.2c0,0-8.9,2.4-8.9,2.4v-30.8c0-6.6-3-8.8-9.7-7-6,1.6-9.9,6.7-9.9,12.9v27.3c0,5.7,1.1,10.5,3.7,15.7l19.3,33c3.5,6.3,7.1,14.2,7.1,24.8v33.1c0,12.3-6.7,20.1-20.5,23.7-3.2.8-6,1.3-8.3,1.3ZM-611.6-171.3v30.9c0,4.8.9,8.3,2.6,10.6,1.9,2.5,4.8,3.7,8.8,3.7s5.1-.4,8.2-1.3c13.6-3.7,20-11,20-23.1v-33.1c0-10.4-3.5-18.2-7-24.5l-19.3-33.1c-2.6-5.3-3.8-10.2-3.8-15.9v-27.3c0-6.5,4.1-11.8,10.3-13.5,1.5-.4,2.9-.6,4.1-.6,4.3,0,6.4,2.7,6.4,8.2v30l7.8-2.1v-31.2c0-8.2-3.4-12.1-10.5-12.1s-5.2.4-8.4,1.3c-11.9,3.2-19.3,12.1-19.3,23.2v25.6c0,7.3,2.3,15.8,6.1,22.1l19.8,33.4c3.5,7.5,5,12.4,5,21.5v30.2c0,8-3.5,12.4-11.8,14.6-1.6.4-3.1.7-4.3.7h0c-4.6,0-6.9-2.9-6.9-8.8v-31.5l-7.8,2.1Z"/>
        <path class="cls-85" d="M-569.5-133.7v-.5s19.1-181.2,19.1-181.2h.2c0,0,13.5-3.7,13.5-3.7v.4s19.6,170.9,19.6,170.9l-10,2.7v-.4s-5.4-49.6-5.4-49.6l-22.7,6.1-5.2,52.8-9.1,2.4ZM-549.8-314.8l-19,180.3,7.8-2.1,5.2-52.8,23.8-6.4v.4s5.4,49.6,5.4,49.6l8.8-2.4-19.4-170-12.6,3.4ZM-554.9-196.3v-.4s6.2-59.4,6.2-59.4c.9-9,1.6-18.2,2.2-27.1.6-8.9,1.3-18.1,2.2-27.2v-.2s1.1-.3,1.1-.3v.4c.4,14.3,2,28.4,3.6,42.1.4,3.3.8,6.5,1.1,9.7l5.9,56.4-22.3,6ZM-543.7-309.2c-.9,8.6-1.5,17.5-2.1,26-.6,8.9-1.3,18.1-2.2,27.2l-6.1,58.9,20.9-5.6-5.9-55.9c-.4-3.2-.7-6.5-1.1-9.7-1.5-13.3-3.1-27-3.6-40.9Z"/>
        <path class="cls-85" d="M-511.8-149.1v-176.5h.2c0,0,14.5-3.9,14.5-3.9v.3c0,0,16,109.2,16,109.2,1.7,12.4,4.4,30.6,7.5,51.5l-.4-8.1c-1-20.4-1.9-38.1-1.9-46.3v-112.3h.2c0,0,9.8-2.7,9.8-2.7v176.5l-14.7,3.9v-.3c0,0-16.5-107.6-16.5-107.6-1.2-7.6-3.2-25.1-5.3-43.6l-1.1-9.5c.3,12.6.8,25,1.1,34.1.3,7,.5,12.5.5,15v117.6l-10,2.7ZM-511.1-325.1v175.2l8.8-2.4v-117.1c0-2.5-.2-8-.5-15-.4-9.5-.9-22.6-1.2-35.7v-.2s1.1-.3,1.1-.3v.4s1.3,11.2,1.3,11.2c2.1,18.5,4.1,36,5.3,43.6l16.4,107.3,13.5-3.6v-175.2l-8.8,2.4v111.8c0,8.2.9,25.8,1.9,46.3l.5,9.9-1,.3v-.3c-3.3-21.5-6-40.3-7.8-53l-15.9-108.9-13.5,3.6Z"/>
        <path class="cls-67" d="M-607.5-144.2c0,5.8,2.1,10.1,10.8,7.8,8-2.1,11.5-6.3,11.5-14.3v-30.2c0-9.3-1.7-14.2-4.9-21.3l-19.8-33.4c-4-6.7-6.1-15.4-6.1-22.2v-25.6c0-11.4,7.5-20.3,19.5-23.5,12.7-3.4,19.3-.3,19.3,11.1v31.4l-8.5,2.3v-30.4c0-7.1-3.5-9-10.1-7.3-6.6,1.8-10.1,7.3-10.1,13.2v27.3c0,5.8,1.2,10.6,3.8,15.8l19.3,33.1c4,7.2,7.1,14.9,7.1,24.7v33.1c0,11.2-5.4,19.5-20.2,23.4-14.6,3.9-20-1.5-20-13.4v-31.2l8.5-2.3v31.9Z"/>
        <path class="cls-73" d="M-536.2-197.7l-23.3,6.2-5.2,52.8-8.5,2.3,19.1-180.9,13.2-3.5,19.5,170.6-9.4,2.5-5.4-49.9ZM-536.9-204.8l-5.9-56.1c-1.9-17-4.2-34.2-4.7-51.8h-.5c-1.9,18.2-2.6,36.4-4.5,54.4l-6.1,59.4,21.6-5.8Z"/>
        <path class="cls-68" d="M-515.5-327.7l14.1-3.8,16,109.2c1.9,13.4,4.7,32.6,7.8,53h.5c-1.2-24.2-2.3-46.5-2.3-56v-112l9.4-2.5v175.8l-14.1,3.8-16.5-107.6c-1.4-9.1-4-32.3-6.6-54.7h-.5c.5,22.9,1.6,45,1.6,50.8v117.4l-9.4,2.5v-175.8Z"/>
        <line class="cls-13" x1="-615" y1="-105.5" x2="-464.1" y2="-146"/>
        <line class="cls-13" x1="-615.8" y1="-316.1" x2="-467.4" y2="-355.9"/>
      </g>
      <g>
        <text class="cls-8" transform="translate(22.4 408.2)"><tspan x="0" y="0">derkysan.dev@gmail.com</tspan></text>
        <rect class="cls-15" x="6.5" y="375.3" width="275" height="53" rx="25" ry="25"/>
        <g>
          <circle class="cls-15" cx="254.5" cy="402.1" r="21"/>
          <rect class="cls-15" x="233.5" y="381.1" width="42" height="42"/>
        </g>
      </g>
      <g>
        <circle class="cls-15" cx="1197.5" cy="402.1" r="21"/>
        <rect class="cls-15" x="1176.5" y="381.1" width="42" height="42"/>
      </g>
      <g>
        <circle class="cls-15" cx="1137.5" cy="402.1" r="21"/>
        <rect class="cls-15" x="1116.5" y="381.1" width="42" height="42"/>
      </g>
      <text class="cls-6" transform="translate(106.3 -516)"><tspan x="0" y="0">Desarrollador web dedicado a crear soluciones </tspan><tspan x="13.3" y="31.2">digitales funcionales, eficientes y atractivas. </tspan></text>
      <text class="cls-2" transform="translate(18 -144.1)"><tspan x="0" y="0">eficientes, funcionales e innovadoras.</tspan></text>
      <text class="cls-2" transform="translate(18 -176)"><tspan x="0" y="0">Desarrollo web profesional para soluciones digitales </tspan></text>
      <rect class="cls-26" x="-341" y="1109.6" width="1920" height="404"/>
      <line class="cls-12" x1="1579" y1="1513.6" x2="-364.5" y2="1513.6"/>
      <polygon class="cls-37" points="-341 334.6 1583 334.6 1583 330.6 -341 330.6 -341 334.6 -341 334.6"/>
      <text class="cls-32" transform="translate(316 1244.7)"><tspan x="0" y="0">Tienes algún proyecto en mente,</tspan><tspan x="161" y="48">Conversemos!</tspan></text>
      <g>
        <circle class="cls-15" cx="638.6" cy="1386.7" r="30.9"/>
        <rect class="cls-15" x="607.7" y="1355.8" width="61.8" height="61.8"/>
      </g>
      <g>
        <circle class="cls-15" cx="550.4" cy="1386.7" r="30.9"/>
        <rect class="cls-15" x="519.5" y="1355.8" width="61.8" height="61.8"/>
      </g>
      <rect class="cls-34" x="-10" y="353.6" width="305" height="95"/>
      <path class="cls-85" d="M29.4,280.5c-1.1,0-1.9-.3-2.4-1-.5-.6-.7-1.5-.7-2.8v-8h0s2.3-.6,2.3-.6v8.2c0,1.4.5,2.1,1.6,2.1h0c.3,0,.7,0,1.1-.2,2-.5,2.9-1.6,2.9-3.6v-7.7c0-2.3-.4-3.5-1.3-5.4l-5-8.5c-1-1.6-1.6-3.8-1.6-5.7v-6.5c0-2.9,1.9-5.2,5-6.1.8-.2,1.6-.3,2.2-.3,1.9,0,2.8,1.1,2.8,3.2v8h0s-2.3.6-2.3.6v-7.8c0-1.7-.8-2.2-2.5-1.8-1.5.4-2.5,1.7-2.5,3.3v6.9c0,1.4.3,2.7.9,4l4.9,8.4c.9,1.6,1.8,3.6,1.8,6.3v8.4c0,3.1-1.7,5.1-5.2,6-.8.2-1.5.3-2.1.3ZM26.5,268.9v7.9c0,1.2.2,2.1.7,2.7.5.6,1.2.9,2.2.9s1.3-.1,2.1-.3c3.5-.9,5.1-2.8,5.1-5.9v-8.4c0-2.7-.9-4.6-1.8-6.2l-4.9-8.4c-.7-1.3-1-2.6-1-4.1v-6.9c0-1.7,1-3,2.6-3.4.4-.1.7-.2,1-.2,1.1,0,1.6.7,1.6,2.1v7.6l2-.5v-7.9c0-2.1-.9-3.1-2.7-3.1s-1.3.1-2.1.3c-3,.8-4.9,3.1-4.9,5.9v6.5c0,1.9.6,4,1.5,5.6l5,8.5c.9,1.9,1.3,3.1,1.3,5.5v7.7c0,2-.9,3.2-3,3.7-.4.1-.8.2-1.1.2h0c-1.2,0-1.7-.7-1.7-2.2v-8l-2,.5Z"/>
      <path class="cls-85" d="M37.3,278.4h0c0-.1,4.9-46.2,4.9-46.2h0s3.4-.9,3.4-.9h0c0,0,5,43.5,5,43.5l-2.5.7h0c0,0-1.4-12.7-1.4-12.7l-5.8,1.5-1.3,13.4-2.3.6ZM42.3,232.4l-4.8,45.8,2-.5,1.3-13.4,6.1-1.6h0c0,0,1.4,12.7,1.4,12.7l2.2-.6-4.9-43.2-3.2.9ZM41,262.5h0c0-.1,1.6-15.2,1.6-15.2.2-2.3.4-4.6.6-6.9.2-2.3.3-4.6.6-6.9h0c0,0,.3-.1.3-.1h0c0,3.7.5,7.3.9,10.8,0,.8.2,1.6.3,2.5l1.5,14.3-5.7,1.5ZM43.8,233.8c-.2,2.2-.4,4.4-.5,6.6-.2,2.3-.3,4.6-.6,6.9l-1.5,15,5.3-1.4-1.5-14.2c0-.8-.2-1.6-.3-2.5-.4-3.4-.8-6.9-.9-10.4Z"/>
      <path class="cls-85" d="M51.9,274.5v-44.9h0s3.7-1,3.7-1h0c0,0,4.1,27.9,4.1,27.9.4,3.2,1.1,7.8,1.9,13.1v-2.1c-.4-5.2-.6-9.7-.6-11.8v-28.6h0s2.5-.7,2.5-.7v44.9l-3.7,1h0c0,0-4.2-27.5-4.2-27.5-.3-1.9-.8-6.4-1.4-11.1l-.3-2.4c0,3.2.2,6.4.3,8.7,0,1.8.1,3.2.1,3.8v29.9l-2.6.7ZM52.1,229.8v44.6l2.2-.6v-29.8c0-.6,0-2-.1-3.8,0-2.4-.2-5.7-.3-9.1h0c0,0,.3-.1.3-.1h0c0,0,.3,2.9.3,2.9.5,4.7,1,9.1,1.3,11.1l4.2,27.3,3.4-.9v-44.5l-2.2.6v28.4c0,2.1.2,6.6.5,11.8v2.5c.1,0-.1,0-.1,0h0c-.8-5.5-1.5-10.3-2-13.6l-4.1-27.7-3.4.9Z"/>
      <path class="cls-38" d="M27.6,275.8c0,1.5.5,2.6,2.8,2,2-.5,2.9-1.6,2.9-3.6v-7.7c0-2.4-.4-3.6-1.3-5.4l-5-8.5c-1-1.7-1.6-3.9-1.6-5.7v-6.5c0-2.9,1.9-5.2,5-6,3.2-.9,4.9,0,4.9,2.8v8l-2.2.6v-7.7c0-1.8-.9-2.3-2.6-1.9-1.7.5-2.6,1.9-2.6,3.4v6.9c0,1.5.3,2.7,1,4l4.9,8.4c1,1.8,1.8,3.8,1.8,6.3v8.4c0,2.8-1.4,5-5.1,6-3.7,1-5.1-.4-5.1-3.4v-7.9l2.2-.6v8.1Z"/>
      <path class="cls-39" d="M45.7,262.2l-5.9,1.6-1.3,13.4-2.2.6,4.8-46,3.3-.9,5,43.4-2.4.6-1.4-12.7ZM45.5,260.4l-1.5-14.3c-.5-4.3-1.1-8.7-1.2-13.2h-.1c-.5,4.6-.7,9.2-1.1,13.8l-1.6,15.1,5.5-1.5Z"/>
      <path class="cls-36" d="M51,229.1l3.6-1,4.1,27.8c.5,3.4,1.2,8.3,2,13.5h.1c-.3-6.1-.6-11.8-.6-14.2v-28.5l2.4-.6v44.7l-3.6,1-4.2-27.4c-.4-2.3-1-8.2-1.7-13.9h-.1c.1,5.8.4,11.4.4,12.9v29.9l-2.4.6v-44.7Z"/>
      <g>
        <path class="cls-85" d="M18.8,439.6c-1.6,0-2.7-.5-3.4-1.4-.7-.9-1-2.2-1-4v-11.5h0s3.2-.9,3.2-.9v11.8c0,2,.7,3,2.3,3h0c.4,0,1,0,1.5-.2,2.9-.8,4.1-2.3,4.1-5.1v-11.1c0-3.3-.6-5.1-1.8-7.8l-7.2-12.2c-1.4-2.3-2.3-5.5-2.3-8.2v-9.4c0-4.2,2.8-7.5,7.2-8.7,1.2-.3,2.2-.5,3.1-.5,2.8,0,4.1,1.5,4.1,4.7v11.6h0s-3.2.9-3.2.9v-11.3c0-2.4-1.1-3.2-3.6-2.6-2.2.6-3.6,2.4-3.6,4.7v10c0,2.1.4,3.9,1.4,5.7l7.1,12.1c1.3,2.3,2.6,5.2,2.6,9.1v12.1c0,4.5-2.5,7.3-7.5,8.7-1.2.3-2.2.5-3.1.5ZM14.6,422.7v11.3c0,1.8.3,3,1,3.9.7.9,1.7,1.4,3.2,1.4s1.9-.2,3-.5c5-1.3,7.3-4,7.3-8.5v-12.1c0-3.8-1.3-6.7-2.6-9l-7.1-12.1c-1-1.9-1.4-3.7-1.4-5.8v-10c0-2.4,1.5-4.3,3.8-4.9.6-.1,1.1-.2,1.5-.2,1.6,0,2.4,1,2.4,3v11l2.9-.8v-11.4c0-3-1.3-4.4-3.9-4.4s-1.9.2-3.1.5c-4.4,1.2-7.1,4.4-7.1,8.5v9.4c0,2.7.9,5.8,2.2,8.1l7.2,12.2c1.3,2.7,1.8,4.5,1.8,7.9v11.1c0,2.9-1.3,4.5-4.3,5.3-.6.2-1.1.2-1.6.2h0c-1.7,0-2.5-1.1-2.5-3.2v-11.5l-2.9.8Z"/>
        <path class="cls-85" d="M30.1,436.5v-.2s7-66.4,7-66.4h0s5-1.3,5-1.3h0c0,.1,7.2,62.7,7.2,62.7l-3.7,1h0c0-.1-2-18.3-2-18.3l-8.3,2.2-1.9,19.3-3.3.9ZM37.3,370.2l-7,66,2.9-.8,1.9-19.3,8.7-2.3h0c0,.1,2,18.3,2,18.3l3.2-.9-7.1-62.3-4.6,1.2ZM35.4,413.6v-.2s2.3-21.7,2.3-21.7c.3-3.3.6-6.7.8-9.9.2-3.3.5-6.6.8-9.9h0c0,0,.4-.2.4-.2h0c.1,5.4.7,10.6,1.3,15.6.1,1.2.3,2.4.4,3.6l2.2,20.7-8.2,2.2ZM39.5,372.2c-.3,3.2-.6,6.4-.8,9.5-.2,3.3-.5,6.6-.8,9.9l-2.2,21.6,7.7-2.1-2.1-20.5c-.1-1.2-.3-2.4-.4-3.6-.6-4.9-1.1-9.9-1.3-15Z"/>
        <path class="cls-85" d="M51.2,430.9v-64.7h0s5.3-1.4,5.3-1.4h0c0,.1,5.9,40.1,5.9,40.1.6,4.5,1.6,11.2,2.8,18.9v-3c-.5-7.5-.8-13.9-.8-17v-41.1h0s3.6-1,3.6-1v64.7l-5.4,1.4h0c0-.1-6-39.6-6-39.6-.4-2.8-1.2-9.2-1.9-16l-.4-3.5c0,4.6.3,9.2.4,12.5.1,2.6.2,4.6.2,5.5v43.1l-3.7,1ZM51.4,366.4v64.2l3.2-.9v-42.9c0-.9,0-2.9-.2-5.5-.1-3.5-.3-8.3-.4-13.1h0c0,0,.4-.2.4-.2h0c0,.1.5,4.2.5,4.2.8,6.8,1.5,13.2,1.9,16l6,39.3,5-1.3v-64.2l-3.2.9v41c0,3,.3,9.5.7,16.9l.2,3.6h-.4c0,.1,0,0,0,0-1.2-7.9-2.2-14.8-2.8-19.4l-5.8-39.9-5,1.3Z"/>
        <path class="cls-44" d="M16.1,432.7c0,2.1.8,3.7,4,2.9,2.9-.8,4.2-2.3,4.2-5.2v-11.1c0-3.4-.6-5.2-1.8-7.8l-7.2-12.2c-1.5-2.5-2.2-5.6-2.2-8.1v-9.4c0-4.2,2.8-7.4,7.2-8.6,4.7-1.2,7.1-.1,7.1,4.1v11.5l-3.1.8v-11.2c0-2.6-1.3-3.3-3.7-2.7-2.4.6-3.7,2.7-3.7,4.8v10c0,2.1.4,3.9,1.4,5.8l7.1,12.1c1.5,2.6,2.6,5.5,2.6,9v12.1c0,4.1-2,7.1-7.4,8.6-5.3,1.4-7.3-.5-7.3-4.9v-11.4l3.1-.8v11.7Z"/>
        <path class="cls-42" d="M42.2,413.1l-8.5,2.3-1.9,19.3-3.1.8,7-66.3,4.8-1.3,7.2,62.5-3.4.9-2-18.3ZM42,410.5l-2.2-20.6c-.7-6.2-1.5-12.5-1.7-19h-.2c-.7,6.7-.9,13.3-1.6,19.9l-2.2,21.7,7.9-2.1Z"/>
        <path class="cls-45" d="M49.8,365.5l5.2-1.4,5.9,40c.7,4.9,1.7,11.9,2.8,19.4h.2c-.4-8.9-.9-17-.9-20.5v-41l3.4-.9v64.4l-5.2,1.4-6-39.4c-.5-3.3-1.5-11.8-2.4-20.1h-.2c.2,8.4.6,16.5.6,18.6v43l-3.4.9v-64.4Z"/>
      </g>
      <g>
        <path class="cls-85" d="M5.8,78.6c-1.6,0-2.7-.5-3.4-1.4-.7-.9-1-2.2-1-4v-11.5h0s3.2-.9,3.2-.9v11.8c0,2,.7,3,2.3,3h0c.4,0,1,0,1.5-.2,2.9-.8,4.1-2.3,4.1-5.1v-11.1c0-3.3-.6-5.1-1.8-7.8l-7.2-12.2c-1.4-2.3-2.3-5.5-2.3-8.2v-9.4c0-4.2,2.8-7.5,7.2-8.7,1.2-.3,2.2-.5,3.1-.5,2.8,0,4.1,1.5,4.1,4.7v11.6h0s-3.2.9-3.2.9v-11.3c0-2.4-1.1-3.2-3.6-2.6-2.2.6-3.6,2.4-3.6,4.7v10c0,2.1.4,3.9,1.4,5.7l7.1,12.1c1.3,2.3,2.6,5.2,2.6,9.1v12.1c0,4.5-2.5,7.3-7.5,8.7-1.2.3-2.2.5-3.1.5ZM1.6,61.7v11.3c0,1.8.3,3,1,3.9.7.9,1.7,1.4,3.2,1.4s1.9-.2,3-.5c5-1.3,7.3-4,7.3-8.5v-12.1c0-3.8-1.3-6.7-2.6-9l-7.1-12.1c-1-1.9-1.4-3.7-1.4-5.8v-10c0-2.4,1.5-4.3,3.8-4.9.6-.1,1.1-.2,1.5-.2,1.6,0,2.4,1,2.4,3v11l2.9-.8v-11.4c0-3-1.3-4.4-3.9-4.4s-1.9.2-3.1.5c-4.4,1.2-7.1,4.4-7.1,8.5v9.4c0,2.7.9,5.8,2.2,8.1l7.2,12.2c1.3,2.7,1.8,4.5,1.8,7.9v11.1c0,2.9-1.3,4.5-4.3,5.3-.6.2-1.1.2-1.6.2h0c-1.7,0-2.5-1.1-2.5-3.2v-11.5l-2.9.8Z"/>
        <path class="cls-85" d="M17.1,75.5v-.2S24.1,9,24.1,9h0s5-1.3,5-1.3h0c0,.1,7.2,62.7,7.2,62.7l-3.7,1h0c0-.1-2-18.3-2-18.3l-8.3,2.2-1.9,19.3-3.3.9ZM24.3,9.2l-7,66,2.9-.8,1.9-19.3,8.7-2.3h0c0,.1,2,18.3,2,18.3l3.2-.9L28.9,7.9l-4.6,1.2ZM22.4,52.6v-.2s2.3-21.7,2.3-21.7c.3-3.3.6-6.7.8-9.9.2-3.3.5-6.6.8-9.9h0c0,0,.4-.2.4-.2h0c.1,5.4.7,10.6,1.3,15.6.1,1.2.3,2.4.4,3.6l2.2,20.7-8.2,2.2ZM26.5,11.2c-.3,3.2-.6,6.4-.8,9.5-.2,3.3-.5,6.6-.8,9.9l-2.2,21.6,7.7-2.1-2.1-20.5c-.1-1.2-.3-2.4-.4-3.6-.6-4.9-1.1-9.9-1.3-15Z"/>
        <path class="cls-85" d="M38.2,69.9V5.2h0s5.3-1.4,5.3-1.4h0c0,.1,5.9,40.1,5.9,40.1.6,4.5,1.6,11.2,2.8,18.9v-3c-.5-7.5-.8-13.9-.8-17V1.7h0s3.6-1,3.6-1v64.7l-5.4,1.4h0c0-.1-6-39.6-6-39.6-.4-2.8-1.2-9.2-1.9-16l-.4-3.5c0,4.6.3,9.2.4,12.5.1,2.6.2,4.6.2,5.5v43.1l-3.7,1ZM38.4,5.4v64.2l3.2-.9V25.8c0-.9,0-2.9-.2-5.5-.1-3.5-.3-8.3-.4-13.1h0c0,0,.4-.2.4-.2h0c0,.1.5,4.2.5,4.2.8,6.8,1.5,13.2,1.9,16l6,39.3,5-1.3V1l-3.2.9v41c0,3,.3,9.5.7,16.9l.2,3.6h-.4c0,.1,0,0,0,0-1.2-7.9-2.2-14.8-2.8-19.4l-5.8-39.9-5,1.3Z"/>
        <path class="cls-43" d="M3.1,71.7c0,2.1.8,3.7,4,2.9,2.9-.8,4.2-2.3,4.2-5.2v-11.1c0-3.4-.6-5.2-1.8-7.8l-7.2-12.2c-1.5-2.5-2.2-5.6-2.2-8.1v-9.4c0-4.2,2.8-7.4,7.2-8.6,4.7-1.2,7.1-.1,7.1,4.1v11.5l-3.1.8v-11.2c0-2.6-1.3-3.3-3.7-2.7-2.4.6-3.7,2.7-3.7,4.8v10c0,2.1.4,3.9,1.4,5.8l7.1,12.1c1.5,2.6,2.6,5.5,2.6,9v12.1c0,4.1-2,7.1-7.4,8.6-5.3,1.4-7.3-.5-7.3-4.9v-11.4l3.1-.8v11.7Z"/>
        <path class="cls-41" d="M29.2,52.1l-8.5,2.3-1.9,19.3-3.1.8L22.7,8.2l4.8-1.3,7.2,62.5-3.4.9-2-18.3ZM29,49.5l-2.2-20.6c-.7-6.2-1.5-12.5-1.7-19h-.2c-.7,6.7-.9,13.3-1.6,19.9l-2.2,21.7,7.9-2.1Z"/>
        <path class="cls-40" d="M36.8,4.5l5.2-1.4,5.9,40c.7,4.9,1.7,11.9,2.8,19.4h.2c-.4-8.9-.9-17-.9-20.5V.9l3.4-.9v64.4l-5.2,1.4-6-39.4c-.5-3.3-1.5-11.8-2.4-20.1h-.2c.2,8.4.6,16.5.6,18.6v43l-3.4.9V4.5Z"/>
      </g>
      <line class="cls-13" x1="25.7" y1="285.6" x2="64" y2="275.3"/>
      <line class="cls-13" x1="25.5" y1="232.1" x2="63.2" y2="221.9"/>
      <text class="cls-30" transform="translate(462.4 595.7)"><tspan x="0" y="0">DERKY SÁNCHEZ</tspan></text>
      <text class="cls-3" transform="translate(545.8 619.7)"><tspan x="0" y="0">DESARROLLADOR WEB</tspan></text>
      <text class="cls-31" transform="translate(404.7 716)"><tspan class="cls-86"><tspan x="0" y="0">Desarrollo web profesional </tspan></tspan><tspan class="cls-86"><tspan x="21.5" y="48">para soluciones digitales </tspan></tspan><tspan class="cls-35"><tspan x="-88.2" y="96">eficientes, funcionales e innovadoras. </tspan></tspan></text>
      <g>
        <path class="cls-80" d="M365.3,992.1v-2.3h11.4v2.3h-4.4v13.4h-2.6v-13.4h-4.4Z"/>
        <path class="cls-81" d="M378.8,1005.5v-15.6h9.9v2.2h-7.3v4.4h6v2.2h-6v4.6h7.3v2.2h-9.9Z"/>
        <path class="cls-82" d="M396.5,1005.7c-2.3,0-3.8-.6-4.6-1.9-.8-1.3-1.2-3.3-1.2-6.2s.4-4.9,1.2-6.2,2.4-1.8,4.6-1.8,2.8.2,4.5.6v2.1c-1.5-.2-2.8-.4-4.2-.4s-2.3.4-2.8,1.2c-.5.8-.7,2.3-.7,4.6s.2,3.8.7,4.6c.5.8,1.4,1.2,2.8,1.2s2.8-.1,4.1-.3v2.1c-1.5.3-3,.5-4.4.5Z"/>
        <path class="cls-76" d="M412.9,1005.5v-6.7h-6.7v6.7h-2.5v-15.6h2.5v6.7h6.7v-6.7h2.6v15.6h-2.6Z"/>
        <path class="cls-77" d="M428.7,991.8c-1.9,0-2.9.7-2.9,2s.2,1.2.7,1.5c.5.3,1.5.7,3,1.1,1.6.4,2.7.9,3.3,1.5.6.6,1,1.5,1,2.8s-.5,2.9-1.4,3.7c-.9.8-2.2,1.2-3.8,1.2s-2.7-.2-4.3-.5l-.8-.2.3-2c2.1.3,3.6.4,4.7.4,1.9,0,2.8-.8,2.8-2.5s-.2-1.1-.6-1.4c-.4-.3-1.4-.7-2.9-1-1.5-.4-2.6-.9-3.3-1.5-.7-.7-1.1-1.7-1.1-3.1s.5-2.5,1.4-3.2c.9-.7,2.2-1.1,3.8-1.1s2.6.1,4.1.4h.8c0,.1-.2,2.2-.2,2.2-2.1-.2-3.6-.4-4.5-.4Z"/>
        <path class="cls-78" d="M435,992.1v-2.3h11.4v2.3h-4.4v13.4h-2.6v-13.4h-4.4Z"/>
        <path class="cls-79" d="M446.2,1005.5l3.9-15.6h5l3.9,15.6h-2.6l-.8-3.4h-6l-.8,3.4h-2.5ZM452,992l-1.9,7.9h5l-1.9-7.9h-1.1Z"/>
        <path class="cls-74" d="M466.2,1005.7c-2.3,0-3.8-.6-4.6-1.9-.8-1.3-1.2-3.3-1.2-6.2s.4-4.9,1.2-6.2,2.4-1.8,4.6-1.8,2.8.2,4.5.6v2.1c-1.5-.2-2.8-.4-4.2-.4s-2.3.4-2.8,1.2c-.5.8-.7,2.3-.7,4.6s.2,3.8.7,4.6c.5.8,1.4,1.2,2.8,1.2s2.8-.1,4.1-.3v2.1c-1.5.3-3,.5-4.4.5Z"/>
        <path class="cls-75" d="M475.9,1005.5h-2.5v-15.6h2.5v7l2.3-.2,3.2-6.9h2.9l-3.9,7.8,4,7.8h-2.9l-3.3-6.5-2.3.2v6.4Z"/>
      </g>
      <g>
        <circle class="cls-17" cx="564.6" cy="996.5" r="21.3"/>
        <rect class="cls-17" x="543.2" y="975.1" width="42.7" height="42.7"/>
      </g>
      <g>
        <circle class="cls-17" cx="629.9" cy="996.5" r="21.3"/>
        <rect class="cls-17" x="608.5" y="975.1" width="42.7" height="42.7"/>
      </g>
      <g>
        <circle class="cls-17" cx="695.2" cy="996.5" r="21.3"/>
        <rect class="cls-17" x="673.8" y="975.1" width="42.7" height="42.7"/>
      </g>
      <g>
        <circle class="cls-17" cx="760.5" cy="996.5" r="21.3"/>
        <rect class="cls-17" x="739.1" y="975.1" width="42.7" height="42.7"/>
      </g>
      <g>
        <circle class="cls-17" cx="825.8" cy="996.5" r="21.3"/>
        <rect class="cls-17" x="804.4" y="975.1" width="42.7" height="42.7"/>
      </g>
      <g>
        <circle class="cls-17" cx="891.1" cy="996.5" r="21.3"/>
        <rect class="cls-17" x="869.7" y="975.1" width="42.7" height="42.7"/>
      </g>
      <line class="cls-11" x1="513.1" y1="968.8" x2="513.1" y2="1026.6"/>
      <g>
        <circle class="cls-15" cx="101.5" cy="1585.1" r="21"/>
        <rect class="cls-15" x="80.5" y="1564.1" width="42" height="42"/>
      </g>
      <g>
        <circle class="cls-15" cx="41.5" cy="1585.1" r="21"/>
        <rect class="cls-15" x="20.5" y="1564.1" width="42" height="42"/>
      </g>
    </g>
  </g>
</svg>